<svg width="185" height="105" viewBox="0 0 185 105" fill="none" xmlns="http://www.w3.org/2000/svg">
<g clip-path="url(#clip0_253_987)">
<path d="M115.704 38.6968C113.278 38.6948 110.894 38.0581 108.79 36.85L102.417 38.0812L103.649 31.7017C102.364 29.4543 101.733 26.8925 101.828 24.3055C101.922 21.7185 102.738 19.2095 104.183 17.0618C105.628 14.9141 107.645 13.2133 110.006 12.1515C112.367 11.0897 114.978 10.7091 117.544 11.0529C120.11 11.3966 122.528 12.4509 124.526 14.0967C126.524 15.7426 128.023 17.9143 128.851 20.3667C129.68 22.8191 129.807 25.4544 129.217 27.975C128.628 30.4956 127.345 32.801 125.514 34.631C124.226 35.9201 122.697 36.9428 121.014 37.6405C119.33 38.3381 117.526 38.6971 115.704 38.6968ZM108.98 35.7811L109.142 35.8825C111.599 37.341 114.472 37.9392 117.307 37.5827C120.142 37.2262 122.777 35.9353 124.797 33.9139C126.493 32.2124 127.679 30.0694 128.219 27.7281C128.759 25.3868 128.632 22.9409 127.853 20.6681C127.073 18.3952 125.672 16.3863 123.809 14.8695C121.945 13.3526 119.694 12.3884 117.31 12.0863C114.926 11.7843 112.506 12.1564 110.323 13.1605C108.14 14.1647 106.282 15.7606 104.96 17.7671C103.638 19.7737 102.906 22.1106 102.845 24.5127C102.784 26.9147 103.398 29.2857 104.616 31.3567L104.718 31.519L103.696 36.8094L108.98 35.7811Z" fill="#407BFF"/>
<g opacity="0.5">
<path d="M115.704 38.6968C113.278 38.6948 110.894 38.0581 108.79 36.85L102.417 38.0812L103.649 31.7017C102.364 29.4543 101.733 26.8925 101.828 24.3055C101.922 21.7185 102.738 19.2095 104.183 17.0618C105.628 14.9141 107.645 13.2133 110.006 12.1515C112.367 11.0897 114.978 10.7091 117.544 11.0529C120.11 11.3966 122.528 12.4509 124.526 14.0967C126.524 15.7426 128.023 17.9143 128.851 20.3667C129.68 22.8191 129.807 25.4544 129.217 27.975C128.628 30.4956 127.345 32.801 125.514 34.631C124.226 35.9201 122.697 36.9428 121.014 37.6405C119.33 38.3381 117.526 38.6971 115.704 38.6968ZM108.98 35.7811L109.142 35.8825C111.599 37.341 114.472 37.9392 117.307 37.5827C120.142 37.2262 122.777 35.9353 124.797 33.9139C126.493 32.2124 127.679 30.0694 128.219 27.7281C128.759 25.3868 128.632 22.9409 127.853 20.6681C127.073 18.3952 125.672 16.3863 123.809 14.8695C121.945 13.3526 119.694 12.3884 117.31 12.0863C114.926 11.7843 112.506 12.1564 110.323 13.1605C108.14 14.1647 106.282 15.7606 104.96 17.7671C103.638 19.7737 102.906 22.1106 102.845 24.5127C102.784 26.9147 103.398 29.2857 104.616 31.3567L104.718 31.519L103.696 36.8094L108.98 35.7811Z" fill="white"/>
</g>
<path d="M114.865 31.9533L107.369 23.7405C107.106 23.4231 106.979 23.0146 107.016 22.6041C107.053 22.1936 107.25 21.8142 107.565 21.5486C107.709 21.4037 107.879 21.2888 108.068 21.2103C108.256 21.1319 108.457 21.0915 108.661 21.0915C108.865 21.0915 109.067 21.1319 109.255 21.2103C109.443 21.2888 109.614 21.4037 109.757 21.5486L115.251 27.5695L127.976 15.8726C128.267 15.5834 128.661 15.4211 129.072 15.4211C129.482 15.4211 129.876 15.5834 130.168 15.8726C130.431 16.19 130.558 16.5984 130.521 17.0089C130.484 17.4195 130.287 17.7989 129.971 18.0645L114.865 31.9533Z" fill="#407BFF"/>
<path d="M165.078 81.0731C173.904 72.2463 173.904 57.9353 165.078 49.1086C156.251 40.2818 141.94 40.2818 133.113 49.1086C124.286 57.9353 124.286 72.2463 133.113 81.0731C141.94 89.8998 156.251 89.8998 165.078 81.0731Z" fill="#407BFF"/>
<path opacity="0.5" d="M165.078 81.0731C173.904 72.2463 173.904 57.9353 165.078 49.1086C156.251 40.2818 141.94 40.2818 133.113 49.1086C124.286 57.9353 124.286 72.2463 133.113 81.0731C141.94 89.8998 156.251 89.8998 165.078 81.0731Z" fill="white"/>
<path d="M123.418 65.0939C123.411 60.0065 124.914 55.0316 127.736 50.7988C130.559 46.5661 134.573 43.2658 139.272 41.3159C143.971 39.366 149.143 38.854 154.132 39.8449C159.122 40.8357 163.706 43.2848 167.303 46.8821C170.901 50.4794 173.35 55.0631 174.341 60.0531C175.332 65.043 174.82 70.2147 172.87 74.9135C170.92 79.6123 167.619 83.6269 163.387 86.4492C159.154 89.2714 154.179 90.7742 149.092 90.7676C142.285 90.7586 135.76 88.0508 130.948 83.238C126.135 78.4252 123.427 71.9002 123.418 65.0939ZM124.25 65.0939C124.251 70.0068 125.709 74.809 128.44 78.8933C131.17 82.9776 135.051 86.1605 139.59 88.0397C144.129 89.9188 149.124 90.4098 153.942 89.4505C158.761 88.4912 163.186 86.1248 166.66 82.6504C170.133 79.1759 172.498 74.7496 173.456 69.931C174.414 65.1124 173.922 60.1179 172.042 55.5791C170.161 51.0403 166.977 47.1609 162.892 44.4316C158.807 41.7023 154.005 40.2455 149.092 40.2455C142.504 40.2527 136.189 42.8731 131.532 47.5318C126.874 52.1904 124.255 58.5065 124.25 65.0939Z" fill="#407BFF"/>
<g opacity="0.5">
<path d="M123.42 65.0939C123.413 60.0065 124.916 55.0316 127.738 50.7988C130.561 46.5661 134.575 43.2658 139.274 41.3159C143.973 39.366 149.145 38.854 154.134 39.8449C159.124 40.8357 163.708 43.2848 167.305 46.8821C170.903 50.4794 173.352 55.0631 174.343 60.0531C175.333 65.043 174.822 70.2147 172.872 74.9135C170.922 79.6123 167.621 83.6269 163.389 86.4492C159.156 89.2714 154.181 90.7742 149.094 90.7676C142.287 90.7586 135.762 88.0508 130.949 83.238C126.137 78.4252 123.429 71.9002 123.42 65.0939ZM124.252 65.0939C124.253 70.0068 125.711 74.809 128.442 78.8933C131.172 82.9776 135.053 86.1605 139.592 88.0397C144.131 89.9188 149.126 90.4098 153.944 89.4505C158.762 88.4912 163.188 86.1248 166.662 82.6504C170.135 79.1759 172.5 74.7496 173.458 69.931C174.416 65.1124 173.924 60.1179 172.044 55.5791C170.163 51.0403 166.979 47.1609 162.894 44.4316C158.809 41.7023 154.007 40.2455 149.094 40.2455C142.506 40.2527 136.191 42.8731 131.534 47.5318C126.876 52.1904 124.257 58.5065 124.252 65.0939Z" fill="white"/>
</g>
<path d="M135.223 80.0603C137.104 77.8481 145.262 78.5855 145.262 78.5855L153.238 77.821C159.78 76.468 163.21 78.2743 165.301 80.7638L165.334 80.8044C161.313 84.9824 155.839 87.4534 150.045 87.7053C144.252 87.9571 138.584 85.9707 134.215 82.1575C134.416 81.4012 134.758 80.6897 135.223 80.0603Z" fill="#263238"/>
<path d="M141.135 50.9014C141.135 50.9014 136.4 51.3343 139.282 57.8153L142.542 55.9346L143.07 52.0041L141.135 50.9014Z" fill="#263238"/>
<path opacity="0.6" d="M141.135 50.9014C141.135 50.9014 136.4 51.3343 139.282 57.8153L142.542 55.9346L143.07 52.0041L141.135 50.9014Z" fill="black"/>
<path d="M154.275 77.8742C153.504 79.4302 151.373 82.143 145.731 82.143C142.314 82.143 142.071 80.7359 143.086 79.1461C146.4 77.536 146.421 74.2752 145.535 71.4541L152.915 64.3643C152.428 67.9971 152.09 74.2752 154.079 77.448C154.161 77.582 154.226 77.7251 154.275 77.8742Z" fill="#FFC3BD"/>
<path opacity="0.2" d="M149.912 67.2529L145.568 71.4473C145.783 72.1753 145.936 72.9198 146.028 73.673C147.747 73.3213 149.891 71.7247 150.46 69.7831C150.798 68.606 150.365 67.3815 149.912 67.2529Z" fill="black"/>
<path d="M154.093 58.3902C153.707 63.9174 153.017 67.1849 150.196 69.9722C145.961 74.2004 139.893 71.589 138.635 66.0754C137.498 61.0692 138.337 52.897 143.763 50.7524C144.683 50.3837 145.667 50.1999 146.658 50.2115C147.65 50.223 148.629 50.4298 149.541 50.8199C150.452 51.21 151.278 51.7759 151.971 52.4851C152.664 53.1944 153.21 54.0332 153.579 54.9536C154.019 56.0425 154.195 57.2202 154.093 58.3902Z" fill="#FFC3BD"/>
<path d="M145.431 59.9065C145.431 60.3597 145.188 60.7183 144.89 60.7183C144.593 60.7183 144.363 60.3462 144.369 59.8929C144.376 59.4397 144.613 59.0879 144.91 59.0879C145.208 59.0879 145.438 59.46 145.431 59.9065Z" fill="#263238"/>
<path d="M140.344 59.8586C140.344 60.305 140.1 60.6636 139.802 60.6636C139.505 60.6636 139.275 60.2915 139.281 59.845C139.288 59.3985 139.525 59.0332 139.823 59.0332C140.12 59.0332 140.35 59.4053 140.344 59.8586Z" fill="#263238"/>
<path d="M142.233 60.0479C141.678 61.4149 140.94 62.7006 140.041 63.8701C140.348 64.0913 140.699 64.2438 141.07 64.3174C141.441 64.3909 141.824 64.3837 142.192 64.2964L142.233 60.0479Z" fill="#ED847E"/>
<path d="M147.197 57.8155C147.242 57.8225 147.288 57.8225 147.332 57.8155C147.385 57.7707 147.42 57.7082 147.43 57.6397C147.44 57.5712 147.424 57.5014 147.387 57.4434C147.143 57.1007 146.822 56.8207 146.449 56.6267C146.076 56.4326 145.662 56.3299 145.242 56.3271C145.178 56.3406 145.122 56.3765 145.082 56.4282C145.043 56.48 145.024 56.5441 145.028 56.609C145.032 56.6738 145.059 56.7351 145.105 56.7814C145.15 56.8278 145.211 56.8563 145.276 56.8616C145.607 56.8684 145.932 56.9527 146.224 57.1078C146.517 57.2629 146.769 57.4844 146.96 57.7546C146.992 57.7831 147.03 57.8035 147.071 57.8141C147.112 57.8247 147.156 57.8252 147.197 57.8155Z" fill="#263238"/>
<path d="M138.391 57.7822C138.435 57.7796 138.477 57.7649 138.513 57.7398C138.549 57.7148 138.577 57.6803 138.594 57.6402C138.733 57.3411 138.94 57.0787 139.198 56.8743C139.457 56.6698 139.76 56.5289 140.083 56.463C140.117 56.459 140.151 56.4482 140.181 56.4313C140.212 56.4143 140.239 56.3915 140.26 56.3642C140.282 56.3369 140.298 56.3056 140.308 56.272C140.317 56.2385 140.32 56.2034 140.316 56.1687C140.312 56.1341 140.301 56.1006 140.284 56.0701C140.267 56.0396 140.245 56.0128 140.217 55.9911C140.19 55.9694 140.159 55.9533 140.125 55.9438C140.091 55.9342 140.056 55.9313 140.022 55.9353C139.608 56.0109 139.219 56.1841 138.886 56.4406C138.553 56.6972 138.286 57.0296 138.107 57.4101C138.091 57.4397 138.081 57.4723 138.077 57.506C138.074 57.5396 138.078 57.5735 138.088 57.6058C138.098 57.638 138.114 57.6679 138.136 57.6935C138.158 57.7192 138.185 57.7402 138.215 57.7552C138.269 57.7861 138.331 57.7957 138.391 57.7822Z" fill="#263238"/>
<path d="M152.935 62.8697C152.935 62.8697 150.412 63.262 150.568 62.1931C150.723 61.1243 152.036 57.4914 151.752 55.9219C151.616 55.1912 150.838 53.7367 150.175 53.4052C147.753 52.1875 129.203 55.1236 144.371 44.2588V45.6727C144.371 45.6727 147.402 43.5823 148.051 44.3197C148.531 44.8609 146.739 46.8972 146.739 46.8972C146.739 46.8972 150.71 44.712 151.305 45.7336C151.691 46.4101 149.194 47.939 149.194 47.939C149.194 47.939 167.054 52.9858 152.935 62.8697Z" fill="#263238"/>
<path d="M142.185 64.681C142.185 64.681 147.597 63.7069 147.387 65.6417C147.178 67.5765 146.278 72.8263 144.323 72.8263C143.504 72.8263 143.991 72.0686 143.991 72.0686C143.477 72.4938 142.849 72.7574 142.185 72.8263C141.387 72.8263 142.104 71.6762 142.104 71.6762C142.104 71.6762 141.13 72.5827 140.318 72.3527C139.98 72.2648 140.406 71.7168 140.155 70.9523C139.56 69.1393 138.539 66.1085 138.802 65.1749C139.235 63.8692 142.185 64.681 142.185 64.681Z" fill="#263238"/>
<path opacity="0.5" d="M142.185 64.681C142.185 64.681 147.597 63.7069 147.387 65.6417C147.178 67.5765 146.278 72.8263 144.323 72.8263C143.504 72.8263 143.991 72.0686 143.991 72.0686C143.477 72.4938 142.849 72.7574 142.185 72.8263C141.387 72.8263 142.104 71.6762 142.104 71.6762C142.104 71.6762 141.13 72.5827 140.318 72.3527C139.98 72.2648 140.406 71.7168 140.155 70.9523C139.56 69.1393 138.539 66.1085 138.802 65.1749C139.235 63.8692 142.185 64.681 142.185 64.681Z" fill="white"/>
<path d="M140.31 65.6695C142.159 65.6012 144.011 65.6917 145.844 65.9401C145.235 66.9752 144.234 67.7667 142.171 67.5367C140.107 67.3066 140.31 65.6695 140.31 65.6695Z" fill="white"/>
<path opacity="0.5" d="M158.09 57.1928C157.62 58.3896 156.895 59.4699 155.966 60.3589C154.342 60.5446 152.7 60.2629 151.23 59.5471C151.467 58.6976 151.639 57.8315 151.745 56.9561C155.29 57.6055 157.164 57.4364 158.09 57.1928Z" fill="white"/>
<path d="M156.745 63.573C155.988 64.7411 154.802 65.5647 153.444 65.8664C151.637 66.2385 150.853 64.5946 151.461 62.9506C152.003 61.4826 153.599 59.5004 155.358 59.859C157.117 60.2175 157.658 62.1253 156.745 63.573Z" fill="#FFC3BD"/>
<path d="M60.1878 48.015C63.0553 35.8658 55.531 23.6925 43.3819 20.8251C31.2328 17.9576 19.0594 25.4819 16.192 37.631C13.3245 49.7801 20.8488 61.9534 32.9979 64.8209C45.147 67.6883 57.3204 60.1641 60.1878 48.015Z" fill="#407BFF"/>
<path opacity="0.5" d="M60.1878 48.015C63.0553 35.8658 55.531 23.6925 43.3819 20.8251C31.2328 17.9576 19.0594 25.4819 16.192 37.631C13.3245 49.7801 20.8488 61.9534 32.9979 64.8209C45.147 67.6883 57.3204 60.1641 60.1878 48.015Z" fill="white"/>
<path d="M38.1965 68.5058C33.1202 68.4991 28.1598 66.9877 23.9422 64.1626C19.7246 61.3375 16.4392 57.3255 14.5012 52.6336C12.5633 47.9418 12.0597 42.7807 13.0541 37.8027C14.0485 32.8248 16.4964 28.2533 20.0883 24.6662C23.6801 21.079 28.2548 18.6372 33.2341 17.6493C38.2134 16.6614 43.3738 17.1718 48.063 19.116C52.7523 21.0602 56.76 24.3508 59.5796 28.5721C62.3991 32.7934 63.904 37.7558 63.904 42.8321C63.8951 49.6443 61.1827 56.1744 56.3625 60.9882C51.5424 65.802 45.0087 68.5058 38.1965 68.5058ZM38.1965 17.9905C33.2811 17.9879 28.4754 19.4431 24.3871 22.1721C20.2989 24.9012 17.1119 28.7814 15.2294 33.322C13.3468 37.8626 12.8531 42.8596 13.8109 47.6808C14.7687 52.5019 17.1349 56.9307 20.6102 60.4069C24.0854 63.8831 28.5136 66.2505 33.3345 67.2096C38.1554 68.1687 43.1525 67.6765 47.6936 65.7951C52.2347 63.9138 56.1158 60.7279 58.846 56.6404C61.5761 52.5529 63.0327 47.7475 63.0313 42.8321C63.0242 36.2471 60.4056 29.9337 55.7499 25.2768C51.0942 20.6198 44.7815 17.9995 38.1965 17.9905Z" fill="#407BFF"/>
<g opacity="0.5">
<path d="M38.1965 68.5058C33.1202 68.4991 28.1598 66.9877 23.9422 64.1626C19.7246 61.3375 16.4392 57.3255 14.5012 52.6336C12.5633 47.9418 12.0597 42.7807 13.0541 37.8027C14.0485 32.8248 16.4964 28.2533 20.0883 24.6662C23.6801 21.079 28.2548 18.6372 33.2341 17.6493C38.2134 16.6614 43.3738 17.1718 48.063 19.116C52.7523 21.0602 56.76 24.3508 59.5796 28.5721C62.3991 32.7934 63.904 37.7558 63.904 42.8321C63.8951 49.6443 61.1827 56.1744 56.3625 60.9882C51.5424 65.802 45.0087 68.5058 38.1965 68.5058ZM38.1965 17.9905C33.2811 17.9879 28.4754 19.4431 24.3871 22.1721C20.2989 24.9012 17.1119 28.7814 15.2294 33.322C13.3468 37.8626 12.8531 42.8596 13.8109 47.6808C14.7687 52.5019 17.1349 56.9307 20.6102 60.4069C24.0854 63.8831 28.5136 66.2505 33.3345 67.2096C38.1554 68.1687 43.1525 67.6765 47.6936 65.7951C52.2347 63.9138 56.1158 60.7279 58.846 56.6404C61.5761 52.5529 63.0327 47.7475 63.0313 42.8321C63.0242 36.2471 60.4056 29.9337 55.7499 25.2768C51.0942 20.6198 44.7815 17.9995 38.1965 17.9905Z" fill="white"/>
</g>
<path d="M38.1954 65.4333C42.8516 65.4393 47.3948 63.9997 51.198 61.3133C50.2238 58.4382 49.0061 54.9744 48.2416 53.3372C46.4962 49.5623 44.487 48.3581 29.4007 48.2363C22.3514 48.1754 20.1122 51.8827 19.7266 55.8539C21.8103 58.8156 24.5763 61.2322 27.7909 62.8995C31.0054 64.5669 34.5741 65.4359 38.1954 65.4333Z" fill="#407BFF"/>
<path opacity="0.8" d="M38.1954 65.4333C42.8516 65.4393 47.3948 63.9997 51.198 61.3133C50.2238 58.4382 49.0061 54.9744 48.2416 53.3372C46.4962 49.5623 44.487 48.3581 29.4007 48.2363C22.3514 48.1754 20.1122 51.8827 19.7266 55.8539C21.8103 58.8156 24.5763 61.2322 27.7909 62.8995C31.0054 64.5669 34.5741 65.4359 38.1954 65.4333Z" fill="white"/>
<path d="M45.834 26.9944C45.834 26.9944 49.7036 26.4735 48.31 24.2478C48.2766 24.1938 48.2271 24.1517 48.1685 24.1273C48.11 24.1028 48.0452 24.0973 47.9833 24.1114C47.9215 24.1256 47.8656 24.1587 47.8235 24.2062C47.7814 24.2537 47.7552 24.3132 47.7485 24.3763C47.6823 24.9408 47.4712 25.4785 47.1357 25.9373C46.8003 26.3961 46.3518 26.7602 45.834 26.9944Z" fill="#263238"/>
<path d="M32.7311 21.1826C32.7311 21.1826 27.319 21.9403 28.3338 18.4021C28.3609 18.3178 28.4132 18.2439 28.4837 18.1902C28.5542 18.1366 28.6394 18.1059 28.7279 18.1022C28.8164 18.0985 28.9038 18.122 28.9785 18.1696C29.0532 18.2172 29.1115 18.2865 29.1456 18.3683C29.4506 19.1062 29.9409 19.7529 30.569 20.2459C31.1972 20.739 31.9418 21.0616 32.7311 21.1826Z" fill="#263238"/>
<path d="M31.7487 34.9495C31.7487 34.9495 29.7191 40.0571 27.1687 37.4187C27.1063 37.3543 27.0655 37.2721 27.0519 37.1835C27.0383 37.0949 27.0525 37.0042 27.0926 36.924C27.1327 36.8439 27.1967 36.7781 27.2757 36.7358C27.3548 36.6936 27.4451 36.6769 27.534 36.6881C28.3268 36.7861 29.1315 36.6776 29.8699 36.3729C30.6084 36.0683 31.2556 35.578 31.7487 34.9495Z" fill="#263238"/>
<path d="M37.6958 20.195C37.6958 20.195 41.9511 19.6538 40.8822 16.4877C39.8133 13.3217 38.7241 11.5086 39.1165 9.54671C39.1165 9.54671 38.0882 9.64818 38.1964 11.3598C38.1964 11.3598 37.0464 7.53746 33.7788 7.83513C30.5112 8.13279 31.6681 11.0553 28.9485 10.6562C28.9485 10.6562 30.058 11.9077 31.2148 10.8524C31.2148 10.8524 30.9104 13.1187 27.9473 11.8604C28.4934 12.2865 28.9394 12.8271 29.2538 13.4443C29.5682 14.0615 29.7434 14.7401 29.7671 15.4324C29.8144 19.3562 29.7671 21.7781 32.4731 20.8445L37.6958 20.195Z" fill="#263238"/>
<path d="M31.9124 22.2648C31.9124 22.2648 30.4309 20.0796 35.1056 19.4843C39.7803 18.889 39.2323 20.9253 39.2323 20.9253L31.9124 22.2648Z" fill="#407BFF"/>
<path d="M31.1613 37.1018C31.6551 40.7212 32.0475 45.9912 29.4023 48.2372C32.6769 50.3699 35.5584 53.0523 37.9197 56.166C38.003 56.2736 38.1069 56.3638 38.2252 56.4313C38.3434 56.4987 38.4739 56.5422 38.609 56.5592C38.7441 56.5761 38.8813 56.5663 39.0126 56.5301C39.1439 56.494 39.2667 56.4323 39.3742 56.3486C39.4699 56.2801 39.5505 56.1926 39.6109 56.0915C42.6755 51.2612 40.5378 48.8934 40.5378 48.8934C38.2038 48.3725 38.5082 46.2956 39.3336 43.5558L31.1613 37.1018Z" fill="#7F3E3B"/>
<path opacity="0.2" d="M33.4201 39.8948L37.9528 42.4452L39.3532 43.575C38.9077 44.7089 38.7027 45.923 38.7511 47.1402C35.7879 46.2811 32.3918 42.3302 33.4201 39.8948Z" fill="black"/>
<path d="M31.2825 28.6249C30.3286 34.5579 29.8009 37.0745 32.0807 40.6939C35.5107 46.2075 43.0064 46.106 45.7057 40.5518C48.1209 35.5794 49.3251 26.7171 44.0889 23.0978C42.9442 22.2938 41.6125 21.7965 40.221 21.6535C38.8295 21.5105 37.4246 21.7264 36.1403 22.2807C34.856 22.835 33.7351 23.7092 32.8847 24.8198C32.0343 25.9304 31.4826 27.2405 31.2825 28.6249Z" fill="#7F3E3B"/>
<path d="M40.2665 32.2705C40.165 32.7441 40.3274 33.1838 40.6385 33.2583C40.9497 33.3327 41.3151 33.0012 41.3963 32.5209C41.4774 32.0405 41.3421 31.6076 41.0242 31.5331C40.7062 31.4587 40.3747 31.7902 40.2665 32.2705Z" fill="#263238"/>
<path d="M45.6519 33.4755C45.5437 33.9558 45.7128 34.4023 46.024 34.4699C46.3352 34.5376 46.7005 34.2061 46.7817 33.7325C46.8629 33.259 46.7208 32.8125 46.4164 32.7381C46.1119 32.6636 45.7601 33.0019 45.6519 33.4755Z" fill="#263238"/>
<path d="M46.2676 32.7514L47.4718 32.677C47.4718 32.677 46.6938 33.4279 46.2676 32.7514Z" fill="#263238"/>
<path d="M42.4115 39.4759C42.6481 39.5222 42.8878 39.5516 43.1286 39.5638C43.1657 39.5557 43.1984 39.5336 43.2197 39.5022C43.2411 39.4707 43.2497 39.4323 43.2436 39.3947C43.2369 39.3668 43.2226 39.3413 43.2023 39.321C43.182 39.3007 43.1565 39.2864 43.1286 39.2797C42.5186 39.2643 41.9207 39.1064 41.3827 38.8186C40.8447 38.5308 40.3815 38.1211 40.0302 37.6222C40.0217 37.6059 40.0099 37.5914 39.9957 37.5797C39.9814 37.568 39.9649 37.5593 39.9471 37.5543C39.9294 37.5492 39.9108 37.5478 39.8925 37.5502C39.8742 37.5526 39.8566 37.5587 39.8407 37.5681C39.8085 37.5878 39.7849 37.6191 39.7749 37.6555C39.7648 37.692 39.769 37.7309 39.7866 37.7643C40.0866 38.2114 40.4737 38.5934 40.9247 38.8875C41.3757 39.1816 41.8814 39.3817 42.4115 39.4759Z" fill="#263238"/>
<path d="M39.9075 28.2261C39.9565 28.2624 40.0158 28.2819 40.0767 28.2819C40.1376 28.2819 40.1969 28.2624 40.2458 28.2261C41.3418 27.4752 42.9519 28.0502 42.9519 28.057C43.0211 28.0743 43.0944 28.0655 43.1576 28.0323C43.2208 27.9991 43.2696 27.9438 43.2947 27.8769C43.3197 27.81 43.3194 27.7363 43.2936 27.6697C43.2678 27.6031 43.2184 27.5483 43.1548 27.5158C43.0736 27.5158 41.247 26.8393 39.9143 27.7526C39.8523 27.7963 39.8098 27.8624 39.7959 27.937C39.782 28.0116 39.7978 28.0886 39.8399 28.1517C39.8561 28.1816 39.8793 28.2072 39.9075 28.2261Z" fill="#263238"/>
<path d="M47.8759 31.3439C47.9139 31.3936 47.9673 31.4293 48.0277 31.4456C48.0882 31.4619 48.1523 31.4577 48.2101 31.4338C48.268 31.4099 48.3163 31.3676 48.3476 31.3134C48.3789 31.2592 48.3915 31.1962 48.3833 31.1342C48.3364 30.6809 48.181 30.2457 47.9301 29.8653C47.6793 29.4849 47.3405 29.1706 46.9423 28.949C46.8741 28.9158 46.7956 28.9111 46.7239 28.9358C46.6522 28.9606 46.5933 29.0128 46.5601 29.0809C46.5269 29.1491 46.5222 29.2277 46.5469 29.2994C46.5716 29.3711 46.6238 29.43 46.692 29.4632C47.0031 29.6448 47.2665 29.8978 47.4606 30.2013C47.6546 30.5048 47.7738 30.85 47.8083 31.2086C47.8211 31.2579 47.8442 31.304 47.8759 31.3439Z" fill="#263238"/>
<path d="M40.8828 31.5269L42.087 31.4592C42.087 31.4592 41.3158 32.2237 40.8828 31.5269Z" fill="#263238"/>
<path d="M43.6539 33.7043C43.863 34.9754 44.2526 36.2101 44.8108 37.371C44.4868 37.5024 44.139 37.5649 43.7896 37.5544C43.4402 37.5439 43.0968 37.4607 42.7812 37.3102L43.6539 33.7043Z" fill="#630F0F"/>
<path d="M42.9587 33.1975C42.9098 33.4725 42.8073 33.7351 42.6569 33.9705C42.5066 34.2058 42.3113 34.4092 42.0823 34.5691C41.8534 34.729 41.5951 34.8422 41.3224 34.9023C41.0497 34.9624 40.7678 34.9681 40.4928 34.9193C40.2178 34.8704 39.9552 34.7679 39.7199 34.6175C39.4845 34.4671 39.2811 34.2719 39.1212 34.0429C38.9614 33.8139 38.8482 33.5557 38.7881 33.283C38.728 33.0102 38.7222 32.7283 38.7711 32.4534L42.9587 33.1975Z" fill="#407BFF"/>
<path d="M48.1482 34.1048C48.0993 34.3797 47.9967 34.6424 47.8464 34.8777C47.696 35.113 47.5008 35.3165 47.2718 35.4763C47.0428 35.6362 46.7846 35.7494 46.5119 35.8095C46.2391 35.8696 45.9572 35.8754 45.6823 35.8265C45.4073 35.7776 45.1447 35.6751 44.9093 35.5247C44.674 35.3744 44.4706 35.1791 44.3107 34.9501C44.1508 34.7211 44.0376 34.4629 43.9775 34.1902C43.9174 33.9175 43.9117 33.6356 43.9605 33.3606L48.1482 34.1048Z" fill="#407BFF"/>
<path d="M46.3006 36.1332C46.161 36.1433 46.0208 36.1433 45.8812 36.1332C45.3068 36.028 44.7915 35.7143 44.4344 35.2522C44.0772 34.7902 43.9034 34.2125 43.9463 33.6301L43.3578 33.5219C43.2112 34.0485 42.8859 34.5078 42.4377 34.8208C42.1852 34.9994 41.8994 35.1255 41.5973 35.1917C41.2952 35.258 40.9829 35.2629 40.6788 35.2064C40.1023 35.1054 39.5843 34.7928 39.2264 34.3297C38.8684 33.8667 38.6964 33.2866 38.744 32.7033L37.6615 32.5139L30.7949 31.7494L30.849 31.2961L37.7224 32.0606L39.2581 32.338V32.5003C39.1806 32.8843 39.2207 33.2828 39.3731 33.6437C39.5106 33.9611 39.7318 34.2351 40.013 34.4365C40.2942 34.6379 40.6249 34.759 40.9697 34.7869C41.4534 34.8077 41.9278 34.6494 42.3022 34.3424C42.6767 34.0354 42.9248 33.6012 42.9992 33.1227C43.0057 33.0964 43.0218 33.0735 43.0443 33.0584C43.0669 33.0434 43.0942 33.0374 43.121 33.0415L44.3793 33.2648C44.3927 33.2665 44.4056 33.2708 44.4173 33.2775C44.429 33.2842 44.4392 33.2931 44.4474 33.3039C44.4556 33.3146 44.4616 33.3268 44.465 33.3398C44.4684 33.3529 44.4692 33.3665 44.4673 33.3798C44.3767 33.8962 44.4896 34.4277 44.7822 34.8628C45.0747 35.2978 45.5243 35.6028 46.0368 35.7138C46.5294 35.7756 47.0266 35.6415 47.4214 35.3403C47.8161 35.0392 48.0769 34.5951 48.1475 34.1037L48.594 34.1849C48.5409 34.4889 48.4281 34.7793 48.2621 35.0394C48.096 35.2995 47.88 35.5242 47.6266 35.7002C47.2401 35.9783 46.7768 36.1296 46.3006 36.1332Z" fill="#263238"/>
<path d="M30.4627 33.1909C30.4627 33.1909 25.0979 21.3384 36.1928 20.3846C37.6743 20.256 40.6916 20.0328 42.1393 20.3846C44.0065 20.831 48.6135 23.6724 46.814 26.4732C46.814 26.4732 45.1769 24.1527 39.7039 24.6804C34.2309 25.2081 34.9209 34.3072 30.4627 33.1909Z" fill="#263238"/>
<path d="M28.719 32.9398C28.8089 33.5085 29.0098 34.0539 29.3105 34.5449C29.6111 35.0359 30.0055 35.4629 30.4712 35.8015C31.7227 36.6945 32.8863 35.7 32.9675 34.2455C33.0419 32.9398 32.494 30.8629 31.0259 30.572C30.704 30.5091 30.3714 30.5274 30.0583 30.6253C29.7452 30.7231 29.4613 30.8973 29.2324 31.1323C29.0035 31.3673 28.8367 31.6555 28.747 31.9711C28.6574 32.2867 28.6478 32.6196 28.719 32.9398Z" fill="#7F3E3B"/>
<path d="M31.5315 39.6986C30.972 39.7854 30.3998 39.6705 29.9171 39.3745C29.4344 39.0785 29.0725 38.6207 28.8961 38.0826C28.7198 37.5445 28.7403 36.9613 28.9542 36.437C29.168 35.9126 29.5611 35.4813 30.0635 35.2201L30.28 35.6192C29.8632 35.8363 29.5394 36.1972 29.3685 36.6349C29.1975 37.0726 29.1911 37.5574 29.3504 37.9995C29.5098 38.4415 29.824 38.8108 30.2348 39.0388C30.6457 39.2668 31.1253 39.3381 31.5847 39.2395C32.0441 39.1408 32.4522 38.8789 32.7332 38.5023C33.0142 38.1257 33.1491 37.6599 33.1128 37.1914C33.0766 36.7229 32.8717 36.2835 32.5361 35.9546C32.2006 35.6256 31.7571 35.4296 31.288 35.4027V34.9495C31.8692 34.9941 32.414 35.2497 32.8198 35.6682C33.2256 36.0867 33.4643 36.6392 33.4909 37.2215C33.5175 37.8038 33.3302 38.3758 32.9643 38.8296C32.5984 39.2833 32.0792 39.5876 31.5045 39.6851L31.5315 39.6986Z" fill="#407BFF"/>
<path d="M57.9576 21.8186L59.7098 23.5167L62.1249 23.1716L62.5511 25.58L64.7092 26.7233L63.6335 28.9152L64.7092 31.1139L62.5511 32.2572L62.1249 34.6588L59.7098 34.3206L57.9576 36.0186L56.1987 34.3206L53.7835 34.6588L53.3573 32.2572L51.1992 31.1139L52.2749 28.9152L51.1992 26.7233L53.3573 25.58L53.7835 23.1716L56.1987 23.5167L57.9576 21.8186Z" fill="#407BFF"/>
<g opacity="0.9">
<path d="M56.6439 31.6964L54.1273 28.9362C54.0395 28.829 53.9974 28.6916 54.01 28.5536C54.0227 28.4157 54.0891 28.2882 54.1949 28.1988C54.2427 28.1505 54.2996 28.1122 54.3623 28.086C54.425 28.0599 54.4923 28.0464 54.5602 28.0464C54.6282 28.0464 54.6954 28.0599 54.7581 28.086C54.8208 28.1122 54.8777 28.1505 54.9255 28.1988L56.7724 30.2283L61.0412 26.3045C61.0896 26.2561 61.1471 26.2176 61.2103 26.1914C61.2736 26.1651 61.3414 26.1516 61.4099 26.1516C61.4784 26.1516 61.5462 26.1651 61.6095 26.1914C61.6728 26.2176 61.7302 26.2561 61.7786 26.3045C61.866 26.4106 61.9079 26.5469 61.8953 26.6838C61.8826 26.8206 61.8164 26.947 61.711 27.0352L56.6439 31.6964Z" fill="white"/>
</g>
<path d="M84.9453 68.7084L103.475 69.1955C103.794 69.2004 104.107 69.2804 104.39 69.429C104.672 69.5777 104.915 69.7908 105.1 70.0511C105.284 70.3115 105.405 70.6116 105.452 70.9272C105.499 71.2429 105.47 71.5651 105.369 71.8678C103.448 77.7805 99.4362 92.9817 102.521 109.502H76.5633L76.1709 85.1477C76.1709 85.1477 74.1413 79.9927 82.5301 69.845C82.8209 69.4857 83.1892 69.1968 83.6075 69C84.0257 68.8031 84.483 68.7035 84.9453 68.7084Z" fill="#407BFF"/>
<path opacity="0.9" d="M84.9453 68.7084L103.475 69.1955C103.794 69.2004 104.107 69.2804 104.39 69.429C104.672 69.5777 104.915 69.7908 105.1 70.0511C105.284 70.3115 105.405 70.6116 105.452 70.9272C105.499 71.2429 105.47 71.5651 105.369 71.8678C103.448 77.7805 99.4362 92.9817 102.521 109.502H76.5633L76.1709 85.1477C76.1709 85.1477 74.1413 79.9927 82.5301 69.845C82.8209 69.4857 83.1892 69.1968 83.6075 69C84.0257 68.8031 84.483 68.7035 84.9453 68.7084Z" fill="white"/>
<path d="M61.104 86.7991L55.949 84.844L54.2374 80.9338C54.1846 80.8133 54.1139 80.7016 54.0277 80.6023L49.7115 75.4134C49.5972 75.2797 49.4385 75.1917 49.2645 75.1656C49.0905 75.1395 48.9129 75.177 48.7644 75.2713C48.6811 75.3254 48.6098 75.3962 48.5553 75.4792C48.5007 75.5622 48.464 75.6557 48.4475 75.7536C48.431 75.8516 48.435 75.9519 48.4592 76.0482C48.4835 76.1445 48.5275 76.2348 48.5885 76.3132L50.8886 79.2628L50.0227 83.3219C49.9531 83.6543 49.9615 83.9983 50.0472 84.327C50.1329 84.6556 50.2935 84.9599 50.5166 85.2161L50.9089 85.6626C51.0898 85.8701 51.3078 86.0422 51.5516 86.17L54.4539 87.6651L59.4127 90.1411L61.104 86.7991Z" fill="#FFB573"/>
<path d="M82.8877 68.7083C82.8877 68.7083 75.446 71.1031 72.2258 87.4612C72.177 87.7044 72.078 87.9346 71.935 88.1372C71.792 88.3398 71.6082 88.5103 71.3954 88.6377C71.1827 88.7651 70.9456 88.8466 70.6995 88.877C70.4534 88.9074 70.2036 88.886 69.9663 88.8142L58.6211 85.2558L57.1328 89.4096C57.1328 89.4096 68.4779 97.4669 73.7818 96.2897C79.0857 95.1126 82.8877 68.7083 82.8877 68.7083Z" fill="#407BFF"/>
<path opacity="0.1" d="M73.6199 81.9138C73.2543 83.8781 73.1429 85.8812 73.2884 87.8739C73.5346 90.6949 73.582 93.5297 73.4305 96.3574C73.5487 96.3465 73.6662 96.3284 73.7823 96.3033C79.0862 95.1261 82.8882 68.7083 82.8882 68.7083C82.8882 68.7083 77.1919 70.5416 73.6199 81.9138Z" fill="black"/>
<path d="M103.127 53.0814C102.654 51.4307 103.127 49.7395 101.91 48.2105C101.283 47.3706 100.933 46.3562 100.908 45.3083C100.597 39.8962 93.947 38.1914 89.0761 38.1643C83.6979 38.1643 85.8221 40.3494 81.2827 41.4183C76.7433 42.4872 79.2126 48.0888 80.4438 49.6853C81.6751 51.2819 80.5453 54.0421 78.0287 58.3041C78.0287 58.3041 75.3226 63.3171 89.4144 61.0711C89.4144 61.0711 106.706 65.4413 103.127 53.0814Z" fill="#263238"/>
<path d="M96.6208 57.5803C95.7007 60.7802 94.5574 66.6997 96.6208 69.0811C93.8855 70.8651 90.929 72.2843 87.8261 73.3025C84.4435 70.0011 86.4325 68.7157 86.4325 68.7157C90.1398 68.1339 90.3563 64.9543 89.9707 62.37L96.6208 57.5803Z" fill="#FFB573"/>
<path opacity="0.2" d="M94.2735 61.05C94.3547 60.4597 94.3547 59.861 94.2735 59.2708L89.9844 62.3624C90.0642 62.882 90.1094 63.4063 90.1197 63.9319C91.6757 63.7696 93.9826 62.6127 94.2735 61.05Z" fill="black"/>
<path d="M98.3518 51.8374C96.8837 57.1142 96.3764 59.3805 93.0953 61.5453C88.1567 64.8061 82.0004 61.8565 81.8584 56.2482C81.7298 51.2014 84.145 43.3945 89.8277 42.4068C91.082 42.1681 92.3767 42.2562 93.5871 42.6626C94.7975 43.069 95.883 43.78 96.7392 44.7273C97.5954 45.6745 98.1934 46.8261 98.4758 48.0713C98.7583 49.3165 98.7155 50.6134 98.3518 51.8374Z" fill="#FFB573"/>
<path d="M98.7179 56.336C98.2083 57.2638 97.3522 57.9521 96.3366 58.2505C94.9835 58.6294 94.307 57.4319 94.6724 56.1533C95.0039 55.0033 96.1066 53.4473 97.4664 53.5961C97.9395 53.6726 98.3631 53.9333 98.6445 54.3212C98.9259 54.7092 99.0423 55.1927 98.9682 55.6662C98.9267 55.903 98.8418 56.13 98.7179 56.336Z" fill="#FFB573"/>
<path d="M96.0191 41.1621C96.9459 42.7993 94.5308 45.7827 89.5719 45.4106C85.8308 45.14 81.0749 49.0841 81.5214 44.7341C81.9003 40.7968 91.3376 39.0514 96.0191 41.1621Z" fill="#263238"/>
<path d="M93.2852 42.3111C90.6603 44.2527 92.3313 47.8991 93.549 49.5498C94.7668 51.2005 96.6745 52.7497 95.1456 55.1378C93.6167 57.5259 93.0078 60.5093 97.7772 59.4134C102.547 58.3174 101.938 54.0351 100.619 50.3549C99.2994 46.6746 96.4039 40.0042 93.2852 42.3111Z" fill="#263238"/>
<path d="M86.1621 51.5793C85.5642 52.4911 84.8425 53.3153 84.0176 54.0283C84.2048 54.2353 84.435 54.3989 84.6921 54.5076C84.9492 54.6163 85.227 54.6674 85.5059 54.6575L86.1621 51.5793Z" fill="#ED893E"/>
<path d="M92.3806 49.8673C92.416 49.8774 92.4535 49.8774 92.4889 49.8673C92.5381 49.8376 92.574 49.7902 92.5891 49.7347C92.6043 49.6793 92.5974 49.6201 92.5701 49.5696C92.3754 49.2117 92.0973 48.9062 91.7592 48.6788C91.4212 48.4515 91.0333 48.3092 90.6285 48.2639C90.5708 48.2637 90.5152 48.2851 90.4726 48.324C90.43 48.3628 90.4035 48.4162 90.3984 48.4736C90.3982 48.5295 90.4189 48.5834 90.4565 48.6247C90.4941 48.6661 90.5458 48.6918 90.6014 48.6969C90.936 48.7405 91.2556 48.8625 91.5342 49.053C91.8128 49.2434 92.0426 49.4969 92.2047 49.7928C92.2264 49.8179 92.2535 49.8376 92.284 49.8505C92.3145 49.8634 92.3476 49.8691 92.3806 49.8673Z" fill="#263238"/>
<path d="M83.1392 47.9808C83.175 47.9867 83.2116 47.9867 83.2474 47.9808C83.5374 47.8144 83.8627 47.7191 84.1967 47.7027C84.5306 47.6862 84.8637 47.7491 85.1687 47.8861C85.1935 47.9005 85.221 47.9099 85.2494 47.9136C85.2779 47.9173 85.3068 47.9154 85.3345 47.9078C85.3622 47.9003 85.3881 47.8873 85.4108 47.8696C85.4334 47.8519 85.4523 47.8299 85.4664 47.8049C85.4915 47.7533 85.4964 47.6941 85.4802 47.639C85.4639 47.5839 85.4276 47.5369 85.3784 47.5072C85.0084 47.3364 84.6029 47.2565 84.1957 47.2741C83.7886 47.2918 83.3915 47.4065 83.0377 47.6087C83.0118 47.621 82.9886 47.6383 82.9695 47.6596C82.9503 47.681 82.9356 47.7059 82.9261 47.733C82.9167 47.76 82.9127 47.7887 82.9145 47.8173C82.9162 47.8459 82.9236 47.8739 82.9362 47.8996C82.9558 47.9364 82.9851 47.9672 83.0208 47.9886C83.0566 48.01 83.0975 48.0214 83.1392 48.0214V47.9808Z" fill="#263238"/>
<path d="M89.4143 51.5183C89.3196 51.9512 89.0152 52.2489 88.7378 52.1948C88.4605 52.1406 88.2981 51.7347 88.3996 51.295C88.501 50.8553 88.7987 50.5576 89.0761 50.6185C89.3535 50.6794 89.4752 51.0785 89.4143 51.5183Z" fill="#263238"/>
<path d="M84.4649 50.47C84.377 50.9029 84.0726 51.2074 83.7884 51.1465C83.5043 51.0856 83.3487 50.6864 83.4367 50.2467C83.5246 49.807 83.8358 49.5161 84.1132 49.5702C84.3905 49.6243 84.5664 50.0302 84.4649 50.47Z" fill="#263238"/>
<path d="M84.2407 49.6237L83.2598 49.1028C83.2598 49.1028 83.6251 50.0296 84.2407 49.6237Z" fill="#263238"/>
<path d="M89.1587 50.6667L88.1777 50.1458C88.1777 50.1458 88.543 51.0726 89.1587 50.6667Z" fill="#263238"/>
<path d="M96.8168 67.9302C96.5468 67.9093 96.2756 67.9523 96.0252 68.0558C95.7749 68.1592 95.5524 68.3201 95.3758 68.5255C93.6981 70.4806 89.1113 76.9346 89.1113 89.078C89.1113 98.7657 89.6728 107.919 90.0652 113.121C90.1047 113.663 90.2632 114.19 90.5295 114.664C90.7959 115.137 91.1634 115.546 91.606 115.862C92.0486 116.177 92.5553 116.391 93.09 116.488C93.6247 116.585 94.1742 116.562 94.6993 116.423L105.361 113.588C105.361 113.588 101.153 103.001 102.127 91.757C102.804 83.9297 105.036 75.8116 106.329 71.6036C106.438 71.2517 106.466 70.8798 106.411 70.5155C106.355 70.1513 106.219 69.8042 106.01 69.5003C105.802 69.1964 105.528 68.9435 105.208 68.7607C104.888 68.5778 104.531 68.4697 104.164 68.4443L96.8168 67.9302Z" fill="#407BFF"/>
<path d="M86.9684 67.8762C87.0612 67.8757 87.152 67.9027 87.2293 67.954C87.3066 68.0052 87.3668 68.0784 87.4024 68.164C87.438 68.2496 87.4472 68.3439 87.429 68.4349C87.4107 68.5258 87.3658 68.6092 87.2999 68.6745C85.3922 70.562 81.2113 76.1973 80.5348 89.8765C79.953 101.634 79.4456 109.915 79.1818 114.231C79.157 114.608 79.0415 114.973 78.8449 115.296C78.6483 115.619 78.3765 115.889 78.0528 116.084C77.729 116.278 77.363 116.392 76.9859 116.414C76.6088 116.437 76.2318 116.368 75.8871 116.213L74.9941 115.814C74.9941 115.814 76.3472 109.428 75.9683 95.4577C75.5895 81.4877 73.4652 80.8179 79.1547 73.1327C79.7094 72.3886 80.9272 70.8529 81.9013 69.6352C82.3435 69.0881 82.902 68.6463 83.5363 68.3421C84.1705 68.0378 84.8646 67.8787 85.5681 67.8762H86.9684Z" fill="#407BFF"/>
<path d="M96.9846 69.0263L85.1321 68.7151C84.3203 71.9015 83.0485 78.3148 84.7803 82.1507C84.7803 82.1371 91.2613 74.9458 96.9846 69.0263Z" fill="#FFB573"/>
<path d="M107.776 103.163L105.827 107.527L101.768 110.402C101.511 110.584 101.316 110.84 101.21 111.137C101.103 111.433 101.09 111.756 101.173 112.059C101.23 112.273 101.332 112.473 101.472 112.644C101.612 112.816 101.787 112.955 101.985 113.054L104.17 114.123C104.506 114.289 104.892 114.328 105.254 114.23C105.616 114.133 105.931 113.907 106.139 113.595L107.654 111.322C107.899 110.951 108.067 110.535 108.148 110.098L108.344 108.975L111.05 104.55L107.776 103.163Z" fill="#FFB573"/>
<path opacity="0.1" d="M103.913 73.6262L101.991 74.5192C101.991 74.5192 99.8738 80.0869 102.668 87.4948C103.333 83.2223 104.252 78.9933 105.421 74.8304L103.913 73.6262Z" fill="black"/>
<path d="M92.2706 75.4338C95.6532 74.3513 97.7775 75.7111 97.7775 75.7111C99.1305 71.652 98.2172 69.7781 97.9872 68.0192L96.8168 67.938C96.5468 67.9171 96.2756 67.9602 96.0252 68.0636C95.7749 68.167 95.5524 68.3279 95.3758 68.5333C93.6981 70.4884 89.1113 76.9424 89.1113 89.0858C89.1113 92.1639 89.1655 95.1744 89.2602 98.0496C90.9312 84.817 95.2067 79.8717 95.2067 79.8717C95.0992 78.9537 94.7775 78.0737 94.2675 77.3029C93.7575 76.532 93.0735 75.8918 92.2706 75.4338Z" fill="#407BFF"/>
<path d="M86.9686 67.8762H85.8862C83.9514 68.9992 81.313 70.9611 80.5214 73.6266C80.9145 73.4325 81.3613 73.3757 81.7905 73.4652C82.2197 73.5547 82.6065 73.7854 82.8892 74.1204C81.403 74.8805 80.1692 76.0555 79.3375 77.503C79.2666 82.9321 79.5967 88.3589 80.3252 93.7393C80.3929 92.4945 80.4605 91.2159 80.5214 89.8764C81.1979 76.1973 85.3923 70.562 87.2866 68.6745C87.3516 68.61 87.3963 68.5278 87.415 68.4382C87.4337 68.3485 87.4256 68.2553 87.3917 68.1702C87.3578 68.0851 87.2996 68.0118 87.2244 67.9595C87.1491 67.9073 87.0602 67.8783 86.9686 67.8762Z" fill="#407BFF"/>
<path opacity="0.2" d="M92.2706 75.4338C95.6532 74.3513 97.7775 75.7111 97.7775 75.7111C99.1305 71.652 98.2172 69.7781 97.9872 68.0192L96.8168 67.938C96.5468 67.9171 96.2756 67.9602 96.0252 68.0636C95.7749 68.167 95.5524 68.3279 95.3758 68.5333C93.6981 70.4884 89.1113 76.9424 89.1113 89.0858C89.1113 92.1639 89.1655 95.1744 89.2602 98.0496C90.9312 84.817 95.2067 79.8717 95.2067 79.8717C95.0992 78.9537 94.7775 78.0737 94.2675 77.3029C93.7575 76.532 93.0735 75.8918 92.2706 75.4338Z" fill="black"/>
<path opacity="0.2" d="M86.9686 67.8762H85.8862C83.9514 68.9992 81.313 70.9611 80.5214 73.6266C80.9145 73.4325 81.3613 73.3757 81.7905 73.4652C82.2197 73.5547 82.6065 73.7854 82.8892 74.1204C81.403 74.8805 80.1692 76.0555 79.3375 77.503C79.2666 82.9321 79.5967 88.3589 80.3252 93.7393C80.3929 92.4945 80.4605 91.2159 80.5214 89.8764C81.1979 76.1973 85.3923 70.562 87.2866 68.6745C87.3516 68.61 87.3963 68.5278 87.415 68.4382C87.4337 68.3485 87.4256 68.2553 87.3917 68.1702C87.3578 68.0851 87.2996 68.0118 87.2244 67.9595C87.1491 67.9073 87.0602 67.8783 86.9686 67.8762Z" fill="black"/>
<path d="M105.469 68.9446C105.469 68.9446 107.972 69.0663 112.43 78.8758C116.889 88.6852 118.675 95.4842 110.151 106.802L106.436 105.043C106.436 105.043 110.252 96.0254 110.056 91.4657C109.86 86.906 105.625 82.3666 103.5 79.4711C102.032 77.4687 100.287 74.0726 105.469 68.9446Z" fill="#407BFF"/>
<path d="M86.7987 57.1062C86.5718 57.1056 86.3455 57.0853 86.1222 57.0453C86.107 57.0428 86.0924 57.0374 86.0793 57.0292C86.0663 57.021 86.055 57.0103 86.0462 56.9977C86.0373 56.9851 86.0311 56.9708 86.0279 56.9557C86.0247 56.9407 86.0246 56.9251 86.0275 56.91C86.0353 56.8808 86.0532 56.8553 86.0779 56.838C86.1026 56.8207 86.1327 56.8127 86.1628 56.8153C86.6595 56.9123 87.1721 56.8919 87.6595 56.7556C88.147 56.6194 88.5959 56.3711 88.9703 56.0305C88.981 56.0185 88.9939 56.0087 89.0083 56.0017C89.0228 55.9947 89.0384 55.9907 89.0544 55.9897C89.0705 55.9888 89.0865 55.991 89.1017 55.9963C89.1168 56.0015 89.1308 56.0097 89.1428 56.0204C89.1548 56.031 89.1646 56.044 89.1716 56.0584C89.1786 56.0728 89.1827 56.0885 89.1836 56.1045C89.1846 56.1205 89.1823 56.1366 89.1771 56.1517C89.1718 56.1669 89.1636 56.1809 89.153 56.1929C88.5155 56.7898 87.6719 57.1171 86.7987 57.1062Z" fill="#263238"/>
</g>
<defs>
<clipPath id="clip0_253_987">
<rect width="192" height="117" fill="white" transform="translate(0 -5.28003)"/>
</clipPath>
</defs>
</svg>
