<svg width="558" height="116" viewBox="0 0 558 116" fill="none" xmlns="http://www.w3.org/2000/svg">
<path d="M71.9367 7.30511V21.0486H44.5735V89.0233H27.487V21.0486H0V7.30511H71.9367Z" fill="#4124FF"/>
<path d="M100.678 90.2614C94.1574 90.2614 88.4619 88.982 83.5918 86.4231C78.8043 83.8643 75.0898 80.1911 72.4484 75.4036C69.807 70.616 68.4863 64.838 68.4863 58.0694C68.4863 51.3008 69.807 45.5228 72.4484 40.7353C75.0898 35.9477 78.763 32.2745 83.468 29.7157C88.2555 27.1568 93.7034 25.8774 99.8116 25.8774C106.085 25.8774 111.409 27.1568 115.784 29.7157C120.159 32.192 123.502 35.6176 125.813 39.9924C128.124 44.2846 129.28 49.196 129.28 54.7264C129.28 56.3773 129.238 57.9456 129.156 59.4314C129.073 60.9172 128.95 62.2379 128.784 63.3935H79.3821V51.631H121.356L113.184 54.6026C113.184 49.4023 111.987 45.399 109.593 42.5925C107.282 39.786 103.98 38.3828 99.6878 38.3828C96.5512 38.3828 93.8272 39.1257 91.516 40.6114C89.2873 42.0972 87.5952 44.3259 86.4396 47.2975C85.284 50.1865 84.7062 53.8597 84.7062 58.317C84.7062 62.6919 85.3252 66.3238 86.5634 69.2128C87.8841 72.0193 89.7 74.1241 92.0113 75.5274C94.405 76.9306 97.2528 77.6322 100.555 77.6322C104.186 77.6322 107.117 76.9306 109.345 75.5274C111.574 74.1241 113.308 72.1844 114.546 69.7081L128.042 74.9083C126.721 78.1275 124.699 80.8927 121.975 83.2039C119.333 85.5151 116.155 87.2898 112.441 88.528C108.809 89.6836 104.888 90.2614 100.678 90.2614Z" fill="#4124FF"/>
<path d="M143.655 89.0233V27.1156H158.884L159.503 38.259C161.567 34.1318 164.373 31.0364 167.923 28.9728C171.555 26.9092 175.558 25.8774 179.933 25.8774C184.39 25.8774 188.393 26.9092 191.943 28.9728C195.575 31.0364 198.299 34.0905 200.115 38.1351C201.435 35.4112 203.21 33.1413 205.439 31.3253C207.667 29.5093 210.144 28.1474 212.868 27.2394C215.592 26.3314 218.357 25.8774 221.163 25.8774C225.208 25.8774 228.881 26.7028 232.183 28.3537C235.567 30.0046 238.25 32.4809 240.231 35.7826C242.212 39.0844 243.202 43.2941 243.202 48.4118V89.0233H226.24V51.7548C226.24 47.2149 225.249 43.9957 223.268 42.0972C221.287 40.1987 218.728 39.2495 215.592 39.2495C213.115 39.2495 210.804 39.8686 208.658 41.1067C206.594 42.3449 204.943 44.2021 203.705 46.6784C202.55 49.0722 201.972 52.085 201.972 55.7169V89.0233H185.009V51.7548C185.009 47.2149 183.977 43.9957 181.914 42.0972C179.933 40.1987 177.374 39.2495 174.237 39.2495C172.091 39.2495 169.945 39.8273 167.799 40.9829C165.735 42.1385 164.002 43.9545 162.599 46.4308C161.278 48.9071 160.618 52.1676 160.618 56.2122V89.0233H143.655Z" fill="#4124FF"/>
<path d="M260.699 115.024V27.1156H275.928L277.043 46.8022L274.938 44.5735C275.681 40.9416 277.043 37.7224 279.024 34.9159C281.087 32.1095 283.687 29.9221 286.824 28.3537C289.961 26.7028 293.469 25.8774 297.348 25.8774C302.384 25.8774 306.882 27.1568 310.844 29.7157C314.806 32.2745 317.902 35.9477 320.13 40.7353C322.442 45.4402 323.597 51.177 323.597 57.9456C323.597 64.7142 322.442 70.5335 320.13 75.4036C317.819 80.1911 314.641 83.8643 310.597 86.4231C306.635 88.982 302.095 90.2614 296.977 90.2614C291.529 90.2614 286.989 88.7344 283.357 85.6802C279.808 82.6261 277.373 78.7879 276.052 74.1654L277.662 71.5653V115.024H260.699ZM292.024 77.2608C296.564 77.2608 300.114 75.6512 302.672 72.432C305.314 69.1303 306.635 64.3427 306.635 58.0694C306.635 51.7961 305.355 47.0498 302.796 43.8306C300.32 40.5289 296.812 38.878 292.272 38.878C289.383 38.878 286.824 39.6622 284.595 41.2305C282.449 42.7163 280.757 44.9037 279.519 47.7927C278.281 50.5992 277.662 54.0248 277.662 58.0694C277.662 62.0315 278.24 65.4571 279.395 68.3461C280.551 71.2351 282.202 73.4638 284.348 75.0321C286.576 76.5179 289.135 77.2608 292.024 77.2608Z" fill="#4124FF"/>
<path d="M355.041 0V69.9557C355.041 72.8447 355.536 74.867 356.526 76.0226C357.517 77.1783 359.168 77.7561 361.479 77.7561C362.882 77.7561 364.038 77.6735 364.946 77.5084C365.854 77.2608 367.009 76.9306 368.413 76.5179L366.927 87.6613C365.524 88.4867 363.749 89.1058 361.603 89.5185C359.539 90.0138 357.476 90.2614 355.412 90.2614C349.386 90.2614 344.97 88.8169 342.164 85.9279C339.44 82.9563 338.078 78.2513 338.078 71.8129V0H355.041Z" fill="#4124FF"/>
<path d="M413.756 49.5262C413.756 45.9768 412.724 43.2116 410.661 41.2305C408.68 39.2495 406.038 38.259 402.737 38.259C399.682 38.259 397 39.0431 394.689 40.6114C392.377 42.1798 390.685 44.7799 389.612 48.4118L375.126 43.9545C376.529 38.5066 379.583 34.1318 384.288 30.83C389.076 27.5283 395.473 25.8774 403.479 25.8774C408.927 25.8774 413.674 26.7441 417.718 28.4775C421.763 30.1284 424.9 32.646 427.128 36.0303C429.439 39.4146 430.595 43.6656 430.595 48.7833V73.9178C430.595 77.0544 432.081 78.6228 435.052 78.6228C436.456 78.6228 437.776 78.4164 439.014 78.0037L438.024 88.528C435.878 89.6011 433.195 90.1376 429.976 90.1376C427.087 90.1376 424.487 89.6423 422.176 88.6518C419.864 87.6613 418.048 86.1755 416.728 84.1945C415.407 82.1309 414.747 79.572 414.747 76.5179V76.0226L417.718 75.5274C417.223 78.664 415.861 81.3467 413.632 83.5754C411.404 85.7215 408.68 87.3724 405.461 88.528C402.324 89.6836 399.063 90.2614 395.679 90.2614C391.469 90.2614 387.837 89.6423 384.783 88.4042C381.729 87.0835 379.377 85.185 377.726 82.7087C376.075 80.2324 375.25 77.1783 375.25 73.5463C375.25 68.9239 376.735 65.1682 379.707 62.2791C382.678 59.3076 386.929 57.2853 392.46 56.2122L415.737 51.5072L415.613 62.0315L400.756 65.0031C397.949 65.5809 395.803 66.365 394.317 67.3556C392.914 68.2635 392.212 69.7906 392.212 71.9367C392.212 74.0003 392.955 75.5687 394.441 76.6417C396.009 77.7148 397.866 78.2513 400.013 78.2513C401.746 78.2513 403.438 78.045 405.089 77.6322C406.74 77.2195 408.226 76.5592 409.546 75.6512C410.867 74.7432 411.899 73.5051 412.642 71.9367C413.385 70.3684 413.756 68.4699 413.756 66.2412V49.5262Z" fill="#4124FF"/>
<path d="M469.063 8.17181V68.8414C469.063 71.8129 469.806 74.0003 471.292 75.4036C472.86 76.7243 474.965 77.3846 477.606 77.3846C479.67 77.3846 481.486 77.0957 483.054 76.5179C484.622 75.8576 486.026 74.9908 487.264 73.9178L489.988 85.185C488.007 86.7533 485.53 87.9915 482.559 88.8994C479.587 89.8074 476.451 90.2614 473.149 90.2614C469.022 90.2614 465.348 89.6423 462.129 88.4042C458.993 87.166 456.516 85.185 454.7 82.461C452.967 79.7371 452.1 76.1052 452.1 71.5653V12.8768L469.063 8.17181ZM488.873 27.1156V39.7447H440.709V27.1156H488.873Z" fill="#4124FF"/>
<path d="M529.075 90.2614C522.554 90.2614 516.858 88.982 511.988 86.4231C507.201 83.8643 503.486 80.1911 500.845 75.4036C498.203 70.616 496.883 64.838 496.883 58.0694C496.883 51.3008 498.203 45.5228 500.845 40.7353C503.486 35.9477 507.159 32.2745 511.864 29.7157C516.652 27.1568 522.1 25.8774 528.208 25.8774C534.481 25.8774 539.805 27.1568 544.18 29.7157C548.555 32.192 551.898 35.6176 554.209 39.9924C556.52 44.2846 557.676 49.196 557.676 54.7264C557.676 56.3773 557.635 57.9456 557.552 59.4314C557.47 60.9172 557.346 62.2379 557.181 63.3935H507.778V51.631H549.752L541.58 54.6026C541.58 49.4023 540.383 45.399 537.989 42.5925C535.678 39.786 532.376 38.3828 528.084 38.3828C524.948 38.3828 522.224 39.1257 519.912 40.6114C517.684 42.0972 515.992 44.3259 514.836 47.2975C513.68 50.1865 513.102 53.8597 513.102 58.317C513.102 62.6919 513.722 66.3238 514.96 69.2128C516.28 72.0193 518.096 74.1241 520.408 75.5274C522.801 76.9306 525.649 77.6322 528.951 77.6322C532.583 77.6322 535.513 76.9306 537.742 75.5274C539.97 74.1241 541.704 72.1844 542.942 69.7081L556.438 74.9083C555.117 78.1275 553.095 80.8927 550.371 83.2039C547.73 85.5151 544.552 87.2898 540.837 88.528C537.205 89.6836 533.284 90.2614 529.075 90.2614Z" fill="#4124FF"/>
</svg>
