<svg width="100" height="20" viewBox="0 0 100 20" fill="none" xmlns="http://www.w3.org/2000/svg">
<path d="M3.98193 13.8986L7.85985 5.71367C7.85985 5.71367 9.23814 3.00242 12.532 5.71367L10.4996 5.79893L7.29918 12.7731C7.29918 12.7731 6.92541 13.9327 3.98193 13.8986Z" fill="#0F0074"/>
<path d="M7.64819 6.15726C7.8818 5.83327 9.61051 4.70785 10.0544 5.74801C10.5216 6.82228 13.2548 12.961 13.2548 12.961C13.2548 12.961 13.6286 14.0693 15.5909 13.8818L16.3151 13.3702L12.6942 6.02084C11.9933 4.3327 8.67607 3.5415 7.64819 6.15726Z" fill="#0F0074"/>
<path d="M19.1189 6.54923C19.1189 6.54923 16.1521 7.35067 15.3812 7.2313C14.6103 7.11194 14.0263 6.36166 15.0541 5.61138C16.082 4.86109 21.0345 1.2802 21.0345 1.2802C21.0345 1.2802 22.2026 0.529915 22.88 1.48482L24.8657 7.18015C24.8657 7.18015 25.6133 9.08996 23.5809 8.97059C23.5809 8.97059 22.7866 8.91944 20.8009 6.89027C20.8009 6.89027 17.4988 17.9996 0.448896 19.9827C0.0426661 20.053 -0.315701 19.9026 0.448896 19.6489C3.59624 18.9511 15.7608 16.4138 19.1189 6.54923Z" fill="#0F0074"/>
<path d="M28.63 11.72C28.73 11.7 28.7933 11.6767 28.82 11.65C28.8533 11.6233 28.87 11.5733 28.87 11.5V5.5C28.87 5.42667 28.8533 5.37667 28.82 5.35C28.7933 5.32333 28.73 5.3 28.63 5.28L28.26 5.2V5H34.42V6.95H34.17C34.03 6.51667 33.8967 6.19 33.77 5.97C33.65 5.75 33.48 5.58333 33.26 5.47C33.04 5.35667 32.73 5.3 32.33 5.3H30.91V8.27H33.49V8.57H30.91V11.7H32.43C32.8233 11.7 33.1333 11.64 33.36 11.52C33.5867 11.4 33.7633 11.2267 33.89 11C34.0233 10.7733 34.16 10.4433 34.3 10.01H34.56V12H28.26V11.8L28.63 11.72ZM41.8873 11.52C41.8873 11.5933 41.9006 11.6433 41.9273 11.67C41.9606 11.6967 42.0273 11.72 42.1273 11.74L42.4773 11.82V12H40.3973C40.2173 12 40.0873 11.9533 40.0073 11.86C39.9273 11.7667 39.8873 11.6267 39.8873 11.44V8.4C39.8873 8.1 39.8373 7.88667 39.7373 7.76C39.6439 7.63333 39.4839 7.57 39.2573 7.57C38.8573 7.57 38.4473 7.73667 38.0273 8.07V11.52C38.0273 11.5933 38.0406 11.6467 38.0673 11.68C38.1006 11.7067 38.1639 11.73 38.2573 11.75L38.5973 11.82V12H35.4373V11.82L35.7873 11.74C35.8873 11.72 35.9506 11.6967 35.9773 11.67C36.0106 11.6433 36.0273 11.5933 36.0273 11.52V7.74C36.0273 7.66667 36.0106 7.61667 35.9773 7.59C35.9506 7.56333 35.8873 7.54 35.7873 7.52L35.4373 7.44V7.26L37.8373 6.96H38.0073V7.77C38.2606 7.56333 38.5706 7.38667 38.9373 7.24C39.3039 7.09333 39.7106 7.02 40.1573 7.02C40.7773 7.02 41.2206 7.15 41.4873 7.41C41.7539 7.67 41.8873 8.06 41.8873 8.58V11.52ZM49.3473 6.96V13.78C49.3473 13.8533 49.3606 13.9033 49.3873 13.93C49.4206 13.9567 49.4873 13.98 49.5873 14L49.9373 14.08V14.26H46.7573V14.08L47.1073 14C47.2073 13.98 47.2706 13.9567 47.2973 13.93C47.3306 13.9033 47.3473 13.8533 47.3473 13.78V11.45C46.9273 11.8833 46.3539 12.1 45.6273 12.1C44.8873 12.1 44.3006 11.89 43.8673 11.47C43.4339 11.05 43.2173 10.3967 43.2173 9.51C43.2173 8.65 43.4339 8.02 43.8673 7.62C44.3006 7.22 44.8873 7.02 45.6273 7.02C46.0406 7.02 46.3806 7.07 46.6473 7.17C46.9206 7.26333 47.1606 7.38667 47.3673 7.54V7.17L49.1773 6.96H49.3473ZM46.2173 11.67C46.6106 11.67 46.9873 11.4833 47.3473 11.11V7.82C47.0273 7.56667 46.6673 7.44 46.2673 7.44C45.9006 7.44 45.6439 7.6 45.4973 7.92C45.3506 8.24 45.2773 8.77 45.2773 9.51C45.2773 10.0367 45.3039 10.4567 45.3573 10.77C45.4173 11.0767 45.5139 11.3033 45.6473 11.45C45.7873 11.5967 45.9773 11.67 46.2173 11.67ZM54.7882 7.74C54.7882 7.66667 54.7715 7.61667 54.7382 7.59C54.7115 7.56333 54.6482 7.54 54.5482 7.52L54.1982 7.44V7.26L56.6182 6.96H56.7882V11.52C56.7882 11.5933 56.8015 11.6433 56.8282 11.67C56.8615 11.6967 56.9282 11.72 57.0282 11.74L57.3782 11.82V12H55.3482C55.1549 12 55.0149 11.96 54.9282 11.88C54.8482 11.7933 54.8082 11.66 54.8082 11.48V11.37C54.5682 11.5767 54.2649 11.7533 53.8982 11.9C53.5315 12.0467 53.1249 12.12 52.6782 12.12C52.0582 12.12 51.6149 11.99 51.3482 11.73C51.0815 11.47 50.9482 11.08 50.9482 10.56V7.74C50.9482 7.66667 50.9315 7.61667 50.8982 7.59C50.8715 7.56333 50.8082 7.54 50.7082 7.52L50.3582 7.44V7.26L52.7782 6.96H52.9482V10.74C52.9482 11.04 52.9949 11.2533 53.0882 11.38C53.1882 11.5067 53.3515 11.57 53.5782 11.57C53.9782 11.57 54.3815 11.4033 54.7882 11.07V7.74ZM59.4691 6.38C59.1558 6.38 58.9058 6.31 58.7191 6.17C58.5325 6.02333 58.4391 5.81333 58.4391 5.54C58.4391 5.26667 58.5325 5.06 58.7191 4.92C58.9058 4.77333 59.1558 4.7 59.4691 4.7C59.7825 4.7 60.0325 4.77333 60.2191 4.92C60.4058 5.06 60.4991 5.26667 60.4991 5.54C60.4991 5.81333 60.4058 6.02333 60.2191 6.17C60.0325 6.31 59.7825 6.38 59.4691 6.38ZM57.8791 11.82L58.2291 11.74C58.3291 11.72 58.3925 11.6967 58.4191 11.67C58.4525 11.6433 58.4691 11.5933 58.4691 11.52V7.74C58.4691 7.66667 58.4525 7.61667 58.4191 7.59C58.3925 7.56333 58.3291 7.54 58.2291 7.52L57.8791 7.44V7.26L60.2791 6.96H60.4691V11.52C60.4691 11.5933 60.4825 11.6433 60.5091 11.67C60.5425 11.6967 60.6091 11.72 60.7091 11.74L61.0591 11.82V12H57.8791V11.82ZM64.1303 7.94C64.7103 7.34667 65.3003 7.05 65.9003 7.05C66.1203 7.05 66.2936 7.07667 66.4203 7.13L66.2703 8.69H66.2003L64.1503 8.24V11.52C64.1503 11.5933 64.1636 11.6467 64.1903 11.68C64.2236 11.7067 64.287 11.73 64.3803 11.75L64.7203 11.82V12H61.5603V11.82L61.9103 11.74C62.0103 11.72 62.0736 11.6967 62.1003 11.67C62.1336 11.6433 62.1503 11.5933 62.1503 11.52V7.74C62.1503 7.66667 62.1336 7.61667 62.1003 7.59C62.0736 7.56333 62.0103 7.54 61.9103 7.52L61.5603 7.44V7.26L63.9603 6.96H64.1303V7.94ZM69.6407 7.35C69.4874 7.38333 69.4107 7.44667 69.4107 7.54C69.4107 7.58 69.4274 7.63333 69.4607 7.7L70.6207 10.03L71.7107 7.49C71.7307 7.45 71.7407 7.41667 71.7407 7.39C71.7407 7.35 71.6974 7.32667 71.6107 7.32L71.3507 7.29V7.14H72.5007V7.29L72.2407 7.33C72.1607 7.34333 72.104 7.36 72.0707 7.38C72.0374 7.4 72.004 7.44667 71.9707 7.52L70.0207 12C69.754 12.62 69.534 13.0733 69.3607 13.36C69.194 13.6533 69.004 13.8767 68.7907 14.03C68.584 14.19 68.304 14.3133 67.9507 14.4L67.4107 12.88C67.864 12.86 68.294 12.7833 68.7007 12.65C69.1074 12.5233 69.4574 12.36 69.7507 12.16L67.3407 7.56C67.3074 7.5 67.2674 7.45667 67.2207 7.43C67.1807 7.40333 67.1274 7.38333 67.0607 7.37L66.7607 7.29V7.14H69.9007V7.29L69.6407 7.35Z" fill="#0F0074"/>
</svg>
