<svg width="185" height="105" viewBox="0 0 185 105" fill="none" xmlns="http://www.w3.org/2000/svg">
<g clip-path="url(#clip0_253_1195)">
<path d="M50.1807 76.3145C46.9915 87.4766 58.951 93.4563 65.3294 95.0509L97 103.72L130.309 95.0509C141.073 87.7424 173.5 54.72 150.242 29.6726C125.65 3.1888 83.6675 2.43159 56.5593 10.5374C24.6674 21.3807 33.4377 42.1636 41.8093 51.1996C45.9286 54.9203 53.3699 65.1523 50.1807 76.3145Z" fill="#D1DFFE"/>
<path d="M77.6801 87.1498L80.6379 87.1405L80.5399 52.4395L30 52.5841L30.1026 87.2851L71.9977 87.1638L77.3255 92.8555L77.6801 87.1498Z" fill="#F5F5F5"/>
<path d="M33.8904 83.5628C33.8297 83.5628 33.7644 77.6798 33.7411 70.4205C33.7178 63.1612 33.7411 57.2688 33.8157 57.2688C33.8904 57.2688 33.9417 63.1565 33.9604 70.4158C33.979 77.6751 33.951 83.5628 33.8904 83.5628Z" fill="#263238"/>
<path d="M77.7407 79.8157C77.7407 79.8764 67.8828 79.9557 55.7249 79.9883C43.5669 80.021 33.7137 79.9883 33.709 79.9417C33.7043 79.895 43.5669 79.8017 55.7249 79.7691C67.8828 79.7364 77.7361 79.7551 77.7407 79.8157Z" fill="#EBEBEB"/>
<path d="M77.7263 75.9572C77.7263 76.0178 67.8684 76.0971 55.7151 76.1298C43.5618 76.1624 33.6992 76.1298 33.6992 76.0831C33.6992 76.0365 43.5665 75.9478 55.6964 75.8965C67.8264 75.8452 77.7263 75.8965 77.7263 75.9572Z" fill="#EBEBEB"/>
<path d="M77.7165 72.0991C77.7165 72.1597 67.8586 72.239 55.7053 72.2763C43.552 72.3137 33.6895 72.2763 33.6895 72.225C33.6895 72.1737 43.5427 72.0897 55.7007 72.0524C67.8586 72.0151 77.7165 72.0384 77.7165 72.0991Z" fill="#EBEBEB"/>
<path d="M77.7029 68.2416C77.7029 68.3069 67.8496 68.3816 55.6917 68.4189C43.5337 68.4562 33.6758 68.4189 33.6758 68.3723C33.6758 68.3256 43.5337 68.2323 55.6917 68.195C67.8496 68.1577 77.7029 68.181 77.7029 68.2416Z" fill="#EBEBEB"/>
<path d="M77.6931 64.388C77.6931 64.4486 67.8352 64.5233 55.6819 64.5606C43.5286 64.5979 33.666 64.5606 33.666 64.514C33.666 64.4673 43.5193 64.374 55.6819 64.3413C67.8445 64.3087 77.6931 64.3273 77.6931 64.388Z" fill="#EBEBEB"/>
<path d="M77.6853 60.5296C77.6853 60.5902 67.8274 60.6696 55.6694 60.7022C43.5115 60.7349 33.6582 60.7022 33.6582 60.6556C33.6582 60.6089 43.5115 60.5156 55.6694 60.4829C67.8274 60.4503 77.6853 60.4689 77.6853 60.5296Z" fill="#EBEBEB"/>
<path d="M77.6697 56.6702C77.6697 56.7309 67.8164 56.8102 55.6585 56.8428C43.5005 56.8755 33.6426 56.8428 33.6426 56.7962C33.6426 56.7495 43.4958 56.6562 55.6585 56.6236C67.8211 56.5909 77.6697 56.6096 77.6697 56.6702Z" fill="#EBEBEB"/>
<path d="M39.8459 77.527L36.6875 77.5364L36.7053 83.55L39.8638 83.5406L39.8459 77.527Z" fill="#407BFF"/>
<path d="M62.762 77.4797L59.6035 77.4885L59.6203 83.5022L62.7787 83.4933L62.762 77.4797Z" fill="#407BFF"/>
<path d="M46.0237 73.0876L42.8652 73.0969L42.8962 83.5286L46.0546 83.5193L46.0237 73.0876Z" fill="#407BFF"/>
<path d="M57.5784 70.3564L54.4199 70.3652L54.4566 83.5122L57.6151 83.5034L57.5784 70.3564Z" fill="#407BFF"/>
<path d="M51.8518 62.3678L48.6934 62.3772L48.7561 83.5112L51.9145 83.5019L51.8518 62.3678Z" fill="#407BFF"/>
<path d="M68.6526 66.5813H65.4941V83.8058H68.6526V66.5813Z" fill="#407BFF"/>
<path d="M72.6641 83.45C72.6641 83.5107 64.0005 83.5853 53.3168 83.618C42.6331 83.6506 33.9648 83.618 33.9648 83.562C33.9648 83.506 42.6284 83.4267 53.3168 83.3987C64.0052 83.3707 72.6641 83.3894 72.6641 83.45Z" fill="#263238"/>
<path d="M138.951 6.90845H47.6543V49.116H115.409L115.783 55.0691L121.353 49.116H138.951V6.90845Z" fill="#F5F5F5"/>
<path d="M54.0775 36.0627V37.397H53.9422V36.184H53.625V36.0627H54.0775Z" fill="#263238"/>
<path d="M54.3945 36.7304C54.3945 36.3059 54.6185 36.054 54.9264 36.054C55.2343 36.054 55.4629 36.3059 55.4629 36.7304C55.4629 37.155 55.2343 37.4069 54.9264 37.4069C54.6185 37.4069 54.3945 37.155 54.3945 36.7304ZM55.3276 36.7304C55.3276 36.3759 55.169 36.1799 54.9357 36.1799C54.7024 36.1799 54.5438 36.3759 54.5438 36.7304C54.5438 37.085 54.7071 37.2809 54.9357 37.2809C55.1643 37.2809 55.3183 37.085 55.3183 36.7304H55.3276Z" fill="#263238"/>
<path d="M54.6176 28.9899V29.1112H53.6846V29.0133L54.2351 28.4721C54.389 28.3228 54.417 28.2341 54.417 28.1408C54.417 28.0475 54.3051 27.8936 54.1044 27.8936C54.0366 27.8905 53.9688 27.9022 53.906 27.928C53.8431 27.9538 53.7867 27.993 53.7405 28.0429L53.6426 27.9775C53.7013 27.913 53.7736 27.8624 53.8543 27.8293C53.935 27.7963 54.022 27.7815 54.1091 27.7863C54.3797 27.7863 54.5523 27.9216 54.5523 28.1455C54.5486 28.2266 54.5271 28.3059 54.4892 28.3777C54.4513 28.4494 54.398 28.512 54.3331 28.5607L53.8665 29.0273L54.6176 28.9899Z" fill="#263238"/>
<path d="M54.7617 28.4453C54.7617 28.0207 54.9857 27.7688 55.2936 27.7688C55.6015 27.7688 55.8254 28.0207 55.8254 28.4453C55.8254 28.8698 55.6015 29.1218 55.2936 29.1218C54.9857 29.1218 54.7617 28.8698 54.7617 28.4453ZM55.6948 28.4453C55.6948 28.0907 55.5362 27.8948 55.3029 27.8948C55.0696 27.8948 54.911 28.0907 54.911 28.4453C54.911 28.7998 55.0743 28.9958 55.3029 28.9958C55.5315 28.9958 55.6948 28.7998 55.6948 28.4453Z" fill="#263238"/>
<path d="M54.5913 20.443C54.5913 20.6669 54.428 20.8349 54.1247 20.8349C53.954 20.8373 53.7882 20.7776 53.6582 20.6669L53.7282 20.5549C53.8395 20.6581 53.987 20.7134 54.1387 20.7089C54.3627 20.7089 54.484 20.6063 54.484 20.443C54.484 20.2797 54.3673 20.177 54.1201 20.177H54.0268V20.0744L54.3953 19.6079H53.7142V19.4866H54.5726V19.5799L54.1947 20.0464C54.4466 20.0791 54.5913 20.2284 54.5913 20.443Z" fill="#263238"/>
<path d="M54.7617 20.1582C54.7617 19.7336 54.9857 19.4817 55.2936 19.4817C55.6015 19.4817 55.8254 19.7336 55.8254 20.1582C55.8254 20.5827 55.6015 20.8346 55.2936 20.8346C54.9857 20.8346 54.7617 20.5827 54.7617 20.1582ZM55.6948 20.1582C55.6948 19.8036 55.5362 19.6077 55.3029 19.6077C55.0696 19.6077 54.911 19.8036 54.911 20.1582C54.911 20.5127 55.0743 20.7087 55.3029 20.7087C55.5315 20.7087 55.6948 20.5127 55.6948 20.1582Z" fill="#263238"/>
<path d="M59.9609 41.1015C59.9609 40.677 60.1849 40.425 60.4928 40.425C60.8007 40.425 61.0246 40.677 61.0246 41.1015C61.0246 41.5261 60.8007 41.778 60.4928 41.778C60.1849 41.778 59.9609 41.5074 59.9609 41.1015ZM60.894 41.1015C60.894 40.747 60.7354 40.551 60.5021 40.551C60.2689 40.551 60.1102 40.747 60.1102 41.1015C60.1102 41.4561 60.2689 41.652 60.5021 41.652C60.7354 41.652 60.8847 41.4561 60.8847 41.1015H60.894Z" fill="#263238"/>
<path d="M69.8229 40.4338V41.7681H69.6922V40.5738H69.375V40.4338H69.8229Z" fill="#263238"/>
<path d="M80.2172 41.6462V41.7675H79.2842V41.6695L79.8394 41.1283C79.9886 40.979 80.0166 40.8904 80.0166 40.7971C80.0166 40.7038 79.9093 40.5498 79.7041 40.5498C79.6365 40.5461 79.569 40.5571 79.5062 40.5821C79.4434 40.6071 79.3867 40.6454 79.3402 40.6944L79.2422 40.6151C79.3011 40.5509 79.3734 40.5004 79.4541 40.4674C79.5347 40.4343 79.6217 40.4195 79.7087 40.4238C79.9793 40.4238 80.1473 40.5591 80.1473 40.7831C80.1446 40.8644 80.1235 40.944 80.0855 41.016C80.0475 41.0879 79.9936 41.1502 79.928 41.1983L79.4615 41.6648L80.2172 41.6462Z" fill="#263238"/>
<path d="M90.0483 41.3856C90.0483 41.6048 89.885 41.7775 89.5818 41.7775C89.4101 41.7803 89.2437 41.7187 89.1152 41.6048L89.1805 41.4975C89.2944 41.5998 89.4428 41.6548 89.5958 41.6515C89.815 41.6515 89.9363 41.5489 89.9363 41.3856C89.9363 41.2223 89.8244 41.1196 89.5771 41.1196H89.4838V41.0403L89.8524 40.5738H89.1712V40.4338H90.0296V40.5318L89.6517 40.9984C89.9037 41.0403 90.0483 41.171 90.0483 41.3856Z" fill="#263238"/>
<path d="M100.153 41.4182H99.8872V41.7681H99.7472V41.4182H98.9961V41.3156L99.7052 40.4338H99.8545L99.1734 41.2969H99.7519V40.9844H99.8872V41.2969H100.153V41.4182Z" fill="#263238"/>
<path d="M109.777 41.3767C109.777 41.6006 109.623 41.7779 109.31 41.7779C109.139 41.7808 108.972 41.7192 108.844 41.6053L108.881 41.5073C108.991 41.6098 109.137 41.6651 109.287 41.6613C109.516 41.6613 109.637 41.554 109.637 41.3907C109.637 41.2274 109.53 41.1108 109.17 41.1108H108.886L108.956 40.4436H109.684V40.5742H109.077L109.03 40.9988H109.203C109.628 40.9801 109.777 41.1387 109.777 41.3767Z" fill="#263238"/>
<path d="M119.733 41.3681C119.733 41.4269 119.72 41.4849 119.696 41.5384C119.672 41.5918 119.636 41.6395 119.592 41.6784C119.548 41.7172 119.496 41.7462 119.44 41.7635C119.384 41.7807 119.325 41.7859 119.267 41.7787C118.912 41.7787 118.721 41.5361 118.721 41.1115C118.721 40.687 118.968 40.4257 119.332 40.4257C119.44 40.4206 119.548 40.4448 119.644 40.4957L119.588 40.6077C119.511 40.5616 119.422 40.5389 119.332 40.5424C119.043 40.5424 118.865 40.729 118.865 41.0929C118.863 41.1286 118.863 41.1644 118.865 41.2002C118.903 41.1263 118.961 41.0651 119.034 41.0244C119.106 40.9837 119.189 40.9653 119.271 40.9716C119.328 40.9636 119.386 40.9679 119.442 40.9841C119.497 41.0003 119.548 41.0281 119.592 41.0656C119.635 41.1031 119.671 41.1495 119.695 41.2016C119.719 41.2538 119.732 41.3106 119.733 41.3681ZM119.598 41.3681C119.598 41.1955 119.467 41.0835 119.262 41.0835C119.22 41.0784 119.177 41.0819 119.137 41.0938C119.096 41.1058 119.059 41.126 119.026 41.1531C118.994 41.1802 118.968 41.2137 118.949 41.2515C118.93 41.2893 118.919 41.3306 118.917 41.3728C118.917 41.5221 119.043 41.6574 119.271 41.6574C119.313 41.6641 119.355 41.6618 119.396 41.6506C119.436 41.6394 119.474 41.6197 119.506 41.5927C119.539 41.5658 119.565 41.5322 119.583 41.4942C119.601 41.4563 119.611 41.4149 119.612 41.3728L119.598 41.3681Z" fill="#263238"/>
<path d="M129.525 40.4338V40.5318L128.965 41.7681H128.82L129.366 40.5551H128.68V40.8071H128.545V40.4338H129.525Z" fill="#263238"/>
<path d="M129.597 36.7959C129.597 36.8659 114.173 36.9219 95.1522 36.9219C76.1315 36.9219 60.7031 36.8659 60.7031 36.7959C60.7031 36.7259 76.1268 36.6653 95.1522 36.6653C114.178 36.6653 129.597 36.7213 129.597 36.7959Z" fill="#263238"/>
<path d="M129.597 28.4668C129.597 28.5368 114.173 28.5928 95.1522 28.5928C76.1315 28.5928 60.7031 28.5368 60.7031 28.4668C60.7031 28.3968 76.1268 28.3362 95.1522 28.3362C114.178 28.3362 129.597 28.3922 129.597 28.4668Z" fill="#263238"/>
<path d="M129.597 20.1397C129.597 20.2096 114.173 20.2656 95.1522 20.2656C76.1315 20.2656 60.7031 20.2096 60.7031 20.1397C60.7031 20.0697 76.1268 20.009 95.1522 20.009C114.178 20.009 129.597 20.0464 129.597 20.1397Z" fill="#263238"/>
<path d="M60.7022 36.6738C60.6977 36.7604 60.6678 36.8437 60.6164 36.9134C60.5651 36.9832 60.4944 37.0363 60.4131 37.0663C60.3318 37.0963 60.2435 37.1018 60.1591 37.0822C60.0747 37.0625 59.998 37.0186 59.9383 36.9558C59.8786 36.893 59.8387 36.814 59.8234 36.7288C59.8081 36.6435 59.8181 36.5556 59.8522 36.476C59.8864 36.3963 59.9431 36.3284 60.0154 36.2807C60.0877 36.2329 60.1724 36.2074 60.259 36.2073C60.3194 36.2065 60.3793 36.2183 60.435 36.2418C60.4907 36.2652 60.5409 36.3 60.5825 36.3438C60.6241 36.3876 60.6562 36.4395 60.6768 36.4963C60.6974 36.5531 60.7061 36.6136 60.7022 36.6738Z" fill="#407BFF"/>
<path d="M70.6241 36.6738C70.6195 36.7605 70.5896 36.844 70.538 36.9139C70.4864 36.9837 70.4154 37.0368 70.3338 37.0667C70.2523 37.0965 70.1638 37.1018 70.0793 37.0817C69.9948 37.0617 69.918 37.0173 69.8586 36.954C69.7991 36.8908 69.7595 36.8114 69.7447 36.7259C69.73 36.6403 69.7407 36.5523 69.7755 36.4727C69.8103 36.3932 69.8678 36.3256 69.9407 36.2784C70.0136 36.2312 70.0987 36.2065 70.1855 36.2073C70.2456 36.2072 70.305 36.2194 70.3601 36.2431C70.4152 36.2669 70.4649 36.3017 70.506 36.3455C70.5471 36.3892 70.5788 36.4409 70.5991 36.4974C70.6194 36.5539 70.6279 36.6139 70.6241 36.6738Z" fill="#407BFF"/>
<path d="M80.5167 36.6738C80.5121 36.7603 80.4823 36.8436 80.4309 36.9134C80.3795 36.9831 80.3088 37.0363 80.2275 37.0663C80.1462 37.0963 80.058 37.1018 79.9736 37.0821C79.8892 37.0625 79.8124 37.0186 79.7527 36.9557C79.6931 36.8929 79.6531 36.814 79.6378 36.7287C79.6225 36.6435 79.6326 36.5556 79.6667 36.4759C79.7008 36.3963 79.7575 36.3284 79.8298 36.2807C79.9021 36.2329 79.9868 36.2074 80.0735 36.2073C80.1337 36.2072 80.1933 36.2194 80.2486 36.2431C80.304 36.2668 80.3539 36.3016 80.3954 36.3452C80.4369 36.3889 80.469 36.4405 80.4899 36.497C80.5107 36.5535 80.5198 36.6137 80.5167 36.6738Z" fill="#407BFF"/>
<path d="M90.421 36.6738C90.4164 36.7603 90.3866 36.8436 90.3352 36.9134C90.2838 36.9831 90.2131 37.0363 90.1318 37.0663C90.0505 37.0963 89.9623 37.1018 89.8779 37.0821C89.7935 37.0625 89.7167 37.0186 89.657 36.9557C89.5974 36.8929 89.5574 36.814 89.5421 36.7287C89.5268 36.6435 89.5369 36.5556 89.571 36.4759C89.6051 36.3963 89.6618 36.3284 89.7341 36.2807C89.8064 36.2329 89.8911 36.2074 89.9778 36.2073C90.038 36.2072 90.0976 36.2194 90.1529 36.2431C90.2083 36.2668 90.2582 36.3016 90.2997 36.3452C90.3412 36.3889 90.3733 36.4405 90.3942 36.497C90.415 36.5535 90.4241 36.6137 90.421 36.6738Z" fill="#407BFF"/>
<path d="M100.325 36.6745C100.321 36.76 100.291 36.8423 100.241 36.9115C100.19 36.9807 100.121 37.0338 100.041 37.0644C99.9612 37.095 99.8741 37.1018 99.7903 37.084C99.7066 37.0661 99.6298 37.0244 99.5693 36.9639C99.5087 36.9033 99.467 36.8266 99.4492 36.7428C99.4313 36.6591 99.4381 36.572 99.4688 36.492C99.4994 36.4121 99.5525 36.3427 99.6217 36.2923C99.6909 36.2418 99.7732 36.2126 99.8587 36.2079C99.9208 36.2046 99.983 36.2143 100.041 36.2366C100.099 36.2588 100.152 36.2931 100.196 36.3371C100.24 36.3811 100.274 36.4339 100.297 36.492C100.319 36.5501 100.329 36.6123 100.325 36.6745Z" fill="#407BFF"/>
<path d="M120.136 36.6738C120.131 36.7604 120.101 36.8437 120.05 36.9134C119.999 36.9832 119.928 37.0363 119.847 37.0663C119.765 37.0963 119.677 37.1018 119.593 37.0822C119.508 37.0625 119.432 37.0186 119.372 36.9558C119.312 36.893 119.272 36.814 119.257 36.7288C119.242 36.6435 119.252 36.5556 119.286 36.476C119.32 36.3963 119.377 36.3284 119.449 36.2807C119.521 36.2329 119.606 36.2074 119.693 36.2073C119.753 36.2065 119.813 36.2183 119.869 36.2418C119.924 36.2652 119.974 36.3 120.016 36.3438C120.058 36.3876 120.09 36.4395 120.11 36.4963C120.131 36.5531 120.14 36.6136 120.136 36.6738Z" fill="#407BFF"/>
<path d="M110.23 36.6738C110.225 36.7603 110.195 36.8436 110.144 36.9134C110.092 36.9831 110.022 37.0363 109.94 37.0663C109.859 37.0963 109.771 37.1018 109.686 37.0821C109.602 37.0625 109.525 37.0186 109.466 36.9557C109.406 36.8929 109.366 36.814 109.351 36.7287C109.335 36.6435 109.345 36.5556 109.38 36.4759C109.414 36.3963 109.47 36.3284 109.543 36.2807C109.615 36.2329 109.7 36.2074 109.786 36.2073C109.847 36.2072 109.906 36.2194 109.962 36.2431C110.017 36.2668 110.067 36.3016 110.108 36.3452C110.15 36.3889 110.182 36.4405 110.203 36.497C110.224 36.5535 110.233 36.6137 110.23 36.6738Z" fill="#407BFF"/>
<path d="M130.041 36.6738C130.041 36.7661 130.013 36.8563 129.962 36.933C129.911 37.0097 129.838 37.0695 129.753 37.1048C129.667 37.1401 129.573 37.1494 129.483 37.1314C129.392 37.1134 129.309 37.0689 129.244 37.0037C129.179 36.9384 129.134 36.8553 129.116 36.7648C129.098 36.6743 129.108 36.5805 129.143 36.4953C129.178 36.41 129.238 36.3371 129.315 36.2859C129.391 36.2346 129.482 36.2073 129.574 36.2073C129.636 36.2031 129.699 36.2124 129.757 36.2344C129.816 36.2563 129.869 36.2906 129.913 36.3347C129.957 36.3789 129.991 36.432 130.013 36.4905C130.035 36.549 130.045 36.6115 130.041 36.6738Z" fill="#407BFF"/>
<path d="M65.2187 36.7952C65.2187 36.8535 65.2013 36.9105 65.1688 36.9589C65.1363 37.0074 65.0901 37.045 65.0362 37.0671C64.9822 37.0892 64.9228 37.0948 64.8657 37.0831C64.8086 37.0713 64.7562 37.0429 64.7153 37.0013C64.6744 36.9597 64.6468 36.9069 64.6359 36.8496C64.6251 36.7923 64.6316 36.733 64.6546 36.6794C64.6776 36.6258 64.716 36.5802 64.7649 36.5485C64.8138 36.5168 64.8711 36.5003 64.9294 36.5013C64.9678 36.5013 65.0058 36.5089 65.0412 36.5237C65.0766 36.5385 65.1087 36.5603 65.1356 36.5876C65.1626 36.615 65.1838 36.6474 65.198 36.6831C65.2123 36.7187 65.2193 36.7568 65.2187 36.7952Z" fill="#E0E0E0"/>
<path d="M75.1601 36.7952C75.1601 36.8535 75.1427 36.9105 75.1102 36.9589C75.0777 37.0074 75.0315 37.045 74.9776 37.0671C74.9236 37.0892 74.8642 37.0948 74.8071 37.0831C74.75 37.0713 74.6976 37.0429 74.6567 37.0013C74.6158 36.9597 74.5882 36.9069 74.5774 36.8496C74.5665 36.7923 74.573 36.733 74.596 36.6794C74.619 36.6258 74.6574 36.5802 74.7063 36.5485C74.7553 36.5168 74.8125 36.5003 74.8709 36.5013C74.9092 36.5013 74.9472 36.5089 74.9826 36.5237C75.018 36.5385 75.0501 36.5603 75.0771 36.5876C75.104 36.615 75.1252 36.6474 75.1394 36.6831C75.1537 36.7187 75.1607 36.7568 75.1601 36.7952Z" fill="#E0E0E0"/>
<path d="M85.0878 36.7952C85.0878 36.8535 85.0705 36.9105 85.038 36.9589C85.0055 37.0074 84.9593 37.045 84.9053 37.0671C84.8513 37.0892 84.792 37.0948 84.7348 37.0831C84.6777 37.0713 84.6253 37.0429 84.5844 37.0013C84.5435 36.9597 84.5159 36.9069 84.5051 36.8496C84.4943 36.7923 84.5008 36.733 84.5237 36.6794C84.5467 36.6258 84.5851 36.5802 84.634 36.5485C84.683 36.5168 84.7403 36.5003 84.7986 36.5013C84.837 36.5013 84.875 36.5089 84.9104 36.5237C84.9458 36.5385 84.9779 36.5603 85.0048 36.5876C85.0317 36.615 85.0529 36.6474 85.0672 36.6831C85.0814 36.7187 85.0885 36.7568 85.0878 36.7952Z" fill="#E0E0E0"/>
<path d="M95.0443 36.7951C95.0443 36.8719 95.0138 36.9454 94.9595 36.9997C94.9053 37.0539 94.8317 37.0844 94.755 37.0844C94.684 37.0754 94.6188 37.0408 94.5715 36.9871C94.5241 36.9335 94.498 36.8644 94.498 36.7928C94.498 36.7213 94.5241 36.6522 94.5715 36.5985C94.6188 36.5448 94.684 36.5102 94.755 36.5012C94.8321 36.5024 94.9057 36.534 94.9598 36.5889C95.0139 36.6439 95.0443 36.718 95.0443 36.7951Z" fill="#E0E0E0"/>
<path d="M104.987 36.7951C104.986 36.8521 104.968 36.9076 104.936 36.9545C104.903 37.0015 104.858 37.0378 104.805 37.059C104.752 37.0802 104.694 37.0853 104.638 37.0736C104.582 37.0619 104.531 37.034 104.491 36.9934C104.451 36.9527 104.424 36.9012 104.413 36.8452C104.403 36.7892 104.409 36.7313 104.431 36.6787C104.453 36.6261 104.49 36.5812 104.537 36.5497C104.585 36.5181 104.64 36.5012 104.697 36.5012C104.736 36.5012 104.774 36.5088 104.809 36.5237C104.845 36.5385 104.877 36.5602 104.904 36.5876C104.931 36.6149 104.952 36.6474 104.966 36.683C104.98 36.7186 104.987 36.7568 104.987 36.7951Z" fill="#E0E0E0"/>
<path d="M114.946 36.7951C114.945 36.8521 114.927 36.9076 114.895 36.9545C114.862 37.0015 114.817 37.0378 114.764 37.059C114.711 37.0802 114.653 37.0853 114.597 37.0736C114.541 37.0619 114.49 37.034 114.45 36.9934C114.41 36.9527 114.383 36.9012 114.372 36.8452C114.362 36.7892 114.368 36.7313 114.39 36.6787C114.412 36.6261 114.449 36.5812 114.496 36.5497C114.544 36.5181 114.599 36.5012 114.656 36.5012C114.695 36.5012 114.733 36.5088 114.768 36.5237C114.804 36.5385 114.836 36.5602 114.863 36.5876C114.89 36.6149 114.911 36.6474 114.925 36.683C114.939 36.7186 114.946 36.7568 114.946 36.7951Z" fill="#E0E0E0"/>
<path d="M124.871 36.7959C124.871 36.8726 124.841 36.9461 124.786 37.0004C124.732 37.0546 124.658 37.0851 124.582 37.0851C124.523 37.086 124.466 37.0695 124.417 37.0375C124.368 37.0056 124.329 36.9597 124.306 36.9058C124.284 36.852 124.277 36.7925 124.289 36.735C124.3 36.6776 124.328 36.6248 124.369 36.5834C124.411 36.542 124.463 36.5139 124.521 36.5027C124.578 36.4915 124.638 36.4978 124.692 36.5206C124.746 36.5434 124.791 36.5818 124.823 36.6308C124.855 36.6799 124.872 36.7373 124.871 36.7959Z" fill="#E0E0E0"/>
<path d="M71.2502 31.109C71.2511 31.324 71.1883 31.5344 71.0696 31.7137C70.9509 31.893 70.7818 32.033 70.5835 32.1162C70.3852 32.1993 70.1668 32.2218 69.9557 32.1807C69.7447 32.1397 69.5505 32.037 69.3979 31.8856C69.2452 31.7342 69.1408 31.541 69.098 31.3303C69.0551 31.1196 69.0757 30.901 69.1571 30.702C69.2386 30.503 69.3772 30.3327 69.5554 30.2124C69.7336 30.0922 69.9435 30.0276 70.1585 30.0267C70.3015 30.0254 70.4432 30.0525 70.5756 30.1063C70.708 30.1602 70.8284 30.2397 70.9299 30.3404C71.0314 30.441 71.112 30.5607 71.1669 30.6926C71.2219 30.8246 71.2502 30.9661 71.2502 31.109Z" fill="#407BFF"/>
<path d="M79.8948 26.0113C79.8957 26.2265 79.8327 26.4371 79.7138 26.6165C79.595 26.7959 79.4255 26.9359 79.227 27.0189C79.0284 27.1019 78.8097 27.1241 78.5985 27.0827C78.3874 27.0413 78.1932 26.9381 78.0407 26.7863C77.8882 26.6344 77.7843 26.4408 77.7419 26.2298C77.6996 26.0188 77.7209 25.8 77.803 25.6011C77.8851 25.4022 78.0245 25.2321 78.2033 25.1125C78.3822 24.9928 78.5925 24.929 78.8077 24.929C79.0952 24.929 79.371 25.0428 79.5747 25.2457C79.7784 25.4485 79.8935 25.7238 79.8948 26.0113Z" fill="#407BFF"/>
<path d="M90.6213 28.4681C90.6213 28.6831 90.5576 28.8933 90.4381 29.0721C90.3187 29.2508 90.1489 29.3901 89.9503 29.4724C89.7517 29.5547 89.5331 29.5762 89.3222 29.5343C89.1114 29.4923 88.9177 29.3888 88.7656 29.2368C88.6136 29.0848 88.5101 28.8911 88.4682 28.6802C88.4262 28.4693 88.4477 28.2508 88.53 28.0521C88.6123 27.8535 88.7516 27.6837 88.9304 27.5643C89.1091 27.4449 89.3193 27.3811 89.5343 27.3811C89.8226 27.3811 90.0991 27.4956 90.3029 27.6995C90.5068 27.9033 90.6213 28.1798 90.6213 28.4681Z" fill="#407BFF"/>
<path d="M101.09 17.1977C101.09 17.4133 101.026 17.624 100.906 17.8031C100.786 17.9821 100.615 18.1214 100.416 18.2033C100.216 18.2851 99.997 18.3058 99.7858 18.2627C99.5745 18.2196 99.3809 18.1147 99.2294 17.9613C99.078 17.8078 98.9756 17.6129 98.9352 17.4011C98.8949 17.1893 98.9184 16.9703 99.0028 16.7719C99.0873 16.5736 99.2288 16.4048 99.4094 16.287C99.5899 16.1693 99.8015 16.1079 100.017 16.1107C100.303 16.1132 100.577 16.2289 100.778 16.4326C100.979 16.6364 101.091 16.9115 101.09 17.1977Z" fill="#407BFF"/>
<path d="M110.875 23.0894C110.876 23.3046 110.813 23.5153 110.694 23.6946C110.575 23.874 110.406 24.0141 110.207 24.0971C110.009 24.18 109.79 24.2022 109.579 24.1608C109.368 24.1194 109.174 24.0162 109.021 23.8644C108.869 23.7126 108.765 23.5189 108.722 23.3079C108.68 23.0969 108.701 22.8781 108.783 22.6792C108.866 22.4803 109.005 22.3103 109.184 22.1906C109.363 22.071 109.573 22.0071 109.788 22.0071C110.076 22.0071 110.351 22.121 110.555 22.3238C110.759 22.5267 110.874 22.802 110.875 23.0894Z" fill="#407BFF"/>
<path d="M120.78 24.6625C120.78 24.8775 120.716 25.0876 120.596 25.2664C120.477 25.4452 120.307 25.5845 120.108 25.6668C119.91 25.749 119.691 25.7706 119.48 25.7286C119.27 25.6867 119.076 25.5832 118.924 25.4311C118.772 25.2791 118.668 25.0854 118.626 24.8746C118.584 24.6637 118.606 24.4451 118.688 24.2465C118.77 24.0479 118.91 23.8781 119.089 23.7586C119.267 23.6392 119.478 23.5754 119.693 23.5754C119.835 23.5748 119.977 23.6025 120.109 23.6569C120.241 23.7113 120.361 23.7914 120.463 23.8925C120.564 23.9935 120.644 24.1136 120.698 24.2458C120.752 24.3779 120.78 24.5196 120.78 24.6625Z" fill="#407BFF"/>
<path d="M130.038 33.109C129.955 33.1162 129.87 33.1162 129.786 33.109C129.537 33.0944 129.289 33.0616 129.045 33.011C128.095 32.8342 127.207 32.4129 126.469 31.7887C125.947 31.3262 125.519 30.7669 125.21 30.1418C124.839 29.4145 124.395 28.7268 123.885 28.089C123.324 27.3428 122.539 26.7952 121.645 26.5261C121.156 26.4145 120.646 26.4338 120.166 26.5821C119.661 26.7473 119.194 27.0105 118.79 27.3566C117.946 28.061 117.325 29.0641 116.509 29.9738C116.098 30.4587 115.592 30.8527 115.021 31.1308C114.406 31.4042 113.717 31.4618 113.066 31.2941C112.735 31.1853 112.431 31.007 112.174 30.7713C111.917 30.5356 111.714 30.2478 111.577 29.9272C111.291 29.2936 111.075 28.6302 110.934 27.9491C110.799 27.2634 110.6 26.5919 110.341 25.9429C110.219 25.6243 109.994 25.3552 109.702 25.1778C109.389 25.03 109.044 24.9626 108.699 24.9819C107.965 25.0623 107.237 25.19 106.52 25.3644C106.143 25.445 105.758 25.4903 105.373 25.4997C104.971 25.5148 104.572 25.4366 104.206 25.2711C103.832 25.0985 103.51 24.8296 103.273 24.492C103.046 24.1619 102.855 23.8085 102.704 23.4376C102.391 22.7052 102.181 21.9401 101.897 21.1983C101.76 20.8312 101.584 20.4794 101.374 20.1486C101.163 19.831 100.863 19.5827 100.511 19.4348C100.423 19.4068 100.334 19.3741 100.241 19.3508L99.956 19.3275C99.7737 19.3131 99.591 19.3503 99.4288 19.4348C99.0956 19.6344 98.8218 19.9195 98.6357 20.2605C98.2337 20.9805 97.9204 21.7465 97.7027 22.5419C97.4694 23.3397 97.2688 24.1561 97.0775 24.9819C96.7603 26.3488 96.4803 27.7111 96.1444 29.0454C95.9755 29.7099 95.7731 30.3655 95.5379 31.0095C95.3193 31.6705 94.9685 32.28 94.5069 32.801C94.2511 33.0671 93.9007 33.2213 93.5318 33.2303C93.1758 33.2243 92.8285 33.1193 92.5288 32.927C91.9659 32.5582 91.4886 32.073 91.1292 31.5041C90.4356 30.4222 89.8659 29.2657 89.431 28.0564C88.9644 26.9133 88.4232 25.7797 87.5368 25.0052C87.1043 24.6297 86.5873 24.3644 86.03 24.232C85.4727 24.0995 84.8916 24.1039 84.3364 24.2448C83.7996 24.3876 83.2881 24.6126 82.8201 24.9119C82.3548 25.1944 81.9132 25.5142 81.4998 25.8683C80.6986 26.5418 79.9586 27.285 79.2884 28.089C78.2826 29.0892 77.1897 29.9979 76.0227 30.8043C74.9816 31.5432 73.8554 32.1541 72.6683 32.6238C71.6348 33.0497 70.5184 33.2364 69.4025 33.1696C68.4693 33.0603 67.5528 32.8379 66.6733 32.5071C65.4499 32.0578 64.263 31.5151 63.1229 30.8836C62.731 30.669 62.4325 30.4964 62.2365 30.3751C62.0406 30.2538 61.9473 30.1884 61.9473 30.1884L62.2552 30.3517L63.1509 30.8183C64.2998 31.4211 65.4893 31.9433 66.7106 32.3812C67.5834 32.7011 68.4922 32.9126 69.4165 33.011C70.5151 33.0706 71.6128 32.8792 72.6263 32.4511C73.7949 31.9801 74.9036 31.3725 75.9294 30.641C77.0839 29.8352 78.1644 28.9281 79.1578 27.9304C79.823 27.1194 80.5583 26.3684 81.3552 25.6864C81.7778 25.3264 82.2269 24.9989 82.6988 24.7066C83.1857 24.3954 83.7176 24.161 84.2757 24.0115C84.8658 23.8646 85.4826 23.8622 86.0738 24.0043C86.665 24.1464 87.2133 24.4289 87.6721 24.8279C88.6052 25.649 89.1604 26.8154 89.6409 27.9677C90.0737 29.1599 90.6369 30.3005 91.3204 31.3688C91.6631 31.9058 92.1145 32.3651 92.6454 32.7171C92.909 32.8819 93.2117 32.9736 93.5225 32.983C93.8237 32.9765 94.111 32.8546 94.3249 32.6424C94.7571 32.1484 95.0856 31.5725 95.2907 30.9489C95.5286 30.3191 95.7152 29.6659 95.8925 29.0034C96.2424 27.6831 96.5223 26.3208 96.8256 24.9492C97.0168 24.1235 97.2175 23.3024 97.4554 22.4952C97.6708 21.6828 97.9841 20.8995 98.3885 20.1626C98.5946 19.7744 98.9047 19.4512 99.2842 19.2295C99.4863 19.1278 99.7115 19.0811 99.9374 19.0942L100.264 19.1268C100.367 19.1268 100.474 19.1875 100.577 19.2202C100.976 19.3852 101.318 19.6664 101.556 20.0273C101.778 20.3752 101.963 20.7459 102.107 21.133C102.396 21.8841 102.601 22.6539 102.909 23.363C103.217 24.0721 103.595 24.7626 104.276 25.0705C104.972 25.3188 105.728 25.3465 106.441 25.1498C107.17 24.973 107.911 24.8451 108.657 24.7673C109.044 24.7484 109.431 24.8253 109.781 24.9912C110.111 25.1957 110.368 25.4995 110.514 25.859C110.776 26.5231 110.976 27.2104 111.111 27.9117C111.259 28.5771 111.478 29.2247 111.764 29.8432C111.887 30.137 112.072 30.4013 112.305 30.6185C112.538 30.8356 112.815 31.0007 113.117 31.1028C113.72 31.2571 114.357 31.2062 114.927 30.9582C115.472 30.6887 115.955 30.3091 116.345 29.8432C117.153 28.9568 117.782 27.9491 118.678 27.2213C119.101 26.8619 119.591 26.5892 120.12 26.4188C120.63 26.2639 121.173 26.2478 121.692 26.3722C122.607 26.6515 123.411 27.2133 123.987 27.9771C124.5 28.6259 124.944 29.3264 125.312 30.0671C125.608 30.6892 126.024 31.2472 126.535 31.7093C127.256 32.3296 128.123 32.758 129.054 32.955C129.295 33.012 129.54 33.0541 129.786 33.081C129.871 33.0842 129.955 33.0935 130.038 33.109Z" fill="#407BFF"/>
<path d="M71.3576 14.4495C71.3576 14.5241 67.5086 14.5801 62.7686 14.5801C58.0286 14.5801 54.1797 14.5241 54.1797 14.4495C54.1797 14.3748 58.024 14.3235 62.7686 14.3235C67.5133 14.3235 71.3576 14.3608 71.3576 14.4495Z" fill="#263238"/>
<path d="M159.762 54.9915H122.02V90.4576H126.312V96.7745L132.223 90.4576H159.762V54.9915Z" fill="#F5F5F5"/>
<path d="M140.722 59.0081C138.415 59.0081 136.16 59.6921 134.242 60.9737C132.324 62.2553 130.829 64.0769 129.946 66.2081C129.064 68.3393 128.833 70.6844 129.283 72.9469C129.733 75.2094 130.844 77.2876 132.475 78.9188C134.106 80.5499 136.184 81.6608 138.447 82.1108C140.709 82.5608 143.054 82.3299 145.185 81.4471C147.317 80.5643 149.138 79.0694 150.42 77.1513C151.701 75.2333 152.385 72.9783 152.385 70.6715C152.385 67.5781 151.157 64.6115 148.969 62.4242C146.782 60.2369 143.815 59.0081 140.722 59.0081ZM140.899 77.6322C139.484 77.6294 138.102 77.2072 136.927 76.419C135.751 75.6307 134.836 74.5117 134.297 73.2035C133.758 71.8953 133.618 70.4565 133.896 69.0691C134.174 67.6816 134.857 66.4077 135.859 65.4084C136.861 64.4091 138.137 63.7293 139.525 63.4548C140.913 63.1803 142.352 63.3235 143.658 63.8663C144.965 64.4091 146.082 65.3271 146.867 66.5043C147.652 67.6816 148.071 69.0651 148.07 70.4802C148.07 71.421 147.884 72.3525 147.524 73.2215C147.163 74.0904 146.635 74.8797 145.969 75.544C145.303 76.2084 144.512 76.7348 143.642 77.0932C142.772 77.4515 141.84 77.6347 140.899 77.6322Z" fill="#263238"/>
<path d="M140.904 59.0139C140.904 60.2549 140.904 61.9251 140.904 63.3247C141.845 63.3229 142.777 63.5067 143.647 63.8656C144.516 64.2244 145.307 64.7514 145.972 65.4162C146.638 66.081 147.166 66.8706 147.526 67.7398C147.886 68.6089 148.071 69.5406 148.07 70.4814C148.072 71.2161 147.958 71.9464 147.734 72.6461L151.957 73.7938C152.433 72.0782 152.509 70.2764 152.181 68.5265C151.853 66.7766 151.129 65.125 150.064 63.6983C148.999 62.2716 147.621 61.1076 146.037 60.2957C144.452 59.4837 142.703 59.0452 140.923 59.0139H140.904Z" fill="#407BFF"/>
<path d="M133.748 70.4808C133.748 69.0988 134.149 67.7464 134.902 66.5872C135.654 65.4281 136.727 64.5118 137.989 63.9493L136.197 59.9277C134.088 60.8199 132.289 62.3132 131.023 64.2213C129.757 66.1295 129.08 68.3681 129.078 70.6581C129.078 70.8214 129.078 70.9847 129.078 71.1479H133.767C133.749 70.9261 133.742 70.7034 133.748 70.4808Z" fill="#455A64"/>
<path d="M140.9 77.6324C140.391 77.633 139.884 77.5783 139.388 77.4691C139.206 78.5095 138.866 80.5202 138.6 82.1018C139.3 82.2309 140.01 82.2965 140.722 82.2977C143.26 82.2911 145.726 81.4571 147.746 79.9222C149.767 78.3874 151.232 76.2354 151.919 73.7928L147.716 72.6311C147.259 74.0809 146.351 75.3474 145.126 76.2467C143.9 77.146 142.42 77.6313 140.9 77.6324Z" fill="#407BFF"/>
<g opacity="0.3">
<path d="M140.9 77.6326C140.391 77.6333 139.884 77.5785 139.388 77.4693C139.206 78.5097 138.866 80.5205 138.6 82.102C139.3 82.2312 140.01 82.2968 140.722 82.298C143.26 82.2913 145.726 81.4573 147.746 79.9225C149.767 78.3876 151.232 76.2357 151.919 73.793L147.716 72.6313C147.259 74.0812 146.351 75.3476 145.126 76.2469C143.9 77.1462 142.42 77.6316 140.9 77.6326Z" fill="black"/>
</g>
<path d="M139.356 71.0588H138.922V71.614H138.325V71.0588H136.902V70.6436L138.148 68.9688H138.792L137.635 70.5596H138.344V70.0651H138.922V70.5596H139.356V71.0588Z" fill="#263238"/>
<path d="M139.539 70.2988C139.539 69.4264 140.006 68.9319 140.673 68.9319C141.34 68.9319 141.806 69.4264 141.806 70.2988C141.806 71.1713 141.34 71.6705 140.673 71.6705C140.006 71.6705 139.539 71.1619 139.539 70.2988ZM141.191 70.2988C141.191 69.697 140.976 69.4497 140.673 69.4497C140.37 69.4497 140.141 69.6877 140.141 70.2988C140.141 70.91 140.355 71.1526 140.659 71.1526C140.962 71.1526 141.191 70.8913 141.191 70.2988Z" fill="#263238"/>
<path d="M142.055 69.6641C142.069 69.5382 142.12 69.4191 142.2 69.3212C142.281 69.2233 142.388 69.1507 142.509 69.1121C142.629 69.0736 142.759 69.0707 142.881 69.1039C143.003 69.1371 143.113 69.205 143.198 69.2993C143.283 69.3935 143.338 69.5103 143.358 69.6355C143.378 69.7606 143.361 69.8889 143.31 70.0048C143.259 70.1207 143.175 70.2194 143.069 70.2889C142.963 70.3584 142.84 70.3958 142.713 70.3966C142.62 70.3972 142.528 70.3781 142.443 70.3404C142.358 70.3028 142.281 70.2476 142.219 70.1783C142.157 70.1091 142.11 70.0275 142.082 69.9389C142.054 69.8502 142.044 69.7566 142.055 69.6641ZM142.988 69.6641C142.988 69.3842 142.881 69.2489 142.713 69.2489C142.545 69.2489 142.438 69.3889 142.438 69.6641C142.438 69.9394 142.55 70.084 142.713 70.084C142.876 70.084 142.988 69.9487 142.988 69.6641ZM144.29 68.969H144.756L142.937 71.6143H142.47L144.29 68.969ZM143.856 70.9145C143.869 70.788 143.919 70.6682 143.999 70.5695C144.08 70.4709 144.187 70.3975 144.308 70.3585C144.429 70.3194 144.559 70.3162 144.681 70.3493C144.804 70.3824 144.915 70.4504 145 70.5451C145.084 70.6397 145.14 70.7569 145.16 70.8826C145.18 71.0082 145.162 71.1368 145.11 71.2529C145.059 71.369 144.974 71.4676 144.867 71.5367C144.761 71.6058 144.636 71.6424 144.509 71.6423C144.418 71.6409 144.328 71.6204 144.245 71.5822C144.162 71.5439 144.088 71.4887 144.028 71.4202C143.968 71.3516 143.923 71.2712 143.895 71.1841C143.868 71.097 143.859 71.0051 143.87 70.9145H143.856ZM144.789 70.9145C144.789 70.6345 144.682 70.4946 144.514 70.4946C144.346 70.4946 144.238 70.6299 144.238 70.9145C144.238 71.199 144.35 71.3343 144.514 71.3343C144.677 71.3343 144.803 71.1944 144.803 70.9145H144.789Z" fill="#263238"/>
<path d="M150.361 85.2274C150.361 85.2881 146.045 85.3394 140.722 85.3394C135.399 85.3394 131.088 85.2881 131.088 85.2274C131.088 85.1668 135.403 85.1155 140.722 85.1155C146.04 85.1155 150.361 85.1761 150.361 85.2274Z" fill="#263238"/>
<path d="M146.069 87.005C146.069 87.0657 143.676 87.117 140.723 87.117C137.77 87.117 135.381 87.0657 135.381 87.005C135.381 86.9444 137.774 86.8977 140.723 86.8977C143.671 86.8977 146.069 86.9444 146.069 87.005Z" fill="#263238"/>
<path d="M90.8235 63.5027C91.3693 62.2617 90.7442 60.7035 89.7411 59.7704C89.2272 59.3229 88.5983 59.028 87.9256 58.9192C87.2528 58.8104 86.563 58.8919 85.9342 59.1546C85.385 59.3675 84.9244 59.7606 84.6279 60.2696C84.4328 60.7047 84.3669 61.1867 84.438 61.6581C84.5091 62.1296 84.7143 62.5707 85.0291 62.9289C85.6754 63.6328 86.5222 64.1214 87.4551 64.3285C88.1044 64.5304 88.7935 64.5689 89.4612 64.4404C89.7938 64.3735 90.1049 64.2263 90.3676 64.0117C90.6302 63.797 90.8364 63.5214 90.9681 63.2088" fill="#263238"/>
<path d="M116.531 80.1948C115.598 80.5027 114.595 79.6862 114.375 78.7438C114.156 77.8014 114.501 76.8217 114.912 75.9446C115.322 75.0675 115.803 74.1858 115.873 73.22C115.994 71.5732 114.907 70.1082 114.436 68.5267C113.456 65.2609 115.112 61.384 113.386 58.4075C112.597 56.9739 111.343 55.8517 109.831 55.2257C109.004 54.8817 108.112 54.7191 107.216 54.7489C106.321 54.7787 105.442 55.0001 104.639 55.3983C103.543 54.7092 102.319 54.2504 101.04 54.0499C99.7619 53.8494 98.4559 53.9113 97.2021 54.232C95.9555 54.5653 94.7907 55.1515 93.7803 55.9541C92.7698 56.7567 91.9352 57.7585 91.3284 58.8974C90.5306 60.4229 90.1667 62.1631 89.2196 63.5954C88.4918 64.6917 87.4095 65.6761 87.3022 66.9824C87.1622 68.6386 88.6644 70.0289 88.8184 71.6851C88.9957 73.6399 87.2695 75.5854 87.988 77.4142C88.4825 78.6785 90.0361 79.4343 90.1947 80.7826C90.1725 81.1661 90.228 81.5501 90.358 81.9116C90.5975 82.2295 90.9097 82.4852 91.2686 82.6573C91.6274 82.8294 92.0223 82.9129 92.4201 82.9007C100.673 82.3968 107.671 83.6285 115.042 81.739C115.437 81.664 115.811 81.5049 116.139 81.2725C116.303 81.151 116.427 80.9841 116.497 80.7925C116.566 80.6009 116.578 80.393 116.531 80.1948Z" fill="#263238"/>
<path d="M93.8718 61.5842L93.7832 59.8533L104.131 57.5486C107.331 57.1101 110.905 60.2172 111.208 63.4316C111.544 67.0053 111.815 71.3628 111.474 74.064C110.784 79.4619 106.692 80.2736 106.692 80.2736L106.832 86.8378L94.9729 86.4132L93.8718 61.5842Z" fill="#FFBE9D"/>
<path d="M109.78 67.4215C109.787 67.6008 109.723 67.7756 109.603 67.9088C109.483 68.042 109.316 68.1233 109.137 68.1353C109.049 68.1456 108.961 68.1382 108.877 68.1135C108.792 68.0888 108.714 68.0473 108.646 67.9916C108.578 67.9358 108.522 67.8669 108.481 67.789C108.44 67.7111 108.416 67.6257 108.409 67.5381C108.401 67.3588 108.463 67.1834 108.583 67.0493C108.702 66.9152 108.869 66.8328 109.048 66.8196C109.136 66.81 109.225 66.818 109.309 66.8432C109.394 66.8684 109.473 66.9102 109.541 66.9663C109.609 67.0224 109.666 67.0915 109.707 67.1697C109.748 67.2479 109.773 67.3335 109.78 67.4215Z" fill="#263238"/>
<path d="M110.139 65.7509C110.06 65.8442 109.523 65.4756 108.781 65.4989C108.04 65.5223 107.512 65.9095 107.428 65.8208C107.344 65.7322 107.47 65.6202 107.699 65.4383C108.012 65.2052 108.391 65.0763 108.781 65.0697C109.168 65.0548 109.549 65.1644 109.868 65.3823C110.102 65.5502 110.181 65.7089 110.139 65.7509Z" fill="#263238"/>
<path d="M102.874 67.7377C102.882 67.917 102.819 68.0923 102.7 68.2265C102.581 68.3606 102.414 68.443 102.235 68.4561C102.147 68.4658 102.058 68.4578 101.974 68.4326C101.889 68.4074 101.81 68.3656 101.742 68.3095C101.674 68.2534 101.617 68.1843 101.576 68.1061C101.535 68.0279 101.51 67.9423 101.502 67.8543C101.496 67.675 101.56 67.5002 101.68 67.367C101.8 67.2337 101.967 67.1525 102.146 67.1405C102.234 67.1302 102.322 67.1376 102.406 67.1623C102.491 67.187 102.569 67.2284 102.637 67.2842C102.705 67.34 102.761 67.4089 102.802 67.4868C102.843 67.5647 102.867 67.65 102.874 67.7377Z" fill="#263238"/>
<path d="M102.86 66.1005C102.776 66.1938 102.245 65.8253 101.503 65.8486C100.761 65.8719 100.229 66.2591 100.145 66.1705C100.061 66.0819 100.187 65.9699 100.42 65.7879C100.734 65.5549 101.112 65.4259 101.503 65.4194C101.888 65.4041 102.268 65.5138 102.585 65.732C102.814 65.9139 102.898 66.0725 102.86 66.1005Z" fill="#263238"/>
<path d="M105.72 71.527C106.106 71.3932 106.507 71.3085 106.914 71.275C107.106 71.247 107.283 71.2051 107.311 71.0744C107.322 70.8788 107.272 70.6845 107.166 70.5192L106.546 69.0963C105.701 67.0669 105.09 65.3967 105.146 65.364C105.202 65.3314 105.977 66.9456 106.816 68.975C107.022 69.4742 107.213 69.9501 107.4 70.4073C107.526 70.6324 107.569 70.8952 107.521 71.1491C107.496 71.2167 107.455 71.2776 107.403 71.327C107.35 71.3764 107.287 71.4129 107.218 71.4337C107.113 71.4658 107.005 71.4846 106.896 71.4896C106.507 71.5516 106.112 71.5642 105.72 71.527Z" fill="#263238"/>
<path d="M106.686 80.2871C104.1 80.408 101.53 79.8191 99.2539 78.5842C99.2539 78.5842 101.181 82.2885 106.718 81.6261L106.686 80.2871Z" fill="#EB996E"/>
<path d="M105.465 73.3213C105.319 73.1473 105.131 73.0132 104.919 72.9316C104.707 72.85 104.477 72.8236 104.252 72.8547C104.09 72.8727 103.932 72.9233 103.79 73.0034C103.647 73.0836 103.522 73.1917 103.422 73.3213C103.328 73.4484 103.274 73.6012 103.268 73.7594C103.262 73.9177 103.305 74.0739 103.389 74.2077C103.513 74.3371 103.672 74.4267 103.846 74.465C104.021 74.5032 104.203 74.4884 104.369 74.4223C104.716 74.2874 105.032 74.0861 105.302 73.8298C105.382 73.7651 105.452 73.6879 105.507 73.6012C105.535 73.5605 105.549 73.5126 105.549 73.4636C105.549 73.4146 105.535 73.3667 105.507 73.326" fill="#EB996E"/>
<path d="M103.555 72.1107C103.676 72.1107 103.699 72.9038 104.408 73.4543C105.118 74.0048 105.967 73.8882 105.976 74.0001C105.985 74.1121 105.789 74.1634 105.43 74.1821C104.958 74.2034 104.494 74.0581 104.119 73.7715C103.76 73.4954 103.523 73.0906 103.457 72.6425C103.415 72.3066 103.499 72.106 103.555 72.1107Z" fill="#263238"/>
<path d="M102.959 64.0154C102.893 64.2207 102.152 64.146 101.284 64.2813C100.416 64.4166 99.721 64.6685 99.5997 64.4959C99.5484 64.4073 99.665 64.216 99.9403 64.0294C100.312 63.779 100.737 63.6192 101.181 63.5629C101.624 63.4954 102.076 63.5338 102.502 63.6748C102.814 63.7681 102.991 63.9221 102.959 64.0154Z" fill="#263238"/>
<path d="M110.04 63.2087C109.914 63.3814 109.396 63.2087 108.785 63.2367C108.174 63.2647 107.651 63.3814 107.53 63.2087C107.474 63.1248 107.53 62.9568 107.772 62.7888C108.07 62.5842 108.424 62.4766 108.785 62.4809C109.145 62.4751 109.497 62.5828 109.792 62.7888C110.016 62.9568 110.096 63.1248 110.04 63.2087Z" fill="#263238"/>
<path d="M102.973 56.9095C100.015 57.4149 97.0944 58.1162 94.2298 59.0089C93.7749 59.1003 93.3631 59.3399 93.0588 59.6901C92.8388 60.108 92.7602 60.586 92.8348 61.0524C92.979 63.8753 92.8587 66.7055 92.4756 69.506C92.3088 70.7877 92.3672 72.0887 92.6482 73.3503C93.1568 75.7436 92.7929 82.9049 94.6963 82.7976C101.816 81.2814 96.9031 76.0235 96.1706 73.5602C96.0636 73.1375 96.0625 72.695 96.1675 72.2718C96.2725 71.8486 96.4803 71.4579 96.7724 71.1342C97.2016 70.6677 97.8081 70.3458 98.2607 69.8792C98.733 69.3827 99.0123 68.7337 99.0482 68.0493C99.0842 67.3649 98.8743 66.6902 98.4566 66.1469C98.1016 65.7598 97.8793 65.2695 97.8221 64.7473C97.7335 63.3897 99.0771 63.1658 100.099 62.8392C102.25 62.1534 105.184 58.7663 104.568 56.6389L102.973 56.9095Z" fill="#263238"/>
<path d="M89.8677 62.5637C90.6435 62.8005 91.4461 62.9385 92.2564 62.9743C94.219 62.9701 96.1513 62.4899 97.8875 61.5746C99.6209 60.6537 101.219 59.4983 102.637 58.1409C103.192 57.6277 103.617 57.2079 103.92 56.8906C104.061 56.7215 104.217 56.5654 104.386 56.4241C104.265 56.6074 104.13 56.7806 103.98 56.9419C103.701 57.2638 103.29 57.721 102.749 58.2529C101.348 59.6616 99.7417 60.8506 97.9855 61.7799C96.2191 62.7175 94.2418 63.1866 92.2424 63.1422C91.6383 63.1136 91.0407 63.0053 90.4649 62.8203C90.2643 62.7503 90.1103 62.6897 89.9984 62.643C89.8864 62.5964 89.8631 62.573 89.8677 62.5637Z" fill="#455A64"/>
<path d="M103.709 55.4532C103.615 55.6308 103.502 55.7981 103.373 55.9524C103.04 56.385 102.68 56.7963 102.296 57.1841C99.7137 59.7745 96.2297 61.2657 92.573 61.3456C92.0264 61.3586 91.4794 61.3368 90.9355 61.2803C90.7363 61.2684 90.5391 61.2339 90.3477 61.1776C90.3477 61.131 91.1968 61.2429 92.5684 61.1776C96.1612 61.0027 99.571 59.5404 102.174 57.0581C103.168 56.1157 103.672 55.4252 103.709 55.4532Z" fill="#455A64"/>
<path d="M114.01 59.947C113.882 59.965 113.751 59.965 113.623 59.947C113.27 59.9399 112.918 59.9103 112.569 59.8584C111.412 59.6941 110.286 59.3576 109.228 58.86C108.179 58.3494 107.195 57.7134 106.298 56.9659C105.958 56.6813 105.687 56.4433 105.51 56.2661C105.333 56.0888 105.239 55.9861 105.253 55.9768C105.654 56.2385 106.039 56.5236 106.406 56.8306C107.319 57.5302 108.3 58.1351 109.336 58.6361C110.375 59.1247 111.472 59.479 112.601 59.6904C113.441 59.8631 114.01 59.905 114.01 59.947Z" fill="#455A64"/>
<path d="M88.5 73.6777C88.5226 73.49 88.5601 73.3044 88.612 73.1226C88.7322 72.6331 88.7716 72.1272 88.7286 71.625C88.6878 71.2833 88.5867 70.9516 88.43 70.6453C88.2667 70.3094 88.0335 69.9828 87.8049 69.6049C87.2943 68.7862 87.068 67.822 87.1611 66.8616C87.2285 66.363 87.4211 65.8895 87.7209 65.4854C88.0008 65.0981 88.3087 64.7669 88.5513 64.4217C88.9921 63.8092 89.3792 63.1599 89.7083 62.4809C89.9976 61.9024 90.2122 61.4218 90.3662 61.0813C90.4332 60.9036 90.5208 60.7345 90.6274 60.5774C90.5901 60.7636 90.5322 60.9451 90.4548 61.1186C90.3242 61.4591 90.1329 61.949 89.8623 62.5415C89.5505 63.2416 89.1725 63.9102 88.7333 64.5383C88.2388 65.2521 87.4969 65.9052 87.399 66.871C87.3165 67.7792 87.5275 68.69 88.0008 69.4696C88.2108 69.8335 88.4673 70.1787 88.612 70.5333C88.7711 70.8625 88.8676 71.2185 88.8966 71.583C88.929 72.1036 88.8641 72.6257 88.7053 73.1226C88.6625 73.3161 88.5935 73.5029 88.5 73.6777Z" fill="#455A64"/>
<path d="M120.561 112.035L118.383 100.992L112.574 103.292L114.058 117.834L120.561 112.035Z" fill="#FFBE9D"/>
<path d="M136.308 98.0544C136.266 97.937 136.195 97.8324 136.101 97.7506C136.007 97.6689 135.893 97.6128 135.771 97.5878L131.596 96.7807C131.414 96.7479 131.227 96.7542 131.048 96.7992C130.868 96.8443 130.7 96.927 130.555 97.042L117.959 106.961L118.472 107.534L122.932 108.892L136.392 98.241L136.308 98.0544Z" fill="#263238"/>
<path d="M132.919 98.7586C132.965 98.8051 133.026 98.8349 133.091 98.8434C133.156 98.8519 133.222 98.8387 133.279 98.8057C133.336 98.7727 133.381 98.7219 133.406 98.6611C133.431 98.6002 133.435 98.5329 133.418 98.4694C133.371 98.4229 133.311 98.3931 133.245 98.3846C133.18 98.3761 133.114 98.3893 133.057 98.4223C133 98.4553 132.956 98.5061 132.931 98.5669C132.906 98.6278 132.901 98.6951 132.919 98.7586Z" fill="white"/>
<path d="M136.375 98.2548C136.099 98.2376 135.824 98.2001 135.554 98.1428L133.328 97.7556L131.794 97.471C131.666 97.4396 131.534 97.4371 131.405 97.4638C131.277 97.4904 131.156 97.5455 131.052 97.625L130.338 98.1988L127.114 100.741C124.823 102.538 122.738 104.156 121.222 105.318L119.416 106.69C119.202 106.865 118.972 107.021 118.73 107.156C118.928 106.961 119.136 106.777 119.356 106.606L121.105 105.178C122.593 103.984 124.66 102.346 126.951 100.545L130.189 98.0169L130.916 97.4524C131.046 97.3577 131.194 97.2923 131.351 97.2609C131.508 97.2295 131.67 97.2327 131.826 97.2704L133.356 97.583L135.572 98.0495C135.845 98.0961 136.113 98.1647 136.375 98.2548Z" fill="#455A64"/>
<path d="M130.404 101.301C130.404 101.301 130.073 101.119 129.546 102.024C129.019 102.93 127.446 105.51 127.446 105.51L125.921 103.891L123.486 103.401C123.486 103.401 122.818 103.699 123.103 104.082C123.613 104.528 124.173 104.914 124.773 105.23L125.328 107.156L122.72 104.595C122.72 104.595 121.587 104.516 121.68 105.253C121.773 105.99 123.196 108.691 123.196 108.691L121.671 108.043L120.196 106.284C120.196 106.284 119.618 106.116 119.669 106.676C119.721 107.236 121.069 109.643 121.069 109.643L123.028 111.574C123.028 111.574 124.339 111.91 124.591 111.574C124.775 111.305 124.931 111.017 125.058 110.716C125.058 110.716 125.8 110.763 126.037 110.478C126.206 110.226 126.32 109.942 126.373 109.643C126.373 109.643 127.372 110.189 127.708 109.643C128.054 108.934 128.28 108.173 128.375 107.39C128.426 106.9 130.428 102.841 130.428 102.696C130.428 102.552 131.169 101.25 130.404 101.301Z" fill="#FFBE9D"/>
<path d="M110.143 85.5129C110.143 85.5129 114.085 87.2764 115.438 89.5065C116.791 91.7365 120.462 104.515 120.462 104.515L115.302 105.537L110.143 85.5129Z" fill="#407BFF"/>
<path d="M107.497 84.7204L94.8535 83.7454L96.4817 90.7108L107.805 94.485L109.307 91.9424L107.497 84.7204Z" fill="#FFBE9D"/>
<path d="M115.527 99.7616C114.51 96.2579 110.143 85.5135 110.143 85.5135L106.779 84.5058C106.779 84.5058 106.779 88.0095 105.538 88.2381C104.297 88.4667 98.3255 88.4994 95.391 84.7204L94.8545 83.7454L86.5082 89.0919C85.1085 89.9456 83.0698 91.9424 82.7759 96.0293C82.5053 99.7616 82.0527 109.638 82.0527 109.638L90.2171 109.349L90.8843 112.997L90.3151 117.299C90.3151 117.299 89.1861 123.364 89.8486 124.297C90.2968 124.861 90.9452 125.23 91.6587 125.328L113.586 123.63L114.314 111.551C114.314 111.551 116.544 103.27 115.527 99.7616Z" fill="#407BFF"/>
<path d="M110.223 107.524L114.477 102.191L118.322 101.3L122.987 101.818C123.038 102.035 123.009 102.263 122.907 102.46C122.804 102.658 122.634 102.812 122.427 102.896L124.065 102.989C124.109 103.108 124.128 103.236 124.122 103.363C124.115 103.49 124.082 103.615 124.025 103.729C123.968 103.843 123.889 103.944 123.791 104.026C123.694 104.109 123.58 104.17 123.458 104.207L124.629 104.412C124.475 104.753 124.212 105.034 123.881 105.208C123.549 105.383 123.169 105.443 122.8 105.378C121.652 105.221 120.494 105.143 119.334 105.144L117.039 106.409L120.458 106.269L122.94 106.735C122.94 106.735 123.272 107.37 122.707 107.519C122.143 107.668 119.987 107.519 119.987 107.519L116.722 108.373C116.722 108.373 116.022 110.481 115.597 110.953C115.173 111.424 112.831 112.03 112.831 112.03L110.223 107.524Z" fill="#FFBE9D"/>
<path d="M124.089 102.99C123.664 103.016 123.237 103 122.815 102.943C122.031 102.883 120.949 102.78 119.759 102.65L118.616 102.524H118.663C117.772 102.775 117.002 102.99 116.452 103.121C116.162 103.214 115.863 103.273 115.561 103.298C115.83 103.156 116.115 103.046 116.41 102.971C116.946 102.789 117.711 102.552 118.593 102.29H118.616H118.64L119.787 102.407C120.977 102.538 122.055 102.668 122.834 102.775C123.258 102.807 123.678 102.879 124.089 102.99Z" fill="#EB996E"/>
<path d="M124.371 104.356C123.984 104.37 123.596 104.343 123.214 104.277C122.505 104.198 121.53 104.067 120.452 103.908L119.384 103.75H119.445C118.569 104.125 117.668 104.436 116.748 104.683C117.586 104.224 118.458 103.831 119.356 103.507H119.384H119.417L120.49 103.661C121.567 103.815 122.538 103.974 123.242 104.1C123.627 104.142 124.006 104.228 124.371 104.356Z" fill="#EB996E"/>
<path d="M112.84 112.036C112.962 111.984 113.089 111.942 113.218 111.91C113.465 111.831 113.829 111.714 114.3 111.546C114.533 111.458 114.79 111.36 115.065 111.234C115.205 111.168 115.34 111.09 115.467 111.001C115.589 110.893 115.687 110.761 115.756 110.613C116.109 109.883 116.41 109.128 116.656 108.355V108.313H116.698L119.964 107.446H119.997C120.556 107.478 121.149 107.506 121.76 107.506C122.065 107.513 122.369 107.491 122.67 107.441C122.73 107.433 122.786 107.407 122.83 107.366C122.875 107.325 122.905 107.272 122.917 107.212C122.933 107.074 122.907 106.934 122.842 106.811L122.922 106.867L120.435 106.401H120.463L117.043 106.55L116.516 106.573L116.983 106.317L119.278 105.048H119.306H119.339C120.207 105.048 121.121 105.085 122.049 105.178C122.301 105.206 122.558 105.239 122.81 105.281C123.039 105.33 123.276 105.33 123.505 105.281C123.726 105.216 123.93 105.106 124.105 104.956C124.279 104.806 124.42 104.621 124.517 104.413L124.611 104.586L123.44 104.38L123.01 104.301L123.416 104.138C123.631 104.064 123.812 103.915 123.925 103.718C124.017 103.519 124.029 103.291 123.958 103.084L124.065 103.158L122.423 103.065L121.956 103.037L122.357 102.836C122.535 102.752 122.684 102.615 122.782 102.444C122.87 102.275 122.898 102.081 122.861 101.894L122.964 101.982L118.298 101.455H118.336L114.487 102.332L114.538 102.3L111.384 106.181L110.535 107.156L110.307 107.422C110.254 107.481 110.226 107.509 110.223 107.506C110.24 107.469 110.262 107.435 110.288 107.404L110.498 107.124L111.324 106.051L114.412 102.118V102.094H114.477L118.317 101.161H118.35L123.038 101.665H123.122V101.74C123.177 101.984 123.144 102.24 123.029 102.463C122.907 102.678 122.721 102.851 122.497 102.958L122.451 102.729L124.093 102.822H124.177L124.2 102.892C124.249 103.028 124.27 103.172 124.263 103.316C124.256 103.46 124.22 103.602 124.158 103.732C124.02 103.984 123.794 104.176 123.524 104.273L123.496 104.035L124.671 104.241L124.835 104.269L124.765 104.413C124.605 104.788 124.32 105.097 123.958 105.286C123.597 105.474 123.181 105.532 122.782 105.449C122.535 105.412 122.287 105.379 122.035 105.351C121.102 105.258 120.211 105.23 119.353 105.22H119.413L117.113 106.485L117.048 106.251L120.472 106.116H120.5L122.982 106.583H123.038L123.062 106.634C123.147 106.802 123.18 106.993 123.155 107.18C123.133 107.279 123.082 107.369 123.009 107.44C122.936 107.51 122.844 107.558 122.745 107.576C122.425 107.629 122.102 107.651 121.779 107.642C121.158 107.642 120.566 107.609 120.001 107.567H120.034L116.768 108.402L116.824 108.351C116.571 109.129 116.259 109.887 115.891 110.618C115.81 110.782 115.696 110.926 115.555 111.043C115.421 111.136 115.277 111.214 115.126 111.276C114.872 111.389 114.611 111.488 114.347 111.574C113.88 111.728 113.502 111.831 113.25 111.896L112.961 111.966C112.927 112 112.886 112.024 112.84 112.036Z" fill="#EB996E"/>
<path d="M81.8203 109.637C81.8946 109.616 81.9716 109.605 82.0489 109.604L82.7161 109.562L85.2027 109.446L93.7123 109.119L93.5957 109.24C93.6284 108.046 93.5957 106.773 93.5397 105.466C93.4324 103.301 93.2411 101.267 93.1198 99.3732C93.0545 98.4402 93.0312 97.5397 92.9565 96.714C92.8925 95.9476 92.774 95.1868 92.602 94.4373C92.3589 93.3486 91.9074 92.3172 91.2724 91.4001C90.8058 90.761 90.4652 90.467 90.4839 90.467C90.5753 90.5258 90.6598 90.5946 90.7358 90.6723C90.9587 90.8812 91.1646 91.1074 91.3517 91.3488C92.029 92.26 92.5132 93.2998 92.7746 94.4046C92.9631 95.1601 93.0925 95.9291 93.1618 96.7046C93.2505 97.5397 93.2831 98.4308 93.3531 99.3639C93.4884 101.23 93.6843 103.292 93.7917 105.462C93.8616 106.773 93.8756 108.055 93.843 109.254V109.371H93.7263L85.212 109.609L82.7207 109.651H82.0583C81.9787 109.653 81.8991 109.648 81.8203 109.637Z" fill="#263238"/>
</g>
<defs>
<clipPath id="clip0_253_1195">
<rect width="192" height="117" fill="white" transform="translate(0 -5.28003)"/>
</clipPath>
</defs>
</svg>
