<svg width="180" height="181" viewBox="0 0 180 181" fill="none" xmlns="http://www.w3.org/2000/svg">
<g filter="url(#filter0_d_4809_18185)">
<circle cx="90" cy="86.4337" r="58.6446" fill="#7863FD"/>
</g>
<path d="M124.1 60.5916C124.1 60.5916 125.197 57.3432 122.842 55.0693C120.69 52.9578 117.888 54.0947 117.888 54.0947C115.411 55.3129 94.4991 68.1849 86.7434 76.712C83.2513 80.6102 78.3787 92.1015 82.3174 96.2839C86.0531 100.263 98.3972 95.5936 101.767 92.2233C110.132 83.8586 122.923 63.1092 124.1 60.5916ZM55.3553 117.764C64.9789 111.43 61.2838 103.918 68.4709 98.9232C72.2472 96.2839 77.4854 96.4057 80.9774 100.101C83.5356 102.821 84.2259 110.536 80.3277 114.15C73.9527 120.038 64.0855 120.444 55.3553 117.764Z" fill="white"/>
<defs>
<filter id="filter0_d_4809_18185" x="0.355347" y="0.789062" width="179.289" height="179.289" filterUnits="userSpaceOnUse" color-interpolation-filters="sRGB">
<feFlood flood-opacity="0" result="BackgroundImageFix"/>
<feColorMatrix in="SourceAlpha" type="matrix" values="0 0 0 0 0 0 0 0 0 0 0 0 0 0 0 0 0 0 127 0" result="hardAlpha"/>
<feMorphology radius="2" operator="dilate" in="SourceAlpha" result="effect1_dropShadow_4809_18185"/>
<feOffset dy="4"/>
<feGaussianBlur stdDeviation="14.5"/>
<feComposite in2="hardAlpha" operator="out"/>
<feColorMatrix type="matrix" values="0 0 0 0 0 0 0 0 0 0 0 0 0 0 0 0 0 0 0.11 0"/>
<feBlend mode="normal" in2="BackgroundImageFix" result="effect1_dropShadow_4809_18185"/>
<feBlend mode="normal" in="SourceGraphic" in2="effect1_dropShadow_4809_18185" result="shape"/>
</filter>
</defs>
</svg>
