<svg width="185" height="105" viewBox="0 0 185 105" fill="none" xmlns="http://www.w3.org/2000/svg">
<g clip-path="url(#clip0_253_1340)">
<path d="M141.038 9.10015V130.333C141.038 130.583 140.988 130.832 140.891 131.063C140.794 131.295 140.652 131.504 140.473 131.68C140.295 131.856 140.083 131.995 139.85 132.088C139.617 132.181 139.368 132.227 139.117 132.223H73.976C73.7488 132.227 73.5232 132.185 73.3126 132.099C73.102 132.014 72.9107 131.887 72.75 131.727C72.5893 131.566 72.4626 131.375 72.3772 131.164C72.2919 130.953 72.2497 130.728 72.2532 130.501V8.94509C72.2451 8.74391 72.2769 8.54312 72.3466 8.35423C72.4163 8.16535 72.5227 7.9921 72.6595 7.84443C72.7964 7.69676 72.9611 7.57757 73.1441 7.49371C73.3272 7.40986 73.525 7.36298 73.7262 7.35577H89.2103C89.4493 7.36046 89.6814 7.43633 89.8771 7.57366C90.0727 7.711 90.223 7.90357 90.3086 8.12674L91.0193 9.84959C91.1065 10.0718 91.258 10.263 91.4544 10.3988C91.6508 10.5346 91.8832 10.6088 92.1219 10.6119H121.242C121.479 10.6101 121.71 10.5379 121.906 10.4044C122.101 10.271 122.253 10.0823 122.341 9.86251L123.051 8.10951C123.137 7.88586 123.287 7.6927 123.482 7.55463C123.678 7.41657 123.91 7.33984 124.15 7.33423H139.371C139.826 7.34887 140.256 7.54276 140.568 7.87359C140.881 8.20443 141.049 8.64535 141.038 9.10015Z" fill="#263238"/>
<path d="M141.042 15.4446H72.2617V123.626H141.042V15.4446Z" fill="#407BFF"/>
<path opacity="0.7" d="M141.042 15.4446H72.2617V123.626H141.042V15.4446Z" fill="white"/>
<path opacity="0.6" d="M80.3858 12.5725H81.2773V11.3881H80.3858V12.5725Z" fill="white"/>
<path opacity="0.6" d="M78.9326 12.5725H79.8242V10.9918H78.9326V12.5725Z" fill="white"/>
<path opacity="0.6" d="M77.4815 12.5725H78.373V10.5955H77.4815V12.5725Z" fill="white"/>
<path opacity="0.6" d="M76.0323 12.5725H76.9238V10.1993H76.0323V12.5725Z" fill="white"/>
<path opacity="0.6" d="M133.07 10.9524H132.545V12.1368H133.07V10.9524Z" fill="white"/>
<path opacity="0.6" d="M133.431 12.5725H137.635V10.518H133.431V12.5725Z" fill="white"/>
<path d="M103.248 26.1863H125.882C125.949 26.1927 126.017 26.1849 126.081 26.1635C126.146 26.142 126.205 26.1074 126.255 26.0617C126.305 26.0161 126.345 25.9606 126.372 25.8986C126.4 25.8366 126.414 25.7696 126.414 25.7018C126.414 25.634 126.4 25.567 126.372 25.505C126.345 25.443 126.305 25.3874 126.255 25.3418C126.205 25.2962 126.146 25.2616 126.081 25.2401C126.017 25.2187 125.949 25.2109 125.882 25.2172H103.248C103.127 25.2286 103.015 25.2846 102.933 25.3742C102.852 25.4638 102.807 25.5806 102.807 25.7018C102.807 25.823 102.852 25.9398 102.933 26.0294C103.015 26.119 103.127 26.175 103.248 26.1863Z" fill="#263238"/>
<path d="M131.033 27.9819H103.123C103.073 27.9764 103.023 27.9815 102.975 27.9968C102.927 28.0122 102.883 28.0374 102.846 28.0709C102.808 28.1045 102.778 28.1455 102.758 28.1914C102.737 28.2373 102.727 28.287 102.727 28.3372C102.727 28.3875 102.737 28.4372 102.758 28.483C102.778 28.5289 102.808 28.57 102.846 28.6035C102.883 28.637 102.927 28.6623 102.975 28.6776C103.023 28.693 103.073 28.6981 103.123 28.6926H131.033C131.121 28.6829 131.202 28.6413 131.26 28.5758C131.319 28.5102 131.352 28.4253 131.352 28.3372C131.352 28.2492 131.319 28.1643 131.26 28.0987C131.202 28.0331 131.121 27.9915 131.033 27.9819Z" fill="#263238"/>
<path d="M122.846 30.02H103.123C103.073 30.0145 103.023 30.0196 102.975 30.0349C102.927 30.0502 102.883 30.0755 102.846 30.109C102.808 30.1426 102.778 30.1836 102.758 30.2295C102.737 30.2754 102.727 30.3251 102.727 30.3753C102.727 30.4256 102.737 30.4753 102.758 30.5211C102.778 30.567 102.808 30.6081 102.846 30.6416C102.883 30.6751 102.927 30.7004 102.975 30.7157C103.023 30.7311 103.073 30.7362 103.123 30.7307H122.846C122.933 30.721 123.014 30.6794 123.073 30.6138C123.131 30.5483 123.164 30.4633 123.164 30.3753C123.164 30.2873 123.131 30.2023 123.073 30.1368C123.014 30.0712 122.933 30.0296 122.846 30.02Z" fill="#263238"/>
<path d="M140.219 43.1995H73.0801V110.339H140.219V43.1995Z" fill="#407BFF"/>
<g opacity="0.3">
<path opacity="0.7" d="M126.512 48.8499H129.053L127.782 52.1448L126.512 48.8499Z" fill="white"/>
<path opacity="0.7" d="M134.7 65.2522L135.47 67.6728L131.947 67.4574L134.7 65.2522Z" fill="white"/>
<path d="M133.708 54.6311L132.502 57.5901L136.167 58.8693V56.4745L133.708 54.6311Z" fill="white"/>
<path d="M86.1836 48.0588H88.0486L86.1836 50.501V48.0588Z" fill="white"/>
<path d="M79.1719 60.0969L81.2824 59.6145L81.8724 61.4278L79.4389 62.2763L79.1719 60.0969Z" fill="white"/>
<path d="M100.528 50.5001C100.982 50.5001 101.35 50.1317 101.35 49.6774C101.35 49.2231 100.982 48.8547 100.528 48.8547C100.073 48.8547 99.7051 49.2231 99.7051 49.6774C99.7051 50.1317 100.073 50.5001 100.528 50.5001Z" fill="white"/>
<path d="M88.5402 104.84C88.5402 105.163 88.4443 105.478 88.2648 105.747C88.0852 106.016 87.83 106.225 87.5315 106.348C87.2329 106.472 86.9045 106.504 86.5877 106.44C86.271 106.377 85.9801 106.221 85.752 105.992C85.5239 105.764 85.3687 105.472 85.3062 105.155C85.2437 104.839 85.2767 104.51 85.4009 104.212C85.5251 103.914 85.735 103.659 86.004 103.48C86.273 103.301 86.5891 103.206 86.9121 103.207C87.1263 103.207 87.3383 103.25 87.5361 103.332C87.7339 103.414 87.9136 103.534 88.0649 103.686C88.2161 103.837 88.3359 104.017 88.4175 104.215C88.4991 104.413 88.5408 104.626 88.5402 104.84Z" fill="white"/>
<path d="M80.6793 90.6555L81.2823 91.6763L78.3664 92.9254L77.7031 92.2448L80.6793 90.6555Z" fill="white"/>
<path d="M123.27 105.924L123.442 104.318L126.483 105.119V107.466L123.27 105.924Z" fill="white"/>
<path d="M129.803 97.6418H132.521L131.164 99.2484L129.803 97.6418Z" fill="white"/>
<path d="M134.273 81.1116L133.709 84.5228L134.334 85.0913L134.919 81.1116H134.273Z" fill="white"/>
<path d="M75.959 71.1182L78.3667 72.8669L76.6438 74.1331L75.959 71.1182Z" fill="white"/>
<path d="M86.6405 57.2754C86.7904 57.2754 86.9118 57.1539 86.9118 57.004C86.9118 56.8542 86.7904 56.7327 86.6405 56.7327C86.4906 56.7327 86.3691 56.8542 86.3691 57.004C86.3691 57.1539 86.4906 57.2754 86.6405 57.2754Z" fill="white"/>
<path d="M121.512 54.0405C121.721 54.0405 121.891 53.8708 121.891 53.6615C121.891 53.4522 121.721 53.2825 121.512 53.2825C121.303 53.2825 121.133 53.4522 121.133 53.6615C121.133 53.8708 121.303 54.0405 121.512 54.0405Z" fill="white"/>
<path d="M114.926 46.5808L117.958 46.1243V47.6016L114.926 48.0582V46.5808Z" fill="white"/>
<path d="M134.918 48.0588H135.913L135.413 49.2778L134.918 48.0588Z" fill="white"/>
<path d="M77.7031 49.678H79.1719L78.4353 50.5006L77.7031 49.678Z" fill="white"/>
<path d="M133.382 107.367L133.24 104.541L135.415 105.308L133.382 107.367Z" fill="white"/>
<path d="M135.471 91.1083L134.334 90.1995V91.1083L135.471 91.7931V91.1083Z" fill="white"/>
<path d="M77.1603 82.0198L78.4352 83.1009L77.7978 84.0657L76.1094 82.7132L77.1603 82.0198Z" fill="white"/>
<path d="M76.1097 56.7327H77.7034L75.959 57.2754L76.1097 56.7327Z" fill="white"/>
</g>
<path d="M103.885 54.153L106.766 51.4438L109.618 54.1789L113.081 52.2708L115.165 55.6304L118.994 54.6483L120.175 58.4171H124.128L124.339 62.3624L128.169 63.3444L127.385 67.2208L130.852 69.1246L129.133 72.6822L132.015 75.3871L129.465 78.4064L131.584 81.7444L128.362 84.0358L129.586 87.7916L125.899 89.2086L126.148 93.154L122.22 93.6105L121.484 97.4955L117.564 96.9571L115.885 100.536L112.224 99.0418L109.704 102.091L106.53 99.7352L103.334 102.061L100.844 98.9901L97.1702 100.446L95.5249 96.8538L91.6054 97.3491L90.9033 93.4598L86.9796 92.9644L87.2681 89.0234L83.5942 87.5719L84.8519 83.8247L81.6517 81.5032L83.8052 78.1867L81.2812 75.1416L84.1929 72.4669L82.5088 68.8877L85.9932 67.0184L85.2481 63.1377L89.0857 62.1944L89.3313 58.2491L93.2852 58.2879L94.5041 54.5277L98.3245 55.5485L100.439 52.2105L103.885 54.153Z" fill="#407BFF"/>
<path opacity="0.4" d="M129.895 79.2681L132.444 76.2531L129.563 73.5482L131.286 69.9905L127.819 68.0868L128.603 64.2104L124.773 63.2284L124.562 59.283H120.609L119.428 55.5143L115.599 56.4963L113.515 53.1368L110.069 55.0448L107.218 52.3098L104.336 55.019L100.891 53.0765L98.7757 56.4188L94.9553 55.3937L93.7364 59.1538L89.7825 59.1151L89.537 63.0604L85.6993 64.0036L86.4445 67.88L82.96 69.7493L84.6441 73.3285L81.7109 76.0205L84.2349 79.0656L82.0813 82.3821L85.2815 84.7036L84.0239 88.4508L87.6978 89.9023L87.4093 93.8433L91.333 94.3387L92.0308 98.2151L95.9546 97.7197L97.5999 101.312L101.274 99.8561L103.763 102.927L106.959 100.601L110.134 102.957L112.653 99.9077L116.314 101.402L117.994 97.8231L121.909 98.3615L122.65 94.4851L126.578 94.0285L126.324 90.0832L130.015 88.6662L128.792 84.9061L132.014 82.619L129.895 79.2681ZM129.102 82.0505L126.255 84.0748L127.336 87.3956L124.076 88.6446L124.3 92.1291L120.828 92.534L120.178 95.9797L116.732 95.5059L115.246 98.6673L112.016 97.3493L109.789 100.037L106.985 97.9566L104.164 100.011L101.967 97.2976L98.7197 98.5898L97.2682 95.4154L93.801 95.8461L93.1851 92.4005L89.7394 91.9697L89.9978 88.4896L86.7503 87.1975L87.8615 83.8896L85.036 81.8394L86.9398 78.9106L84.7087 76.2229L87.293 73.8583L85.7639 70.6797L88.8435 69.03L88.1845 65.5843L91.5785 64.7531L91.7939 61.2686L95.2827 61.3031L96.3594 57.9823L99.7319 58.8868L101.601 55.9364L104.646 57.6593L107.188 55.2645L109.707 57.6808L112.765 55.9967L114.609 58.9643L117.99 58.1029L119.032 61.4366H122.525L122.71 64.9254L126.091 65.7868L125.402 69.2066L128.46 70.8864L126.944 74.0306L129.49 76.421L127.237 79.0872L129.102 82.0505Z" fill="black"/>
<path opacity="0.4" d="M103.885 54.153L106.766 51.4438L109.618 54.1789L113.081 52.2708L115.165 55.6304L118.994 54.6483L120.175 58.4171H124.128L124.339 62.3624L128.169 63.3444L127.385 67.2208L130.852 69.1246L129.133 72.6822L132.015 75.3871L129.465 78.4064L131.584 81.7444L128.362 84.0358L129.586 87.7916L125.899 89.2086L126.148 93.154L122.22 93.6105L121.484 97.4955L117.564 96.9571L115.885 100.536L112.224 99.0418L109.704 102.091L106.53 99.7352L103.334 102.061L100.844 98.9901L97.1702 100.446L95.5249 96.8538L91.6054 97.3491L90.9033 93.4598L86.9796 92.9644L87.2681 89.0234L83.5942 87.5719L84.8519 83.8247L81.6517 81.5032L83.8052 78.1867L81.2812 75.1416L84.1929 72.4669L82.5088 68.8877L85.9932 67.0184L85.2481 63.1377L89.0857 62.1944L89.3313 58.2491L93.2852 58.2879L94.5041 54.5277L98.3245 55.5485L100.439 52.2105L103.885 54.153Z" fill="black"/>
<path d="M129.465 78.4067L132.015 75.3917L129.133 72.6869L130.856 69.1292L127.389 67.2255L128.173 63.349L124.344 62.367L124.133 58.4217H120.179L118.999 54.653L115.17 55.635L113.085 52.2755L109.639 54.1835L106.788 51.4485L103.907 54.1577L100.461 52.2152L98.346 55.5575L94.5256 54.5324L93.3067 58.2925L89.3528 58.2537L89.1073 62.1991L85.2696 63.1423L86.0148 67.0187L82.5303 68.888L84.2144 72.4672L81.2812 75.1592L83.8052 78.2043L81.6517 81.5208L84.8519 83.8423L83.5942 87.5895L87.2681 89.041L86.9796 92.982L90.9033 93.4773L91.6011 97.3537L95.5249 96.8584L97.1702 100.451L100.844 98.9947L103.334 102.066L106.53 99.7399L109.704 102.096L112.224 99.0464L115.885 100.541L117.564 96.9618L121.48 97.5002L122.22 93.6238L126.148 93.1672L125.894 89.2219L129.586 87.8048L128.362 84.0447L131.584 81.7577L129.465 78.4067ZM128.672 81.1891L125.825 83.2135L126.907 86.5343L123.646 87.7833L123.87 91.2678L120.398 91.6726L119.748 95.1183L116.302 94.6446L114.816 97.806L111.586 96.488L109.359 99.1756L106.555 97.0953L103.734 99.1498L101.538 96.4363L98.29 97.7284L96.8386 94.5541L93.3713 94.9848L92.7554 91.5391L89.3097 91.1084L89.5681 87.6283L86.3206 86.3361L87.4318 83.0283L84.6063 80.9781L86.5101 78.0492L84.279 75.3616L86.8633 72.997L85.3342 69.8183L88.4138 68.1687L87.7548 64.723L91.1489 63.8917L91.3642 60.4073L94.853 60.4417L95.9298 57.121L99.3022 58.0255L101.172 55.0751L104.217 56.7979L106.758 54.4032L109.278 56.8195L112.336 55.1354L114.179 58.103L117.56 57.2416L118.602 60.5753H122.095L122.281 64.064L125.662 64.9255L124.973 68.3453L128.031 70.0251L126.515 73.1693L129.06 75.5597L126.807 78.2258L128.672 81.1891Z" fill="#407BFF"/>
<path opacity="0.6" d="M129.465 78.4067L132.015 75.3917L129.133 72.6869L130.856 69.1292L127.389 67.2255L128.173 63.349L124.344 62.367L124.133 58.4217H120.179L118.999 54.653L115.17 55.635L113.085 52.2755L109.639 54.1835L106.788 51.4485L103.907 54.1577L100.461 52.2152L98.346 55.5575L94.5256 54.5324L93.3067 58.2925L89.3528 58.2537L89.1073 62.1991L85.2696 63.1423L86.0148 67.0187L82.5303 68.888L84.2144 72.4672L81.2812 75.1592L83.8052 78.2043L81.6517 81.5208L84.8519 83.8423L83.5942 87.5895L87.2681 89.041L86.9796 92.982L90.9033 93.4773L91.6011 97.3537L95.5249 96.8584L97.1702 100.451L100.844 98.9947L103.334 102.066L106.53 99.7399L109.704 102.096L112.224 99.0464L115.885 100.541L117.564 96.9618L121.48 97.5002L122.22 93.6238L126.148 93.1672L125.894 89.2219L129.586 87.8048L128.362 84.0447L131.584 81.7577L129.465 78.4067ZM128.672 81.1891L125.825 83.2135L126.907 86.5343L123.646 87.7833L123.87 91.2678L120.398 91.6726L119.748 95.1183L116.302 94.6446L114.816 97.806L111.586 96.488L109.359 99.1756L106.555 97.0953L103.734 99.1498L101.538 96.4363L98.29 97.7284L96.8386 94.5541L93.3713 94.9848L92.7554 91.5391L89.3097 91.1084L89.5681 87.6283L86.3206 86.3361L87.4318 83.0283L84.6063 80.9781L86.5101 78.0492L84.279 75.3616L86.8633 72.997L85.3342 69.8183L88.4138 68.1687L87.7548 64.723L91.1489 63.8917L91.3642 60.4073L94.853 60.4417L95.9298 57.121L99.3022 58.0255L101.172 55.0751L104.217 56.7979L106.758 54.4032L109.278 56.8195L112.336 55.1354L114.179 58.103L117.56 57.2416L118.602 60.5753H122.095L122.281 64.064L125.662 64.9255L124.973 68.3453L128.031 70.0251L126.515 73.1693L129.06 75.5597L126.807 78.2258L128.672 81.1891Z" fill="white"/>
<path opacity="0.4" d="M93.9906 75.5071C93.9906 75.5071 96.1872 75.128 97.2683 75.5071C98.3494 75.8861 102.924 83.6906 102.924 83.6906C102.924 83.6906 111.796 71.4842 118.89 66.1477C118.89 66.1477 109.686 74.3915 104.349 88.2303C104.349 88.2303 102.553 89.0228 101.283 87.6058C100.916 87.175 96.7945 80.1501 95.9977 79.8874C95.3731 79.6764 93.3574 79.7797 93.3574 79.7797L93.9906 75.5071Z" fill="black"/>
<path d="M93.5609 75.0764C93.5609 75.0764 95.7575 74.6974 96.8386 75.0764C97.9197 75.4554 102.494 83.2599 102.494 83.2599C102.494 83.2599 111.366 71.0536 118.46 65.717C118.46 65.717 109.256 73.9609 103.919 87.7996C103.919 87.7996 102.123 88.5921 100.853 87.1751C100.487 86.7444 96.3648 79.7195 95.568 79.4567C94.9435 79.2457 92.9277 79.3491 92.9277 79.3491L93.5609 75.0764Z" fill="white"/>
<path d="M96.8739 29.9977C96.8828 31.7633 96.4379 33.5016 95.5817 35.0457L95.3922 35.3687C94.7767 36.3901 93.9882 37.2966 93.0621 38.0477L93.0104 38.0908C92.1336 38.7975 91.1472 39.3562 90.0902 39.7448C88.9479 40.1634 87.7405 40.3763 86.5239 40.3736C86.1367 40.3759 85.7498 40.3544 85.3653 40.309C84.7195 40.2403 84.0819 40.1091 83.4615 39.917C81.9507 39.4525 80.568 38.6447 79.4214 37.5567C78.1677 36.3773 77.2268 34.9047 76.6834 33.2713C76.14 31.638 76.0111 29.8952 76.3084 28.1998C76.6056 26.5043 77.3197 24.9093 78.3864 23.5583C79.453 22.2072 80.8388 21.1425 82.419 20.46C83.9992 19.7774 85.7243 19.4983 87.4392 19.6479C89.154 19.7975 90.8048 20.371 92.2429 21.3169C93.6811 22.2627 94.8616 23.5513 95.6783 25.0666C96.4949 26.5819 96.922 28.2764 96.9213 29.9977H96.8739Z" fill="#407BFF"/>
<path d="M95.5638 35.0447L95.3743 35.3678C92.9996 35.3307 90.63 35.5984 88.3235 36.1646L87.5525 36.3541L87.0271 36.4919C86.3681 36.6685 85.7349 36.8537 85.1965 37.0303L84.951 37.1121L84.7744 37.1681C84.1327 37.3835 83.5857 37.5773 83.1679 37.7367C82.5434 37.9736 82.1859 38.1286 82.1859 38.1286C81.9816 37.8653 81.7946 37.5891 81.6259 37.3017L81.6001 37.2543C80.6655 35.6865 79.0158 32.0857 79.7911 26.9172C80.6525 21.1672 85.4205 21.5333 87.1132 21.852C87.3154 21.8855 87.5154 21.9315 87.7119 21.9899C87.7119 21.9899 93.0484 23.2475 93.2465 26.5726C93.2745 27.0177 93.3291 27.4607 93.4102 27.8992C93.912 30.3409 94.6327 32.7324 95.5638 35.0447Z" fill="#263238"/>
<path d="M90.0728 39.7443C88.9305 40.1629 87.7231 40.3758 86.5065 40.3732C86.1193 40.3755 85.7324 40.3539 85.3479 40.3085C84.7021 40.2399 84.0645 40.1086 83.4441 39.9166L83.1125 37.2074L82.9531 35.9153L90.0556 36.9231V37.5305L90.0771 39.3136V39.7443H90.0728Z" fill="#407BFF"/>
<path d="M92.9932 38.0906C92.1164 38.7973 91.13 39.356 90.073 39.7446C88.9307 40.1632 87.7233 40.3761 86.5067 40.3734C86.1196 40.3757 85.7326 40.3542 85.3481 40.3088C84.7023 40.2401 84.0648 40.1089 83.4444 39.9168C81.9336 39.4523 80.5508 38.6445 79.4043 37.5565C79.7316 37.5049 80.0633 37.4661 80.3949 37.423H80.4768C80.8687 37.38 81.2607 37.3412 81.6526 37.311C82.1178 37.2723 82.5786 37.2421 83.0438 37.2249H83.1256L83.6942 37.2034H84.3704H85.1629C86.0243 37.2034 86.8972 37.235 87.7816 37.2981L88.6732 37.3713L89.1427 37.4187L89.8232 37.5221L89.974 37.5436H90.0773L90.8785 37.6815C91.0034 37.703 91.1283 37.7331 91.2532 37.7504L91.4901 37.7977L91.7442 37.8451L92.1749 37.9313L92.4764 37.9916L92.9932 38.0906Z" fill="#263238"/>
<path d="M88.2544 39.8394C85.2954 39.3354 84.4512 38.0261 84.4512 38.0261C85.7175 36.9321 85.5667 35.2307 85.3126 34.1497C85.2312 33.8123 85.1217 33.4824 84.9853 33.1633L88.5386 33.9817C88.4356 34.4758 88.3679 34.9768 88.3362 35.4806C88.3091 35.8533 88.3279 36.228 88.3922 36.5961C88.5903 37.6729 89.2019 37.716 89.2019 37.716C89.7662 38.9435 88.2544 39.8394 88.2544 39.8394Z" fill="#E4897B"/>
<path opacity="0.2" d="M88.3236 35.5069C88.2965 35.8797 88.3153 36.2543 88.3796 36.6225C86.9669 36.3727 85.9331 35.1925 85.3 34.176C85.2186 33.8387 85.1091 33.5088 84.9727 33.1897L88.526 34.0081C88.423 34.5022 88.3553 35.0031 88.3236 35.5069Z" fill="black"/>
<path d="M87.8429 23.8256C91.2067 23.9721 92.2146 25.8198 92.3094 29.2957C92.4343 33.6372 91.3403 36.6738 87.1753 35.5711C81.5157 34.0679 82.2566 23.5844 87.8429 23.8256Z" fill="#E4897B"/>
<path d="M90.1426 29.012C90.3913 29.5266 90.7007 30.0096 91.0643 30.4505C90.959 30.5847 90.8192 30.6876 90.6599 30.7483C90.5005 30.8091 90.3276 30.8252 90.1598 30.7951L90.1426 29.012Z" fill="#DE5753"/>
<path d="M86.6841 26.9184C86.646 26.9186 86.6092 26.9048 86.5807 26.8796C86.5657 26.8656 86.5538 26.8485 86.5456 26.8296C86.5374 26.8108 86.5332 26.7904 86.5332 26.7698C86.5332 26.7492 86.5374 26.7289 86.5456 26.71C86.5538 26.6911 86.5657 26.6741 86.5807 26.66C86.7936 26.456 87.0515 26.3049 87.3336 26.2189C87.6156 26.1328 87.9139 26.1143 88.2045 26.1647C88.2246 26.1683 88.2438 26.1759 88.2609 26.1869C88.2781 26.198 88.2929 26.2123 88.3045 26.2292C88.3161 26.246 88.3243 26.2649 88.3286 26.2849C88.3328 26.3049 88.3331 26.3255 88.3294 26.3456C88.3258 26.3657 88.3182 26.3849 88.3071 26.402C88.2961 26.4192 88.2817 26.434 88.2649 26.4456C88.2481 26.4572 88.2291 26.4654 88.2092 26.4697C88.1892 26.4739 88.1686 26.4742 88.1485 26.4705C87.9105 26.4327 87.667 26.4487 87.436 26.5173C87.2049 26.5859 86.9922 26.7053 86.8133 26.8667C86.7973 26.8848 86.7772 26.8989 86.7548 26.9079C86.7324 26.9168 86.7081 26.9205 86.6841 26.9184Z" fill="#263238"/>
<path d="M91.9417 26.7795C91.9092 26.7786 91.8778 26.7681 91.8513 26.7493C91.689 26.6118 91.4981 26.5122 91.2924 26.4578C91.0868 26.4034 90.8716 26.3956 90.6625 26.4349C90.643 26.4416 90.6224 26.4444 90.6018 26.443C90.5812 26.4417 90.5611 26.4362 90.5426 26.427C90.5242 26.4178 90.5077 26.405 90.4943 26.3893C90.4809 26.3737 90.4707 26.3555 90.4644 26.3358C90.452 26.2964 90.4554 26.2537 90.4739 26.2167C90.4923 26.1798 90.5245 26.1514 90.5634 26.1377C90.8193 26.0817 91.0846 26.0848 91.3391 26.1468C91.5936 26.2087 91.8306 26.3279 92.0322 26.4952C92.0654 26.5201 92.0876 26.557 92.094 26.598C92.1005 26.6391 92.0906 26.681 92.0666 26.7149C92.0519 26.7342 92.0331 26.7501 92.0115 26.7613C91.9899 26.7724 91.966 26.7787 91.9417 26.7795Z" fill="#263238"/>
<path d="M83.922 29.3389C83.922 29.3389 85.6147 26.6427 85.4682 24.4977C85.4682 24.4977 92.2519 22.0599 92.2907 28.8393C92.2907 28.8393 93.1995 22.861 87.4237 22.4777C81.6478 22.0944 81.3076 30.5578 84.1847 33.2067C84.1847 33.2067 82.8754 31.023 83.922 29.3389Z" fill="#263238"/>
<path d="M84.4428 30.0704C84.426 29.6804 84.2559 29.3128 83.9696 29.0475C83.6833 28.7822 83.3039 28.6405 82.9138 28.6534C81.8628 28.7223 81.2771 30.8414 83.8484 31.4659C84.2145 31.5564 84.4385 31.2247 84.4428 30.0704Z" fill="#E4897B"/>
<path d="M90.2231 31.785C89.9942 32.1261 89.7898 32.483 89.6115 32.8531L89.4004 32.7928C88.4615 32.5 88.1083 32.0563 88.0265 31.6515C87.985 31.4517 87.9924 31.2448 88.048 31.0485C88.0755 30.9365 88.119 30.8292 88.1772 30.7297C88.677 31.1664 89.2644 31.491 89.9001 31.6816C90.0982 31.7505 90.2231 31.785 90.2231 31.785Z" fill="#263238"/>
<path d="M89.9052 31.6816L89.7157 31.9917C88.8543 31.7161 88.2426 31.4059 88.0488 31.0485C88.0763 30.9365 88.1198 30.8292 88.178 30.7297C88.679 31.1669 89.268 31.4915 89.9052 31.6816Z" fill="white"/>
<path d="M89.4013 32.7928C88.4624 32.4999 88.1092 32.0562 88.0273 31.6514C88.3838 31.7677 88.7164 31.9472 89.0094 32.1811C89.2029 32.3371 89.3405 32.5518 89.4013 32.7928Z" fill="#DE5753"/>
<path d="M87.7633 24.0763C87.7633 24.0763 86.1696 29.5549 82.6895 29.3352C79.2093 29.1156 84.8861 22.3362 84.8861 22.3362C84.8861 22.3362 90.662 20.4367 93.341 23.5766C96.02 26.7165 92.29 28.8399 92.29 28.8399C92.29 28.8399 92.6863 24.563 87.7633 24.0763Z" fill="#263238"/>
<path d="M85.1808 28.7968C85.1593 28.7965 85.1384 28.7898 85.1207 28.7775C85.1031 28.7652 85.0895 28.7479 85.0818 28.7278C85.0716 28.7021 85.0717 28.6734 85.0821 28.6477C85.0926 28.622 85.1125 28.6014 85.1378 28.59C87.8512 27.4271 87.6402 23.7273 87.6402 23.6885C87.639 23.6607 87.6486 23.6334 87.6671 23.6125C87.6856 23.5916 87.7115 23.5787 87.7393 23.5765C87.7676 23.5753 87.7953 23.5848 87.8169 23.6032C87.8385 23.6215 87.8523 23.6474 87.8556 23.6756C87.8556 23.7144 88.0752 27.552 85.2239 28.7881L85.1808 28.7968Z" fill="#263238"/>
<path d="M88.1609 28.8213C88.1911 29.0797 88.0748 29.308 87.9025 29.3295C87.7302 29.3511 87.5623 29.1529 87.5321 28.8988C87.502 28.6447 87.6182 28.4121 87.7905 28.3906C87.9628 28.369 88.1308 28.5586 88.1609 28.8213Z" fill="#263238"/>
<path d="M87.7168 28.408L88.2595 28.1194C88.2595 28.1194 88.0312 28.6406 87.7168 28.408Z" fill="#263238"/>
<path d="M91.3875 28.3828C91.4177 28.6412 91.3014 28.8695 91.1291 28.891C90.9568 28.9126 90.7888 28.7187 90.7587 28.4603C90.7285 28.2019 90.8448 27.9736 91.0171 27.9521C91.1894 27.9305 91.366 28.1244 91.3875 28.3828Z" fill="#263238"/>
<path d="M90.9336 27.9685L91.472 27.6799C91.472 27.6799 91.2609 28.2097 90.9336 27.9685Z" fill="#263238"/>
<path d="M93.0459 38.0471L92.9942 38.0901C92.1174 38.7968 91.131 39.3555 90.074 39.7441V39.4383V39.3048L89.5098 38.1634L89.7983 37.4828L90.0438 36.9143L90.2937 37.457L93.0459 38.0471Z" fill="#407BFF"/>
<path opacity="0.6" d="M93.0459 38.0471L92.9942 38.0901C92.1174 38.7968 91.131 39.3555 90.074 39.7441V39.4383V39.3048L89.5098 38.1634L89.7983 37.4828L90.0438 36.9143L90.2937 37.457L93.0459 38.0471Z" fill="white"/>
<path d="M86.5706 38.078L85.3947 39.5554L85.3344 40.3134C84.6887 40.2448 84.0511 40.1135 83.4307 39.9215C81.9199 39.457 80.5372 38.6491 79.3906 37.5612L80.3683 37.4234H80.4502L82.5219 37.1305L82.9526 35.9202L85.0631 37.1778L86.5835 38.0866L86.5706 38.078Z" fill="#407BFF"/>
<path opacity="0.6" d="M86.5663 38.0775L85.3947 39.5548L85.3344 40.3129C84.6887 40.2442 84.0511 40.1129 83.4307 39.9209C81.9199 39.4564 80.5372 38.6486 79.3906 37.5606L80.4502 37.4142L82.5219 37.1256L82.9526 35.9153L85.0631 37.173L86.5663 38.0775Z" fill="white"/>
<path d="M97.5857 38.7765C97.5857 39.3345 97.4202 39.8799 97.1102 40.3438C96.8002 40.8078 96.3596 41.1694 95.8441 41.3829C95.3286 41.5964 94.7614 41.6523 94.2141 41.5434C93.6669 41.4346 93.1642 41.1659 92.7697 40.7713C92.3751 40.3768 92.1064 39.8741 91.9976 39.3269C91.8887 38.7796 91.9446 38.2124 92.1581 37.6969C92.3716 37.1814 92.7332 36.7408 93.1972 36.4308C93.6611 36.1208 94.2065 35.9553 94.7645 35.9553C95.5127 35.9553 96.2303 36.2526 96.7594 36.7816C97.2885 37.3107 97.5857 38.0283 97.5857 38.7765Z" fill="white"/>
<path d="M97.1708 38.7761C97.1708 39.2523 97.0296 39.7178 96.7651 40.1137C96.5005 40.5097 96.1245 40.8183 95.6845 41.0005C95.2446 41.1827 94.7605 41.2304 94.2934 41.1375C93.8264 41.0446 93.3974 40.8153 93.0607 40.4786C92.7239 40.1419 92.4946 39.7128 92.4017 39.2458C92.3088 38.7788 92.3565 38.2946 92.5387 37.8547C92.721 37.4148 93.0296 37.0387 93.4255 36.7742C93.8215 36.5096 94.287 36.3684 94.7631 36.3684C95.4017 36.3684 96.0141 36.6221 96.4656 37.0736C96.9172 37.5251 97.1708 38.1375 97.1708 38.7761Z" fill="#263238"/>
<path d="M94.6683 40.0284L93.3848 38.8956L93.669 38.5726L94.5994 39.391L95.8226 37.7112L96.1715 37.9653L94.6683 40.0284Z" fill="white"/>
<path d="M49.3403 91.1067C49.3403 91.1067 53.0229 114.111 60.2933 118.074H52.9023C52.9023 118.074 45.6017 110.235 43.3965 91.1067H49.3403Z" fill="#263238"/>
<path opacity="0.1" d="M49.3403 91.1067C49.3403 91.1067 53.0229 114.111 60.2933 118.074H52.9023C52.9023 118.074 45.6017 110.235 43.3965 91.1067H49.3403Z" fill="white"/>
<path d="M42.4999 95.7835H54.3445C57.7902 95.7835 60.0686 93.0011 59.3752 89.5683L58.4707 84.9855C57.7816 81.5398 54.4091 78.7747 50.9419 78.7747H39.0887C35.643 78.7747 33.3645 81.5571 34.058 84.9855L34.9754 89.5683C35.643 93.0011 39.0327 95.7835 42.4999 95.7835Z" fill="#407BFF"/>
<path d="M53.6504 73.1028H61.1965L61.8899 77.6037L55.1794 78.7753L53.6504 73.1028Z" fill="#407BFF"/>
<path d="M101.589 129.974L97.9017 131.964C97.9017 131.964 83.9768 107.482 81.8362 107.685C79.6955 107.887 59.3832 120.821 53.1895 116.028C46.9959 111.234 53.0216 96.8566 53.0216 96.8566C53.0216 96.8566 65.1246 92.2566 66.5158 95.0691C67.126 96.2082 67.6696 97.3817 68.1439 98.5837C68.4152 99.4452 68.6219 100.208 68.6219 100.208C69.0139 100.048 81.6682 94.8581 87.3191 97.6232C93.0648 100.479 101.589 129.974 101.589 129.974Z" fill="#407BFF"/>
<path opacity="0.3" d="M101.589 129.974L97.9017 131.964C97.9017 131.964 83.9768 107.482 81.8362 107.685C79.6955 107.887 59.3832 120.821 53.1895 116.028C46.9959 111.234 53.0216 96.8566 53.0216 96.8566C53.0216 96.8566 65.1246 92.2566 66.5158 95.0691C67.126 96.2082 67.6696 97.3817 68.1439 98.5837C68.4152 99.4452 68.6219 100.208 68.6219 100.208C69.0139 100.048 81.6682 94.8581 87.3191 97.6232C93.0648 100.479 101.589 129.974 101.589 129.974Z" fill="white"/>
<path opacity="0.3" d="M68.6227 100.22L61.1973 102.864C61.1973 102.864 65.1038 99.9484 68.1446 98.5959C68.416 99.4746 68.6227 100.22 68.6227 100.22Z" fill="black"/>
<path d="M52.5452 95.8361L52.4375 98.0414L66.3538 95.091L66.0308 92.6575L52.5452 95.8361Z" fill="#263238"/>
<path opacity="0.2" d="M52.5452 95.8361L52.4375 98.0414L66.3538 95.091L66.0308 92.6575L52.5452 95.8361Z" fill="black"/>
<path d="M56.7726 94.4866L56.0781 94.6155L56.7326 98.1431L57.4271 98.0143L56.7726 94.4866Z" fill="#407BFF"/>
<path d="M62.8445 93.591L59.8066 94.2756L60.3255 96.5782L63.3634 95.8936L62.8445 93.591Z" fill="white"/>
<path d="M65.2258 92.4057L64.5312 92.5344L65.1851 96.0622L65.8796 95.9334L65.2258 92.4057Z" fill="#407BFF"/>
<path opacity="0.3" d="M56.7726 94.4866L56.0781 94.6155L56.7326 98.1431L57.4271 98.0143L56.7726 94.4866Z" fill="white"/>
<path opacity="0.3" d="M65.2258 92.4057L64.5312 92.5344L65.1851 96.0622L65.8796 95.9334L65.2258 92.4057Z" fill="white"/>
<path d="M60.3112 57.8813C60.3112 57.8813 53.5102 54.5778 51.2662 61.6931C49.0222 68.8085 51.8994 73.7186 51.8994 73.7186C51.8994 73.7186 59.7685 71.7029 66.3928 73.1113C66.3928 73.1113 64.9628 67.0469 65.3074 63.5667C65.652 60.0866 60.3112 57.8813 60.3112 57.8813Z" fill="#263238"/>
<path d="M65.6172 73.9856C67.1118 74.0502 73.37 82.462 73.37 82.462L75.6958 79.447C75.6958 79.447 79.2794 86.4116 77.5048 89.7281C75.7303 93.0446 66.3839 83.9824 66.3839 83.9824L65.6172 73.9856Z" fill="#407BFF"/>
<path opacity="0.6" d="M65.6113 73.9856L66.2229 80.709L66.378 83.9867C66.378 83.9867 67.9156 85.477 69.8581 87.0275C72.7138 89.306 76.4437 91.7094 77.499 89.7367C79.2735 86.4245 75.6857 79.4556 75.6857 79.4556L73.3641 82.4706V82.4448C73.0023 81.9279 67.0585 74.0502 65.6113 73.9856Z" fill="white"/>
<path opacity="0.2" d="M66.2246 80.7086L66.3797 83.9863C66.3797 83.9863 67.9173 85.4766 69.8598 87.0271C70.045 83.0904 66.3797 77.3577 66.3797 77.3577L66.2246 80.7086Z" fill="black"/>
<path opacity="0.2" d="M73.3724 82.4622L73.0365 83.1039L74.0099 86.8942C74.0099 86.8942 71.3222 84.4477 73.0365 82.053L73.3724 82.4622Z" fill="black"/>
<path d="M66.3999 81.4883C66.3999 81.5917 66.3999 81.6994 66.3999 81.8071C66.3999 82.2722 66.3999 82.7632 66.3697 83.2844C66.3697 83.3275 66.3697 83.3705 66.3697 83.4179C66.3697 83.6979 66.3697 83.9865 66.3697 84.2793C66.3697 84.331 66.3697 84.3784 66.3697 84.4301C66.3697 84.8608 66.3396 85.2915 66.3223 85.7222C66.3223 85.7825 66.3223 85.8428 66.3223 85.9031C66.3223 86.4889 66.275 87.1048 66.2448 87.7552C66.1759 89.2153 66.0941 90.8348 65.9907 92.6308L65.7969 92.6782L52.6386 95.7966H52.587C52.587 95.7966 53.1167 88.7587 52.2079 84.7747C52.2014 84.7397 52.1927 84.7052 52.1821 84.6713C52.1821 84.611 52.1562 84.5507 52.139 84.4904C52.1218 84.4301 52.0787 84.2664 52.0529 84.1501C52.027 84.0338 51.9926 83.9175 51.9581 83.7969C51.8418 83.3662 51.7169 82.9355 51.5834 82.4617C51.4973 82.1516 51.4025 81.8329 51.3034 81.5056L51.2517 81.3419C51.1355 80.9542 51.0106 80.5537 50.8813 80.1402C50.8426 80.0196 50.8081 79.9033 50.7694 79.7784C50.5798 79.1883 50.3774 78.5638 50.1577 77.9091C49.9165 77.1712 49.6524 76.3887 49.3652 75.5617C50.8742 75.0806 52.412 74.695 53.9695 74.4074L54.6371 74.2868L55.3435 74.1705C56.5237 73.981 57.7167 73.8475 58.9098 73.7614C59.3893 73.7269 59.8674 73.7011 60.3441 73.6838C60.6326 73.6838 60.9298 73.6838 61.2055 73.6838H61.3261L62.1875 73.7097H62.5881H62.8422H63.1179L63.5486 73.7355H63.8759L64.466 73.7743L64.6986 73.7958H64.9053H65.0948H65.2499L65.6246 73.8303C65.6246 73.8303 65.6246 73.8303 65.6591 73.8303L65.6892 73.8604C65.718 73.8947 65.7426 73.9323 65.7624 73.9724C65.8948 74.2529 65.9889 74.5499 66.0424 74.8554C66.0424 74.9415 66.0768 75.0363 66.0984 75.1396C66.1199 75.243 66.1501 75.4627 66.1802 75.6522C66.2104 75.8417 66.219 75.9278 66.2362 76.0829C66.2534 76.238 66.2664 76.3629 66.2793 76.5136C66.4067 78.1686 66.447 79.8291 66.3999 81.4883Z" fill="#263238"/>
<path d="M59.2542 76.5347C56.1186 76.1342 55.1797 74.7903 55.1797 74.7903C56.4718 73.5844 56.2263 71.8055 55.899 70.6943C55.8005 70.3418 55.6707 69.9987 55.5113 69.6692L59.2844 70.3756C59.1966 70.8996 59.1477 71.4294 59.1379 71.9606C59.1238 72.3527 59.1599 72.7449 59.2456 73.1278C59.4997 74.2563 60.1415 74.2735 60.1415 74.2735C60.8048 75.5096 59.2542 76.5347 59.2542 76.5347Z" fill="#E4897B"/>
<path opacity="0.2" d="M59.1383 71.9606C59.1241 72.3527 59.1603 72.7449 59.246 73.1278C57.7471 72.934 56.6143 71.7323 55.8994 70.6943C55.8008 70.3418 55.6711 69.9987 55.5117 69.6692L59.2848 70.3756C59.197 70.8996 59.1481 71.4294 59.1383 71.9606Z" fill="black"/>
<path d="M60.1425 59.7937C63.6141 60.5001 64.3506 62.5891 63.8768 66.2157C63.2824 70.751 61.6457 73.723 57.498 71.8838C51.8729 69.3857 54.3796 58.6179 60.1425 59.7937Z" fill="#E4897B"/>
<path d="M61.6702 65.5657C61.8431 66.141 62.0846 66.6934 62.3895 67.211C62.2581 67.3326 62.0958 67.4158 61.9203 67.4515C61.7449 67.4872 61.563 67.474 61.3945 67.4134L61.6702 65.5657Z" fill="#DE5753"/>
<path d="M58.4708 62.8175C58.4479 62.8174 58.4252 62.8124 58.4044 62.8027C58.3836 62.793 58.3651 62.779 58.3502 62.7615C58.3352 62.7474 58.3233 62.7304 58.3151 62.7115C58.3069 62.6926 58.3027 62.6723 58.3027 62.6517C58.3027 62.6311 58.3069 62.6107 58.3151 62.5919C58.3233 62.573 58.3352 62.556 58.3502 62.5419C58.604 62.3655 58.8957 62.2514 59.2017 62.2088C59.5078 62.1661 59.8195 62.1961 60.1118 62.2964C60.1311 62.3031 60.1488 62.3136 60.1639 62.3273C60.1791 62.3409 60.1914 62.3574 60.2002 62.3758C60.209 62.3942 60.2141 62.4141 60.2152 62.4345C60.2163 62.4549 60.2134 62.4752 60.2066 62.4945C60.1998 62.5137 60.1893 62.5314 60.1757 62.5466C60.162 62.5618 60.1456 62.5741 60.1272 62.5829C60.1088 62.5917 60.0888 62.5968 60.0684 62.5979C60.0481 62.599 60.0277 62.596 60.0085 62.5892C59.7659 62.5116 59.5091 62.4887 59.2567 62.5222C59.0042 62.5558 58.7623 62.6448 58.5484 62.7831C58.5258 62.8008 58.4991 62.8127 58.4708 62.8175Z" fill="#263238"/>
<path d="M63.9368 63.5362C63.8961 63.5351 63.8574 63.5181 63.8291 63.4888C63.6811 63.3189 63.4974 63.1837 63.2912 63.0929C63.085 63.0021 62.8613 62.9578 62.6361 62.9633C62.6159 62.967 62.5952 62.9665 62.5753 62.9619C62.5553 62.9574 62.5365 62.9488 62.52 62.9367C62.5035 62.9246 62.4896 62.9092 62.4792 62.8916C62.4688 62.874 62.4621 62.8544 62.4595 62.8341C62.4558 62.8139 62.4563 62.7933 62.4609 62.7733C62.4654 62.7534 62.474 62.7345 62.4861 62.718C62.4982 62.7015 62.5135 62.6876 62.5312 62.6772C62.5488 62.6668 62.5684 62.6601 62.5887 62.6575C62.8626 62.6411 63.1367 62.6877 63.3898 62.7938C63.6429 62.8998 63.8683 63.0624 64.0488 63.2691C64.0633 63.2835 64.0747 63.3006 64.0826 63.3195C64.0904 63.3383 64.0944 63.3585 64.0944 63.3789C64.0944 63.3993 64.0904 63.4196 64.0826 63.4384C64.0747 63.4573 64.0633 63.4744 64.0488 63.4888C64.0189 63.5184 63.9788 63.5353 63.9368 63.5362Z" fill="#263238"/>
<path d="M55.1602 64.8675C55.1602 64.8675 57.3654 62.3478 57.5679 60.0952C57.5679 60.0952 65.0149 58.6911 63.9338 65.7419C63.9338 65.7419 65.8677 59.6774 59.9325 58.325C53.9973 56.9726 52.24 65.7031 54.7898 68.9291C54.7898 68.9291 53.7905 66.4482 55.1602 64.8675Z" fill="#263238"/>
<path d="M55.5764 65.717C55.6005 65.5148 55.5844 65.3098 55.5293 65.1138C55.4741 64.9178 55.3809 64.7346 55.2549 64.5746C55.1289 64.4146 54.9726 64.281 54.795 64.1814C54.6174 64.0818 54.4219 64.0182 54.2197 63.9942C53.1214 63.8908 52.1566 65.9927 54.7236 67.0694C55.094 67.2245 55.3869 66.8928 55.5764 65.717Z" fill="#E4897B"/>
<path d="M61.2972 68.455C61.0021 68.7726 60.7301 69.1108 60.4832 69.4672L60.2765 69.3638C59.3461 68.9073 59.0662 68.3904 59.036 67.9554C59.0285 67.7403 59.0712 67.5265 59.1609 67.3309C59.2083 67.2196 59.2706 67.1152 59.3461 67.0208C59.7921 67.5645 60.3505 68.0052 60.9828 68.3129C61.1766 68.399 61.2972 68.455 61.2972 68.455Z" fill="#263238"/>
<path d="M60.9821 68.2957L60.7366 68.5885C59.8751 68.1578 59.3023 67.7271 59.1602 67.3309C59.2075 67.2196 59.2698 67.1152 59.3454 67.0208C59.7932 67.5582 60.3514 67.993 60.9821 68.2957Z" fill="white"/>
<path d="M60.2756 69.3638C59.3453 68.9072 59.0653 68.3903 59.0352 67.9553C59.388 68.1323 59.705 68.3733 59.9698 68.666C60.1432 68.8603 60.2503 69.1046 60.2756 69.3638Z" fill="#DE5753"/>
<path d="M60.0171 60.0341C60.0171 60.0341 57.4328 65.4611 53.8751 64.6556C50.3174 63.8502 57.3208 57.7642 57.3208 57.7642C57.3208 57.7642 63.6394 56.7348 65.8963 60.4648C68.1532 64.1948 63.9322 65.7626 63.9322 65.7626C63.9322 65.7626 65.0521 61.3607 60.0171 60.0341Z" fill="#263238"/>
<path d="M56.5721 64.5098C56.5485 64.5088 56.5257 64.5004 56.5071 64.4857C56.4886 64.471 56.4751 64.4508 56.4688 64.4279C56.4649 64.4144 56.4639 64.4001 56.4657 64.3861C56.4676 64.3721 56.4723 64.3587 56.4796 64.3466C56.4868 64.3345 56.4965 64.324 56.508 64.3157C56.5195 64.3075 56.5325 64.3017 56.5463 64.2987C59.5613 63.5364 59.9575 59.6557 59.9618 59.6169C59.9651 59.5891 59.9791 59.5636 60.0008 59.5459C60.0225 59.5282 60.0502 59.5197 60.0781 59.5221C60.0924 59.5225 60.1063 59.526 60.1191 59.5323C60.1319 59.5386 60.1431 59.5475 60.1521 59.5586C60.1611 59.5696 60.1676 59.5825 60.1712 59.5962C60.1748 59.61 60.1754 59.6244 60.1729 59.6384C60.1729 59.6772 59.7422 63.7087 56.598 64.5055L56.5721 64.5098Z" fill="#263238"/>
<path d="M59.6426 65.0345C59.6426 65.3102 59.4746 65.5255 59.2937 65.5212C59.1128 65.5169 58.9664 65.2843 58.9793 65.0087C58.9922 64.733 59.1473 64.5134 59.3325 64.522C59.5177 64.5306 59.6555 64.7718 59.6426 65.0345Z" fill="#263238"/>
<path d="M59.2539 64.5316L59.8612 64.3206C59.8612 64.3206 59.5425 64.8159 59.2539 64.5316Z" fill="#263238"/>
<path d="M63.0703 65.1132C63.0703 65.3889 62.898 65.6085 62.7171 65.5999C62.5362 65.5913 62.3941 65.363 62.4027 65.0874C62.4113 64.8117 62.5707 64.5964 62.7559 64.605C62.9411 64.6136 63.0789 64.8376 63.0703 65.1132Z" fill="#263238"/>
<path d="M62.6777 64.6136L63.285 64.4026C63.285 64.4026 62.9663 64.8936 62.6777 64.6136Z" fill="#263238"/>
<path d="M67.8955 79.5367C67.8892 79.5828 67.8931 79.6297 67.9068 79.6741C67.9205 79.7185 67.9438 79.7594 67.975 79.7938C68.0061 79.8283 68.0445 79.8555 68.0873 79.8736C68.1302 79.8917 68.1764 79.9002 68.2229 79.8985H71.8236C71.9231 79.8948 72.0183 79.8567 72.0929 79.7908C72.1675 79.7248 72.2169 79.635 72.2328 79.5367L73.0339 72.43C73.0445 72.3801 73.0443 72.3285 73.0333 72.2787C73.0223 72.2289 73.0008 72.1821 72.9702 72.1413C72.9396 72.1005 72.9006 72.0667 72.8559 72.0422C72.8112 72.0177 72.7617 72.0031 72.7109 71.9993H69.1101C69.0024 72.0121 68.9026 72.0621 68.8278 72.1408C68.7531 72.2194 68.7082 72.3217 68.701 72.43L67.8955 79.5367Z" fill="#263238"/>
<path opacity="0.5" d="M69.1015 72.3829L68.2832 79.5586C68.273 79.6005 68.2728 79.6442 68.2826 79.6862C68.2924 79.7282 68.3119 79.7673 68.3395 79.8004C68.3672 79.8335 68.4022 79.8597 68.4418 79.8768C68.4814 79.8939 68.5244 79.9014 68.5675 79.8989H71.6212C71.8279 79.8989 72.2027 79.7869 72.2242 79.5844L73.0426 72.3829C73.0426 72.1805 72.7152 72.0168 72.5085 72.0168H69.4547C69.3602 72.0212 69.271 72.0616 69.2053 72.1297C69.1397 72.1978 69.1025 72.2884 69.1015 72.3829Z" fill="white"/>
<path d="M75.441 80.1325L73.5631 76.9452C73.5779 76.2525 73.5245 75.5601 73.4038 74.8778C73.2401 74.4816 71.401 73.5857 71.0392 73.7235C70.6774 73.8613 70.5482 77.1434 70.8755 77.5999C71.2028 78.0565 72.3528 78.5346 72.3528 78.5346L72.2753 79.1591L73.3736 82.4756L75.441 80.1325Z" fill="#E4897B"/>
<path d="M76.1944 79.7703L75.5742 79.1458L72.6152 82.4622L73.0373 83.7759L76.1944 79.7703Z" fill="#407BFF"/>
<path d="M61.197 73.1028L60.8223 74.4811L61.5846 75.6009L63.273 91.3477L67.8946 90.6672C67.5758 78.3962 67.4638 78.3316 65.6807 73.9168L61.5416 73.6283L61.197 73.1028Z" fill="#407BFF"/>
<path opacity="0.6" d="M61.197 73.1028L60.8223 74.4811L61.5846 75.6009L63.273 91.3477L67.8946 90.6672C67.5758 78.3962 67.4638 78.3316 65.6807 73.9168L61.5416 73.6283L61.197 73.1028Z" fill="white"/>
<path d="M53.6502 73.1028L57.7549 74.8256L56.7471 76.5485L57.742 92.67L51.5225 94.4919C51.5225 94.4919 47.0087 82.6474 49.3216 75.6181L53.3961 74.4423L53.6502 73.1028Z" fill="#407BFF"/>
<path opacity="0.6" d="M57.5829 90.103L57.7422 92.6571L54.9685 93.4668L51.5228 94.4747C50.2497 90.9718 49.3601 87.3412 48.8696 83.6466C48.5379 80.8427 48.5466 77.9526 49.3218 75.6009L53.3964 74.4251L53.6505 73.1028L57.7552 74.8256L56.7473 76.5485L57.1436 82.9489L57.5829 90.103Z" fill="white"/>
<path opacity="0.2" d="M61.2219 85.0678C61.2219 85.0678 59.6757 87.3204 57.5824 90.1028C56.7727 91.1796 55.8596 92.3339 54.968 93.4667L51.5223 94.4745C50.2492 90.9717 49.3596 87.3411 48.8691 83.6464C50.5575 81.9538 52.6249 79.9036 52.6249 79.9036C52.6249 79.9036 53.5725 82.8324 53.1547 85.3779L57.1431 82.9358L58.3836 82.1777L61.2219 85.0678Z" fill="black"/>
<path d="M57.8535 83.2498L62.1219 79.8988C62.3691 79.174 62.673 78.4698 63.0307 77.7926C63.2891 77.4782 67.032 76.0999 67.3378 76.0698C67.6436 76.0396 67.3378 79.1365 66.8683 79.6619C66.3988 80.1874 63.3882 81.2297 63.3882 81.2297L58.926 85.4464L57.8535 83.2498Z" fill="#E4897B"/>
<path d="M49.3221 75.6008C46.8154 76.8585 45.6999 91.0117 50.0543 93.4538C54.4088 95.896 60.9083 84.8396 60.9083 84.8396L58.38 82.1563C58.38 82.1563 53.0822 86.5926 52.4448 86.1834C51.8073 85.7742 52.5309 81.4456 52.5309 81.4456C52.5309 81.4456 53.2761 80.1535 51.7083 78.0731C50.1405 75.9928 49.3221 75.6008 49.3221 75.6008Z" fill="#407BFF"/>
<path opacity="0.6" d="M49.3221 75.6008C46.8154 76.8585 45.6999 91.0117 50.0543 93.4538C54.4088 95.896 60.9083 84.8396 60.9083 84.8396L58.38 82.1563C58.38 82.1563 53.0822 86.5926 52.4448 86.1834C51.8073 85.7742 52.5309 81.4456 52.5309 81.4456C52.5309 81.4456 53.2761 80.1535 51.7083 78.0731C50.1405 75.9928 49.3221 75.6008 49.3221 75.6008Z" fill="white"/>
<path d="M60.9547 85.8392L61.7127 85.3826L58.8744 81.2219L57.832 81.8034L60.9547 85.8392Z" fill="#407BFF"/>
</g>
<defs>
<clipPath id="clip0_253_1340">
<rect width="192" height="117" fill="white" transform="translate(0 -5.28003)"/>
</clipPath>
</defs>
</svg>
