<svg width="257" height="153" viewBox="0 0 257 153" fill="none" xmlns="http://www.w3.org/2000/svg">
<mask id="mask0_739_19275" style="mask-type:alpha" maskUnits="userSpaceOnUse" x="0" y="0" width="257" height="153">
<path d="M13.9607 117.064C10.8645 114.953 3.47944 113.337 0 114.066V0H257V114.066C248.832 114.066 238.106 119.699 233.764 122.515C128.852 190.566 21.8274 121.811 18.3069 118.291C16.511 116.495 15.0014 116.512 13.9607 117.064C15.3548 118.015 15.8793 119.067 14.7863 120.051C13.9648 120.52 12.3923 120.825 12.674 118.291C12.9291 117.865 13.3692 117.378 13.9607 117.064Z" fill="#D9D9D9"/>
</mask>
<g mask="url(#mask0_739_19275)">
<path d="M28.6831 0.626503C28.6831 0.709728 25.8756 0.770762 22.4189 0.770762C18.9623 0.770762 16.1493 0.709728 16.1493 0.626503C16.1493 0.543277 18.9567 0.487793 22.4189 0.487793C25.8811 0.487793 28.6831 0.548825 28.6831 0.626503Z" fill="#E0E0E0"/>
<path d="M51.2657 4.21036C51.2657 4.28804 43.559 4.34907 34.0657 4.34907C24.5725 4.34907 16.8657 4.28804 16.8657 4.21036C16.8657 4.13268 24.5669 4.0661 34.0657 4.0661C43.5646 4.0661 51.2657 4.12713 51.2657 4.21036Z" fill="#E0E0E0"/>
<path d="M18.4912 10.2738H16.2441V12.5209H18.4912V10.2738Z" fill="#E0E0E0"/>
<path d="M24.0169 10.2738H21.7698V12.5209H24.0169V10.2738Z" fill="#E0E0E0"/>
<path d="M29.6477 10.1693H27.4006V12.4164H29.6477V10.1693Z" fill="#E0E0E0"/>
<path d="M35.0688 10.2738H32.8217V12.5209H35.0688V10.2738Z" fill="#E0E0E0"/>
<path d="M40.5957 10.2738H38.3486V12.5209H40.5957V10.2738Z" fill="#E0E0E0"/>
<path d="M46.1269 10.2738H43.8798V12.5209H46.1269V10.2738Z" fill="#E0E0E0"/>
<path d="M51.6532 10.2738H49.4061V12.5209H51.6532V10.2738Z" fill="#EBEBEB"/>
<path d="M18.4912 15.0458H16.2441V17.2929H18.4912V15.0458Z" fill="#EBEBEB"/>
<path d="M24.0169 15.0458H21.7698V17.2929H24.0169V15.0458Z" fill="#E0E0E0"/>
<path d="M29.5438 15.0458H27.2967V17.2929H29.5438V15.0458Z" fill="#EBEBEB"/>
<path d="M35.0688 15.0458H32.8217V17.2929H35.0688V15.0458Z" fill="#E0E0E0"/>
<path d="M40.5957 15.0458H38.3486V17.2929H40.5957V15.0458Z" fill="#E0E0E0"/>
<path d="M46.2272 14.9413H43.9802V17.1884H46.2272V14.9413Z" fill="#E0E0E0"/>
<path d="M51.6532 15.0458H49.4061V17.2929H51.6532V15.0458Z" fill="#E0E0E0"/>
<path d="M18.4912 19.8178H16.2441V22.0649H18.4912V19.8178Z" fill="#E0E0E0"/>
<path d="M24.1221 19.7188H21.875V21.9659H24.1221V19.7188Z" fill="#E0E0E0"/>
<path d="M29.5438 19.8178H27.2967V22.0649H29.5438V19.8178Z" fill="#E0E0E0"/>
<path d="M35.0688 19.8178H32.8217V22.0649H35.0688V19.8178Z" fill="#EBEBEB"/>
<path d="M40.5957 19.8178H38.3486V22.0649H40.5957V19.8178Z" fill="#E0E0E0"/>
<path d="M46.1269 19.8178H43.8798V22.0649H46.1269V19.8178Z" fill="#E0E0E0"/>
<path d="M51.6532 19.8178H49.4061V22.0649H51.6532V19.8178Z" fill="#E0E0E0"/>
<path d="M18.4912 24.5898H16.2441V26.8369H18.4912V24.5898Z" fill="#E0E0E0"/>
<path d="M24.0169 24.5898H21.7698V26.8369H24.0169V24.5898Z" fill="#E0E0E0"/>
<path d="M29.5438 24.5898H27.2967V26.8369H29.5438V24.5898Z" fill="#E0E0E0"/>
<path d="M35.1753 24.4908H32.9282V26.7379H35.1753V24.4908Z" fill="#E0E0E0"/>
<path d="M40.5957 24.5898H38.3486V26.8369H40.5957V24.5898Z" fill="#E0E0E0"/>
<path d="M46.1269 24.5898H43.8798V26.8369H46.1269V24.5898Z" fill="#EBEBEB"/>
<path d="M51.6532 24.5898H49.4061V26.8369H51.6532V24.5898Z" fill="#E0E0E0"/>
<path d="M18.4912 29.3673H16.2441V31.6144H18.4912V29.3673Z" fill="#E0E0E0"/>
<path d="M24.0169 29.3673H21.7698V31.6144H24.0169V29.3673Z" fill="#EBEBEB"/>
<path d="M29.5438 29.3673H27.2967V31.6144H29.5438V29.3673Z" fill="#E0E0E0"/>
<path d="M35.0688 29.3673H32.8217V31.6144H35.0688V29.3673Z" fill="#E0E0E0"/>
<path d="M40.5957 29.3673H38.3486V31.6144H40.5957V29.3673Z" fill="#E0E0E0"/>
<path d="M46.2272 29.2628H43.9802V31.5099H46.2272V29.2628Z" fill="#E0E0E0"/>
<path d="M51.6532 29.3673H49.4061V31.6144H51.6532V29.3673Z" fill="#E0E0E0"/>
<path d="M22.5583 124.755C28.6114 122.193 31.4415 115.21 28.8796 109.157C26.3177 103.103 19.3339 100.273 13.2808 102.835C7.22778 105.397 4.39762 112.381 6.95952 118.434C9.52142 124.487 16.5052 127.317 22.5583 124.755Z" fill="#E0E0E0"/>
<path d="M19.0398 109.281H17.9302V118.114H19.0398V109.281Z" fill="white"/>
<path d="M22.9016 113.143H14.0686V114.252H22.9016V113.143Z" fill="white"/>
<path d="M203.799 11.3745H37.4087V157.974H203.799V11.3745Z" fill="white"/>
<path d="M203.799 100.631H37.4087V125.399H203.799V100.631Z" fill="white"/>
<path d="M203.799 72.2964H37.4087V100.638H203.799V72.2964Z" fill="#F5F5F5"/>
<path d="M203.799 129.45H37.4087V157.791H203.799V129.45Z" fill="#F5F5F5"/>
<path d="M137.874 81.1183C137.874 81.2015 118.249 81.2681 94.0414 81.2681C69.8338 81.2681 50.2092 81.2015 50.2092 81.1183C50.2092 81.0351 69.8283 80.974 94.0414 80.974C118.255 80.974 137.874 81.0406 137.874 81.1183Z" fill="#263238"/>
<path d="M87.2211 89.0065C87.2211 89.0842 78.8985 89.1508 68.5951 89.1508C58.2918 89.1508 49.9692 89.0842 49.9692 89.0065C49.9692 88.9288 58.2918 88.8623 68.5951 88.8623C78.8985 88.8623 87.2211 88.9288 87.2211 89.0065Z" fill="#263238"/>
<path d="M137.874 109.076C137.874 109.154 118.249 109.221 94.0414 109.221C69.8338 109.221 50.2092 109.154 50.2092 109.076C50.2092 108.999 69.8283 108.932 94.0414 108.932C118.255 108.932 137.874 108.993 137.874 109.076Z" fill="#263238"/>
<path d="M87.2211 116.948C87.2211 117.031 78.8985 117.092 68.5951 117.092C58.2918 117.092 49.9692 117.031 49.9692 116.948C49.9692 116.865 58.2918 116.804 68.5951 116.804C78.8985 116.804 87.2211 116.882 87.2211 116.948Z" fill="#263238"/>
<path d="M137.874 137.029C137.874 137.107 118.249 137.173 94.0414 137.173C69.8338 137.173 50.2092 137.107 50.2092 137.029C50.2092 136.951 69.8283 136.885 94.0414 136.885C118.255 136.885 137.874 136.924 137.874 137.029Z" fill="#263238"/>
<path d="M87.2211 144.914C87.2211 144.998 78.8985 145.059 68.5951 145.059C58.2918 145.059 49.9692 144.998 49.9692 144.914C49.9692 144.831 58.2918 144.77 68.5951 144.77C78.8985 144.77 87.2211 144.837 87.2211 144.914Z" fill="#263238"/>
<path d="M203.799 11.1902H37.4087V25.1776H203.799V11.1902Z" fill="#E0E0E0"/>
<path d="M203.799 23.8531H37.4087V37.8406H203.799V23.8531Z" fill="#F5F5F5"/>
<path d="M47.4228 17.7432C47.4195 18.0905 47.3134 18.4292 47.1179 18.7163C46.9224 19.0035 46.6463 19.2263 46.3243 19.3567C46.0023 19.4871 45.6489 19.5193 45.3087 19.4491C44.9685 19.3789 44.6567 19.2095 44.4126 18.9623C44.1685 18.7152 44.0031 18.4012 43.9372 18.0602C43.8713 17.7191 43.9078 17.3661 44.0423 17.0458C44.1767 16.7255 44.403 16.4521 44.6926 16.2603C44.9822 16.0684 45.3221 15.9666 45.6695 15.9677C45.9016 15.9677 46.1315 16.0137 46.3456 16.1032C46.5598 16.1927 46.7541 16.3239 46.9172 16.489C47.0803 16.6542 47.209 16.8501 47.2958 17.0654C47.3826 17.2807 47.4258 17.511 47.4228 17.7432Z" fill="#263238"/>
<path d="M53.8705 17.7433C53.8672 18.0914 53.7606 18.4306 53.5644 18.7181C53.3681 19.0056 53.091 19.2284 52.768 19.3583C52.4451 19.4882 52.0909 19.5193 51.7502 19.4478C51.4096 19.3762 51.0978 19.2052 50.8544 18.9564C50.611 18.7075 50.4469 18.392 50.3829 18.0499C50.3189 17.7077 50.3579 17.3543 50.4949 17.0343C50.6319 16.7143 50.8607 16.4421 51.1525 16.2523C51.4443 16.0624 51.7858 15.9634 52.1339 15.9678C52.5994 15.9737 53.0436 16.1638 53.3691 16.4966C53.6946 16.8295 53.8749 17.2778 53.8705 17.7433Z" fill="#263238"/>
<path d="M60.312 17.7431C60.3087 18.0903 60.2028 18.4287 60.0075 18.7157C59.8123 19.0028 59.5365 19.2256 59.2148 19.3562C58.8931 19.4868 58.54 19.5192 58.1999 19.4495C57.8599 19.3798 57.548 19.2109 57.3037 18.9643C57.0594 18.7177 56.8935 18.4043 56.827 18.0636C56.7605 17.7228 56.7963 17.3701 56.9299 17.0496C57.0635 16.7292 57.2889 16.4555 57.5778 16.263C57.8666 16.0704 58.206 15.9677 58.5532 15.9677C58.7855 15.9677 59.0156 16.0137 59.2301 16.1031C59.4446 16.1926 59.6392 16.3236 59.8028 16.4887C59.9663 16.6538 60.0955 16.8496 60.1829 17.065C60.2703 17.2803 60.3142 17.5108 60.312 17.7431Z" fill="#263238"/>
<path d="M203.832 158.007C203.832 157.075 203.799 100.859 203.749 11.2189L203.832 11.3299L37.525 11.3632L37.6249 11.2189C37.6249 63.3238 37.6249 112.949 37.6249 158.007L37.5306 157.874L203.849 158.007L37.5306 158.14H37.4307V158.007C37.4307 112.949 37.4307 63.3238 37.4307 11.2189V11.0747H37.5472L203.854 11.1024H203.938V11.2189C203.86 100.859 203.832 157.047 203.832 158.007Z" fill="#263238"/>
<path d="M182.266 46.0849H142.883C141.115 46.0849 139.682 47.5182 139.682 49.2863V58.369C139.682 60.1371 141.115 61.5704 142.883 61.5704H182.266C184.034 61.5704 185.467 60.1371 185.467 58.369V49.2863C185.467 47.5182 184.034 46.0849 182.266 46.0849Z" fill="#4124FF"/>
<path d="M46.0148 56.8716V50.9571H46.9104V56.1619H49.5973V56.8716H46.0148Z" fill="#1F2024"/>
<path d="M52.3062 56.973C51.9062 56.973 51.5457 56.8829 51.2247 56.7026C50.9092 56.5167 50.6585 56.2604 50.4727 55.9337C50.2868 55.6014 50.1938 55.2155 50.1938 54.7762C50.1938 54.3368 50.2868 53.9538 50.4727 53.6271C50.6642 53.2947 50.9205 53.0384 51.2416 52.8582C51.5626 52.6723 51.9203 52.5793 52.3146 52.5793C52.7145 52.5793 53.0722 52.6723 53.3877 52.8582C53.7088 53.0384 53.9622 53.2947 54.1481 53.6271C54.3396 53.9538 54.4354 54.3368 54.4354 54.7762C54.4354 55.2155 54.3396 55.6014 54.1481 55.9337C53.9622 56.2604 53.7088 56.5167 53.3877 56.7026C53.0666 56.8829 52.7061 56.973 52.3062 56.973ZM52.3062 56.2041C52.5202 56.2041 52.7174 56.1506 52.8976 56.0436C53.0835 55.9365 53.2328 55.7788 53.3454 55.5704C53.4581 55.3563 53.5144 55.0916 53.5144 54.7762C53.5144 54.4607 53.4581 54.1988 53.3454 53.9904C53.2384 53.7763 53.092 53.6158 52.9061 53.5088C52.7258 53.4017 52.5287 53.3482 52.3146 53.3482C52.1006 53.3482 51.9006 53.4017 51.7147 53.5088C51.5345 53.6158 51.388 53.7763 51.2753 53.9904C51.1627 54.1988 51.1064 54.4607 51.1064 54.7762C51.1064 55.0916 51.1627 55.3563 51.2753 55.5704C51.388 55.7788 51.5345 55.9365 51.7147 56.0436C51.895 56.1506 52.0921 56.2041 52.3062 56.2041Z" fill="#1F2024"/>
<path d="M57.3896 56.973C56.9784 56.973 56.6094 56.88 56.2827 56.6942C55.9616 56.5083 55.7081 56.252 55.5223 55.9253C55.342 55.5929 55.2519 55.2099 55.2519 54.7762C55.2519 54.3424 55.342 53.9622 55.5223 53.6355C55.7081 53.3032 55.9616 53.0441 56.2827 52.8582C56.6094 52.6723 56.9784 52.5793 57.3896 52.5793C57.9078 52.5793 58.3415 52.7145 58.6907 52.9849C59.0456 53.2553 59.2737 53.6214 59.3751 54.0833H58.4373C58.3809 53.8524 58.257 53.6721 58.0655 53.5426C57.874 53.413 57.6487 53.3482 57.3896 53.3482C57.1699 53.3482 56.9671 53.4046 56.7812 53.5172C56.5953 53.6242 56.446 53.7848 56.3334 53.9988C56.2207 54.2072 56.1644 54.4664 56.1644 54.7762C56.1644 55.086 56.2207 55.3479 56.3334 55.5619C56.446 55.7704 56.5953 55.9309 56.7812 56.0436C56.9671 56.1562 57.1699 56.2125 57.3896 56.2125C57.6487 56.2125 57.874 56.1478 58.0655 56.0182C58.257 55.8887 58.3809 55.7056 58.4373 55.469H59.3751C59.2794 55.9196 59.0541 56.283 58.6992 56.559C58.3443 56.835 57.9078 56.973 57.3896 56.973Z" fill="#1F2024"/>
<path d="M61.766 56.973C61.4111 56.973 61.1182 56.9138 60.8872 56.7955C60.6563 56.6773 60.4845 56.5224 60.3718 56.3308C60.2592 56.1337 60.2028 55.9196 60.2028 55.6887C60.2028 55.2831 60.3606 54.962 60.676 54.7255C60.9914 54.4889 61.4421 54.3706 62.0279 54.3706H63.1263V54.2946C63.1263 53.9678 63.0362 53.7228 62.8559 53.5595C62.6813 53.3961 62.4532 53.3144 62.1715 53.3144C61.9237 53.3144 61.7068 53.3764 61.5209 53.5003C61.3407 53.6186 61.2308 53.796 61.1914 54.0326H60.2958C60.3239 53.7284 60.4253 53.4693 60.6 53.2553C60.7802 53.0356 61.0055 52.8694 61.2759 52.7568C61.5519 52.6385 61.8533 52.5793 62.18 52.5793C62.7658 52.5793 63.2192 52.7342 63.5403 53.0441C63.8614 53.3482 64.0219 53.7651 64.0219 54.2946V56.8716H63.2446L63.1686 56.1534C63.0503 56.3843 62.8785 56.5787 62.6531 56.7364C62.4278 56.8941 62.1321 56.973 61.766 56.973ZM61.9434 56.2463C62.1856 56.2463 62.3884 56.19 62.5518 56.0774C62.7207 55.9591 62.8503 55.8042 62.9404 55.6126C63.0362 55.4211 63.0953 55.2099 63.1179 54.9789H62.1208C61.766 54.9789 61.5125 55.0409 61.3604 55.1648C61.2139 55.2888 61.1407 55.4437 61.1407 55.6295C61.1407 55.8211 61.2111 55.9731 61.3519 56.0858C61.4984 56.1928 61.6956 56.2463 61.9434 56.2463Z" fill="#1F2024"/>
<path d="M66.7412 56.8716C66.33 56.8716 66.0033 56.773 65.761 56.5759C65.5188 56.3731 65.3977 56.0154 65.3977 55.5028V53.4327H64.6795V52.6807H65.3977L65.5076 51.6161H66.2933V52.6807H67.4763V53.4327H66.2933V55.5028C66.2933 55.7338 66.3412 55.8943 66.437 55.9844C66.5384 56.0689 66.7102 56.1112 66.9524 56.1112H67.434V56.8716H66.7412Z" fill="#1F2024"/>
<path d="M68.9067 51.8865C68.7377 51.8865 68.5969 51.8358 68.4842 51.7344C68.3772 51.6274 68.3237 51.495 68.3237 51.3373C68.3237 51.1796 68.3772 51.05 68.4842 50.9486C68.5969 50.8416 68.7377 50.7881 68.9067 50.7881C69.0757 50.7881 69.2137 50.8416 69.3207 50.9486C69.4334 51.05 69.4897 51.1796 69.4897 51.3373C69.4897 51.495 69.4334 51.6274 69.3207 51.7344C69.2137 51.8358 69.0757 51.8865 68.9067 51.8865ZM68.4589 56.8716V52.6807H69.3545V56.8716H68.4589Z" fill="#1F2024"/>
<path d="M72.4971 56.973C72.0971 56.973 71.7366 56.8829 71.4155 56.7026C71.1001 56.5167 70.8494 56.2604 70.6636 55.9337C70.4777 55.6014 70.3847 55.2155 70.3847 54.7762C70.3847 54.3368 70.4777 53.9538 70.6636 53.6271C70.8551 53.2947 71.1114 53.0384 71.4324 52.8582C71.7535 52.6723 72.1112 52.5793 72.5055 52.5793C72.9054 52.5793 73.2631 52.6723 73.5786 52.8582C73.8996 53.0384 74.1531 53.2947 74.339 53.6271C74.5305 53.9538 74.6263 54.3368 74.6263 54.7762C74.6263 55.2155 74.5305 55.6014 74.339 55.9337C74.1531 56.2604 73.8996 56.5167 73.5786 56.7026C73.2575 56.8829 72.897 56.973 72.4971 56.973ZM72.4971 56.2041C72.7111 56.2041 72.9083 56.1506 73.0885 56.0436C73.2744 55.9365 73.4237 55.7788 73.5363 55.5704C73.649 55.3563 73.7053 55.0916 73.7053 54.7762C73.7053 54.4607 73.649 54.1988 73.5363 53.9904C73.4293 53.7763 73.2828 53.6158 73.097 53.5088C72.9167 53.4017 72.7196 53.3482 72.5055 53.3482C72.2915 53.3482 72.0915 53.4017 71.9056 53.5088C71.7254 53.6158 71.5789 53.7763 71.4662 53.9904C71.3536 54.1988 71.2973 54.4607 71.2973 54.7762C71.2973 55.0916 71.3536 55.3563 71.4662 55.5704C71.5789 55.7788 71.7254 55.9365 71.9056 56.0436C72.0859 56.1506 72.283 56.2041 72.4971 56.2041Z" fill="#1F2024"/>
<path d="M75.5949 56.8716V52.6807H76.3891L76.4567 53.4158C76.5862 53.1567 76.7749 52.9539 77.0228 52.8075C77.2763 52.6554 77.5664 52.5793 77.8931 52.5793C78.4 52.5793 78.7971 52.7371 79.0844 53.0525C79.3773 53.3679 79.5238 53.8383 79.5238 54.4635V56.8716H78.6366V54.5565C78.6366 53.7453 78.3043 53.3398 77.6396 53.3398C77.3072 53.3398 77.0312 53.4581 76.8116 53.6947C76.5975 53.9312 76.4905 54.2692 76.4905 54.7086V56.8716H75.5949Z" fill="#1F2024"/>
<path d="M189.185 83.1551H164.877C162.166 83.1551 159.967 85.3535 159.967 88.0654V88.071C159.967 90.7829 162.166 92.9813 164.877 92.9813H189.185C191.897 92.9813 194.095 90.7829 194.095 88.071V88.0654C194.095 85.3535 191.897 83.1551 189.185 83.1551Z" fill="#E0E0E0"/>
<path d="M189.179 121.349H164.877C164.233 121.349 163.594 121.222 162.998 120.975C162.403 120.729 161.861 120.367 161.405 119.911C160.949 119.455 160.588 118.914 160.341 118.318C160.094 117.722 159.967 117.084 159.967 116.439C159.967 115.137 160.484 113.888 161.405 112.967C162.326 112.046 163.575 111.529 164.877 111.529H189.179C189.824 111.529 190.463 111.656 191.058 111.902C191.654 112.149 192.195 112.511 192.651 112.967C193.107 113.423 193.469 113.964 193.716 114.56C193.963 115.156 194.09 115.794 194.09 116.439C194.09 117.084 193.963 117.722 193.716 118.318C193.469 118.914 193.107 119.455 192.651 119.911C192.195 120.367 191.654 120.729 191.058 120.975C190.463 121.222 189.824 121.349 189.179 121.349Z" fill="#EBEBEB"/>
<path d="M189.185 139.319H164.877C162.166 139.319 159.967 141.517 159.967 144.229V144.235C159.967 146.947 162.166 149.145 164.877 149.145H189.185C191.897 149.145 194.095 146.947 194.095 144.235V144.229C194.095 141.517 191.897 139.319 189.185 139.319Z" fill="#E0E0E0"/>
<path d="M33.3268 167.826C29.6371 167.904 26.8407 164.669 25.1651 161.373C22.8382 156.769 22.0599 151.536 22.9458 146.454C23.2842 144.562 23.9944 142.531 25.6867 141.621C27.3789 140.711 29.6371 141.305 31.0741 142.62C32.5112 143.935 33.2935 145.81 33.8483 147.669C35.8346 154.088 35.4074 161.462 33.2935 167.826" fill="#5E45FF"/>
<path d="M45.4785 188.261C39.1811 177.542 38.1324 164.403 41.8498 152.563C42.4546 150.643 43.592 148.441 45.6061 148.313C47.8255 148.169 49.2347 150.654 49.8506 152.802C52.0089 160.336 51.5484 168.337 51.0713 176.155C50.7772 180.976 49.1238 185.093 45.4785 188.261Z" fill="#5E45FF"/>
<path d="M27.883 145.9C27.8767 145.956 27.8767 146.011 27.883 146.067L27.9829 146.549C28.0772 146.993 28.2159 147.609 28.3935 148.397C28.7597 149.995 29.309 152.309 30.0081 155.161C31.3952 160.864 33.4092 168.721 35.5121 177.426C36.5552 181.787 37.4984 185.949 38.2863 189.738C39.0741 193.528 39.7677 196.951 40.2726 199.858C40.5444 201.295 40.7497 202.632 40.9439 203.742C41.1381 204.852 41.2935 205.884 41.41 206.694C41.5265 207.504 41.6319 208.114 41.7041 208.564C41.7373 208.763 41.7651 208.924 41.7873 209.046C41.791 209.104 41.8041 209.16 41.8261 209.213C41.8323 209.158 41.8323 209.102 41.8261 209.046C41.8261 208.919 41.7928 208.758 41.7706 208.553L41.5931 206.694C41.4932 205.878 41.3545 204.885 41.1714 203.731C40.9883 202.577 40.8052 201.268 40.5444 199.819C40.0673 196.923 39.4348 193.489 38.6192 189.683C37.8035 185.876 36.8825 181.721 35.845 177.36C33.7421 168.649 31.6948 160.803 30.2522 155.111C29.5364 152.281 28.9594 149.978 28.5488 148.369C28.3546 147.587 28.1937 146.977 28.0828 146.538C28.0328 146.339 27.9884 146.183 27.9552 146.061C27.9363 146.005 27.9122 145.951 27.883 145.9Z" fill="#263238"/>
<path d="M30.5569 148.018C30.0735 149.652 29.7866 151.338 29.7025 153.039C29.9793 152.234 30.1654 151.4 30.2573 150.554C30.4539 149.723 30.5544 148.872 30.5569 148.018Z" fill="#263238"/>
<path d="M196.573 123.259C196.573 123.259 196.484 128.918 196.861 136.225C197.006 139.055 202.965 217.709 202.965 217.709L215.826 218.031L214.056 144.52L216.275 145.075C216.275 145.075 223.05 169.588 224.526 175.197C226.279 181.855 235.717 219.706 235.717 219.706L247.474 220.139L239.739 175.802L233.065 133.595L231.727 121.322L196.573 123.259Z" fill="#455A64"/>
<path d="M216.276 137.084C216.104 137.202 215.917 137.299 215.722 137.372C215.212 137.615 214.673 137.788 214.118 137.888C213.726 137.96 213.323 137.96 212.931 137.888C212.47 137.802 212.045 137.584 211.705 137.261C211.355 136.887 211.108 136.428 210.989 135.93C210.85 135.425 210.778 134.903 210.684 134.376C210.323 132.246 210.096 130.304 209.968 128.894C209.907 128.19 209.868 127.618 209.846 127.23C209.824 127.025 209.824 126.819 209.846 126.614C209.906 126.811 209.941 127.014 209.951 127.219C210.007 127.668 210.079 128.223 210.162 128.883C210.334 130.287 210.595 132.212 210.95 134.337C211.133 135.392 211.25 136.457 211.882 137.112C212.182 137.376 212.536 137.57 212.92 137.681C213.304 137.791 213.707 137.815 214.102 137.75C214.646 137.667 215.181 137.523 215.694 137.322C215.878 137.22 216.073 137.14 216.276 137.084Z" fill="#263238"/>
<path d="M212.652 127.025C212.652 127.025 212.736 126.964 212.919 126.952C213.176 126.956 213.426 127.044 213.629 127.202C213.787 127.32 213.916 127.472 214.007 127.647C214.097 127.822 214.146 128.015 214.15 128.212C214.129 128.46 214.037 128.696 213.884 128.892C213.731 129.088 213.524 129.235 213.289 129.316C213.053 129.396 212.8 129.407 212.559 129.346C212.318 129.285 212.1 129.155 211.931 128.972C211.814 128.815 211.733 128.634 211.696 128.442C211.658 128.25 211.665 128.052 211.715 127.862C211.772 127.608 211.918 127.382 212.125 127.224C212.27 127.113 212.369 127.102 212.375 127.113C212.137 127.318 211.972 127.595 211.903 127.901C211.872 128.06 211.875 128.224 211.914 128.381C211.952 128.538 212.024 128.685 212.125 128.811C212.259 128.951 212.431 129.047 212.62 129.088C212.809 129.128 213.006 129.111 213.185 129.039C213.37 128.986 213.535 128.878 213.658 128.729C213.781 128.581 213.856 128.398 213.873 128.206C213.875 128.044 213.841 127.884 213.774 127.736C213.707 127.588 213.608 127.457 213.485 127.352C213.248 127.159 212.957 127.045 212.652 127.025Z" fill="#263238"/>
<path d="M232.904 132.834C232.762 132.879 232.614 132.899 232.466 132.895C232.063 132.921 231.659 132.921 231.256 132.895C228.581 132.66 226.067 131.517 224.132 129.654C223.84 129.375 223.569 129.075 223.322 128.755C223.222 128.646 223.138 128.522 223.072 128.389C223.111 128.362 223.511 128.844 224.265 129.499C225.246 130.364 226.349 131.08 227.539 131.624C228.734 132.159 230.001 132.512 231.301 132.673C232.277 132.806 232.904 132.784 232.904 132.834Z" fill="#263238"/>
<path d="M201.762 126.992C201.636 127.437 201.465 127.868 201.251 128.279C200.797 129.24 200.239 130.148 199.587 130.987C198.99 131.766 198.296 132.467 197.523 133.073C197.236 133.325 196.91 133.529 196.558 133.677C196.84 133.405 197.139 133.15 197.451 132.912C198.187 132.271 198.859 131.561 199.459 130.792C200.087 129.968 200.644 129.092 201.124 128.173C201.523 127.447 201.734 126.969 201.762 126.992Z" fill="#263238"/>
<path d="M209.151 45.7012C209.346 43.1988 210.477 40.8618 212.317 39.1551C214.157 37.4484 216.573 36.4972 219.083 36.4908H219.599C225.175 36.8016 228.027 41.7119 227.561 47.2769L226.351 64.5823L216.414 74.9134L213.873 68.738V64.6267C213.873 64.6267 208.513 63.8055 208.43 58.4513C208.419 55.8603 208.774 50.5227 209.151 45.7012Z" fill="#FFBE9D"/>
<path d="M213.857 64.6233C216.344 64.6247 218.78 63.9143 220.876 62.5759C220.876 62.5759 219.211 66.4598 213.885 65.966L213.857 64.6233Z" fill="#EB996E"/>
<path d="M210.583 50.1686C210.583 50.3669 210.66 50.5576 210.797 50.7004C210.935 50.8432 211.123 50.9271 211.321 50.9343C211.418 50.9418 211.516 50.9299 211.608 50.8992C211.701 50.8686 211.786 50.8198 211.859 50.7557C211.933 50.6917 211.993 50.6136 212.035 50.5261C212.078 50.4386 212.103 50.3435 212.109 50.2463C212.112 50.0465 212.036 49.8537 211.898 49.7093C211.76 49.565 211.571 49.4808 211.371 49.475C211.273 49.4675 211.175 49.4796 211.082 49.5106C210.99 49.5416 210.904 49.5909 210.831 49.6555C210.757 49.7202 210.697 49.7989 210.655 49.887C210.612 49.9751 210.588 50.0709 210.583 50.1686Z" fill="#263238"/>
<path d="M210.305 48.3221C210.405 48.422 210.982 47.9892 211.803 47.9892C212.624 47.9892 213.235 48.3998 213.324 48.2999C213.412 48.2001 213.268 48.0725 213.007 47.8838C212.651 47.6352 212.226 47.5051 211.792 47.5121C211.363 47.5112 210.945 47.6473 210.599 47.9005C210.344 48.0947 210.261 48.2777 210.305 48.3221Z" fill="#263238"/>
<path d="M218.03 50.3694C218.03 50.5692 218.107 50.7613 218.246 50.9051C218.384 51.049 218.574 51.1334 218.773 51.1406C218.871 51.1474 218.968 51.1347 219.061 51.1035C219.153 51.0722 219.239 51.0228 219.312 50.9583C219.385 50.8938 219.445 50.8154 219.488 50.7277C219.531 50.6399 219.555 50.5445 219.561 50.447C219.561 50.2472 219.484 50.0552 219.345 49.9113C219.206 49.7674 219.017 49.683 218.818 49.6758C218.72 49.6683 218.622 49.6804 218.529 49.7114C218.436 49.7424 218.351 49.7916 218.277 49.8563C218.204 49.9209 218.144 49.9997 218.102 50.0878C218.059 50.1759 218.035 50.2716 218.03 50.3694Z" fill="#263238"/>
<path d="M218.401 48.4485C218.501 48.5484 219.078 48.1212 219.899 48.1212C220.72 48.1212 221.331 48.5262 221.419 48.4263C221.508 48.3265 221.364 48.2044 221.103 48.0102C220.745 47.7662 220.321 47.6384 219.888 47.644C219.459 47.6416 219.041 47.7778 218.695 48.0324C218.445 48.2266 218.357 48.4041 218.401 48.4485Z" fill="#263238"/>
<path d="M215.433 54.5681C215 54.4295 214.55 54.3492 214.095 54.3296C213.885 54.3296 213.685 54.263 213.646 54.1243C213.629 53.9062 213.678 53.6881 213.785 53.4973L214.406 51.8938C215.261 49.6134 215.882 47.7381 215.788 47.7048C215.693 47.6715 214.928 49.4914 214.068 51.7718C213.862 52.3266 213.668 52.8814 213.48 53.3863C213.348 53.6407 213.31 53.9337 213.374 54.213C213.404 54.2868 213.451 54.3527 213.511 54.4056C213.57 54.4585 213.641 54.497 213.718 54.5182C213.834 54.5489 213.953 54.5657 214.073 54.5681C214.525 54.6244 214.981 54.6244 215.433 54.5681Z" fill="#263238"/>
<path d="M217.857 55.1278C217.724 55.1278 217.724 56.0156 216.958 56.6481C216.192 57.2806 215.243 57.2029 215.238 57.3195C215.232 57.436 215.449 57.4915 215.854 57.497C216.378 57.5074 216.888 57.3281 217.291 56.9921C217.68 56.6736 217.929 56.2156 217.984 55.716C218.029 55.3609 217.918 55.1223 217.857 55.1278Z" fill="#263238"/>
<path d="M218.185 45.2253C218.263 45.4472 219.084 45.3363 220.055 45.4528C221.026 45.5693 221.803 45.8301 221.93 45.6248C221.986 45.5305 221.847 45.3196 221.536 45.1032C221.115 44.8384 220.638 44.6732 220.143 44.6204C219.648 44.5675 219.147 44.6283 218.679 44.7981C218.324 44.9424 218.146 45.1199 218.185 45.2253Z" fill="#263238"/>
<path d="M210.606 45.9306C210.75 46.1192 211.316 45.9306 211.998 45.9306C212.681 45.9306 213.258 46.0526 213.391 45.8584C213.452 45.7641 213.358 45.5755 213.102 45.3979C212.771 45.188 212.384 45.0836 211.993 45.0983C211.592 45.1046 211.204 45.2366 210.883 45.4756C210.617 45.6531 210.539 45.8418 210.606 45.9306Z" fill="#263238"/>
<path d="M207.166 41.0137C207.206 40.7678 207.335 40.5452 207.528 40.3879C207.721 40.2305 207.965 40.1492 208.214 40.1592C207.954 40.0932 207.708 39.9804 207.488 39.8263C207.377 39.7404 207.292 39.6253 207.243 39.494C207.194 39.3627 207.183 39.2203 207.21 39.0829C207.338 38.6667 207.865 38.5668 208.281 38.4337C208.829 38.2624 209.308 37.9226 209.651 37.4627C210.145 36.808 210.317 35.9647 210.733 35.2434C211.007 34.7853 211.379 34.3944 211.824 34.0996C212.268 33.8048 212.773 33.6136 213.302 33.5401C213.83 33.4666 214.368 33.5127 214.876 33.675C215.384 33.8373 215.849 34.1116 216.237 34.4777C216.636 34.0432 217.133 33.7102 217.687 33.5064C218.241 33.3027 218.835 33.234 219.421 33.3062C220.006 33.3784 220.566 33.5893 221.054 33.9214C221.541 34.2535 221.942 34.6972 222.224 35.2156C222.93 34.8967 223.709 34.7737 224.479 34.8595C225.249 34.9453 225.981 35.2367 226.6 35.7031C227.219 36.1696 227.7 36.7939 227.994 37.5106C228.288 38.2273 228.384 39.0099 228.272 39.7764L224.998 41.9125C224.963 41.6626 224.876 41.4229 224.742 41.2089C224.608 40.9949 224.431 40.8113 224.222 40.6701C224.012 40.5289 223.776 40.4332 223.527 40.3892C223.279 40.3451 223.024 40.3537 222.779 40.4145C221.78 40.7363 221.17 41.9181 220.127 42.029C219.311 42.1123 218.601 41.5019 217.808 41.3133C216.816 41.173 215.808 41.4215 214.995 42.0068C214.193 42.5889 213.318 43.0627 212.392 43.4161C211.251 43.6752 210.056 43.5664 208.98 43.1054C208.506 42.9531 208.07 42.6994 207.704 42.3619C207.511 42.198 207.361 41.9895 207.268 41.7545C207.174 41.5196 207.139 41.2653 207.166 41.0137Z" fill="#263238"/>
<path d="M224.349 40.3826L209.069 40.7321C209.584 39.6955 210.346 38.8017 211.288 38.1299C213.273 36.5931 215.692 35.7213 218.202 35.6387C220.693 35.5943 225.77 38.6237 227.578 40.3382C229.021 41.7142 229.015 42.9071 229.015 42.9071C229.243 44.8879 228.139 47.1405 227.695 49.0824C227.473 50.0867 227.035 53.1217 227.035 53.1217C226.191 53.1217 225.88 52.4503 226.003 51.618L226.158 48.35C225.314 47.6797 224.714 46.7513 224.448 45.7072C224.183 44.663 224.267 43.5605 224.688 42.5686C224.893 42.269 225.359 40.9374 224.349 40.3826Z" fill="#263238"/>
<path d="M226.418 48.0984C227.123 45.3686 227.75 42.4501 226.851 39.7758L227.301 39.7425L227.495 39.8757C227.921 39.7171 228.388 39.699 228.825 39.8238C229.263 39.9487 229.649 40.2101 229.928 40.5699C230.207 40.9298 230.363 41.3692 230.375 41.8242C230.386 42.2792 230.252 42.7259 229.992 43.0993C230.445 43.0816 230.89 43.2311 231.241 43.5196C231.592 43.808 231.824 44.2152 231.895 44.6639C231.913 45.2924 231.76 45.9139 231.451 46.4616C231.143 47.0079 230.963 47.6168 230.924 48.2426C230.913 48.5561 231.012 48.8635 231.205 49.1109C231.398 49.3584 231.671 49.5303 231.978 49.5965C231.838 49.9176 231.592 50.181 231.281 50.3426C230.969 50.5041 230.612 50.5541 230.269 50.4842C230.51 51.0109 230.895 51.459 231.379 51.777C230.402 52.4816 229.032 52.293 227.933 51.777C227.257 51.527 226.696 51.0373 226.357 50.401C226.132 49.6465 226.153 48.8398 226.418 48.0984Z" fill="#263238"/>
<path d="M226.756 51.2453C226.85 51.2065 230.44 50.1357 230.329 53.8087C230.218 57.4817 226.567 56.6106 226.562 56.5052C226.556 56.3998 226.756 51.2453 226.756 51.2453Z" fill="#FFBE9D"/>
<path d="M227.4 55.1518C227.4 55.1518 227.466 55.1962 227.572 55.2517C227.725 55.3128 227.895 55.3128 228.049 55.2517C228.289 55.1068 228.486 54.9013 228.621 54.6559C228.757 54.4104 228.825 54.1337 228.82 53.8535C228.836 53.5406 228.783 53.228 228.665 52.938C228.635 52.8228 228.577 52.7166 228.497 52.6286C228.417 52.5406 228.316 52.4735 228.204 52.4331C228.131 52.4115 228.054 52.4158 227.984 52.4451C227.914 52.4744 227.857 52.5271 227.821 52.594C227.766 52.6994 227.788 52.7716 227.771 52.7771C227.755 52.7827 227.694 52.7105 227.727 52.5607C227.749 52.4713 227.802 52.3927 227.877 52.3388C227.927 52.3012 227.984 52.2744 228.046 52.2601C228.107 52.2457 228.17 52.2442 228.232 52.2556C228.381 52.2896 228.52 52.3616 228.633 52.4646C228.747 52.5676 228.832 52.6982 228.881 52.8437C229.03 53.1644 229.097 53.5172 229.075 53.8702C229.082 54.1963 228.994 54.5174 228.82 54.7936C228.647 55.0698 228.396 55.2889 228.099 55.4237C228.004 55.4456 227.905 55.447 227.809 55.4279C227.714 55.4088 227.623 55.3695 227.544 55.3127C227.405 55.2406 227.388 55.1574 227.4 55.1518Z" fill="#EB996E"/>
<path d="M230.469 48.1C230.469 48.1 230.569 47.9613 230.524 47.6727C230.482 47.4744 230.397 47.2878 230.274 47.1266C230.151 46.9654 229.994 46.8335 229.814 46.7406C229.289 46.5099 228.723 46.3891 228.149 46.3855C227.824 46.3953 227.5 46.3275 227.206 46.1876C226.912 46.0477 226.655 45.8398 226.457 45.581C226.136 44.9998 226.015 44.3291 226.113 43.6724C226.185 43.0565 226.33 42.4906 226.396 42.0079C226.529 41.4912 226.506 40.9467 226.33 40.4432C226.343 40.9568 226.3 41.4703 226.202 41.9746C226.108 42.4462 225.941 42.9899 225.852 43.6391C225.732 44.3595 225.861 45.0994 226.219 45.7364C226.432 46.0636 226.745 46.3128 227.112 46.4466C227.439 46.5598 227.781 46.6252 228.127 46.6408C228.68 46.6298 229.229 46.722 229.747 46.9126C229.909 46.9903 230.054 47.0995 230.173 47.2338C230.292 47.3682 230.383 47.5249 230.441 47.6949C230.463 47.8288 230.472 47.9644 230.469 48.1Z" fill="#455A64"/>
<path d="M231.307 46.4837C231.307 46.4837 231.384 46.3783 231.412 46.1508C231.431 45.8744 231.38 45.5977 231.265 45.3458C231.149 45.0939 230.973 44.8748 230.752 44.7083C230.539 44.5561 230.297 44.4502 230.042 44.3976C229.794 44.3537 229.557 44.2634 229.342 44.1312C229.246 44.0509 229.169 43.9498 229.117 43.8354C229.065 43.7211 229.04 43.5965 229.043 43.471C229.043 43.1936 229.043 42.9161 229.043 42.6054C229.013 41.8508 228.779 41.1184 228.366 40.4859C228.28 40.3416 228.159 40.221 228.015 40.1348C227.871 40.0486 227.707 39.9996 227.539 39.9921C227.301 39.9921 227.201 40.1142 227.212 40.1198C227.223 40.1253 227.334 40.0754 227.534 40.1198C227.675 40.1447 227.809 40.2023 227.925 40.2881C228.04 40.3738 228.134 40.4852 228.199 40.6136C228.42 40.9989 228.579 41.4164 228.671 41.8508C228.729 42.1078 228.76 42.3699 228.765 42.6332C228.765 42.8995 228.765 43.188 228.765 43.5043C228.764 43.671 228.8 43.8359 228.871 43.9867C228.942 44.1375 229.047 44.2703 229.176 44.3754C229.425 44.5246 229.7 44.6244 229.986 44.6694C230.198 44.7 230.401 44.7751 230.582 44.8899C230.763 45.0047 230.917 45.1564 231.035 45.3352C231.241 45.6813 231.335 46.0821 231.307 46.4837Z" fill="#455A64"/>
<path d="M209.629 37.4474C209.629 37.4474 209.906 37.6361 210.384 37.3975C210.647 37.2454 210.876 37.0393 211.055 36.7927C211.279 36.4821 211.559 36.2166 211.882 36.0104C212.305 35.7597 212.792 35.6363 213.284 35.655C213.776 35.6737 214.252 35.8337 214.656 36.1158C215.116 36.4321 215.527 36.8815 216.065 37.2255C216.342 37.4227 216.658 37.5589 216.992 37.625C217.345 37.6729 217.705 37.627 218.035 37.4918C218.684 37.2366 219.194 36.8205 219.755 36.5985C220.296 36.3705 220.876 36.2481 221.464 36.2379C222.469 36.2116 223.455 36.52 224.266 37.1145C224.812 37.5145 225.271 38.0225 225.614 38.607C225.858 39.0287 225.947 39.2839 225.969 39.2729C225.991 39.2618 225.969 39.2063 225.925 39.0787C225.868 38.8994 225.798 38.725 225.714 38.5571C225.395 37.93 224.94 37.3821 224.382 36.9536C223.548 36.3071 222.519 35.9628 221.464 35.9771C220.841 35.9792 220.225 36.1017 219.649 36.3378C219.045 36.5819 218.54 36.998 217.929 37.2255C217.648 37.3457 217.339 37.386 217.036 37.342C216.742 37.2855 216.464 37.1663 216.22 36.9925C215.721 36.654 215.299 36.2101 214.8 35.8828C214.33 35.5525 213.765 35.3832 213.191 35.4001C212.692 35.4147 212.206 35.5601 211.782 35.8218C211.446 36.0466 211.159 36.3373 210.938 36.6762C210.779 36.9178 210.574 37.1253 210.334 37.2865C210.124 37.4202 209.875 37.4771 209.629 37.4474Z" fill="#455A64"/>
<path d="M188.157 86.0043L169.198 71.0237L166.496 68.1884C166.496 68.1884 160.037 62.1573 159.494 61.4971C158.861 60.7369 158.34 60.859 158.079 61.1087C157.663 61.5026 157.801 62.3016 158.323 62.9674C158.506 63.2004 161.497 66.7348 161.497 66.7348C161.01 66.5735 160.513 66.4456 160.01 66.3519C158.928 66.1244 157.374 66.7736 156.126 67.8666C154.877 68.9597 154.644 69.3813 155.049 69.8807C155.13 69.9708 155.229 70.042 155.341 70.089C155.452 70.136 155.572 70.1577 155.693 70.1526C156.091 70.1551 156.476 70.0109 156.775 69.7475C158.772 68.0164 160.226 68.6378 160.226 68.6378L160.581 69.0096C160.581 69.0096 158.611 69.1594 157.935 70.3523C157.835 70.5228 157.771 70.7115 157.746 70.9071C157.47 71.1401 157.26 71.4409 157.136 71.7798C157.013 72.1187 156.979 72.4841 157.04 72.8398C157.1 73.1955 157.253 73.5293 157.481 73.8083C157.71 74.0872 158.008 74.3016 158.345 74.4304C158.502 74.5089 158.678 74.5382 158.851 74.5144C159.025 74.4907 159.187 74.4149 159.316 74.2972C159.415 74.1396 159.476 73.961 159.494 73.7757C159.507 73.6795 159.53 73.5848 159.56 73.4927L160.698 74.3915C160.698 74.3915 163.355 76.278 164.421 77.2323L180.3 94.4933C180.822 95.0603 181.452 95.5177 182.153 95.8389C182.854 96.16 183.612 96.3384 184.382 96.3637C185.153 96.389 185.921 96.2607 186.641 95.9862C187.361 95.7118 188.02 95.2967 188.578 94.7652C189.179 94.1903 189.649 93.4932 189.958 92.7209C190.266 91.9486 190.405 91.1192 190.365 90.2886C190.325 89.4581 190.107 88.6458 189.726 87.9067C189.345 87.1675 188.81 86.5188 188.157 86.0043Z" fill="#FFBE9D"/>
<path d="M168.411 71.2688C168.241 71.4545 168.017 71.5826 167.77 71.6353C167.523 71.6879 167.267 71.6626 167.035 71.5629C166.558 71.4019 166.153 71.0801 165.687 70.8859C164.305 70.2978 162.613 70.8859 161.248 70.2201C161.054 70.1314 160.854 69.9594 160.899 69.7541C160.943 69.5488 161.176 69.4933 161.365 69.46L166.264 68.5223" fill="#FFBE9D"/>
<path d="M166.273 68.5232C166.087 68.512 165.9 68.5269 165.718 68.5676C165.374 68.6175 164.881 68.6952 164.27 68.8006L162.118 69.1834L161.502 69.2944C161.241 69.3025 160.994 69.412 160.814 69.5996C160.766 69.6689 160.74 69.7512 160.74 69.8354C160.74 69.9196 160.766 70.0018 160.814 70.0712C160.895 70.1816 161.002 70.271 161.124 70.3319C161.347 70.4371 161.579 70.5189 161.818 70.5761C162.706 70.6961 163.602 70.7554 164.498 70.7536C164.878 70.7758 165.252 70.8563 165.607 70.9922C165.915 71.1282 166.215 71.28 166.506 71.4472C166.723 71.5837 166.967 71.6714 167.221 71.704C167.475 71.7365 167.733 71.7133 167.977 71.6358C168.326 71.486 168.398 71.2641 168.387 71.2696C168.254 71.3798 168.104 71.4679 167.943 71.5304C167.714 71.5828 167.476 71.5866 167.244 71.5417C167.013 71.4968 166.794 71.4041 166.601 71.2696C166.31 71.0887 166.01 70.9239 165.702 70.7758C165.331 70.6194 164.938 70.5239 164.537 70.4928C163.653 70.4812 162.771 70.4163 161.896 70.2986C161.68 70.2483 161.47 70.1758 161.269 70.0823C161.086 69.9879 160.969 69.8326 161.041 69.7494C161.113 69.6661 161.33 69.5995 161.541 69.5607L162.156 69.4386L164.293 69.0003C164.903 68.8672 165.402 68.7617 165.73 68.6785C165.916 68.6488 166.099 68.5967 166.273 68.5232Z" fill="#EB996E"/>
<path d="M160.654 68.9945C160.425 68.774 160.15 68.6072 159.849 68.5062C159.52 68.4225 159.172 68.4458 158.856 68.5728C158.466 68.7371 158.103 68.9597 157.78 69.2331C157.448 69.5189 157.087 69.7699 156.703 69.9821C156.379 70.1592 156.013 70.2455 155.644 70.2318C155.517 70.2258 155.394 70.1907 155.283 70.1291C155.172 70.0675 155.077 69.9811 155.006 69.8767C154.949 69.8029 154.917 69.714 154.911 69.6215C154.911 69.6215 154.961 69.7047 155.061 69.8323C155.135 69.9177 155.226 69.9862 155.328 70.0331C155.431 70.0801 155.542 70.1043 155.655 70.1042C155.996 70.0976 156.33 70.004 156.626 69.8323C156.995 69.6166 157.344 69.3677 157.669 69.0888C158.001 68.8061 158.375 68.5777 158.778 68.4119C159.134 68.276 159.526 68.2662 159.888 68.3842C160.122 68.4614 160.333 68.5948 160.504 68.7726C160.626 68.9057 160.665 68.9889 160.654 68.9945Z" fill="#EB996E"/>
<path d="M158.107 62.7079C158.327 62.9226 158.527 63.1566 158.706 63.407L160.104 65.127L161.53 66.8248C161.734 67.0503 161.919 67.2915 162.085 67.5461C161.839 67.36 161.614 67.148 161.413 66.9136C161.019 66.4975 160.498 65.9149 159.943 65.2491C159.388 64.5833 158.911 63.9563 158.578 63.4902C158.391 63.2486 158.233 62.9861 158.107 62.7079Z" fill="#EB996E"/>
<path d="M160.52 70.4701C160.433 70.5096 160.342 70.5393 160.248 70.5589C160.131 70.5882 160.021 70.6418 159.925 70.7164C159.83 70.7909 159.751 70.8847 159.694 70.9917C159.665 71.0656 159.655 71.1457 159.666 71.2243C159.676 71.303 159.707 71.3776 159.755 71.4411C159.877 71.5984 160.017 71.7417 160.171 71.8683C160.371 72.026 160.507 72.2507 160.554 72.5009C160.562 72.6386 160.538 72.7765 160.484 72.9035C160.43 73.0306 160.348 73.1435 160.243 73.2332C160.139 73.32 160.018 73.3844 159.889 73.4226C159.759 73.4607 159.623 73.4718 159.488 73.4552C159.24 73.433 159.004 73.3363 158.811 73.1778C158.52 72.9086 158.27 72.5983 158.068 72.2567C157.926 72.0289 157.821 71.7798 157.757 71.5188C157.724 71.3301 157.757 71.2247 157.757 71.2247C157.757 71.2247 157.757 71.3301 157.824 71.5021C157.907 71.7454 158.024 71.9753 158.173 72.1846C158.379 72.505 158.628 72.7961 158.911 73.0501C159.079 73.1893 159.288 73.2692 159.506 73.2772C159.724 73.2852 159.938 73.221 160.115 73.0945C160.196 73.0271 160.261 72.9421 160.304 72.846C160.348 72.7498 160.368 72.6451 160.365 72.5397C160.327 72.3329 160.215 72.1472 160.049 72.0181C159.886 71.8782 159.743 71.7178 159.622 71.541C159.563 71.4569 159.527 71.3587 159.518 71.2564C159.509 71.1541 159.528 71.0513 159.572 70.9584C159.639 70.8369 159.735 70.7333 159.851 70.6561C159.967 70.5789 160.099 70.5304 160.237 70.5145C160.328 70.4817 160.424 70.4666 160.52 70.4701Z" fill="#EB996E"/>
<path d="M159.439 73.2989C159.439 73.2989 159.527 73.3488 159.588 73.5153C159.625 73.6343 159.635 73.7602 159.615 73.8833C159.596 74.0064 159.549 74.1235 159.477 74.2255C159.363 74.3726 159.212 74.4873 159.04 74.5584C158.868 74.6294 158.68 74.6543 158.495 74.6305C158.057 74.5644 157.661 74.3343 157.386 73.9869C157.102 73.6458 156.932 73.2251 156.897 72.7829C156.878 72.4842 156.926 72.185 157.036 71.9068C157.146 71.6286 157.317 71.3783 157.535 71.1739C157.663 71.0629 157.746 71.0185 157.752 71.0296C157.54 71.258 157.362 71.5159 157.225 71.7953C157.079 72.1343 157.029 72.5071 157.082 72.8724C157.135 73.2377 157.288 73.5813 157.524 73.8648C157.775 74.183 158.135 74.3966 158.534 74.4641C158.692 74.4868 158.852 74.4697 159.002 74.4145C159.151 74.3593 159.284 74.2676 159.389 74.1478C159.455 74.0614 159.502 73.9617 159.527 73.8555C159.552 73.7493 159.554 73.6389 159.533 73.5319C159.483 73.3821 159.427 73.3045 159.439 73.2989Z" fill="#EB996E"/>
<path d="M163.872 73.6388C163.872 73.6388 163.967 73.4945 164.216 73.3558C164.559 73.1818 164.948 73.1234 165.326 73.1894L165.232 73.3225C165.117 73.1433 165.011 72.9581 164.916 72.7677C164.555 72.1297 164.381 71.4026 164.416 70.6704C164.566 71.3635 164.789 72.0387 165.082 72.6845C165.176 72.8731 165.282 73.0507 165.382 73.2116L165.493 73.3891L165.293 73.3447C164.945 73.2757 164.585 73.3084 164.255 73.4391C164.017 73.5556 163.889 73.6721 163.872 73.6388Z" fill="#EB996E"/>
<path d="M158.755 67.6339C158.804 67.6339 158.882 67.989 158.677 68.383C158.472 68.7769 158.122 68.9378 158.122 68.8934C158.122 68.849 158.344 68.6493 158.516 68.2998C158.688 67.9502 158.705 67.6339 158.755 67.6339Z" fill="#EB996E"/>
<path d="M187.296 95.9708L198.243 88.3917C198.243 88.3917 197.283 117.743 197.283 118.014C197.283 118.014 195.28 118.808 195.619 120.905L196.174 123.862C208.23 126.637 220.176 128.429 232.333 123.951L233.714 100.57L238.003 72.0073L228.221 67.846L226.557 63.9621L216.425 74.8758L213.834 67.8294L213.906 65.1717L211.454 67.8349L199.58 69.7879L184.788 81.778L179.939 77.8553L172.621 88.0199L180.943 96.4202C183.051 96.9889 185.289 96.8306 187.296 95.9708Z" fill="#7560FF"/>
<path d="M214.939 73.5831C214.621 73.7626 214.372 74.0414 214.228 74.3765C214.077 74.7614 214.003 75.1725 214.012 75.586C214.039 76.1506 213.96 76.7152 213.779 77.2506L213.657 77.5391L213.535 77.2506C213.206 76.4264 212.947 75.5764 212.758 74.7094C212.342 72.9117 212.076 71.2638 211.893 70.0709C211.771 69.4304 211.702 68.7809 211.687 68.129C211.865 68.7559 212.002 69.3934 212.098 70.0377C212.325 71.2195 212.625 72.8562 213.041 74.6428C213.224 75.4942 213.471 76.3306 213.779 77.1451H213.535C213.706 76.6471 213.793 76.1238 213.79 75.5971C213.796 75.1593 213.897 74.7279 214.084 74.3321C214.199 74.0685 214.393 73.8473 214.639 73.6996C214.828 73.5775 214.933 73.572 214.939 73.5831Z" fill="#263238"/>
<path d="M227.672 69.1934C227.583 69.3684 227.471 69.5307 227.339 69.6762C227.106 69.9758 226.784 70.403 226.341 70.9245C225.486 71.9676 224.299 73.3936 222.967 74.9582L220.848 77.4328L220.687 77.6214L220.626 77.3773C220.321 76.1733 220.071 75.158 219.916 74.4367C219.849 74.0816 219.649 73.8818 219.455 73.8818C219.36 73.8769 219.266 73.9043 219.189 73.9595C219.189 73.9595 219.228 73.8152 219.455 73.7986C219.523 73.7979 219.59 73.8109 219.653 73.8366C219.716 73.8623 219.773 73.9003 219.821 73.9484C219.938 74.0804 220.022 74.2382 220.065 74.4089C220.271 75.1191 220.554 76.1234 220.875 77.3274L220.654 77.2719L222.745 74.7807C224.077 73.216 225.292 71.8123 226.185 70.8025C226.629 70.2976 226.995 69.8925 227.251 69.6151C227.373 69.4579 227.515 69.3163 227.672 69.1934Z" fill="#263238"/>
<path d="M213.036 115.141C213.012 115.017 213.003 114.89 213.009 114.764C213.009 114.492 213.009 114.137 213.009 113.699C213.009 112.772 213.009 111.429 213.009 109.77C213.047 106.441 213.203 101.875 213.563 96.8315C213.924 91.788 214.468 87.2272 214.923 83.9426C215.15 82.2781 215.35 80.9742 215.505 80.0587L215.683 79.0101C215.704 78.8867 215.732 78.7645 215.766 78.6439C215.782 78.7673 215.782 78.8922 215.766 79.0156C215.733 79.2875 215.688 79.6426 215.638 80.0754C215.516 81.0297 215.35 82.3502 215.145 83.9592C214.745 87.2494 214.251 91.7991 213.874 96.8426C213.497 101.886 213.319 106.452 213.214 109.765C213.175 111.396 213.147 112.728 213.125 113.687C213.125 114.128 213.114 114.483 213.092 114.753C213.082 114.883 213.063 115.013 213.036 115.141Z" fill="#263238"/>
<path d="M210.261 121.876C210.018 121.079 209.931 120.243 210.006 119.413C209.977 118.584 210.062 117.755 210.261 116.949C210.34 117.77 210.34 118.597 210.261 119.418C210.228 120.772 210.317 121.865 210.261 121.876Z" fill="#263238"/>
<path d="M224.331 113.803C224.048 113.939 223.752 114.051 223.449 114.136C222.894 114.335 222.029 114.602 220.986 114.907C218.258 115.693 215.491 116.336 212.696 116.832C209.903 117.326 207.086 117.676 204.257 117.881C203.148 117.953 202.288 117.997 201.677 118.008C201.363 118.035 201.048 118.035 200.734 118.008C201.043 117.947 201.357 117.912 201.672 117.903L204.241 117.686C206.399 117.487 209.384 117.132 212.646 116.577C215.909 116.022 218.833 115.284 220.93 114.729L223.416 114.052C223.715 113.948 224.021 113.865 224.331 113.803Z" fill="#263238"/>
<path d="M198.212 95.1156C198.134 95.1156 198.084 91.032 198.101 85.9996C198.117 80.9673 198.2 76.8836 198.278 76.8836C198.356 76.8836 198.406 80.9673 198.389 85.9996C198.372 91.032 198.295 95.1156 198.212 95.1156Z" fill="#263238"/>
<g opacity="0.3">
<path d="M217.368 75.8584C217.668 75.8476 217.962 75.9381 218.204 76.1153C218.446 76.2925 218.62 76.546 218.7 76.8349C218.811 77.4286 218.728 78.0555 218.883 78.6437C219.039 79.2318 219.577 79.8033 220.17 79.6812C220.524 79.5647 220.824 79.3268 221.019 79.0099C222.184 77.4324 223.119 75.6968 223.794 73.8554C223.794 73.8998 220.72 77.3842 220.72 77.3842C220.605 76.5029 220.374 75.6409 220.032 74.8208C219.932 74.5545 219.81 74.0995 219.555 73.983C219.138 73.7888 218.584 74.3991 218.306 74.7709C218.022 75.1468 217.701 75.4926 217.346 75.8029" fill="black"/>
</g>
<g opacity="0.3">
<path d="M212.359 72.6888C212.414 74.6397 212.789 76.5684 213.468 78.3981C213.527 78.5843 213.63 78.7536 213.768 78.8919C213.838 78.9649 213.931 79.0127 214.031 79.0277C214.132 79.0428 214.234 79.0243 214.323 78.9751C214.547 78.6006 214.732 78.2047 214.878 77.7933C215.161 76.9999 216.315 76.9277 216.315 76.9277C216.122 76.0316 215.87 75.1493 215.56 74.2867C215.504 74.1445 215.405 74.0234 215.277 73.9407C215.148 73.8581 214.997 73.818 214.844 73.8262C214.644 73.8929 214.466 74.012 214.327 74.171C214.189 74.33 214.095 74.5232 214.056 74.7306C213.884 76.151 213.907 76.8057 213.696 77.305C213.141 75.7848 212.719 73.976 212.364 72.6388" fill="black"/>
</g>
<g opacity="0.3">
<path d="M220.87 114.731C221.001 114.637 221.112 114.518 221.197 114.38C221.282 114.243 221.338 114.09 221.363 113.93C221.388 113.77 221.38 113.607 221.341 113.451C221.302 113.294 221.233 113.146 221.136 113.017C220.93 112.765 220.66 112.571 220.356 112.457C220.051 112.342 219.721 112.309 219.399 112.362C218.758 112.474 218.155 112.745 217.646 113.15C217.119 113.533 216.636 113.966 216.081 114.304C214.722 115.142 213.069 115.331 211.471 115.358C209.875 115.292 208.277 115.363 206.694 115.569C205.129 115.874 203.564 116.679 202.81 118.088C202.804 118.06 216.448 117.089 220.87 114.731Z" fill="black"/>
</g>
<path d="M238.003 72.0071C238.003 72.0071 242.131 74.9478 243.13 77.611C244.129 80.2742 247.819 98.5672 248.418 101.691C249.178 105.619 249.2 110.48 243.546 112.327C241.443 113.01 228.566 111.961 228.566 111.961L228.987 102.812L235.939 103.073C235.939 103.073 235.523 102.457 236.522 101.713L234.303 89.8119C234.303 89.8119 235.118 77.1727 235.218 76.8731C235.318 76.5734 238.003 72.0071 238.003 72.0071Z" fill="#7560FF"/>
<path d="M238.226 72.3234C237.004 72.826 235.902 73.5796 234.99 74.5354C234.078 75.4912 233.378 76.6279 232.933 77.8718C232.963 77.4865 233.065 77.1102 233.233 76.7621C233.969 74.9683 235.356 73.5194 237.116 72.7063C237.46 72.513 237.836 72.3834 238.226 72.3234Z" fill="#263238"/>
<path d="M240.478 104.925C240.433 104.925 240.339 104.62 240.062 104.193C239.692 103.638 239.21 103.167 238.647 102.811C238.094 102.44 237.468 102.192 236.81 102.084C236.305 102.012 235.984 102.084 235.973 102.023C236.238 101.889 236.538 101.84 236.833 101.885C237.539 101.937 238.22 102.172 238.808 102.567C239.406 102.945 239.898 103.468 240.239 104.087C240.399 104.337 240.482 104.629 240.478 104.925Z" fill="#263238"/>
<path d="M233.011 82.5825C233.095 82.8205 233.158 83.0657 233.199 83.3149C233.316 83.8697 233.455 84.53 233.627 85.3401C233.971 87.0545 234.425 89.4237 234.908 92.0425C235.391 94.6614 235.818 97.0361 236.112 98.7616C236.245 99.5828 236.356 100.265 236.44 100.803C236.494 101.051 236.522 101.304 236.523 101.558C236.438 101.32 236.373 101.075 236.329 100.826C236.218 100.271 236.079 99.6105 235.907 98.8004C235.563 97.086 235.108 94.7168 234.625 92.098C234.143 89.4792 233.715 87.1045 233.421 85.3789C233.288 84.5577 233.177 83.8753 233.094 83.3371C233.04 83.0892 233.012 82.8363 233.011 82.5825Z" fill="#263238"/>
<path d="M228.572 111.954C228.55 111.718 228.55 111.48 228.572 111.244C228.572 110.739 228.572 110.09 228.616 109.308C228.666 107.643 228.749 105.374 228.866 102.794V102.655H229.01L230.153 102.7L235.956 102.949H235.995L236.023 102.977C236.887 103.681 237.544 104.605 237.926 105.651C238.029 105.941 238.108 106.237 238.165 106.539C238.191 106.644 238.201 106.753 238.192 106.861C238.159 106.861 238.093 106.422 237.799 105.701C237.385 104.703 236.722 103.828 235.873 103.16L235.945 103.188L230.142 102.988L228.999 102.938L229.143 102.805C229.027 105.379 228.904 107.671 228.805 109.308C228.749 110.09 228.705 110.739 228.671 111.244C228.665 111.484 228.631 111.722 228.572 111.954Z" fill="#263238"/>
<path d="M218.411 100.892L213.035 89.9173C212.855 89.5525 212.577 89.2453 212.232 89.0305C211.887 88.8157 211.488 88.702 211.082 88.7022H197.538C197.423 88.7017 197.31 88.7311 197.21 88.7876C197.11 88.8441 197.027 88.9256 196.968 89.0242C196.909 89.1228 196.877 89.235 196.875 89.3498C196.873 89.4646 196.901 89.578 196.956 89.6788L206.11 106.779C206.238 107.013 206.426 107.209 206.656 107.346C206.885 107.483 207.147 107.555 207.414 107.556H221.446L218.411 100.892Z" fill="#455A64"/>
<path d="M197.045 89.7614H197.317H198.088H200.94L210.333 89.6838C210.767 89.6801 211.196 89.783 211.581 89.9834C211.937 90.2099 212.224 90.5281 212.414 90.9044C212.808 91.6534 213.135 92.4358 213.479 93.1238L215.277 96.9522L216.503 99.5211C216.642 99.804 216.758 100.032 216.852 100.215C216.887 100.298 216.932 100.376 216.986 100.448C216.968 100.359 216.938 100.273 216.897 100.192C216.819 100.004 216.714 99.7707 216.592 99.4822C216.309 98.8331 215.915 97.9509 215.438 96.8745C214.96 95.7981 214.328 94.4665 213.69 93.0294C213.351 92.3026 213.035 91.5425 212.63 90.7602C212.421 90.3444 212.103 89.9934 211.709 89.7448C211.289 89.5207 210.82 89.4044 210.344 89.4064C206.66 89.4064 203.348 89.5118 200.912 89.5617L198.066 89.6394L197.289 89.6727C197.203 89.69 197.121 89.7199 197.045 89.7614Z" fill="#263238"/>
<path d="M205.384 92.1634C205.32 92.1872 205.262 92.2255 205.215 92.2754C205.168 92.3252 205.133 92.3853 205.114 92.4509C205.094 92.5164 205.089 92.5857 205.101 92.6533C205.112 92.7208 205.139 92.7848 205.179 92.8403C205.254 92.9563 205.363 93.0453 205.492 93.0942C205.621 93.1432 205.762 93.1495 205.895 93.1122C205.984 93.0924 206.066 93.0482 206.132 92.9845C206.197 92.9208 206.244 92.8402 206.267 92.7515C206.275 92.6173 206.24 92.4839 206.166 92.3717C206.092 92.2595 205.983 92.1746 205.856 92.1301C205.698 92.1026 205.537 92.1141 205.384 92.1634Z" fill="white"/>
<path d="M228.843 103.183L225.481 102.855C225.481 102.855 223.955 101.124 223.356 100.603C222.757 100.081 219.328 98.3835 219.328 98.3835C219.328 98.3835 217.547 96.4915 217.314 96.5192C217.081 96.547 216.348 96.7745 216.664 97.7121C216.965 98.6447 217.359 99.5444 217.841 100.398L211.066 101.363C210.854 101.389 210.651 101.462 210.471 101.576C210.29 101.691 210.138 101.843 210.023 102.023C209.873 102.273 209.829 102.534 210.167 102.65C211.393 102.933 212.634 103.144 213.885 103.283L212.553 103.105C212.553 103.105 212.426 104.37 213.313 104.858C213.654 105.011 213.974 105.209 214.262 105.447C214.341 106.012 214.541 106.553 214.85 107.033C215.261 107.461 219.322 108.97 219.322 108.97C219.322 108.97 221.858 109.403 223.084 109.192L228.577 110.03L228.843 103.183Z" fill="#FFBE9D"/>
<path d="M217.186 100.52C217.831 100.564 218.478 100.564 219.122 100.52C219.769 100.56 220.419 100.513 221.053 100.381C220.414 100.271 219.764 100.235 219.117 100.276C218.464 100.24 217.81 100.323 217.186 100.52Z" fill="#EB996E"/>
<path d="M218.457 103.421C217.525 103.204 216.567 103.118 215.611 103.166C214.823 103.166 214.113 103.166 213.597 103.166C213.319 103.146 213.04 103.157 212.764 103.199C213.029 103.295 213.31 103.34 213.591 103.332C214.113 103.371 214.823 103.388 215.611 103.393C217.181 103.399 218.446 103.482 218.457 103.421Z" fill="#EB996E"/>
<path d="M218.722 105.646C218.722 105.574 217.724 105.646 216.503 105.596C215.282 105.546 214.284 105.352 214.284 105.424C214.991 105.699 215.744 105.84 216.503 105.84C217.248 105.916 218.001 105.85 218.722 105.646Z" fill="#EB996E"/>
<path d="M218.611 108.183C218.678 108.183 218.744 107.911 218.761 107.562C218.777 107.212 218.733 106.935 218.666 106.929C218.6 106.924 218.533 107.207 218.517 107.551C218.5 107.895 218.544 108.183 218.611 108.183Z" fill="#EB996E"/>
<path d="M218.862 105.131C218.928 105.131 218.939 104.893 219.028 104.643C219.117 104.393 219.245 104.216 219.2 104.16C219.156 104.105 218.906 104.249 218.801 104.565C218.695 104.882 218.801 105.148 218.862 105.131Z" fill="#EB996E"/>
<path d="M219.277 102.052C219.35 102.052 219.4 101.902 219.461 101.73C219.522 101.558 219.577 101.408 219.527 101.364C219.477 101.319 219.311 101.43 219.233 101.647C219.155 101.863 219.211 102.057 219.277 102.052Z" fill="#EB996E"/>
<path d="M156.116 52.392H155.487C155.45 52.2112 155.385 52.0523 155.292 51.9154C155.201 51.7785 155.089 51.6636 154.958 51.5706C154.827 51.476 154.683 51.405 154.524 51.3577C154.365 51.3103 154.2 51.2867 154.027 51.2867C153.713 51.2867 153.428 51.3661 153.173 51.525C152.919 51.6838 152.717 51.9179 152.567 52.2272C152.418 52.5365 152.344 52.9159 152.344 53.3655C152.344 53.815 152.418 54.1945 152.567 54.5038C152.717 54.813 152.919 55.0471 153.173 55.206C153.428 55.3648 153.713 55.4443 154.027 55.4443C154.2 55.4443 154.365 55.4206 154.524 55.3733C154.683 55.326 154.827 55.2558 154.958 55.1629C155.089 55.0682 155.201 54.9525 155.292 54.8156C155.385 54.677 155.45 54.5181 155.487 54.339H156.116C156.069 54.6043 155.983 54.8418 155.857 55.0513C155.732 55.2609 155.577 55.4392 155.391 55.5862C155.205 55.7316 154.996 55.8423 154.765 55.9183C154.535 55.9944 154.289 56.0324 154.027 56.0324C153.584 56.0324 153.191 55.9243 152.846 55.7079C152.501 55.4916 152.23 55.184 152.032 54.7851C151.834 54.3863 151.735 53.9131 151.735 53.3655C151.735 52.8179 151.834 52.3447 152.032 51.9458C152.23 51.547 152.501 51.2394 152.846 51.023C153.191 50.8067 153.584 50.6985 154.027 50.6985C154.289 50.6985 154.535 50.7366 154.765 50.8126C154.996 50.8887 155.205 51.0002 155.391 51.1472C155.577 51.2926 155.732 51.4701 155.857 51.6796C155.983 51.8875 156.069 52.125 156.116 52.392Z" fill="white"/>
<path d="M157.051 55.9614V52.0675H157.629V52.6556H157.669C157.74 52.463 157.869 52.3066 158.055 52.1866C158.241 52.0667 158.45 52.0067 158.684 52.0067C158.727 52.0067 158.782 52.0075 158.848 52.0092C158.914 52.0109 158.964 52.0134 158.998 52.0168V52.6252C158.978 52.6202 158.931 52.6125 158.858 52.6024C158.787 52.5906 158.712 52.5847 158.633 52.5847C158.444 52.5847 158.275 52.6244 158.126 52.7038C157.979 52.7816 157.862 52.8897 157.776 53.0283C157.691 53.1652 157.649 53.3215 157.649 53.4973V55.9614H157.051Z" fill="white"/>
<path d="M161.221 56.0426C160.846 56.0426 160.522 55.9598 160.25 55.7941C159.98 55.6268 159.771 55.3936 159.624 55.0944C159.479 54.7936 159.406 54.4438 159.406 54.0449C159.406 53.646 159.479 53.2945 159.624 52.9903C159.771 52.6844 159.976 52.4461 160.238 52.2754C160.501 52.103 160.809 52.0168 161.16 52.0168C161.363 52.0168 161.563 52.0506 161.761 52.1182C161.959 52.1858 162.139 52.2957 162.301 52.4478C162.463 52.5982 162.593 52.7976 162.689 53.0461C162.785 53.2945 162.833 53.6004 162.833 53.9638V54.2173H159.832V53.7001H162.225C162.225 53.4804 162.181 53.2844 162.093 53.112C162.007 52.9396 161.884 52.8035 161.723 52.7038C161.564 52.6041 161.377 52.5542 161.16 52.5542C160.922 52.5542 160.716 52.6134 160.542 52.7317C160.369 52.8483 160.237 53.0004 160.144 53.188C160.051 53.3756 160.004 53.5767 160.004 53.7914V54.1362C160.004 54.4302 160.055 54.6795 160.156 54.884C160.26 55.0868 160.402 55.2415 160.585 55.3479C160.767 55.4527 160.979 55.5051 161.221 55.5051C161.378 55.5051 161.52 55.4832 161.647 55.4392C161.776 55.3936 161.886 55.326 161.979 55.2364C162.072 55.1451 162.144 55.0319 162.195 54.8967L162.773 55.0589C162.712 55.255 162.61 55.4274 162.466 55.5761C162.322 55.7231 162.145 55.8381 161.934 55.9209C161.722 56.002 161.485 56.0426 161.221 56.0426Z" fill="white"/>
<path d="M164.889 56.0527C164.643 56.0527 164.419 56.0062 164.218 55.9133C164.017 55.8186 163.857 55.6826 163.739 55.5051C163.62 55.326 163.561 55.1096 163.561 54.8561C163.561 54.633 163.605 54.4522 163.693 54.3136C163.781 54.1733 163.898 54.0635 164.045 53.984C164.192 53.9046 164.355 53.8455 164.532 53.8066C164.711 53.766 164.891 53.7339 165.072 53.7103C165.309 53.6798 165.5 53.657 165.647 53.6418C165.796 53.6249 165.904 53.597 165.972 53.5581C166.041 53.5193 166.076 53.4517 166.076 53.3553V53.3351C166.076 53.0849 166.007 52.8906 165.871 52.752C165.735 52.6134 165.53 52.5441 165.255 52.5441C164.969 52.5441 164.745 52.6066 164.583 52.7317C164.42 52.8568 164.306 52.9903 164.24 53.1322L163.673 52.9294C163.774 52.6928 163.909 52.5086 164.078 52.3768C164.249 52.2433 164.435 52.1503 164.636 52.0979C164.839 52.0438 165.038 52.0168 165.234 52.0168C165.359 52.0168 165.503 52.032 165.665 52.0624C165.829 52.0912 165.987 52.1512 166.139 52.2424C166.293 52.3337 166.421 52.4714 166.522 52.6556C166.624 52.8399 166.674 53.0866 166.674 53.3959V55.9614H166.076V55.4341H166.045C166.005 55.5186 165.937 55.6091 165.843 55.7054C165.748 55.8017 165.622 55.8837 165.465 55.9513C165.308 56.0189 165.116 56.0527 164.889 56.0527ZM164.981 55.5153C165.217 55.5153 165.417 55.4688 165.579 55.3758C165.743 55.2829 165.866 55.1629 165.949 55.0158C166.034 54.8688 166.076 54.7142 166.076 54.5519V54.0043C166.051 54.0348 165.995 54.0626 165.909 54.088C165.824 54.1117 165.726 54.1328 165.615 54.1514C165.505 54.1683 165.397 54.1835 165.293 54.197C165.189 54.2088 165.106 54.219 165.042 54.2274C164.886 54.2477 164.741 54.2807 164.606 54.3263C164.472 54.3702 164.364 54.437 164.281 54.5266C164.2 54.6145 164.159 54.7344 164.159 54.8866C164.159 55.0944 164.236 55.2516 164.39 55.3581C164.546 55.4629 164.742 55.5153 164.981 55.5153Z" fill="white"/>
<path d="M169.46 52.0675V52.5745H167.442V52.0675H169.46ZM168.03 51.1346H168.628V54.846C168.628 55.015 168.653 55.1418 168.702 55.2263C168.752 55.3091 168.817 55.3648 168.894 55.3936C168.974 55.4206 169.057 55.4341 169.145 55.4341C169.211 55.4341 169.265 55.4308 169.308 55.424C169.35 55.4155 169.384 55.4088 169.409 55.4037L169.531 55.9412C169.49 55.9564 169.433 55.9716 169.361 55.9868C169.288 56.0037 169.196 56.0121 169.084 56.0121C168.915 56.0121 168.75 55.9758 168.588 55.9031C168.427 55.8305 168.294 55.7198 168.187 55.571C168.082 55.4223 168.03 55.2347 168.03 55.0082V51.1346Z" fill="white"/>
<path d="M171.95 56.0426C171.575 56.0426 171.252 55.9598 170.979 55.7941C170.709 55.6268 170.5 55.3936 170.353 55.0944C170.208 54.7936 170.135 54.4438 170.135 54.0449C170.135 53.646 170.208 53.2945 170.353 52.9903C170.5 52.6844 170.705 52.4461 170.967 52.2754C171.23 52.103 171.538 52.0168 171.89 52.0168C172.092 52.0168 172.293 52.0506 172.49 52.1182C172.688 52.1858 172.868 52.2957 173.03 52.4478C173.193 52.5982 173.322 52.7976 173.418 53.0461C173.515 53.2945 173.563 53.6004 173.563 53.9638V54.2173H170.561V53.7001H172.954C172.954 53.4804 172.91 53.2844 172.823 53.112C172.736 52.9396 172.613 52.8035 172.452 52.7038C172.294 52.6041 172.106 52.5542 171.89 52.5542C171.651 52.5542 171.445 52.6134 171.271 52.7317C171.099 52.8483 170.966 53.0004 170.873 53.188C170.78 53.3756 170.734 53.5767 170.734 53.7914V54.1362C170.734 54.4302 170.784 54.6795 170.886 54.884C170.989 55.0868 171.132 55.2415 171.314 55.3479C171.497 55.4527 171.709 55.5051 171.95 55.5051C172.108 55.5051 172.25 55.4832 172.376 55.4392C172.505 55.3936 172.615 55.326 172.708 55.2364C172.801 55.1451 172.873 55.0319 172.924 54.8967L173.502 55.0589C173.441 55.255 173.339 55.4274 173.195 55.5761C173.052 55.7231 172.874 55.8381 172.663 55.9209C172.452 56.002 172.214 56.0426 171.95 56.0426Z" fill="white"/>
</g>
<path d="M0.704109 112.305C5.75023 111.249 18.3068 117.059 14.7863 120.228C14.3042 120.503 13.5635 120.722 13.0906 120.344C12.0629 119.521 12.9381 117.691 14.1398 117.154C15.1714 116.693 16.6115 116.772 18.3068 118.468C21.8274 121.988 128.852 190.744 233.764 122.692C238.106 119.876 248.832 114.243 257 114.243" stroke="#B9B9B9" stroke-width="0.70411"/>
</svg>
