<svg width="105" height="84" viewBox="0 0 105 84" fill="none" xmlns="http://www.w3.org/2000/svg">
<path d="M104.061 55.1087C102.595 55.7399 101.012 56.0556 99.4158 56.0353C96.5194 55.99 93.7447 54.8626 91.6374 52.8749C89.5301 50.8872 88.2427 48.183 88.0285 45.2941C87.8142 42.4052 88.6886 39.5407 90.4796 37.2638C92.2706 34.987 94.8486 33.4627 97.7067 32.9906C100.081 32.6026 102.518 32.9751 104.668 34.0548C104.776 34.1092 104.887 34.1573 105 34.1988V3.65413C105 2.72598 104.631 1.83584 103.975 1.17954C103.319 0.523243 102.429 0.154541 101.501 0.154541H25.9495C24.8105 0.154541 23.7182 0.607013 22.9127 1.41242C22.1073 2.21782 21.6549 3.31018 21.6549 4.4492V32.3019H19.7767C18.9056 32.2839 18.0497 32.0699 17.2726 31.6759C15.5198 30.8332 13.5833 30.4449 11.6412 30.5468C9.69904 30.6487 7.81377 31.2375 6.15884 32.259C4.50391 33.2804 3.13252 34.7018 2.17088 36.3922C1.20925 38.0826 0.688273 39.9877 0.655903 41.9322C0.623533 43.8768 1.08082 45.7982 1.98566 47.5196C2.89049 49.2411 4.21381 50.7073 5.83382 51.7833C7.45383 52.8593 9.31848 53.5105 11.2561 53.677C13.1938 53.8435 15.1422 53.5199 16.922 52.736C17.6583 52.4042 18.4557 52.2293 19.2634 52.2227H21.6361V79.3805C21.6361 80.5195 22.0886 81.6118 22.894 82.4173C23.6994 83.2227 24.7917 83.6751 25.9307 83.6751H101.501C101.96 83.6759 102.415 83.5862 102.839 83.411C103.264 83.2358 103.65 82.9786 103.975 82.6542C104.3 82.3297 104.558 81.9443 104.734 81.5201C104.91 81.0958 105 80.6411 105 80.1818V54.7957C104.679 54.8755 104.366 54.9801 104.061 55.1087Z" fill="#EBEBEB"/>
<path d="M44.0236 41.968C44.0236 41.968 39.1216 43.1763 37.5503 49.587C35.9789 55.9977 35.4092 71.5423 35.4092 71.5423H42.8215L44.0173 42.6128" fill="#594ABC"/>
<path d="M70.8928 40.2025L67.9755 39.0192L52.4245 38.6123L50.127 42.6253L65.3962 46.5693L71.2747 42.5877L70.8928 40.2025Z" fill="#FFBE9D"/>
<path d="M75.5194 9.56392C76.8028 13.5205 78.2552 17.7839 76.9217 21.728C76.4146 23.2367 75.5194 24.6265 75.2815 26.2042C74.9935 28.1324 75.7197 30.0481 75.9075 31.9888C76.2456 35.1504 75.0999 39.1696 72.8712 41.4484C71.9008 41.2042 68.4388 39.2071 68.4388 39.2071C68.1634 38.243 67.3558 36.0206 67.4371 35.0189C68.0632 27.1871 68.0632 12.0556 65.9033 3.54138C65.9284 3.54764 73.4722 3.30348 75.5194 9.56392Z" fill="#1F2024"/>
<path d="M53.6269 11.5172L53.5205 9.46375L65.791 6.7342C69.5848 6.21459 73.8169 9.90198 74.1737 13.7083C74.5744 17.9466 74.8937 23.1303 74.493 26.3106C73.6791 32.7088 68.821 33.6729 68.821 33.6729L68.9901 41.4546L54.9354 40.9475L53.6269 11.5172Z" fill="#FFBE9D"/>
<path d="M71.7192 18.0971C71.7279 18.3106 71.6529 18.5189 71.5102 18.678C71.3676 18.837 71.1686 18.934 70.9554 18.9485C70.8522 18.9589 70.748 18.9489 70.6487 18.9189C70.5494 18.889 70.457 18.8397 70.3768 18.774C70.2965 18.7083 70.23 18.6274 70.1811 18.536C70.1321 18.4445 70.1017 18.3443 70.0915 18.2411C70.0828 18.0277 70.1578 17.8193 70.3005 17.6603C70.4431 17.5013 70.6421 17.4042 70.8553 17.3897C70.9585 17.3793 71.0627 17.3894 71.162 17.4194C71.2613 17.4493 71.3537 17.4985 71.4339 17.5642C71.5142 17.63 71.5807 17.7108 71.6296 17.8023C71.6786 17.8937 71.709 17.9939 71.7192 18.0971Z" fill="#1F2024"/>
<path d="M72.915 16.4504C72.8149 16.5631 72.1826 16.1249 71.3061 16.1499C70.4296 16.175 69.7973 16.6382 69.6971 16.5381C69.597 16.4379 69.7472 16.2939 70.0227 16.0811C70.3853 15.8102 70.8224 15.6572 71.2748 15.6428C71.731 15.626 72.1807 15.7554 72.5582 16.0122C72.8649 16.2188 72.9714 16.4066 72.915 16.4504Z" fill="#1F2024"/>
<path d="M63.4867 18.2347C63.4953 18.4465 63.421 18.6533 63.2795 18.8111C63.138 18.9689 62.9406 19.0653 62.7291 19.0798C62.6255 19.0929 62.5203 19.0847 62.4199 19.0557C62.3196 19.0268 62.2261 18.9778 62.1453 18.9116C62.0645 18.8454 61.998 18.7635 61.9498 18.6708C61.9017 18.5781 61.8729 18.4766 61.8652 18.3724C61.8549 18.1602 61.9287 17.9525 62.0705 17.7943C62.2122 17.6361 62.4107 17.5402 62.6227 17.5272C62.7264 17.5142 62.8316 17.5224 62.9319 17.5514C63.0323 17.5803 63.1257 17.6293 63.2066 17.6955C63.2874 17.7617 63.3539 17.8436 63.402 17.9363C63.4502 18.029 63.479 18.1305 63.4867 18.2347Z" fill="#1F2024"/>
<path d="M64.282 16.8887C64.1881 17.0013 63.5495 16.5631 62.6731 16.5881C61.7966 16.6132 61.1643 17.0765 61.0704 16.9763C60.9765 16.8761 61.1142 16.7321 61.3897 16.5193C61.7616 16.2434 62.2101 16.0903 62.6731 16.0811C63.1293 16.0642 63.579 16.1936 63.9565 16.4504C64.2069 16.6507 64.3321 16.8386 64.282 16.8887Z" fill="#1F2024"/>
<path d="M67.6753 23.3369C68.1342 23.1764 68.6118 23.0754 69.0964 23.0364C69.3155 23.0051 69.5284 22.955 69.5597 22.7985C69.5678 22.5775 69.5089 22.3593 69.3906 22.1725L68.677 20.4821C68.016 19.0545 67.4697 17.5765 67.043 16.0623C67.1431 16.0184 68.0321 17.9404 69.0275 20.3381C69.2654 20.9329 69.4971 21.4963 69.7162 22.041C69.8644 22.3076 69.9153 22.6174 69.8602 22.9174C69.8291 22.9975 69.7802 23.0695 69.7174 23.1281C69.6545 23.1866 69.5792 23.2302 69.4971 23.2555C69.3758 23.2954 69.2491 23.3165 69.1214 23.3181C68.642 23.3842 68.1563 23.3905 67.6753 23.3369Z" fill="#1F2024"/>
<path d="M68.8206 33.6853C65.7534 33.8304 62.705 33.1333 60.0059 31.6694C60.0059 31.6694 62.2972 36.0518 68.8644 35.2755L68.8206 33.6853Z" fill="#EB996E"/>
<path d="M67.369 25.4344C67.1944 25.2296 66.9708 25.0723 66.7191 24.977C66.4674 24.8818 66.1956 24.8518 65.9292 24.8897C65.7368 24.9131 65.5512 24.9751 65.3834 25.0719C65.2156 25.1687 65.069 25.2984 64.9525 25.4532C64.8386 25.6032 64.7739 25.7848 64.7672 25.9731C64.7605 26.1614 64.8121 26.3471 64.915 26.5049C65.0603 26.6585 65.2483 26.7651 65.4547 26.8109C65.6611 26.8566 65.8766 26.8394 66.0731 26.7616C66.485 26.6036 66.8599 26.3629 67.175 26.0542C67.2734 25.984 67.3565 25.8946 67.4191 25.7912C67.4517 25.742 67.4691 25.6843 67.4691 25.6253C67.4691 25.5663 67.4517 25.5086 67.4191 25.4594" fill="#EB996E"/>
<path d="M65.108 23.9942C65.252 23.9942 65.2833 24.9333 66.116 25.5844C66.9486 26.2355 67.9941 26.0977 67.9941 26.2104C67.9941 26.3231 67.7687 26.3982 67.3681 26.4233C66.8099 26.4504 66.2601 26.2797 65.8155 25.9412C65.3906 25.6122 65.1082 25.1326 65.0267 24.6015C64.9453 24.2259 65.0392 23.9629 65.108 23.9942Z" fill="#1F2024"/>
<path d="M64.4006 14.4034C64.3255 14.6413 63.4428 14.56 62.4161 14.7165C61.3894 14.873 60.5379 15.1797 60.419 14.9669C60.3564 14.8667 60.4941 14.6351 60.8259 14.3972C61.2613 14.0922 61.7638 13.8968 62.2909 13.8275C62.8161 13.7489 63.3525 13.7961 63.856 13.9652C64.2441 14.1029 64.4382 14.2845 64.4006 14.4034Z" fill="#1F2024"/>
<path d="M72.796 13.4455C72.6458 13.6458 72.0323 13.4455 71.306 13.4455C70.5798 13.4455 69.9663 13.627 69.8161 13.4455C69.7534 13.3453 69.8161 13.1449 70.104 12.9446C70.4581 12.7033 70.8776 12.5765 71.306 12.5815C71.7327 12.5754 72.1506 12.7023 72.5018 12.9446C72.771 13.1449 72.8586 13.3202 72.796 13.4455Z" fill="#1F2024"/>
<path d="M44.0233 77.0827L42.8713 69.9083L44.0233 41.9679L52.5312 37.6482C52.5312 37.6482 57.9966 43.99 63.3305 44.4408C68.6644 44.8915 70.8931 40.2025 70.8931 40.2025L79.7203 44.4408L76.4148 62.9279C76.4148 62.9279 77.2913 67.4291 75.6886 71.3043C73.8104 75.8807 73.103 77.2705 73.103 77.2705C73.103 77.2705 75.6823 82.3791 75.6948 83.6938H42.2578L44.0233 77.0827Z" fill="#594ABC"/>
<g opacity="0.3">
<path d="M43.4279 63.9923C44.5422 56.5298 46.9149 51.7406 50.5397 45.1233L58.0836 41.7051C60.7004 46.5694 64.8511 50.0127 64.9325 54.6204C65.0139 59.2281 64.5756 63.2661 61.3703 66.5778C60.1182 67.88 58.5907 69.082 58.046 70.7974C57.6328 72.087 57.8394 73.4956 57.5952 74.8291C57.3511 76.1626 56.3432 77.5774 54.9972 77.4647C54.4215 77.3735 53.8773 77.1413 53.4133 76.7886L49.657 74.4222C49.8854 75.1176 49.8854 75.8678 49.657 76.5632C49.5306 76.905 49.2824 77.1881 48.96 77.3579C48.6375 77.5278 48.2637 77.5725 47.9103 77.4835C47.5595 77.3188 47.2622 77.0584 47.0527 76.7323C45.7192 75.0169 43.2964 70.6596 43.071 68.4998C43.015 66.9885 43.1348 65.4759 43.4279 63.9923Z" fill="#1F2024"/>
</g>
<path d="M42.4086 61.9887C42.8844 58.0134 44.4495 54.207 44.6561 50.2066C44.8502 46.3564 43.8234 42.2684 45.4637 38.7813C46.3777 36.8343 48.0367 35.3193 48.9695 33.3785C50.4282 30.3422 49.8961 26.7925 49.8836 23.4244C49.8522 16.7195 51.4361 8.6122 57.2333 4.58674V4.63683C57.9361 4.21497 58.6783 3.86272 59.4495 3.58508C60.0269 3.36484 60.6277 3.2115 61.24 3.12806C61.738 3.09045 62.2382 3.09045 62.7362 3.12806L64.5393 3.17814C64.9097 3.17186 65.2796 3.2097 65.6411 3.29084C66.0754 3.39418 66.4749 3.6101 66.7993 3.91688L67.5004 5.46321C69.1291 5.74881 70.6463 6.48139 71.8828 7.57923C73.9111 9.36971 75.2258 11.8113 76.4967 14.2028C73.9059 13.1623 71.5605 11.593 69.6102 9.59509L70.3489 10.8472C69.6621 10.9251 68.9666 10.8448 68.3155 10.6126C67.6645 10.3804 67.0752 10.0024 66.5927 9.50745C65.8959 8.81871 65.3033 8.03204 64.8335 7.1723C64.4846 8.91241 63.5199 10.4684 62.1165 11.5546C60.8603 12.5207 59.4391 13.2504 57.922 13.7082C57.922 14.04 57.922 14.3656 57.922 14.6974C57.659 18.3722 54.9295 21.9094 56.0125 25.4278C56.8076 28.0133 59.4871 29.7224 60.1382 32.3518C60.7892 34.9812 59.1928 37.6607 59.1803 40.384C59.1803 44.1966 62.1665 47.2704 63.475 50.8577C65.1653 55.4779 63.8694 60.7993 61.1148 64.8748C59.8064 66.803 58.0972 68.8815 58.5668 71.1353C57.8599 70.3576 57.4692 69.3439 57.4712 68.293C56.7621 70.3942 56.5332 72.6276 56.8014 74.8289C55.2431 75.074 53.6476 74.7889 52.2707 74.0193C50.8937 73.2497 49.815 72.0401 49.2074 70.5843L49.3827 73.0134L45.8456 69.9896C45.7305 70.4389 45.7275 70.9096 45.8366 71.3603C45.9458 71.8111 46.1638 72.2282 46.4716 72.5751C42.9219 70.6031 41.9265 65.9641 42.4086 61.9887Z" fill="#1F2024"/>
<path d="M50.6152 78.3036C50.6152 78.2472 51.5418 78.5039 53.0443 78.7669C54.9994 79.1047 56.9833 79.2473 58.9667 79.1926C60.9427 79.1357 62.908 78.8798 64.8327 78.4288C66.3164 78.0782 67.2117 77.7714 67.2304 77.8027C67.033 77.9167 66.8229 78.0071 66.6044 78.0719C66.2037 78.2284 65.609 78.4225 64.8703 78.6291C60.9888 79.6834 56.9131 79.8057 52.9754 78.986C52.3814 78.8645 51.7942 78.712 51.2162 78.529C51.0071 78.4799 50.8051 78.4042 50.6152 78.3036Z" fill="#1F2024"/>
<path d="M71.1619 32.5336C71.3403 32.6171 71.5101 32.7178 71.669 32.8341C72.1092 33.1106 72.6145 33.2661 73.1339 33.2849C73.9008 33.3286 74.6649 33.1619 75.3439 32.8028C76.1671 32.3554 76.8122 31.6395 77.1719 30.7744C77.5198 29.9 77.5812 28.9377 77.3472 28.0261C77.1855 27.274 76.8416 26.5732 76.3455 25.9852C76.0138 25.5823 75.582 25.2736 75.0935 25.0899C74.7491 24.9647 74.5363 24.9522 74.5425 24.9209C74.7513 24.8786 74.9677 24.8937 75.1686 24.9647C75.6983 25.1168 76.1738 25.4165 76.5396 25.8287C77.0927 26.429 77.481 27.1623 77.6665 27.9572C77.9301 28.9305 77.8708 29.963 77.4975 30.8996C77.109 31.8347 76.4043 32.6036 75.5066 33.072C74.7763 33.4423 73.9547 33.5945 73.1402 33.5102C72.8258 33.4862 72.5173 33.4123 72.2262 33.2911C72.0046 33.1964 71.7946 33.0767 71.6001 32.9343C71.2934 32.7277 71.1494 32.5524 71.1619 32.5336Z" fill="#594ABC"/>
<path d="M79.7201 44.4409C79.7201 44.4409 85.3983 46.9451 85.5674 52.8925C85.7364 58.8399 85.5674 83.6939 85.5674 83.6939H76.6775L76.4521 59.6475L79.7201 44.4409Z" fill="#594ABC"/>
<path d="M76.678 51.8972C76.68 52.1885 76.6591 52.4795 76.6154 52.7674C76.559 53.3246 76.4777 54.1259 76.4088 55.1276C76.3399 56.1293 76.2836 57.3125 76.2898 58.6272C76.2778 60.0544 76.3993 61.4797 76.653 62.8843C76.7752 63.6269 76.8276 64.3794 76.8095 65.1318C76.8095 65.4949 76.8095 65.8455 76.8095 66.1961C76.824 66.5407 76.8135 66.8859 76.7782 67.229C76.605 68.3961 76.3392 69.5475 75.9831 70.6723C75.6826 71.6301 75.4009 72.3939 75.1755 72.9135C75.0685 73.1844 74.9321 73.4426 74.7686 73.6836C74.8456 73.4039 74.9418 73.1299 75.0565 72.8634C75.2443 72.3376 75.4948 71.5675 75.7577 70.6097C76.0821 69.4897 76.3228 68.3472 76.4777 67.1915C76.4969 66.86 76.4969 66.5276 76.4777 66.1961C76.4777 65.8455 76.4777 65.4949 76.4777 65.1318C76.4901 64.3982 76.4377 63.665 76.3212 62.9406C76.0613 61.5181 75.9459 60.0729 75.9768 58.6272C75.9768 57.3 76.0707 56.123 76.1709 55.1088C76.2711 54.0946 76.3838 53.3058 76.4777 52.7486C76.5117 52.4581 76.5789 52.1724 76.678 51.8972Z" fill="#1F2024"/>
<path d="M77.1781 49.036C77.0968 48.2746 77.266 47.5075 77.6602 46.8511C77.9666 46.1494 78.4914 45.5653 79.1564 45.1858C79.2253 45.2609 78.4928 45.9308 77.9544 47.0013C77.416 48.0719 77.2783 49.0485 77.1781 49.036Z" fill="#1F2024"/>
<path d="M32.8041 44.9229C31.9589 43.7334 28.453 36.0268 27.9898 34.9876C27.5265 33.9484 27.7081 33.3348 28.115 33.3849C28.8412 33.4726 30.9009 37.5544 31.2452 37.4605C31.5895 37.3666 29.3671 32.2205 29.486 31.0686C29.605 29.9166 30.6943 30.8432 30.6943 30.8432C30.0682 29.6474 31.1263 28.5957 31.8462 29.516C32.8354 30.7681 35.0766 36.1082 35.0265 36.0268C34.9764 35.9454 34.726 34.3616 34.5445 33.1783C34.3629 31.9951 33.3988 29.372 34.15 29.2906C34.9013 29.2092 35.7778 31.2188 36.2974 32.5586L38.6451 38.5498C38.7457 37.2511 38.9213 35.9593 39.1709 34.6808C39.5841 33.0531 40.686 33.1783 40.686 33.1783C40.686 33.1783 41.3871 41.3795 41.1805 42.7944C40.9203 43.7849 40.3659 44.6734 39.5904 45.3424L37.4931 59.228L36.385 71.3545L42.7707 71.5235C42.3251 72.969 41.7488 74.3708 41.0491 75.7118C40.5337 76.7166 39.8201 77.6065 38.9513 78.3279C38.0825 79.0492 37.0765 79.5871 35.9941 79.9089C34.9117 80.2307 33.7753 80.3298 32.6535 80.2002C31.5317 80.0706 30.4478 79.7151 29.4672 79.155C28.3595 78.531 27.4718 77.5798 26.9255 76.4317C24.8408 71.824 31.2515 50.0377 32.8041 44.9229Z" fill="#FFBE9D"/>
<path d="M33.9189 41.2668C34.245 41.2027 34.5816 41.2155 34.9018 41.3044C35.6916 41.4533 36.4432 41.7599 37.1118 42.2059L36.8864 42.306V42.2059C37.0354 41.3938 37.3348 40.6167 37.7691 39.9146C37.9239 39.613 38.1367 39.345 38.3952 39.1257C37.8359 40.1066 37.4146 41.16 37.1431 42.256V42.3499L37.0993 42.569L36.9177 42.4438C35.9934 41.8816 34.9789 41.4835 33.9189 41.2668Z" fill="#EB996E"/>
<path d="M30.6445 30.6492C31.2719 31.6711 31.8222 32.7383 32.291 33.842C32.8541 34.9094 33.275 36.046 33.5431 37.2226C33.468 37.2226 32.8795 35.7577 32.0343 33.9672C31.4716 32.9055 31.0065 31.795 30.6445 30.6492Z" fill="#EB996E"/>
<path d="M34.6895 45.5741C34.6895 45.4927 35.472 45.6806 36.4173 45.6868C37.3626 45.6931 38.1264 45.5428 38.1452 45.6305C37.6149 45.9172 37.0111 46.0393 36.4111 45.9811C35.8092 46.0228 35.2089 45.8809 34.6895 45.5741Z" fill="#EB996E"/>
<path d="M53.7328 71.3045C53.4979 71.1949 53.2718 71.0672 53.0567 70.9226C52.4424 70.4961 51.9066 69.9666 51.4728 69.3575C50.7837 68.3886 50.3391 67.2674 50.1769 66.0896C49.9423 64.5147 50.2823 62.908 51.1347 61.5632C52.0425 60.067 53.5325 58.8087 54.4465 57.0307C54.9153 56.1168 55.0694 55.0736 54.8847 54.0632C54.6539 52.9906 54.2635 51.9587 53.7265 51.0019C53.1552 49.973 52.6694 48.8988 52.2741 47.7903C51.8634 46.5997 51.8634 45.3059 52.2741 44.1154C52.681 42.9134 53.3572 41.8303 53.8705 40.6721C54.3998 39.5074 54.6608 38.2388 54.6343 36.9597C54.6171 35.6781 54.3088 34.4172 53.7328 33.2723C53.1694 32.1642 52.3743 31.0812 52.2115 29.779C52.1029 28.5375 52.2851 27.2879 52.7437 26.1291C53.1318 24.9897 53.6076 23.9192 53.9331 22.8424C54.2902 21.8097 54.4059 20.7089 54.2712 19.6245C54.1022 18.5916 53.6138 17.5962 53.6952 16.4943C53.7808 15.484 54.2068 14.5327 54.9035 13.7961C55.5195 13.1254 56.1964 12.5134 56.9256 11.968C57.608 11.4359 58.2716 10.9538 58.8476 10.4405C59.3908 9.95957 59.8991 9.44075 60.3689 8.88788C61.1246 8.00012 61.7429 7.00407 62.2032 5.93295C62.5745 5.00928 62.8127 4.03754 62.9106 3.04688C62.9149 3.30618 62.9023 3.56548 62.873 3.82316C62.7856 4.56429 62.6004 5.29058 62.3221 5.98302C61.8752 7.07461 61.2651 8.09205 60.5129 9.00056C60.0436 9.56947 59.533 10.103 58.9853 10.597C58.4031 11.1228 57.7332 11.6112 57.0696 12.1496C56.3573 12.6898 55.6971 13.2955 55.0976 13.9588C54.4407 14.6568 54.0411 15.5577 53.9644 16.5131C53.8893 17.496 54.3651 18.4664 54.5529 19.5494C54.7011 20.6786 54.5876 21.8267 54.2211 22.905C53.8893 24.0068 53.4198 25.0836 53.0379 26.2043C52.5987 27.3176 52.4251 28.518 52.5308 29.7101C52.6748 30.9184 53.4386 31.9514 54.027 33.1033C54.6294 34.2926 54.9568 35.6021 54.985 36.9349C55.0132 38.2678 54.7414 39.5899 54.1898 40.8036C53.6639 41.9868 52.9941 43.0636 52.5997 44.2156C52.2119 45.3456 52.2119 46.5726 52.5997 47.7026C52.9835 48.7946 53.4589 49.8522 54.0208 50.8641C54.5655 51.8431 54.9602 52.8982 55.1915 53.9944C55.3816 55.0624 55.212 56.1633 54.7094 57.1246C54.2363 57.9927 53.6649 58.8035 53.0066 59.5411C52.4095 60.2113 51.8573 60.9203 51.3538 61.6634C50.5205 62.9628 50.1745 64.5154 50.3772 66.0457C50.5338 67.2024 50.963 68.3053 51.6293 69.2636C52.1823 70.0816 52.8984 70.7765 53.7328 71.3045Z" fill="#1F2024"/>
<path d="M70.3735 9.47642C70.0341 9.36893 69.7207 9.19198 69.4533 8.95681C68.0871 7.90096 67.1399 6.39467 66.78 4.70597C66.6814 4.3624 66.6558 4.002 66.7049 3.64795C66.9977 4.78335 67.4376 5.87565 68.0133 6.89712C68.681 7.85869 69.4749 8.72622 70.3735 9.47642Z" fill="#1F2024"/>
<path d="M75.8075 24.6954C75.8075 24.6954 75.9139 24.3761 76.0329 23.7876C76.1902 22.9628 76.2448 22.1217 76.1956 21.2834C76.1518 20.2129 76.0704 18.9232 75.9515 17.5272C75.829 15.9899 75.5692 14.4668 75.1752 12.9758C74.7813 11.4917 74.1286 10.0886 73.247 8.8314C72.5058 7.81659 71.6439 6.89581 70.6802 6.08934C69.8663 5.38817 69.1526 4.88106 68.6643 4.53048C68.3977 4.36536 68.1463 4.1768 67.9131 3.96704C68.2012 4.09133 68.4759 4.24445 68.7332 4.42406C69.4637 4.8749 70.1643 5.37261 70.8304 5.91405C71.8314 6.71 72.7257 7.6316 73.4911 8.65611C74.4097 9.93381 75.0885 11.3678 75.4945 12.8882C75.8936 14.3985 76.1473 15.9435 76.252 17.5021C76.3584 18.9358 76.4148 20.2192 76.4273 21.3085C76.4555 22.1703 76.3649 23.0319 76.1581 23.869C76.0963 24.0953 76.019 24.317 75.9264 24.5326C75.8576 24.6265 75.82 24.7016 75.8075 24.6954Z" fill="#1F2024"/>
<path d="M50.6591 20.6324C50.6293 20.362 50.6293 20.0891 50.6591 19.8186C50.7082 19.0756 50.8319 18.3394 51.0284 17.6212C51.7269 15.2566 52.8842 13.0528 54.4341 11.1354C56.1808 8.8503 58.0965 7.08484 59.2797 5.64494C59.7529 5.08334 60.1919 4.49381 60.5944 3.87951C60.7247 3.64146 60.8755 3.41522 61.0451 3.20337C60.961 3.46276 60.8453 3.71085 60.7008 3.9421C60.3369 4.60217 59.9181 5.23043 59.4487 5.82023C58.2968 7.31648 56.4124 9.10697 54.6845 11.367C53.1622 13.2527 51.9955 15.3994 51.2413 17.7026C50.9775 18.664 50.7829 19.6432 50.6591 20.6324Z" fill="#1F2024"/>
<g opacity="0.3">
<path d="M66.9173 77.9907C65.4315 78.8254 63.9164 79.6038 62.3722 80.3259C61.6204 80.7137 60.8204 81 59.9932 81.1773C58.2653 81.4903 56.5187 80.9144 54.891 80.257C53.764 79.853 52.7077 79.2742 51.7607 78.5416C53.8326 79.0737 55.9635 79.3409 58.1026 79.3367C59.5559 79.3235 61.0071 79.2189 62.4473 79.0237C64.0062 78.7483 65.1331 78.285 66.6919 78.0095" fill="#1F2024"/>
</g>
<g opacity="0.3">
<path d="M76.484 67.7108C76.5278 65.8702 75.451 64.2112 74.9439 62.4458C74.5785 61.1341 74.5205 59.7558 74.7746 58.4181C75.0287 57.0803 75.588 55.8193 76.4089 54.7329C76.2044 57.1165 76.219 59.5139 76.4527 61.8949C76.603 63.6666 76.8972 65.3318 76.6906 67.0848" fill="#1F2024"/>
</g>
<path d="M36.172 74.9481C36.1458 74.5792 36.1458 74.2089 36.172 73.84C36.2221 73.07 36.2847 72.0558 36.3661 70.8225C36.5414 68.2745 36.8106 64.7624 37.2238 60.8872C37.637 57.012 38.119 53.5124 38.5635 51.0019C38.7889 49.7498 38.9829 48.7294 39.1395 48.0282C39.203 47.6626 39.2951 47.3026 39.4149 46.9514C39.3921 47.3219 39.3419 47.6902 39.2647 48.0533C39.1457 48.8108 38.9892 49.8187 38.7951 51.0395C38.407 53.5437 37.95 57.0495 37.5431 60.9185C37.1361 64.7874 36.8294 68.2995 36.5915 70.8413C36.4725 72.0934 36.3724 73.0825 36.2972 73.8463C36.2856 74.2164 36.2438 74.5849 36.172 74.9481Z" fill="#1F2024"/>
</svg>
