<svg width="105" height="108" viewBox="0 0 105 108" fill="none" xmlns="http://www.w3.org/2000/svg">
<path d="M99.8244 107.149H22.8647C21.8513 107.151 20.8787 106.75 20.1603 106.036C19.442 105.321 19.0367 104.35 19.0333 103.337V77.0805H18.7516C17.9881 77.0727 17.2319 77.2308 16.5354 77.5437C15.0204 78.1984 13.3839 78.5249 11.7337 78.5016C10.0703 78.4759 8.43079 78.1015 6.92109 77.4028C5.41139 76.704 4.06504 75.6963 2.96903 74.4448C1.85724 73.1691 1.0263 71.6737 0.530158 70.0558C0.0340166 68.438 -0.116209 66.7338 0.0892449 65.0541C0.317051 63.1646 0.994924 61.3573 2.06596 59.7841C3.137 58.2108 4.56991 56.9175 6.24436 56.0128C7.91881 55.1082 9.78591 54.6185 11.6888 54.5849C13.5918 54.5514 15.4749 54.9749 17.1802 55.82C17.7668 56.1217 18.4031 56.3147 19.0584 56.3897V27.8421C19.0634 26.6172 19.5538 25.4443 20.4223 24.5806C21.2907 23.7168 22.4663 23.2327 23.6911 23.2344H97.9275C99.0169 23.2376 100.061 23.6697 100.835 24.4371C101.608 25.2045 102.048 26.2456 102.059 27.335L102.297 56.4586H101.22C100.438 56.4586 98.9729 56.4586 98.879 56.4586H98.4158L98.4972 56.2332L98.422 56.1956C96.7527 55.3305 94.885 54.9202 93.0067 55.0061C87.1094 55.4131 82.6708 59.7265 82.4516 65.2607C82.3848 66.7767 82.6279 68.2903 83.1662 69.709C83.7044 71.1278 84.5264 72.4218 85.5819 73.512C87.1538 75.143 89.1762 76.2685 91.3908 76.7446C93.6054 77.2208 95.9117 77.026 98.0151 76.1852C98.719 75.8989 99.4714 75.7501 100.231 75.747H103.662V103.343C103.657 104.356 103.25 105.326 102.531 106.04C101.811 106.754 100.838 107.153 99.8244 107.149ZM18.689 76.4732H18.7579H19.6594V103.343C19.6627 104.19 20.0021 105.002 20.603 105.599C21.204 106.197 22.0174 106.531 22.8647 106.53H99.8244C100.672 106.531 101.485 106.197 102.086 105.599C102.687 105.002 103.026 104.19 103.03 103.343V76.3668H100.25C99.5719 76.3685 98.9003 76.5002 98.2718 76.7549C96.4228 77.5039 94.4157 77.7779 92.4336 77.5519C90.4515 77.3259 88.5576 76.607 86.9247 75.461C85.2918 74.3149 83.972 72.7781 83.0856 70.9909C82.1993 69.2037 81.7747 67.2229 81.8506 65.2294C82.0823 59.3759 86.7651 54.8058 92.988 54.3738C94.9715 54.2898 96.9429 54.7211 98.71 55.6259C98.8267 55.6731 98.9363 55.7363 99.0356 55.8137H101.252H101.69L101.458 27.3225C101.448 26.398 101.075 25.5146 100.419 24.8632C99.763 24.2119 98.877 23.8449 97.9525 23.8416H23.6661C23.1416 23.84 22.6218 23.9417 22.1366 24.1409C21.6514 24.3401 21.2102 24.6329 20.8381 25.0026C20.466 25.3724 20.1705 25.8118 19.9682 26.2957C19.766 26.7797 19.661 27.2988 19.6594 27.8233V57.022H19.3338C18.4768 56.9774 17.6386 56.7534 16.8735 56.3647C14.7693 55.309 12.386 54.9431 10.0621 55.3192C8.47589 55.5719 6.96141 56.1586 5.61889 57.0404C4.27637 57.9222 3.13644 59.0791 2.27452 60.4345C1.41259 61.7899 0.848331 63.3129 0.619075 64.9027C0.389818 66.4925 0.500787 68.1129 0.944649 69.6565C1.38851 71.2002 2.15514 72.6321 3.19381 73.8573C4.23247 75.0825 5.51949 76.0732 6.9697 76.7638C8.4199 77.4544 10.0002 77.8291 11.6061 77.8632C13.212 77.8973 14.8068 77.5899 16.285 76.9615C17.043 76.6291 17.8613 76.4565 18.689 76.4544V76.4732Z" fill="#E0E0E0"/>
<path d="M90.3081 107.694V107.656C91.0676 106.671 91.4376 105.441 91.3474 104.201L98.9225 87.8232C97.5827 87.1034 96.1758 86.5163 94.7218 86.0703C93.0603 85.6095 91.3347 85.4234 89.6132 85.5194L84.7739 101.365L77.6433 106.41C77.6433 106.41 75.834 107.037 73.8369 107.694H90.3081Z" fill="#AA6550"/>
<path d="M39.5552 76.2038C39.0043 76.9738 37.6771 97.6583 37.6771 97.9901C37.6771 97.9901 36.137 102.279 36.3561 104.15C36.4438 105.04 36.5923 105.923 36.8006 106.792L36.281 107.694H80.6175C82.1262 106.129 83.1216 105.033 83.1216 105.033C83.1216 105.033 82.7898 100.851 81.8007 99.3987C80.8115 97.9463 78.6141 93.7643 78.6141 93.7643C78.6141 93.7643 80.1542 91.4542 80.2606 90.4651C80.367 89.4759 80.8115 61.5856 80.8115 61.5856L81.8007 37.6582L65.7426 35.1102L61.3603 33.1883L47.4621 32.2617L45.1082 37.364L32.3369 44.4007L39.5552 65.3106V76.2038Z" fill="#1F2024"/>
<path d="M32.3372 44.4009C32.3372 44.4009 25.2379 58.249 26.0204 61.6296L24.1423 76.999C24.1423 76.999 22.1202 79.0086 22.7462 80.7177C23.3723 82.4268 25.0751 88.2302 25.0751 88.2302C25.0751 88.2302 30.6782 80.2231 35.9683 80.8429V78.514C35.9683 78.514 37.2204 78.9961 37.5271 76.9677C37.7302 75.9531 37.7302 74.9084 37.5271 73.8938L39.5493 65.2795L32.3372 44.4009Z" fill="#1F2024"/>
<path d="M53.1715 39.211C52.9584 39.1591 52.7492 39.0922 52.5455 39.0106C52.1511 38.8729 51.5814 38.66 50.8677 38.4472L50.5922 38.3721C50.5108 38.3721 50.3669 38.3345 50.4107 38.3721C50.3382 38.5615 50.3083 38.7645 50.323 38.9668C50.323 39.405 50.323 39.8746 50.323 40.3692C50.3417 41.4387 50.4359 42.5056 50.6048 43.562V43.6308L50.6611 43.9501L50.442 43.7185C49.6594 42.8984 48.9207 42.1158 48.232 41.4021C47.5434 40.6884 46.98 40.0123 46.5167 39.4301C46.1355 38.9813 45.7862 38.5064 45.4712 38.009C45.3648 37.8337 45.2896 37.6897 45.2396 37.5895C45.1895 37.4893 45.1707 37.4393 45.1769 37.433C45.1832 37.4267 45.3022 37.6271 45.5338 37.9714C45.8728 38.4471 46.2364 38.9047 46.6231 39.3424C47.0926 39.9247 47.6999 40.557 48.3635 41.2769L50.5797 43.5808L50.4169 43.6684V43.5933C50.2411 42.5295 50.149 41.4536 50.1415 40.3754C50.1415 39.8746 50.1415 39.405 50.1415 38.9606C50.1351 38.7463 50.1735 38.5331 50.2542 38.3345C50.2542 38.3345 50.2542 38.2782 50.3418 38.2343C50.377 38.2285 50.413 38.2285 50.4482 38.2343L50.6048 38.2656L50.8865 38.3408C51.6064 38.5787 52.1386 38.8103 52.5517 38.9668C52.7638 39.0336 52.9709 39.1151 53.1715 39.211Z" fill="#1F2024"/>
<path d="M51.5121 40.4004C51.3701 40.4278 51.2433 40.507 51.1565 40.6228C51.0697 40.7385 51.0291 40.8824 51.0426 41.0264C51.0437 41.1741 51.1004 41.316 51.2013 41.4238C51.3022 41.5317 51.44 41.5977 51.5872 41.6087C51.6601 41.6062 51.7319 41.5894 51.7982 41.559C51.8645 41.5287 51.9242 41.4855 51.9737 41.4319C52.0232 41.3783 52.0616 41.3154 52.0866 41.2469C52.1116 41.1784 52.1227 41.1056 52.1194 41.0327C52.0967 40.9031 52.0477 40.7795 51.9754 40.6696C51.9371 40.5825 51.8767 40.5069 51.8001 40.4505C51.6513 40.3912 51.4856 40.3912 51.3368 40.4505" fill="#1F2024"/>
<path d="M54.1414 44.8452C53.8472 44.8452 53.6782 45.1645 53.6719 45.4713C53.6701 45.6192 53.726 45.762 53.8276 45.8695C53.9293 45.977 54.0688 46.0407 54.2166 46.0472C54.2895 46.0457 54.3613 46.0294 54.4278 45.9993C54.4942 45.9691 54.5538 45.9258 54.603 45.872C54.6522 45.8181 54.6899 45.7548 54.7138 45.6859C54.7378 45.6171 54.7476 45.544 54.7424 45.4713C54.7175 45.3423 54.6687 45.2191 54.5984 45.1082C54.5603 45.0227 54.5024 44.9476 54.4294 44.889C54.348 44.839 54.0225 44.8327 53.9662 44.889" fill="#1F2024"/>
<path d="M57.6787 54.7117C57.5359 54.7377 57.4083 54.8166 57.3212 54.9327C57.2342 55.0488 57.1942 55.1934 57.2091 55.3377C57.2088 55.4858 57.265 55.6285 57.3662 55.7367C57.4674 55.8448 57.606 55.9104 57.7538 55.9199C57.8267 55.9184 57.8986 55.9021 57.965 55.872C58.0314 55.8418 58.091 55.7985 58.1402 55.7447C58.1894 55.6908 58.2271 55.6275 58.2511 55.5586C58.275 55.4898 58.2848 55.4167 58.2797 55.344C58.2598 55.2136 58.2106 55.0894 58.1357 54.9809C58.0996 54.8942 58.0413 54.8186 57.9666 54.7617C57.8853 54.7117 57.5597 54.6991 57.5034 54.7617" fill="#1F2024"/>
<path d="M59.5575 42.2158C59.2632 42.2158 59.0942 42.5351 59.0879 42.8419C59.0862 42.9898 59.142 43.1326 59.2437 43.2401C59.3453 43.3476 59.4848 43.4113 59.6326 43.4178C59.7055 43.4163 59.7774 43.4 59.8438 43.3699C59.9102 43.3397 59.9698 43.2964 60.019 43.2426C60.0682 43.1887 60.1059 43.1254 60.1299 43.0565C60.1538 42.9877 60.1636 42.9146 60.1585 42.8419C60.1364 42.7121 60.0874 42.5884 60.0145 42.4788C59.9764 42.3933 59.9184 42.3182 59.8454 42.2596C59.7641 42.2096 59.4385 42.2033 59.3822 42.2596" fill="#1F2024"/>
<path d="M56.9964 45.3024C56.9869 45.2465 56.9869 45.1893 56.9964 45.1334C56.9964 45.0207 57.0528 44.8579 57.1091 44.6451C57.2628 44.0462 57.4509 43.4568 57.6726 42.8796C58.4427 40.9126 59.4407 39.0425 60.6463 37.3078L60.7778 37.12L60.8216 37.3391C60.9718 38.0841 61.1659 38.8542 61.4038 39.6305C61.7195 40.6532 62.1001 41.6548 62.5432 42.6292H62.3679C62.7983 41.6442 63.3224 40.7029 63.933 39.8183C64.4464 39.0044 64.8846 38.2782 65.1851 37.6459C65.4434 37.1585 65.6531 36.6468 65.8111 36.1183C65.905 35.7427 65.9301 35.5361 65.9489 35.5361C65.9405 35.7365 65.9133 35.9356 65.8675 36.1309C65.7423 36.6731 65.5532 37.1984 65.304 37.696C64.9264 38.4545 64.5085 39.1922 64.052 39.9059C63.4586 40.7826 62.9492 41.7132 62.5307 42.6856L62.4493 42.9047L62.3554 42.6981C61.9005 41.7179 61.5136 40.7075 61.1972 39.6743C60.9593 38.8917 60.7652 38.1154 60.615 37.3642L60.7903 37.4017C59.5863 39.1235 58.5724 40.9707 57.7665 42.9109C57.4722 43.6434 57.2782 44.2381 57.1404 44.6513C57.1052 44.871 57.0571 45.0884 56.9964 45.3024Z" fill="#1F2024"/>
<path d="M59.6512 56.1327C59.6332 55.9369 59.6332 55.7399 59.6512 55.5442C59.6512 55.0934 59.6512 54.5676 59.6512 53.954C59.6512 52.5204 59.7076 50.7111 59.7389 48.7078C59.7764 47.6811 59.7389 46.7107 59.8516 45.8155C59.8772 45.6023 59.9255 45.3924 59.9956 45.1894C60.0707 44.9891 60.1521 44.8013 60.2272 44.6135C60.3712 44.2378 60.534 43.9123 60.678 43.6055C60.9451 43.0588 61.1767 42.583 61.3729 42.1782C61.4503 41.9985 61.5446 41.8266 61.6546 41.6648C61.6011 41.8527 61.5298 42.0351 61.4417 42.2095C61.2602 42.6226 61.0536 43.1047 60.8157 43.6681C60.6842 43.9749 60.5214 44.2942 60.39 44.6698L60.1709 45.2332C60.1069 45.4372 60.0628 45.6468 60.0394 45.8593C59.958 46.7295 59.983 47.7374 59.9455 48.7391C59.8891 50.7424 59.8391 52.5517 59.8015 53.9854C59.8015 54.6114 59.7514 55.1247 59.7326 55.5755C59.7206 55.7631 59.6934 55.9495 59.6512 56.1327Z" fill="#1F2024"/>
<path d="M55.4004 107.694C55.4004 107.694 55.4004 107.475 55.4317 107.068C55.463 106.661 55.5131 106.047 55.5444 105.265C55.6258 103.706 55.7134 101.44 55.7886 98.6413C55.9513 93.0445 56.064 85.3066 56.1204 76.7297C56.1204 72.4601 56.1517 68.3846 56.1204 64.6847C56.0891 60.9847 56.039 57.6542 55.9012 54.8495C55.7715 52.6359 55.9039 50.4147 56.2956 48.2322C56.4171 47.6438 56.5718 47.0627 56.7589 46.4918C56.9029 46.1037 56.9843 45.9033 56.9843 45.9033C56.9843 45.9033 56.9279 46.1099 56.7965 46.5294C56.6255 47.1041 56.4834 47.6871 56.3708 48.276C56.0084 50.4556 55.8971 52.6696 56.039 54.8745C56.1955 57.6667 56.2769 61.0035 56.2956 64.7097C56.3144 68.4159 56.327 72.4852 56.2956 76.761C56.2393 85.3065 56.1016 93.0382 55.9075 98.6413C55.8199 101.44 55.7072 103.7 55.6007 105.265C55.5569 106.047 55.488 106.655 55.4505 107.062C55.4129 107.469 55.4004 107.694 55.4004 107.694Z" fill="#1F2024"/>
<path d="M90.0269 85.5193C90.0269 85.5193 88.6996 85.632 88.3929 84.7305C88.1613 83.6406 88.0273 82.5323 87.9922 81.4187L90.0269 79.3152V70.8949L80.8428 61.6294L81.619 37.6531C81.619 37.6531 84.3361 38.4908 86.6212 41.6586C88.9062 44.8264 103.168 68.6662 103.618 71.7087C104.069 74.7513 102.861 80.8177 102.861 80.8177C102.861 80.8177 104.57 81.8945 104.169 82.8961C103.769 83.8978 100.657 88.2363 100.657 88.2363L90.0269 85.5193Z" fill="#1F2024"/>
<path d="M34.4219 45.9722C34.4647 46.0258 34.5005 46.0847 34.5283 46.1475L34.8038 46.6671L35.7866 48.589C36.1998 49.4217 36.6819 50.3858 37.214 51.4438C37.8144 52.6089 38.3291 53.8162 38.7541 55.0561C39.4133 57.3507 39.6738 59.7414 39.5241 62.1241C39.4866 63.0381 39.4365 63.7706 39.3927 64.2777C39.3927 64.4968 39.3551 64.6909 39.3426 64.8599C39.3381 64.93 39.3255 64.9993 39.305 65.0665C39.2984 64.9978 39.2984 64.9286 39.305 64.8599V64.2714C39.305 63.7017 39.3488 62.9818 39.3739 62.1241C39.4879 59.7614 39.2194 57.3958 38.5788 55.1187C38.1585 53.8869 37.6522 52.6861 37.0638 51.5252L35.674 48.6454C35.3046 47.8691 34.9978 47.218 34.7474 46.6984C34.6598 46.498 34.5784 46.3228 34.5033 46.1662C34.468 46.1053 34.4406 46.0401 34.4219 45.9722Z" fill="#1F2024"/>
<path d="M82.1821 41.208C82.1927 41.5159 82.1738 41.824 82.1257 42.1283C82.0568 42.7543 81.9755 43.6183 81.8815 44.6325C81.6812 46.7422 81.4746 49.6408 81.3118 52.8963C81.1491 56.1517 81.0552 59.0565 80.9863 61.1726C80.9487 62.1868 80.9112 63.0507 80.8861 63.6767C80.8925 63.9853 80.8674 64.2936 80.811 64.597C80.7692 64.2921 80.7525 63.9844 80.7609 63.6767C80.7609 63.082 80.7609 62.2243 80.7609 61.1726C80.7609 59.0503 80.836 56.1204 80.9926 52.8837C81.1491 49.6471 81.3995 46.7235 81.6562 44.6137C81.7814 43.5619 81.9066 42.7356 82.0005 42.1095C82.0352 41.8044 82.0959 41.5028 82.1821 41.208Z" fill="#1F2024"/>
<path d="M95.7424 67.1262C95.7799 67.2201 94.3275 67.7523 92.7499 68.7477C91.1722 69.7431 90.0829 70.8387 90.0078 70.7698C91.4646 68.9554 93.481 67.6742 95.7424 67.1262Z" fill="#1F2024"/>
<path d="M96.982 69.2737C96.982 69.3738 95.4232 69.4803 93.5576 69.8997C91.692 70.3192 90.227 70.8638 90.1895 70.7762C92.2839 69.6915 94.6256 69.1735 96.982 69.2737Z" fill="#1F2024"/>
<path d="M28.718 75.0707C28.718 75.0707 28.6867 75.0707 28.6367 75.0707C28.5866 75.0707 28.5741 75.127 28.5803 75.0707H28.718L29.6383 75.2397C30.6522 75.4321 31.6457 75.7193 32.6058 76.0974C33.5701 76.486 34.4486 77.0603 35.1913 77.7877C35.4207 78.0111 35.6302 78.2541 35.8174 78.5139C35.889 78.606 35.9441 78.7098 35.9802 78.8207C35.9489 78.8207 35.6922 78.42 35.1225 77.8879C34.3704 77.2018 33.501 76.6568 32.5557 76.279C31.6061 75.9029 30.6286 75.6015 29.6321 75.3775L28.7306 75.1458C28.6797 75.1341 28.6295 75.1195 28.5803 75.102C28.5803 75.102 28.549 75.0394 28.5803 75.0331H28.6116H28.668C28.6993 75.0143 28.7243 75.0707 28.718 75.0707Z" fill="#1F2024"/>
<path d="M30.8408 71.4209C30.9387 71.476 31.0291 71.5433 31.11 71.6212C31.279 71.759 31.5107 71.9718 31.7862 72.2473C33.2219 73.6848 34.3675 75.3851 35.1605 77.2556C35.3108 77.6125 35.4172 77.8817 35.4861 78.1133C35.5287 78.2195 35.5561 78.3312 35.5674 78.4451C35.5361 78.4451 35.3608 78.0069 35.0353 77.312C34.1796 75.4992 33.0499 73.829 31.686 72.36C31.3867 72.0632 31.1045 71.7497 30.8408 71.4209Z" fill="#1F2024"/>
<path d="M29.2883 76.1287C28.8702 76.1325 28.4522 76.1137 28.0362 76.0724C27.5972 76.0616 27.1584 76.0994 26.7278 76.1851C26.2036 76.3024 25.6921 76.4702 25.2002 76.6859C24.7047 76.8855 24.2536 77.1812 23.873 77.5561C23.5653 77.8663 23.3058 78.2208 23.103 78.6079C22.7649 79.2777 22.6397 79.7347 22.6084 79.7222C22.6107 79.6109 22.6318 79.5009 22.671 79.3967C22.7482 79.1036 22.853 78.8185 22.984 78.5453C23.4015 77.6098 24.1707 76.8766 25.1251 76.5044C25.63 76.2846 26.1567 76.1188 26.6965 76.0098C27.1402 75.9286 27.5924 75.9033 28.0425 75.9347C28.4243 75.966 28.7311 76.016 28.944 76.0473C29.0618 76.0594 29.1775 76.0868 29.2883 76.1287Z" fill="#1F2024"/>
<path d="M33.2633 55.0122C33.4169 55.0767 33.5637 55.1564 33.7015 55.2501C34.082 55.4936 34.4402 55.7701 34.7721 56.0765C35.8544 57.1112 36.7316 58.341 37.3576 59.7013C37.9744 61.0521 38.4994 62.443 38.929 63.8645C39.0932 64.2899 39.1945 64.737 39.2295 65.1917C39.2408 65.3145 39.2408 65.4382 39.2295 65.561C39.224 65.6046 39.2113 65.6469 39.1919 65.6863C39.1919 65.6863 39.1919 65.5047 39.1919 65.1917C39.1266 64.7515 39.0089 64.3206 38.8413 63.9083C38.3735 62.5068 37.8301 61.1317 37.2136 59.7889C36.5962 58.4479 35.7486 57.2253 34.7094 56.1766C33.833 55.3878 33.2069 55.0498 33.2633 55.0122Z" fill="#1F2024"/>
<path d="M103.624 81.8195C103.624 81.8696 102.804 81.4439 101.426 80.9869C99.6326 80.4135 97.7727 80.0726 95.8922 79.9727C94.8494 79.9191 93.8046 79.9191 92.7619 79.9727C91.9224 79.9926 91.0854 80.0742 90.2578 80.2168C89.4929 80.3575 88.7784 80.6965 88.1855 81.1997C88.2906 81.0097 88.4385 80.8468 88.6175 80.7239C89.0878 80.3679 89.6307 80.12 90.2077 79.9977C91.0475 79.8122 91.9024 79.7032 92.7619 79.6722C93.8044 79.6099 94.8497 79.6099 95.8922 79.6722C97.8024 79.7712 99.6879 80.1487 101.489 80.7928C102.029 80.9973 102.556 81.2356 103.067 81.5065C103.442 81.6755 103.636 81.7945 103.624 81.8195Z" fill="#1F2024"/>
<path d="M58.6059 57.6105C53.9983 64.04 39.0107 83.3847 39.0107 83.3847L51.3501 104.777C51.494 105.027 51.6963 105.238 51.9398 105.393C52.1832 105.547 52.4605 105.641 52.7479 105.665C53.0354 105.689 53.3243 105.643 53.59 105.53C53.8558 105.418 54.0904 105.243 54.2737 105.021C58.9941 99.2988 72.5166 82.8964 76.1853 78.4953C76.4445 78.1746 76.5858 77.7746 76.5858 77.3622C76.5858 76.9498 76.4445 76.5498 76.1853 76.2291L61.4857 57.5479C61.3136 57.3274 61.0924 57.15 60.8397 57.0301C60.587 56.9101 60.3098 56.8508 60.0301 56.8569C59.7505 56.8629 59.4761 56.9342 59.2288 57.0651C58.9816 57.1959 58.7683 57.3827 58.6059 57.6105Z" fill="#E0E0E0"/>
<path d="M54.9496 82.1637C55.8624 82.1637 56.6024 81.4237 56.6024 80.5109C56.6024 79.5981 55.8624 78.8582 54.9496 78.8582C54.0368 78.8582 53.2969 79.5981 53.2969 80.5109C53.2969 81.4237 54.0368 82.1637 54.9496 82.1637Z" fill="#FAFAFA"/>
<path d="M60.5581 56.928C60.5581 56.928 60.6896 57.0907 60.9275 57.4163C61.1654 57.7418 61.5536 58.2427 61.9667 58.8437L65.723 64.115L71.3073 71.953L72.9225 74.2193C73.1917 74.6137 73.4797 74.9831 73.7489 75.4025C74.0103 75.834 74.1668 76.3207 74.2059 76.8237C74.2449 77.3374 74.159 77.8529 73.9555 78.3262C73.7337 78.784 73.4446 79.206 73.0978 79.5783L71.1383 81.976L57.5969 98.5599C55.8691 100.657 54.4667 102.366 53.4713 103.568L52.3444 104.927C52.0878 105.234 51.9375 105.39 51.9375 105.39C51.9375 105.39 52.0627 105.221 52.3131 104.902L53.415 103.524L57.4905 98.4723L71.0131 81.9009L72.9663 79.4969C73.3112 79.1271 73.5945 78.7044 73.8052 78.2448C73.9967 77.8013 74.0762 77.3176 74.0369 76.8362C74.0015 76.3605 73.8558 75.8997 73.6112 75.4902C73.3545 75.102 73.0603 74.7076 72.7911 74.3195L71.1884 72.0532L65.6354 64.1901L61.8791 58.8812L60.8712 57.4351C60.6708 57.1095 60.5581 56.928 60.5581 56.928Z" fill="#1F2024"/>
<path d="M49.6341 90.2459L52.3887 89.839L60.352 85.6007L63.9956 84.3987C64.2525 84.7541 64.3685 85.1922 64.3211 85.6281C64.2737 86.0641 64.0662 86.467 63.7389 86.7589C63.0482 87.5248 62.1317 88.051 61.1221 88.2614C61.1221 88.2614 59.6258 89.67 59.582 90.2459C59.5498 90.6289 59.6462 91.0116 59.856 91.3336C60.0658 91.6556 60.3769 91.8985 60.7402 92.0239C61.9096 92.3908 63.1105 92.6485 64.3274 92.7939L64.8533 92.2367C64.8533 92.2367 66.2181 92.9692 66.2181 93.8206C66.2026 94.3931 66.0883 94.9587 65.88 95.4922L65.4042 95.7489C65.4042 95.7489 65.5795 96.7818 65.3228 97.1199C65.0661 97.458 63.6513 97.7459 63.6513 97.7459C63.6869 98.0273 63.6198 98.3121 63.4622 98.5479C63.3046 98.7837 63.0672 98.9546 62.7936 99.0293L61.7669 99.4175C61.9099 99.6683 61.9493 99.965 61.8768 100.244C61.8043 100.524 61.6256 100.764 61.3787 100.914C60.4835 101.64 57.3157 102.372 57.3157 102.372C57.1657 102.45 56.9993 102.49 56.8305 102.49C56.6617 102.49 56.4954 102.45 56.3453 102.372C55.7756 102.109 49.4589 98.3845 49.4589 98.3845L47.6621 97.4893L49.6341 90.2459Z" fill="#AA6550"/>
<path d="M35.2733 80.8428L49.6347 90.2334L47.6627 97.4893C47.6627 97.4893 36.3939 93.6203 32.744 91.4041C29.0942 89.1879 25.9014 87.1596 25.9014 87.1596L27.191 85.1938C28.0681 83.8575 29.2636 82.7602 30.6701 82.0007C32.0766 81.2412 33.6498 80.8433 35.2482 80.8428H35.2733Z" fill="#AA6550"/>
<path d="M68.1594 12.5727C68.0463 9.88898 66.9262 7.34642 65.0222 5.45173C63.1182 3.55703 60.5702 2.44933 57.886 2.34937H57.3351C51.3564 2.46831 48.1135 7.6144 48.4014 13.6182L47.5312 33.6954L60.6782 37.1261C61.1719 36.7642 61.5759 36.2937 61.8592 35.7511C62.1425 35.2084 62.2975 34.6079 62.3121 33.9959V32.6311C62.3121 32.6311 68.0843 31.9613 68.3723 26.233C68.5538 23.4784 68.3785 17.7563 68.1594 12.5727Z" fill="#AA6550"/>
<path d="M62.3618 32.65C59.7106 32.5988 57.1347 31.7597 54.9619 30.2397C54.9619 30.2397 56.5708 34.4342 62.3179 34.1337L62.3618 32.65Z" fill="#723C31"/>
<path d="M66.1242 16.0973C66.1177 16.3105 66.0284 16.5127 65.8753 16.6611C65.7222 16.8095 65.5173 16.8925 65.3041 16.8924C65.1998 16.8966 65.0957 16.8799 64.9979 16.8432C64.9001 16.8065 64.8107 16.7507 64.7349 16.6789C64.659 16.6072 64.5983 16.521 64.5563 16.4254C64.5143 16.3298 64.4918 16.2268 64.4902 16.1224C64.4967 15.9092 64.586 15.707 64.7391 15.5586C64.8922 15.4101 65.0971 15.3272 65.3104 15.3273C65.4147 15.3231 65.5188 15.3398 65.6165 15.3765C65.7143 15.4132 65.8037 15.469 65.8796 15.5408C65.9554 15.6125 66.0161 15.6987 66.0582 15.7943C66.1002 15.8899 66.1226 15.9929 66.1242 16.0973Z" fill="#1F2024"/>
<path d="M67.0137 14.57C66.9072 14.6764 66.3062 14.1943 65.4235 14.163C64.5408 14.1317 63.8772 14.5449 63.7895 14.4322C63.7019 14.3196 63.8521 14.1943 64.1401 14.0003C64.5316 13.7504 64.9909 13.6279 65.4548 13.6497C65.9106 13.668 66.3489 13.8302 66.7069 14.113C66.9824 14.3321 67.07 14.5261 67.0137 14.57Z" fill="#1F2024"/>
<path d="M57.5602 16.2852C57.5536 16.4984 57.4644 16.7006 57.3113 16.849C57.1582 16.9974 56.9533 17.0804 56.74 17.0803C56.6352 17.0853 56.5304 17.0692 56.4319 17.033C56.3334 16.9967 56.2432 16.941 56.1667 16.8691C56.0902 16.7973 56.0289 16.7108 55.9865 16.6148C55.9441 16.5188 55.9215 16.4152 55.9199 16.3103C55.9327 16.1015 56.0247 15.9056 56.1771 15.7625C56.3296 15.6193 56.5309 15.5398 56.74 15.5402C56.9472 15.5317 57.1494 15.6051 57.3029 15.7445C57.4564 15.8839 57.5488 16.0782 57.5602 16.2852Z" fill="#1F2024"/>
<path d="M58.148 14.4571C58.0541 14.5698 57.3968 14.1566 56.5203 14.2192C55.6438 14.2818 55.0303 14.7701 54.9239 14.67C54.8175 14.5698 54.9615 14.4258 55.2307 14.2004C55.5877 13.9115 56.0247 13.7389 56.4827 13.7059C56.9401 13.6759 57.3955 13.7897 57.7849 14.0314C58.0854 14.2192 58.1919 14.407 58.148 14.4571Z" fill="#1F2024"/>
<path d="M61.0974 21.8007C61.5677 21.677 62.0511 21.6097 62.5373 21.6004C62.7689 21.6004 62.9818 21.5503 63.0256 21.3938C63.0524 21.163 63.0087 20.9295 62.9004 20.7239C62.7063 20.173 62.5122 19.5908 62.2743 18.9835C61.448 16.5106 60.8532 14.476 60.9534 14.4447C61.0536 14.4134 61.8048 16.3917 62.6375 18.8646L63.2071 20.6175C63.3388 20.8924 63.3698 21.2048 63.2948 21.5002C63.2584 21.5793 63.2046 21.6491 63.1374 21.7044C63.0702 21.7597 62.9913 21.7991 62.9066 21.8195C62.7816 21.8492 62.6532 21.8618 62.5248 21.8571C62.0485 21.8975 61.569 21.8785 61.0974 21.8007Z" fill="#1F2024"/>
<path d="M58.4117 10.657C58.3178 10.8949 57.4413 10.7447 56.4021 10.8323C55.3629 10.9199 54.524 11.1641 54.3862 10.945C54.3299 10.8386 54.4864 10.6194 54.8307 10.4003C55.292 10.1335 55.8078 9.97511 56.3393 9.93715C56.8708 9.89919 57.4039 9.98265 57.8984 10.1812C58.3053 10.3502 58.4555 10.5318 58.4117 10.657Z" fill="#1F2024"/>
<path d="M66.8886 12.6917C66.7258 12.8857 66.1248 12.6541 65.3986 12.6165C64.6724 12.579 64.0401 12.6979 63.9086 12.4851C63.8523 12.3786 63.9524 12.1846 64.2342 12.003C64.6054 11.7897 65.0317 11.6918 65.4588 11.7219C65.8859 11.752 66.2943 11.9087 66.6319 12.172C66.8823 12.4099 66.9574 12.5978 66.8886 12.6917Z" fill="#1F2024"/>
<path d="M58.4799 22.3388C58.6239 22.3388 58.5926 23.2904 59.3814 24.0041C60.1702 24.7178 61.1969 24.6302 61.2032 24.7804C61.2094 24.9307 60.9653 24.9557 60.5333 24.9495C59.9734 24.9388 59.4359 24.7278 59.0183 24.3547C58.613 24.0008 58.3634 23.5015 58.3234 22.9649C58.3046 22.5642 58.4173 22.3263 58.4799 22.3388Z" fill="#1F2024"/>
<path d="M66.3181 4.30266C66.4119 4.06605 66.4247 3.80504 66.3544 3.5604C66.2842 3.31575 66.1349 3.10125 65.9299 2.9504C65.6733 2.76259 65.1098 2.78763 64.8156 2.66869C64.3757 2.46525 63.9564 2.21996 63.5635 1.93621C62.2911 1.14577 60.8291 0.713214 59.3314 0.684122C59.0903 0.695931 58.8486 0.679122 58.6115 0.634042C58.3777 0.57142 58.1495 0.489762 57.9291 0.389885C56.9552 0.0132395 55.8977 -0.0930983 54.8684 0.0821312C53.839 0.257361 52.8762 0.707635 52.0818 1.38529C51.8675 1.60477 51.6279 1.7981 51.3682 1.96125C51.0627 2.10142 50.7439 2.21049 50.4166 2.2868C49.1144 2.70625 48.1503 3.79557 47.2863 4.84106C46.5413 5.71752 45.7525 6.83814 46.1532 7.91494C46.2319 8.05888 46.2728 8.22042 46.2721 8.38447C46.2145 8.57071 46.0981 8.73325 45.9403 8.84774C45.549 9.24592 45.302 9.76345 45.2385 10.3181C45.1749 10.8728 45.2986 11.4328 45.5898 11.9091C45.4706 11.9597 45.3631 12.034 45.2736 12.1276C45.1842 12.2211 45.1148 12.332 45.0697 12.4533C45.0246 12.5746 45.0047 12.7038 45.0112 12.8331C45.0178 12.9623 45.0506 13.0889 45.1077 13.205C45.2017 13.3278 45.2698 13.4684 45.308 13.6182C45.2961 13.8131 45.2189 13.9983 45.0889 14.1441C44.8579 14.5111 44.7487 14.9418 44.7768 15.3746C44.8049 15.8074 44.9689 16.2202 45.2454 16.5543L46.1782 18.2008L48.0939 21.5627C49.0956 21.3937 50.1724 19.7597 50.4604 17.2993C50.7797 14.5322 51.0363 11.3144 50.5355 8.57228C50.4784 8.41882 50.4784 8.24995 50.5355 8.09649C50.6482 7.89615 50.9299 7.87111 51.1616 7.85233C52.1632 7.76373 53.1155 7.37788 53.8963 6.7443C54.6771 6.11072 55.2509 5.2583 55.5439 4.2964C56.0836 4.73873 56.7407 5.014 57.4346 5.0885C58.1285 5.16301 58.829 5.0335 59.4504 4.71585C59.5381 4.66583 59.6332 4.62992 59.7321 4.60942C59.9763 4.60942 60.1641 4.80976 60.3206 4.99757C61.1113 5.96053 62.1989 6.63422 63.4132 6.91327C63.6841 6.95128 63.9479 7.02935 64.1958 7.1449C64.4579 7.31468 64.6905 7.52615 64.8845 7.77094C65.2378 8.16621 65.6395 8.51537 66.0802 8.81018C66.3588 9.03252 66.7067 9.14995 67.0631 9.14198C67.6891 9.07312 68.0084 8.40325 68.0647 7.80225C68.2213 6.29348 68.0898 5.11026 66.3181 4.30266Z" fill="#1F2024"/>
<path d="M45.7845 12.4099C45.8348 11.9371 45.7832 11.459 45.6333 11.0077C45.4833 10.5565 45.2385 10.1425 44.9153 9.7938C44.592 9.44506 44.1979 9.16957 43.7593 8.98587C43.3207 8.80217 42.8478 8.71451 42.3725 8.7288C42.09 8.71922 41.8087 8.77011 41.5474 8.87808C41.2861 8.98605 41.0509 9.1486 40.8575 9.35484C40.6716 9.56839 40.5728 9.84412 40.5809 10.1272C40.5891 10.4102 40.7035 10.6798 40.9014 10.8824C40.7728 10.794 40.6252 10.737 40.4706 10.7161C40.316 10.6952 40.1586 10.7109 40.0112 10.762C39.8638 10.8131 39.7304 10.8981 39.6219 11.0103C39.5134 11.1224 39.4328 11.2584 39.3865 11.4075C39.3403 11.5565 39.3297 11.7143 39.3557 11.8681C39.3816 12.022 39.4434 12.1676 39.536 12.2932C39.6286 12.4188 39.7494 12.5208 39.8887 12.5912C40.028 12.6615 40.1819 12.698 40.3379 12.6979C39.7119 12.8732 39.5115 13.7372 39.643 14.3945C39.6737 14.6399 39.7525 14.8769 39.875 15.0917C39.9974 15.3066 40.1611 15.4952 40.3567 15.6466C40.5577 15.7876 40.8054 15.8456 41.048 15.8082C41.2907 15.7709 41.5096 15.6412 41.6589 15.4463C41.6589 16.2664 42.6543 16.786 43.4556 16.617C44.2429 16.3694 44.9242 15.8645 45.3901 15.1833C45.4565 15.0896 45.5475 15.0159 45.653 14.9705C45.7819 14.9547 45.9123 14.9547 46.0412 14.9705C46.4105 14.9266 46.5796 14.4759 46.6109 14.1003C46.706 13.0171 46.4156 11.9351 45.7908 11.0452" fill="#1F2024"/>
<path d="M45.1581 10.2251C45.2509 10.5484 45.2911 10.8845 45.277 11.2205C45.3023 11.4024 45.2917 11.5874 45.2457 11.7652C45.1405 11.9344 45.0255 12.0975 44.9014 12.2535C44.7048 12.6127 44.6218 13.0231 44.6635 13.4304C44.6754 13.6509 44.7005 13.8704 44.7386 14.0878C44.7386 14.1942 44.7824 14.2881 44.7887 14.4259C44.7914 14.5012 44.7764 14.5762 44.7448 14.6447C44.7133 14.7132 44.6662 14.7733 44.6071 14.8203C44.3362 15.0209 44.0994 15.264 43.906 15.5402C43.5742 16.0348 43.4865 16.4104 43.4364 16.3979C43.4196 16.0511 43.5163 15.7082 43.7119 15.4213C43.8887 15.0932 44.1292 14.8037 44.4193 14.5698C44.4436 14.5524 44.4624 14.5285 44.4735 14.5007C44.4846 14.473 44.4875 14.4427 44.482 14.4133C44.4688 14.3143 44.45 14.216 44.4256 14.1191C44.3851 13.8871 44.3579 13.653 44.3442 13.4179C44.2965 12.945 44.4065 12.4695 44.6572 12.0657C44.7762 11.8716 44.9577 11.7464 45.0016 11.64C45.0424 11.4955 45.0593 11.3454 45.0516 11.1955C45.0385 10.8685 45.0744 10.5414 45.1581 10.2251Z" fill="#7560FF"/>
<path d="M44.8953 12.5976C45.0957 12.6184 45.2981 12.5883 45.4838 12.51C45.682 12.4069 45.8389 12.2389 45.9283 12.0342C46.0316 11.7563 46.0743 11.4596 46.0535 11.164V10.8572L46.2977 11.045C46.4265 11.1132 46.568 11.154 46.7133 11.1648C46.8587 11.1757 47.0047 11.1565 47.1422 11.1083C47.2798 11.0601 47.4059 10.984 47.5126 10.8847C47.6194 10.7855 47.7045 10.6653 47.7626 10.5317C47.9181 10.2142 47.9974 9.86475 47.9942 9.51121V9.3547H48.1507C49.0335 9.3547 49.8661 9.17941 50.1979 8.785C50.3307 8.63009 50.402 8.43182 50.3982 8.22782C50.3982 8.08383 50.3482 8.0087 50.3982 7.99618C50.4483 7.98366 50.4859 8.04627 50.536 8.20904C50.5617 8.3289 50.5616 8.45285 50.5356 8.57266C50.5097 8.69248 50.4586 8.80541 50.3857 8.90395C50.1598 9.19195 49.8413 9.39317 49.4842 9.47364C49.0624 9.60354 48.6234 9.66897 48.182 9.66772L48.3385 9.51121C48.348 9.91839 48.2601 10.3219 48.0819 10.6882C48.0034 10.8614 47.889 11.0159 47.7462 11.1414C47.6034 11.267 47.4356 11.3607 47.2538 11.4164C47.072 11.472 46.8804 11.4884 46.6918 11.4643C46.5032 11.4402 46.3219 11.3762 46.1599 11.2767L46.3916 11.1577C46.4035 11.4946 46.3348 11.8294 46.1912 12.1343C46.0679 12.3786 45.8582 12.5683 45.6027 12.6665C45.1144 12.8167 44.8703 12.6101 44.8953 12.5976Z" fill="#1F2024"/>
<path d="M47.2117 4.96606C47.175 4.82877 47.186 4.68306 47.243 4.55287C47.3748 4.1826 47.6469 3.87902 48.0006 3.70771C48.2471 3.58006 48.5264 3.52987 48.8019 3.56373C48.9273 3.59387 49.0551 3.61272 49.1838 3.62007C49.2652 3.62007 49.3403 3.53868 49.4342 3.41973C49.6517 3.14859 49.9464 2.94992 50.2794 2.85004C50.6065 2.71 50.949 2.60913 51.2998 2.54953C51.6463 2.51174 51.9966 2.56794 52.3138 2.71225C52.6311 2.85656 52.9036 3.08364 53.1028 3.36965L52.9213 3.31331C53.3004 3.16979 53.7087 3.12044 54.111 3.16951C54.5134 3.21858 54.8979 3.3646 55.2314 3.59503C55.4261 3.73506 55.5656 3.93883 55.6258 4.17098C55.6258 4.33376 55.6258 4.42141 55.5945 4.41515C55.5697 4.27604 55.5149 4.14402 55.4338 4.02832C55.3527 3.91261 55.2473 3.81602 55.125 3.74528C54.8104 3.56396 54.4588 3.45624 54.0967 3.43022C53.7345 3.4042 53.3712 3.46054 53.034 3.59503L52.9213 3.63885L52.8524 3.54494C52.6812 3.30985 52.4509 3.12412 52.1849 3.0065C51.9189 2.88888 51.6265 2.84355 51.3374 2.87507C51.0129 2.93109 50.6958 3.02349 50.392 3.15053C50.1085 3.22403 49.8548 3.38371 49.6658 3.60755C49.6142 3.68554 49.5469 3.75197 49.4682 3.80261C49.3895 3.85326 49.3012 3.88703 49.2088 3.90179C49.0566 3.89439 48.9056 3.87132 48.7581 3.83293C48.5337 3.79534 48.3032 3.8236 48.0945 3.91431C47.7752 4.04792 47.515 4.29252 47.362 4.60296C47.2556 4.82207 47.243 4.96606 47.2117 4.96606Z" fill="#1F2024"/>
<path d="M60.1141 0.709144C60.1141 0.709144 60.3519 0.6528 60.69 0.865655C60.7916 0.934334 60.8737 1.02802 60.9285 1.13767C60.9834 1.24733 61.009 1.36925 61.003 1.4917C60.9923 1.58511 60.9565 1.67387 60.8994 1.74853C60.8422 1.82318 60.7659 1.88094 60.6785 1.91563C60.5911 1.95033 60.496 1.96066 60.4032 1.94554C60.3104 1.93042 60.2235 1.89041 60.1516 1.82976L60.3645 1.59813C60.7027 1.86957 60.9274 2.25752 60.9946 2.68599C61.0618 3.11446 60.9665 3.55257 60.7276 3.91449C60.4458 4.32768 60.1391 4.43411 60.1015 4.40281C60.064 4.3715 60.3081 4.18995 60.5022 3.77676C60.6278 3.53209 60.6891 3.25949 60.6803 2.9846C60.6716 2.70971 60.593 2.44157 60.4521 2.20539C60.3663 2.06218 60.2586 1.93332 60.1328 1.8235L60.3519 1.58561C60.3823 1.60661 60.4183 1.61786 60.4552 1.61786C60.4921 1.61786 60.5282 1.60661 60.5585 1.58561C60.5962 1.57231 60.6296 1.54894 60.655 1.51805C60.6804 1.48715 60.6968 1.44989 60.7025 1.41032C60.7138 1.32612 60.7044 1.24044 60.6749 1.16077C60.6454 1.08109 60.5969 1.00986 60.5335 0.953301C60.3269 0.809311 60.0953 0.752967 60.1141 0.709144Z" fill="#1F2024"/>
<path d="M44.757 13.8498C44.757 13.8498 44.8885 14.0063 45.189 14.0939C45.2754 14.1185 45.3659 14.1257 45.4551 14.1149C45.5444 14.1042 45.6305 14.0758 45.7086 14.0313C45.8058 13.9751 45.8878 13.8962 45.9478 13.8013C46.0077 13.7065 46.0438 13.5985 46.053 13.4867V13.2362L46.2533 13.3928C46.4042 13.5017 46.5774 13.5756 46.7604 13.6092C46.9434 13.6428 47.1316 13.6351 47.3113 13.5868C47.5121 13.5235 47.6936 13.4105 47.8391 13.2584C47.9847 13.1063 48.0895 12.92 48.1439 12.7166C48.1637 12.5754 48.1637 12.4321 48.1439 12.2909C48.1409 12.2289 48.1517 12.1669 48.1755 12.1095C48.1993 12.0521 48.2356 12.0008 48.2817 11.9591C48.3655 11.9012 48.4622 11.8647 48.5634 11.8527C48.8278 11.7981 49.0801 11.6963 49.3084 11.5522C49.7048 11.3083 50.0306 10.9652 50.2537 10.5568C50.4408 10.1605 50.5674 9.73848 50.6293 9.30469C50.6918 9.53009 50.7091 9.76562 50.6801 9.99772C50.651 10.2298 50.5764 10.4539 50.4603 10.6569C50.258 11.107 49.9406 11.4957 49.54 11.7838C49.2814 11.9514 48.9953 12.0722 48.6949 12.1407C48.6444 12.1456 48.5955 12.1605 48.5509 12.1845C48.5509 12.1845 48.5509 12.1845 48.5509 12.2659C48.5602 12.4361 48.5454 12.6068 48.5071 12.773C48.4501 13.0164 48.332 13.2414 48.1639 13.4265C47.9958 13.6116 47.7833 13.7509 47.5465 13.8311C47.3096 13.9113 47.0562 13.9298 46.8103 13.8849C46.5643 13.8399 46.3338 13.7331 46.1406 13.5743L46.3535 13.4804C46.3365 13.6335 46.2804 13.7796 46.1904 13.9046C46.1005 14.0296 45.9798 14.1293 45.8401 14.1941C45.736 14.2419 45.6228 14.2666 45.5083 14.2666C45.3938 14.2666 45.2806 14.2419 45.1765 14.1941C44.7946 14.0814 44.7383 13.8498 44.757 13.8498Z" fill="#1F2024"/>
<path d="M39.5236 12.3598C39.5236 12.3598 39.4798 12.2659 39.5862 12.147C39.627 12.1053 39.6757 12.0722 39.7294 12.0496C39.7832 12.0271 39.8409 12.0154 39.8992 12.0154C39.9575 12.0154 40.0152 12.0271 40.069 12.0496C40.1227 12.0722 40.1714 12.1053 40.2122 12.147H40.0369C40.1327 11.9709 40.2661 11.8181 40.4276 11.6994C40.589 11.5807 40.7747 11.4991 40.9713 11.4602C41.1679 11.4214 41.3707 11.4263 41.5652 11.4747C41.7597 11.523 41.9411 11.6136 42.0966 11.74C42.2123 11.8312 42.3118 11.9413 42.3909 12.0656L42.1592 12.0217C42.4688 11.8053 42.8513 11.7199 43.2235 11.7839C43.5154 11.8393 43.78 11.9915 43.9748 12.2158C44.294 12.604 44.2627 12.9295 44.2314 12.9233C44.2001 12.917 44.125 12.6541 43.8182 12.3661C43.6463 12.2037 43.4269 12.1006 43.1922 12.0718C42.8994 12.031 42.6024 12.1075 42.3658 12.2847L42.2281 12.3849L42.1342 12.2409C42.0709 12.1493 41.995 12.0671 41.9088 11.9967C41.7725 11.8855 41.612 11.8078 41.4403 11.7697C41.2685 11.7317 41.0902 11.7344 40.9197 11.7776C40.6437 11.8554 40.4028 12.0256 40.2373 12.2596L40.1496 12.3911L40.062 12.2784C40.0067 12.2348 39.9383 12.211 39.8679 12.211C39.7975 12.211 39.7291 12.2348 39.6738 12.2784C39.5236 12.2972 39.5236 12.3661 39.5236 12.3598Z" fill="#1F2024"/>
<path d="M41.54 9.20467C41.54 9.20467 41.54 9.11702 41.6214 9.00434C41.6969 8.93781 41.7855 8.88784 41.8814 8.85765C41.9774 8.82746 42.0786 8.81771 42.1786 8.82905C42.793 8.93218 43.3491 9.25473 43.7437 9.73681C44.1532 10.1857 44.4381 10.7339 44.5701 11.327C44.664 11.784 44.6202 12.072 44.5701 12.072C44.3543 11.3012 43.986 10.5817 43.487 9.95593C43.1367 9.53104 42.6683 9.21951 42.141 9.06068C42.0364 9.04028 41.9286 9.04258 41.8249 9.06742C41.7212 9.09226 41.6241 9.13906 41.54 9.20467Z" fill="#1F2024"/>
<path d="M66.5937 4.48418C66.5937 4.48418 66.7564 4.53426 66.7564 4.77842C66.7495 4.92047 66.6891 5.05466 66.5874 5.15405C66.5477 5.19501 66.4992 5.22639 66.4456 5.24582C66.392 5.26525 66.3346 5.27221 66.2779 5.26618C66.2212 5.26015 66.1666 5.24127 66.1183 5.211C66.0699 5.18072 66.0291 5.13984 65.9989 5.09144L66.2681 5.04136C66.2568 5.24822 66.1832 5.44682 66.0569 5.61107C65.9307 5.77532 65.7577 5.89753 65.5607 5.96164C65.3788 6.01468 65.1855 6.01468 65.0035 5.96164L65.1976 5.81139C65.1938 6.05067 65.1427 6.28683 65.0473 6.5063C64.9628 6.69163 64.8169 6.84203 64.6341 6.93201C64.3086 7.076 64.102 6.93201 64.127 6.90071C64.1521 6.86941 64.3211 6.90071 64.534 6.75672C64.6646 6.63684 64.7642 6.48705 64.8241 6.32021C64.8841 6.15338 64.9027 5.97448 64.8783 5.79888V5.61106L65.0724 5.64862C65.1996 5.68233 65.3333 5.68233 65.4605 5.64862C65.5974 5.60289 65.7189 5.52022 65.8117 5.40974C65.9045 5.29926 65.965 5.16527 65.9864 5.02258L66.0866 4.18994L66.2556 4.9725C66.2556 5.01006 66.3683 5.04136 66.4372 4.9725C66.511 4.91769 66.5658 4.84103 66.5937 4.75338C66.6375 4.59687 66.5686 4.50922 66.5937 4.48418Z" fill="#1F2024"/>
<path d="M49.015 33.4448L47.5312 33.714L53.3848 39.1356L53.6289 41.3267C54.4427 42.1799 55.1762 43.1062 55.8201 44.0938L56.8593 45.4398L57.9549 42.3973C58.2596 41.5293 58.6431 40.6911 59.1005 39.8931L60.6844 37.1197L62.0304 35.3856L61.6235 34.6906L49.015 33.4448Z" fill="#AA6550"/>
<path d="M44.7635 15.9221C44.6348 16.6147 44.4484 17.2952 44.2063 17.9568C44.1228 18.3339 43.899 18.6651 43.5803 18.8833C43.1779 19.1021 42.7254 19.212 42.2675 19.2021C41.8096 19.1922 41.3622 19.0629 40.9697 18.827C40.746 18.6795 40.5625 18.4787 40.4357 18.2426C40.3089 18.0065 40.2428 17.7426 40.2435 17.4747C40.2363 17.1566 40.3504 16.8477 40.5628 16.6108L40.7005 16.88C40.2484 16.9178 39.7957 16.8139 39.4053 16.5828C39.0149 16.3517 38.7061 16.0049 38.5218 15.5903C38.3912 15.2568 38.3364 14.8984 38.3613 14.5411C38.3862 14.1838 38.4902 13.8365 38.6658 13.5244C38.7763 13.3149 38.9309 13.132 39.1189 12.9883C39.307 12.8445 39.5241 12.7433 39.7551 12.6917C40.0932 12.6416 40.2623 12.7606 40.2497 12.7668C40.0924 12.7664 39.9354 12.7789 39.7802 12.8044C39.5784 12.8733 39.3924 12.9819 39.2333 13.1238C39.0742 13.2658 38.9451 13.4381 38.8536 13.6308C38.7134 13.9156 38.6354 14.227 38.6246 14.5443C38.6138 14.8617 38.6705 15.1776 38.791 15.4714C38.9537 15.8239 39.2217 16.1173 39.5581 16.3112C39.8944 16.5052 40.2826 16.5902 40.6692 16.5544L41.0824 16.5168L40.8069 16.8299C40.6586 17.0049 40.5766 17.2265 40.5753 17.4559C40.5762 17.6712 40.6297 17.883 40.7312 18.0728C40.8327 18.2627 40.979 18.4249 41.1575 18.5452C41.5107 18.7756 41.9254 18.8935 42.347 18.8833C42.73 18.8994 43.1104 18.8129 43.4488 18.6329C43.7248 18.454 43.9253 18.18 44.0123 17.8629C44.2138 17.1981 44.4649 16.5493 44.7635 15.9221Z" fill="#1F2024"/>
<path d="M56.1266 8.89787C56.1266 8.89787 55.9889 8.89787 55.7823 8.80396C55.4928 8.63663 55.2712 8.37297 55.1563 8.05897C55.0552 7.81945 55.0233 7.55636 55.0642 7.29961C55.1052 7.04286 55.2173 6.80275 55.3879 6.60655C55.5902 6.35141 55.8714 6.17059 56.1875 6.09242C56.5036 6.01425 56.8367 6.04315 57.1346 6.17458C57.2276 6.22519 57.3048 6.30048 57.3579 6.39215C57.4109 6.48382 57.4376 6.58833 57.4351 6.6942C57.4248 6.80577 57.375 6.91001 57.2947 6.98808C57.2143 7.06615 57.1087 7.11291 56.9968 7.11991C56.8355 7.1188 56.676 7.08557 56.5277 7.02215C56.3794 6.95873 56.2452 6.8664 56.1329 6.75054C55.9433 6.57156 55.8089 6.34201 55.7457 6.08905C55.6824 5.83609 55.693 5.57031 55.776 5.32316C55.8826 5.0028 56.1062 4.7345 56.4021 4.57191C56.6149 4.46548 56.7527 4.47174 56.7527 4.48426C56.7527 4.49678 56.64 4.55312 56.471 4.67833C56.23 4.85335 56.0557 5.10498 55.9764 5.39202C55.9232 5.59576 55.9278 5.81029 55.9897 6.01155C56.0517 6.21281 56.1684 6.39283 56.327 6.53142C56.4085 6.61527 56.5057 6.6822 56.6132 6.7284C56.7206 6.77459 56.8361 6.79913 56.953 6.80062C57.0532 6.80062 57.0908 6.75054 57.097 6.67541C57.0962 6.62981 57.0829 6.5853 57.0586 6.54668C57.0344 6.50807 57 6.47681 56.9593 6.4563C56.7244 6.36702 56.4676 6.35279 56.2243 6.41558C55.981 6.47837 55.7631 6.61509 55.6008 6.80689C55.4575 6.96267 55.3591 7.15439 55.3161 7.36164C55.2731 7.56889 55.2871 7.78392 55.3566 7.98385C55.4504 8.26716 55.627 8.51579 55.8637 8.69754C56.0202 8.82275 56.1392 8.87283 56.1266 8.89787Z" fill="#1F2024"/>
<path d="M48.7072 17.8252C48.6071 17.7814 44.8132 16.5105 44.7882 20.4358C44.7632 24.3611 48.7072 23.566 48.7135 23.4659C48.7198 23.3657 48.7072 17.8252 48.7072 17.8252Z" fill="#AA6550"/>
<path d="M47.5244 21.9699C47.5244 21.9699 47.4555 22.0137 47.3366 22.07C47.1736 22.1339 46.9925 22.1339 46.8295 22.07C46.5776 21.9073 46.3731 21.6809 46.2368 21.4137C46.1005 21.1466 46.0371 20.8482 46.0532 20.5487C46.0455 20.2102 46.114 19.8743 46.2535 19.5658C46.2915 19.4436 46.3586 19.3324 46.4491 19.2418C46.5396 19.1513 46.6508 19.0842 46.7731 19.0462C46.8513 19.0279 46.9334 19.0364 47.0061 19.0705C47.0788 19.1046 47.1379 19.1622 47.1738 19.234C47.2239 19.3467 47.1738 19.4281 47.2176 19.4344C47.2615 19.4406 47.3053 19.3655 47.274 19.2027C47.2527 19.1068 47.1998 19.0208 47.1237 18.9586C47.0698 18.9175 47.0083 18.8875 46.9428 18.8703C46.8772 18.8531 46.8089 18.8491 46.7418 18.8584C46.5785 18.8912 46.4266 18.9662 46.3013 19.0761C46.1761 19.1859 46.0819 19.3268 46.0281 19.4845C45.8588 19.8131 45.7748 20.1791 45.784 20.5487C45.7614 20.8979 45.8426 21.246 46.0175 21.549C46.1925 21.852 46.4532 22.0965 46.7669 22.2516C46.872 22.2838 46.983 22.2915 47.0915 22.2741C47.2 22.2567 47.3031 22.2148 47.3929 22.1514C47.5181 22.0638 47.5369 21.9761 47.5244 21.9699Z" fill="#723C31"/>
</svg>
