<svg width="30" height="30" viewBox="0 0 30 30" fill="none" xmlns="http://www.w3.org/2000/svg">
<g id="Link - Icon of twitter &#226;&#134;&#146; SVG">
<g id="twitter6_layer">
<path id="Vector" d="M22.1497 11.6434C22.1612 11.8033 22.1612 11.9632 22.1612 12.1231C22.1612 17 18.4492 22.6193 11.665 22.6193C9.57486 22.6193 7.63325 22.0139 6 20.9632C6.29696 20.9974 6.58247 21.0089 6.89086 21.0089C8.61545 21.0089 10.203 20.4264 11.4708 19.4327C9.84898 19.3985 8.48984 18.3363 8.02155 16.8744C8.25 16.9086 8.47841 16.9314 8.71828 16.9314C9.04949 16.9314 9.38073 16.8857 9.68909 16.8058C7.99874 16.4632 6.73093 14.9784 6.73093 13.1853V13.1396C7.22203 13.4137 7.79314 13.585 8.39843 13.6078C7.40477 12.9454 6.75379 11.8147 6.75379 10.5355C6.75379 9.85024 6.93649 9.22207 7.25631 8.67384C9.0723 10.9124 11.802 12.3743 14.8629 12.5342C14.8058 12.2601 14.7715 11.9746 14.7715 11.6891C14.7715 9.65607 16.4162 8 18.4606 8C19.5228 8 20.4822 8.44543 21.156 9.16497C21.9898 9.00508 22.7893 8.69669 23.4974 8.27411C23.2233 9.13073 22.6408 9.85027 21.8756 10.3071C22.618 10.2272 23.3375 10.0216 23.9999 9.73605C23.4975 10.467 22.8693 11.118 22.1497 11.6434Z" fill="#0B0C0D"/>
</g>
</g>
</svg>
