<svg width="471" height="116" viewBox="0 0 471 116" fill="none" xmlns="http://www.w3.org/2000/svg">
<path d="M428.965 36.3624L433.783 38.0383C440.905 40.7615 443.838 36.4325 445.305 34.2677L445.305 34.2675C438.601 53.7498 423.937 118.272 304.32 113.034C415.767 126.861 442.791 69.8802 452.218 36.3624C452.553 42.5632 456.198 44.5323 458.083 44.9513L462.692 46.2083C470.569 48.3869 471.421 42.647 470.862 39.5047L462.273 4.72996C460.807 -1.76425 455.57 -0.507284 452.846 2.21612L427.289 27.7735C423.937 31.1252 426.241 35.5244 428.965 36.3624Z" fill="#4124FF"/>
<path d="M0 15.2181V73.2634C11.9549 72.7817 11.0173 62.9067 11.0173 56.5844L10.4537 3.57184C0.580763 2.41021 0.00011265 3.86212 0 15.2181Z" fill="#7863FD"/>
<path d="M58.0761 59.8747V1.8295C46.1212 2.3112 47.0588 12.1861 47.0588 18.5085V70.8051C47.0588 72.4607 48.4547 73.8132 50.0842 73.5201C59.5271 71.8219 58.0761 64.4354 58.0761 59.8747Z" fill="#7863FD"/>
<path d="M8.71145 16.6397C4.76226 10.3674 2.32305 8.21793 0 10.5412C0 0.958395 8.71145 -0.203111 12.7768 5.89557L47.0418 55.5508C50.236 59.9065 55.1725 67.4558 58.0763 65.1333C57.7859 75.5871 48.2033 74.7159 46.1707 71.2314L8.71145 16.6397Z" fill="#4124FF"/>
<path d="M111.602 40.9446H65.1406L65.5619 48.8778C65.5619 48.8778 88.973 48.7849 99.9864 48.7849C111 48.7849 111.441 44.6228 111.602 40.9446Z" fill="#7863FD"/>
<path d="M89.0603 26.7157C103.626 27.3512 106.665 42.8634 97.9534 48.7846C110.23 49.0636 112.587 45.0532 112.753 39.8444C112.767 39.4174 112.732 38.9834 112.662 38.562C110.137 23.3696 99.2618 17.9525 88.9516 18.0043C70.0768 18.0991 64.6002 35.7992 64.5595 44.7808C63.6885 82.7593 108.117 78.9843 112.472 59.2384C103.18 57.4961 103.168 58.9477 98.5343 62.7229C96.3057 64.5388 74.1421 71.4344 74.7229 44.7808C75.0849 28.1658 86.4468 26.7157 89.0603 26.7157Z" fill="#4124FF"/>
<path d="M176.804 71.192L163.823 25.0214C158.839 24.5375 154.054 20.9041 153.207 22.0128L166.606 67.9775C167.633 72.0429 176.925 78.7217 180.7 67.9775L176.804 71.192Z" fill="#7863FD"/>
<path d="M119.145 20.0972C119.145 20.0972 129.515 55.6183 133.083 67.7135C134.266 71.7245 137.9 73.1248 140.677 73.5991C142.455 73.9026 143.713 72.2276 143.266 70.4807C141.145 62.2017 135.5 40.2632 131.341 25.0562C129.405 17.9804 119.145 20.0972 119.145 20.0972Z" fill="#7863FD"/>
<path d="M139.562 73.6947C135.933 73.2689 134.296 71.8213 133.082 67.976C135.87 67.7437 137.728 64.0074 138.309 62.1682L149.343 27.3225C151.957 18.6114 162.12 16.8704 164.153 26.1626C164.153 26.1626 160.43 23.5488 158.883 27.9042C155.887 36.3405 149.963 57.6666 147.136 67.9976C146.194 71.4399 143.107 74.1106 139.562 73.6947Z" fill="#4124FF"/>
<path d="M194.934 20.0153C194.934 20.0153 184.132 55.859 180.705 67.995C177.976 77.6609 168.218 73.5125 166.767 67.9951C173.354 69.8953 176.64 44.4568 182.738 24.7284C184.904 17.7199 194.934 20.0153 194.934 20.0153Z" fill="#4124FF"/>
<path d="M248.383 40.9445H201.922L202.343 48.8777C202.343 48.8777 225.754 48.7848 236.768 48.7848C247.781 48.7848 248.222 44.6227 248.383 40.9445Z" fill="#7863FD"/>
<path d="M225.842 26.7156C240.408 27.351 243.446 42.8633 234.735 48.7845C247.011 49.0635 249.368 45.0531 249.534 39.8443C249.548 39.4172 249.514 38.9833 249.444 38.5618C246.918 23.3695 236.043 17.9524 225.733 18.0042C206.858 18.099 201.381 35.7991 201.341 44.7807C200.47 82.7592 244.898 78.9842 249.254 59.2382C239.962 57.496 239.949 58.9476 235.316 62.7228C233.087 64.5386 210.923 71.4342 211.504 44.7807C211.866 28.1657 223.228 26.7156 225.842 26.7156Z" fill="#4124FF"/>
<path fill-rule="evenodd" clip-rule="evenodd" d="M255.93 1.1615V72.8857C259.027 72.4018 264.757 70.04 266.383 64.4647C269.578 76.9511 304.423 82.1779 305.295 46.1706C305.295 35.4265 300.358 18.294 282.064 18.294C277.418 18.294 268.939 21.3721 266.383 27.8766V11.9056C266.48 8.42104 264.525 1.3938 255.93 1.1615ZM282.356 65.9166C290.214 65.9166 296.585 57.4661 296.585 47.0418C296.585 36.6175 290.214 28.167 282.356 28.167C274.498 28.167 268.127 36.6175 268.127 47.0418C268.127 57.4661 274.498 65.9166 282.356 65.9166Z" fill="#4124FF"/>
<path d="M361.917 46.7259C360.465 77.7198 333.461 74.2743 331.727 73.1267L328.523 62.6197C343.332 71.3312 351.463 57.6833 351.262 46.7258C352.045 39.7188 347.688 23.7089 332.879 27.4839C324.163 25.4505 330.265 22.2556 330.265 19.0625C354.062 14.9441 362.547 33.267 361.917 46.7259Z" fill="#7863FD"/>
<path d="M311.684 44.6556C313.136 16.7398 337.818 17.9012 341.012 18.4819C340.916 21.8581 338.979 26.3224 334.624 27.1935C326.203 28.0645 322.37 37.2219 322.137 44.6556C321.912 51.858 324.304 61.4223 331.584 64.1234C332.052 64.2971 332.512 64.5118 332.883 64.8453C335.985 67.629 335.214 70.7427 335.214 73.7599C316.91 72.2026 311.684 58.2643 311.684 44.6556Z" fill="#4124FF"/>
<path d="M392.968 25.102L368.34 72.2177C374.38 75.9183 381.849 70.5569 383.494 66.9591L402.195 31.2544C404.638 26.6278 404.638 24.5951 407.251 30.1124L413.585 25.7195L405.745 18.0099C399.066 16.1596 394.71 21.4021 392.968 25.102Z" fill="#7863FD"/>
<path d="M402.024 27.499C399.552 25.3357 393.216 28.1767 390.699 29.5318C398.54 10.0761 410.626 19.1463 412.949 23.7921L435.796 69.0162C436.725 70.8557 435.496 73.051 433.442 73.2196L425.835 73.8441L406.145 34.464C405.335 32.8429 404.615 31.176 403.768 29.5735C403.457 28.9856 402.975 28.3306 402.024 27.499Z" fill="#4124FF"/>
</svg>
