<svg width="149" height="36" viewBox="0 0 149 36" fill="none" xmlns="http://www.w3.org/2000/svg">
<path d="M0 4.61781V24.4614C0 24.4614 4.16748 24.8141 4.16748 21.448V3.43168L2.88518 1.95703C2.88518 1.95703 0 2.91876 0 4.61781Z" fill="#7863FD"/>
<path d="M11.986 21.6084C11.986 21.6084 13.8774 23.3716 13.8453 20.4223V4.68202C13.8453 4.64996 14.0697 1.60449 18.0448 1.60449V21.8969L15.352 24.1089L11.986 21.6084Z" fill="#7863FD"/>
<path d="M36.8035 13.9141C36.8035 13.9141 36.8035 16.8634 32.5078 16.8634H22.3135V13.9141H36.8035Z" fill="#7863FD"/>
<path d="M31.3866 16.8638C31.9587 16.2183 32.335 15.4231 32.4713 14.5714C32.6075 13.7198 32.4982 12.8469 32.156 12.0551C32.156 12.0551 31.6751 10.324 29.399 10.292C28.7941 10.2473 28.1908 10.3975 27.6774 10.7206C27.164 11.0436 26.7675 11.5225 26.5459 12.0872C25.7124 14.1068 26.1612 17.537 26.1612 17.537C26.1612 17.537 26.3536 21.2236 29.4311 21.1595C29.4311 21.1595 30.6813 21.2556 31.5148 20.4863C33.1177 18.8513 36.7081 19.1719 36.7081 19.1719C36.7081 19.1719 35.7464 24.6217 29.5914 24.7499C29.5914 24.7499 21.6732 25.5514 21.6411 15.87C21.6411 15.87 21.2564 7.18239 29.1746 6.82976C29.1746 6.82976 35.6823 6.12449 36.7081 12.8566C36.8684 13.8183 36.9326 14.235 36.7402 14.748C36.3235 15.8572 35.7144 16.992 31.3866 16.8638Z" fill="#4124FF"/>
<path d="M18.0484 21.5121C16.2532 23.4996 15.1953 21.0953 15.1953 21.0953L7.21294 4.20098C7.08471 3.94452 6.98854 3.72012 6.86031 3.46366C5.9627 1.60432 4.87275 1.57227 3.55839 1.57227C2.05168 1.57227 0 2.46988 0 4.55362C0.192345 3.91247 2.08374 2.3737 3.1737 4.64979L11.0598 21.4159C11.9895 23.6599 13.4962 24.5255 14.8426 24.4613C17.8881 24.4613 18.0484 21.5121 18.0484 21.5121Z" fill="#4124FF"/>
<path d="M62.2326 7.20117L58.6742 20.7615L58.2574 22.5567L56.334 23.8711L55.2761 21.2103L58.0972 9.12462C58.2478 8.36807 58.889 7.20117 62.2326 7.20117Z" fill="#7863FD"/>
<path d="M48.3119 8.84875C48.3119 8.84875 49.3056 8.04731 49.7224 9.32961L52.5435 21.832C52.9281 23.4029 55.9095 26.4804 58.2497 22.5694C58.2497 22.5694 56.5506 23.5632 55.9415 21.4474C55.7171 20.6139 53.1846 9.16932 53.1846 9.16932C52.5755 6.34826 48.7703 6.86118 48.3119 8.84875Z" fill="#4124FF"/>
<path d="M51.5478 9.23376C51.575 9.08095 51.6388 8.93699 51.7337 8.81418C51.8286 8.69137 51.9518 8.59335 52.0928 8.52849C52.26 8.465 52.4415 8.44936 52.6171 8.48334C52.7926 8.51732 52.9552 8.59956 53.0866 8.72084C52.8812 8.26328 52.5481 7.87472 52.1273 7.60178C51.7065 7.32884 51.2159 7.18311 50.7143 7.18207C49.6564 7.15002 48.5665 7.66294 48.31 8.94524L45.2966 21.9606C44.8799 22.4094 46.2904 25.0381 48.278 22.3453L51.5478 9.23376Z" fill="#7863FD"/>
<path d="M39.079 7.20119L42.3488 21.3386C43.1503 24.7687 46.7728 25.7625 48.2154 22.3324C48.2154 22.3324 46.6125 23.1017 45.9713 20.9218L43.2144 9.09259C43.2144 9.09259 42.8618 7.1499 39.079 7.20119Z" fill="#4124FF"/>
<path fill-rule="evenodd" clip-rule="evenodd" d="M82.606 24.4609L82.6381 0.193359C87.0557 0.223007 87.0587 2.30912 87.0595 2.90149C87.0596 2.94964 87.0596 2.98792 87.062 3.01442V9.0733C88.7932 6.25223 92.5759 6.89338 92.5759 6.89338C98.9554 7.75894 98.3463 15.8054 98.3463 15.8054C97.9937 25.3585 91.1975 24.7815 91.1975 24.7815C87.9597 24.8135 87.062 22.7939 87.062 22.7939C86.9338 24.4609 82.606 24.4609 82.606 24.4609ZM90.3627 21.0946C92.6708 21.0946 93.7608 18.7865 93.8249 15.8372C93.889 13.0482 93.0555 10.5798 90.3627 10.5798C87.3813 10.5798 86.8043 12.952 86.8684 15.8372C86.9325 18.9147 87.5095 21.0946 90.3627 21.0946Z" fill="#4124FF"/>
<path d="M109.287 6.99015C109.063 6.92603 116.628 6.50929 116.628 16.0945C116.628 16.3509 116.725 24.6218 108.742 24.8141L107.235 20.9352C107.235 20.9993 111.98 22.8586 112.108 15.9983C112.076 15.5175 112.429 9.77916 107.877 10.5485L109.287 6.99015Z" fill="#7863FD"/>
<path d="M110.726 7.08602C110.726 7.08602 111.143 9.84297 108.579 10.4521C108.418 10.4841 105.052 10.0674 105.052 15.9339C105.116 15.9339 104.764 20.6143 108.001 21.1593C108.001 21.1593 110.149 22.4736 109.668 24.7497C109.668 24.7497 100.628 26.4167 100.532 15.7416C100.532 11.6061 103.033 5.59855 110.726 7.08602Z" fill="#4124FF"/>
<path d="M119.189 24.4294L124.51 9.04177C124.51 9.04177 126.402 3.94462 130.922 9.04177L128.133 9.20205L123.741 22.3136C123.741 22.3136 123.228 24.4935 119.189 24.4294Z" fill="#7863FD"/>
<path d="M79.9539 13.7539C79.9539 13.7539 79.9539 16.7032 75.6582 16.7032H65.4639V13.7539H79.9539Z" fill="#7863FD"/>
<path d="M74.5323 16.7026C75.1045 16.0572 75.4807 15.262 75.617 14.4103C75.7533 13.5586 75.6439 12.6857 75.3017 11.894C75.3017 11.894 74.8208 10.1629 72.5448 10.1308C71.9398 10.0862 71.3365 10.2364 70.8231 10.5594C70.3097 10.8825 69.9132 11.3614 69.6916 11.9261C68.8581 13.9457 69.3069 17.3758 69.3069 17.3758C69.3069 17.3758 69.4993 21.0625 72.5768 20.9983C72.5768 20.9983 73.8271 21.0945 74.6605 20.3251C76.2634 18.6902 79.8539 19.0108 79.8539 19.0108C79.8539 19.0108 78.8921 24.4606 72.7371 24.5888C72.7371 24.5888 64.8189 25.3902 64.7868 15.7088C64.7868 15.7088 64.4021 7.02126 72.3203 6.66862C72.3203 6.66862 78.828 5.96336 79.8539 12.6954C80.0142 13.6572 80.0783 14.0739 79.8859 14.5868C79.4692 15.7088 78.8601 16.818 74.5323 16.7026Z" fill="#4124FF"/>
<path d="M124.22 9.87509C124.54 9.266 126.913 7.1502 127.522 9.10571C128.163 11.1253 131.914 22.6661 131.914 22.6661C131.914 22.6661 132.427 24.7498 135.119 24.3972L136.113 23.4354L131.144 9.61864C130.183 6.44494 125.63 4.95747 124.22 9.87509Z" fill="#4124FF"/>
<path d="M139.961 10.6122C139.961 10.6122 135.89 12.1189 134.832 11.8945C133.774 11.6701 132.972 10.2596 134.383 8.84907C135.793 7.43854 142.59 0.706461 142.59 0.706461C142.59 0.706461 144.193 -0.704072 145.122 1.09115L147.847 11.7984C147.847 11.7984 148.873 15.3888 146.084 15.1644C146.084 15.1644 144.994 15.0682 142.269 11.2534C142.269 11.2534 137.738 32.139 114.341 35.8672C113.783 35.9993 113.291 35.7166 114.341 35.2396C118.66 33.9278 135.353 29.1576 139.961 10.6122Z" fill="#4124FF"/>
</svg>
