<svg width="185" height="105" viewBox="0 0 185 105" fill="none" xmlns="http://www.w3.org/2000/svg">
<g clip-path="url(#clip0_253_1097)">
<path d="M95.4258 58.0923C95.6066 58.9548 95.7805 59.7059 95.9822 60.4919C96.1839 61.2779 96.3995 62.0151 96.6291 62.8081C97.0812 64.3313 97.6028 65.8476 98.1801 67.3847C99.334 70.5777 100.913 73.6004 102.875 76.3712C103.453 77.145 104.095 77.8686 104.795 78.5343C105.58 79.2869 106.473 79.9176 107.445 80.4053C109.309 81.312 111.379 81.7126 113.447 81.5669C115.258 81.4418 117.036 81.0237 118.713 80.3288C119.502 80.0064 120.273 79.6395 121.022 79.2299C121.396 79.0181 121.758 78.7859 122.107 78.5343C122.455 78.277 122.802 78.0613 123.192 77.7762L121.335 74.5002L120.361 74.7575L119.339 75.0009C118.643 75.154 117.947 75.2861 117.252 75.3765C115.997 75.5689 114.723 75.5946 113.461 75.453C112.451 75.3504 111.481 75.0018 110.637 74.4376C110.273 74.1763 109.938 73.878 109.636 73.5473C109.266 73.1068 108.927 72.6421 108.62 72.1562C107.915 71.0477 107.298 69.8848 106.777 68.6785C106.207 67.4195 105.706 66.091 105.233 64.7278C104.76 63.3645 104.336 61.9456 103.911 60.5545L103.313 58.4679C103.125 57.7723 102.917 57.0351 102.771 56.4299L95.4258 58.0923Z" fill="#FF8B7B"/>
<path d="M94.7929 53.8782C97.9506 49.8649 102.736 51.3325 105.428 57.7176C106.915 61.1138 108.098 64.6355 108.961 68.2412L97.735 72.1849C94.7859 66.1546 91.5516 57.9889 94.7929 53.8782Z" fill="#407BFF"/>
<path opacity="0.1" d="M94.7929 53.8782C97.9506 49.8649 102.736 51.3325 105.428 57.7176C106.915 61.1138 108.098 64.6355 108.961 68.2412L97.735 72.1849C94.7859 66.1546 91.5516 57.9889 94.7929 53.8782Z" fill="black"/>
<path opacity="0.3" d="M99.4785 60.591C98.5604 59.965 96.6615 63.6166 95.7852 67.915C96.4042 69.4174 97.065 70.8572 97.7257 72.1926L104.479 69.8208C103.374 65.7797 101.558 61.982 99.4785 60.591Z" fill="black"/>
<path d="M121.905 72.8534L124.36 71.511L125.223 76.9919C125.223 76.9919 121.119 79.468 119.943 77.4231L120.069 76.032C120.134 75.403 120.332 74.7949 120.648 74.2473C120.965 73.6997 121.393 73.2247 121.905 72.8534Z" fill="#FF8B7B"/>
<path d="M127.442 71.2385L129.591 75.6483L125.202 76.9976L124.34 71.5098L127.442 71.2385Z" fill="#FF8B7B"/>
<path d="M94.7314 50.2889L89.0001 49.4612L81.8429 50.0872C80.7566 50.1819 79.7313 50.6307 78.9247 51.3645C78.118 52.0983 77.5745 53.0766 77.3776 54.1491C76.5752 59.3751 76.0989 64.6459 75.9517 69.931C75.7013 75.8779 76.3621 84.6557 77.3428 92.5849L101.256 89.6914C101.485 68.8251 103.064 62.3635 103.259 56.8339C103.298 55.7474 102.978 54.6782 102.35 53.791C101.721 52.9037 100.819 52.2475 99.781 51.9234L94.7314 50.2889Z" fill="#407BFF"/>
<path d="M124.319 107.963C124.128 109.856 123.784 111.731 123.29 113.569C121.947 118.757 119.652 124.044 117.726 129.197C113.997 139.38 110.728 148.228 110.728 148.228L103.773 145.821C103.773 145.821 110.033 116.358 114.255 113.346H88.3667C87.8828 113.346 87.3994 113.314 86.9199 113.249C91.3784 112.671 98.3268 109.924 104.775 107.177C110.471 104.742 115.799 102.308 118.685 101.39C122.219 102.899 124.591 104.993 124.319 107.963Z" fill="#263238"/>
<path opacity="0.1" d="M124.319 107.963C124.128 109.856 123.784 111.731 123.29 113.569C121.947 118.757 119.652 124.044 117.726 129.197C113.997 139.38 110.728 148.228 110.728 148.228L103.773 145.821C103.773 145.821 110.033 116.358 114.255 113.346H88.3667C87.8828 113.346 87.3994 113.314 86.9199 113.249C91.3784 112.671 98.3268 109.924 104.775 107.177C110.471 104.742 115.799 102.308 118.685 101.39C122.219 102.899 124.591 104.993 124.319 107.963Z" fill="black"/>
<path opacity="0.6" d="M118.691 101.417C115.797 102.356 110.469 104.77 104.78 107.204C98.3323 109.952 91.3838 112.699 86.9253 113.276C79.4135 112.275 76.5896 103.323 84.4422 93.0012C89.5406 93.0012 94.6667 97.87 94.6667 97.87C94.6667 97.87 110.08 97.7935 118.691 101.417Z" fill="black"/>
<path d="M139.774 133.121L133.514 136.912C133.514 136.912 128.29 125.943 123.296 113.569C123.79 111.731 124.135 109.857 124.326 107.963C124.597 104.993 122.239 102.9 118.706 101.425C115.812 102.364 110.484 104.778 104.795 107.212C98.347 109.959 91.3985 112.707 86.9401 113.284C86.4282 113.353 85.9125 113.39 85.396 113.395C76.8269 113.395 73.8708 105.883 77.3277 93.1411C82.426 93.1411 91.1551 92.5917 91.1551 92.5917C91.1551 92.5917 108.001 88.5436 120.124 89.9208C123.001 90.2598 125.696 91.5033 127.821 93.4719C129.946 95.4406 131.391 98.033 131.949 100.876C135.072 116.344 139.774 133.121 139.774 133.121Z" fill="#263238"/>
<path d="M139.774 133.121L133.514 136.912C133.514 136.912 128.29 125.943 123.296 113.569C123.79 111.731 124.135 109.857 124.326 107.963C124.597 104.993 122.239 102.9 118.706 101.425C115.812 102.364 110.484 104.778 104.795 107.212C98.347 109.959 91.3985 112.707 86.9401 113.284C86.4282 113.353 85.9125 113.39 85.396 113.395C76.8269 113.395 73.8708 105.883 77.3277 93.1411C82.426 93.1411 91.1551 92.5917 91.1551 92.5917C91.1551 92.5917 108.001 88.5436 120.124 89.9208C123.001 90.2598 125.696 91.5033 127.821 93.4719C129.946 95.4406 131.391 98.033 131.949 100.876C135.072 116.344 139.774 133.121 139.774 133.121Z" fill="#263238"/>
<path d="M94.7314 50.2889L89.0001 49.4612L81.8429 50.0872C80.7566 50.1819 79.7313 50.6307 78.9247 51.3645C78.118 52.0983 77.5745 53.0766 77.3776 54.1491C76.5752 59.3751 76.0989 64.6459 75.9517 69.931C75.7013 75.8779 76.3621 84.6557 77.3428 92.5849L101.256 89.6914C101.485 68.8251 103.064 62.3635 103.259 56.8339C103.298 55.7474 102.978 54.6782 102.35 53.791C101.721 52.9037 100.819 52.2475 99.781 51.9234L94.7314 50.2889Z" fill="#407BFF"/>
<path d="M77.2861 91.2641L76.6671 93.2046C76.5906 93.3507 76.7575 93.5107 77.0149 93.5176L100.886 92.0917C101.081 92.0917 101.248 92.0013 101.262 91.8761L101.519 89.9286C101.519 89.7895 101.366 89.6713 101.157 89.6643L77.6687 91.1041C77.5965 91.0944 77.523 91.1041 77.4557 91.1322C77.3885 91.1603 77.33 91.2058 77.2861 91.2641Z" fill="#263238"/>
<path opacity="0.1" d="M77.2861 91.2641L76.6671 93.2046C76.5906 93.3507 76.7575 93.5107 77.0149 93.5176L100.886 92.0917C101.081 92.0917 101.248 92.0013 101.262 91.8761L101.519 89.9286C101.519 89.7895 101.366 89.6713 101.157 89.6643L77.6687 91.1041C77.5965 91.0944 77.523 91.1041 77.4557 91.1322C77.3885 91.1603 77.33 91.2058 77.2861 91.2641Z" fill="black"/>
<path opacity="0.3" d="M79.7039 52.2C84.4683 51.3654 84.2318 62.195 82.0618 70.1172C81.4358 72.4125 78.7231 71.4527 77.805 70.8545C74.7933 68.9348 73.7778 55.6638 79.7039 52.2Z" fill="black"/>
<path d="M79.1276 68.2412C79.3084 72.9222 77.82 75.3774 80.317 76.9424C82.814 78.5074 97.5665 83.3971 97.9282 82.785C97.2326 83.9118 96.5371 84.8716 95.8415 86.0123C91.5894 85.3724 87.335 84.7812 83.0783 84.2387C79.9692 83.8492 74.9543 83.0493 72.5199 81.0739C70.3081 79.2933 70.7046 71.4754 71.0802 65.8415C73.0346 64.68 79.1276 68.2412 79.1276 68.2412Z" fill="#FF8B7B"/>
<path d="M77.8559 50.2957C82.7247 48.8559 84.6096 52.7788 83.1211 59.5186C82.3709 63.1535 81.293 66.713 79.9007 70.1534L69.6484 66.9192C70.7613 60.3045 72.834 51.7702 77.8559 50.2957Z" fill="#407BFF"/>
<path d="M84.9932 50.2617C84.8632 51.3011 85.1289 52.3513 85.7374 53.2039C86.3365 54.0452 87.0374 54.8091 87.8241 55.4783C88.7909 56.3617 89.9455 57.3146 91.2531 57.1407C92.4564 56.9807 93.145 56.3756 93.6318 54.9428C94.6612 56.6051 94.7099 57.4328 95.8437 57.5371C96.2111 57.5174 96.5698 57.4183 96.8952 57.2466C97.2206 57.0749 97.5049 56.8347 97.7286 56.5425C98.1461 56.1988 98.4919 55.7762 98.7461 55.2988C99.0003 54.8214 99.158 54.2986 99.2101 53.7603C99.4814 51.6737 97.7773 49.7123 95.788 48.968C93.7627 48.2901 91.659 47.874 89.5281 47.73C87.671 47.5352 85.334 48.1125 84.9932 50.2617Z" fill="#407BFF"/>
<path opacity="0.3" d="M84.9932 50.2617C84.8632 51.3011 85.1289 52.3513 85.7374 53.2039C86.3365 54.0452 87.0374 54.8091 87.8241 55.4783C88.7909 56.3617 89.9455 57.3146 91.2531 57.1407C92.4564 56.9807 93.145 56.3756 93.6318 54.9428C94.6612 56.6051 94.7099 57.4328 95.8437 57.5371C96.2111 57.5174 96.5698 57.4183 96.8952 57.2466C97.2206 57.0749 97.5049 56.8347 97.7286 56.5425C98.1461 56.1988 98.4919 55.7762 98.7461 55.2988C99.0003 54.8214 99.158 54.2986 99.2101 53.7603C99.4814 51.6737 97.7773 49.7123 95.788 48.968C93.7627 48.2901 91.659 47.874 89.5281 47.73C87.671 47.5352 85.334 48.1125 84.9932 50.2617Z" fill="black"/>
<path d="M89.972 40.1692L92.5664 43.167L96.0928 47.2429C95.7772 47.6801 95.5417 48.17 95.3973 48.6896C95.1573 49.241 95.1243 49.8605 95.3045 50.4342C95.4847 51.0079 95.8658 51.4974 96.378 51.8126C96.9135 52.063 97.1918 54.8799 93.6445 54.5948C92.633 54.5773 91.636 54.3515 90.7157 53.9315C89.7954 53.5114 88.9716 52.9061 88.2958 52.1534C87.6489 51.284 87.475 50.818 88.1427 49.8651C90.0346 47.1733 90.1876 43.2713 89.972 40.1692Z" fill="#FF8B7B"/>
<path opacity="0.2" d="M95.2438 46.2344L93.018 43.2922C93.018 43.3757 92.9624 43.4731 92.9345 43.5704C92.8256 43.9855 92.7511 44.409 92.712 44.8363C92.5798 46.297 93.95 48.168 95.2855 48.9679L95.3898 48.6757C95.5546 48.1814 95.7888 47.7131 96.0854 47.2846C96.1026 47.2604 96.1237 47.2393 96.148 47.2221L95.2438 46.2344Z" fill="black"/>
<path d="M90.2159 34.6529C89.8125 39.4869 89.3673 42.3038 91.44 45.0443C94.5769 49.2176 100.823 47.7291 102.645 43.0829C104.287 38.9096 104.628 31.6968 100.19 29.172C98.6274 28.3092 96.7862 28.1023 95.0711 28.5966C93.3559 29.0909 91.9073 30.2461 91.0436 31.8081C90.5572 32.682 90.2743 33.6544 90.2159 34.6529Z" fill="#FF8B7B"/>
<path d="M89.5053 38.9317L91.592 39.829C92.2875 39.5368 92.4475 38.6952 92.3988 37.9301C92.1901 34.981 97.511 31.3781 97.511 31.3781C97.511 31.3781 91.8841 29.528 90.1939 29.2498C89.6027 29.1524 87.4744 30.6965 87.1474 31.3364C86.71 32.2753 86.5434 33.3178 86.6662 34.3463C86.7891 35.3748 87.1967 36.3486 87.843 37.1581C88.3383 37.8018 88.895 38.3958 89.5053 38.9317Z" fill="#263238"/>
<path d="M87.7248 38.0601C87.8284 39.1396 88.3232 40.1439 89.1159 40.884C90.1453 41.8299 91.4042 40.8005 91.5572 39.4233C91.6824 38.1992 91.0634 36.4116 89.8114 36.0013C88.5594 35.5909 87.6065 36.7107 87.7248 38.0601Z" fill="#FF8B7B"/>
<path d="M97.4695 37.5533C97.393 37.9498 97.5391 38.3184 97.7965 38.374C98.0538 38.4297 98.2972 38.1584 98.4016 37.762C98.5059 37.3655 98.3251 36.9969 98.0677 36.9412C97.8104 36.8856 97.5113 37.1499 97.4695 37.5533Z" fill="#263238"/>
<path d="M101.928 38.5336C101.852 38.9371 101.998 39.3057 102.262 39.3613C102.527 39.417 102.784 39.1388 102.861 38.7493C102.937 38.3598 102.784 37.9842 102.527 37.9285C102.269 37.8729 102.005 38.1372 101.928 38.5336Z" fill="#263238"/>
<path d="M100.441 38.5139C100.58 39.6494 100.865 40.7621 101.289 41.8247C101.02 41.9218 100.732 41.9578 100.447 41.9301C100.162 41.9025 99.8864 41.8118 99.6406 41.6647L100.441 38.5139Z" fill="#FF5652"/>
<path d="M98.513 43.8973C98.0698 43.7435 97.6629 43.5007 97.3172 43.1837C96.9715 42.8667 96.6943 42.4823 96.5028 42.0541C96.4912 42.0255 96.4912 41.9934 96.5029 41.9648C96.5146 41.9362 96.5371 41.9134 96.5654 41.9011C96.596 41.8913 96.6291 41.8929 96.6585 41.9057C96.688 41.9185 96.7117 41.9416 96.7254 41.9707C96.9396 42.4323 97.2576 42.8382 97.6546 43.1567C98.0515 43.4752 98.5167 43.6977 99.0137 43.8069C99.0293 43.8086 99.0444 43.8134 99.0581 43.821C99.0718 43.8286 99.0838 43.8388 99.0935 43.8511C99.1033 43.8634 99.1104 43.8775 99.1146 43.8926C99.1188 43.9077 99.12 43.9235 99.1181 43.939C99.1129 43.9711 99.0955 43.9998 99.0696 44.0193C99.0436 44.0388 99.0112 44.0474 98.979 44.0434C98.8194 44.0094 98.6634 43.9605 98.513 43.8973Z" fill="#263238"/>
<path d="M96.8578 35.9541C96.8186 35.9461 96.7839 35.9238 96.7604 35.8915C96.7162 35.8472 96.6914 35.7872 96.6914 35.7246C96.6914 35.662 96.7162 35.602 96.7604 35.5577C97.0391 35.3072 97.3756 35.1297 97.7398 35.0411C98.1039 34.9525 98.4843 34.9555 98.847 35.0499C98.9068 35.0677 98.9572 35.1083 98.9871 35.163C99.0171 35.2178 99.0242 35.2821 99.007 35.342C98.9864 35.4009 98.9435 35.4493 98.8875 35.4766C98.8315 35.504 98.7669 35.5081 98.7079 35.4881C98.4235 35.4228 98.1276 35.4259 97.8447 35.4973C97.5617 35.5686 97.2998 35.7061 97.0803 35.8985C97.0522 35.9278 97.0164 35.9485 96.9771 35.9584C96.9377 35.9682 96.8963 35.9667 96.8578 35.9541Z" fill="#263238"/>
<path d="M102.438 35.9601C102.427 35.9215 102.427 35.8806 102.438 35.8419C102.446 35.8117 102.46 35.7833 102.479 35.7585C102.498 35.7337 102.522 35.7129 102.549 35.6974C102.576 35.6819 102.606 35.6719 102.637 35.6681C102.668 35.6642 102.7 35.6666 102.73 35.675C103.089 35.7606 103.422 35.9319 103.7 36.1741C103.979 36.4163 104.195 36.7223 104.33 37.0661C104.347 37.1269 104.34 37.1922 104.31 37.2481C104.28 37.3039 104.23 37.3459 104.17 37.3651C104.11 37.3824 104.045 37.3753 103.991 37.3453C103.936 37.3153 103.895 37.265 103.877 37.2052C103.77 36.9319 103.598 36.6887 103.377 36.4961C103.155 36.3036 102.89 36.1674 102.605 36.0993C102.567 36.0917 102.533 36.075 102.504 36.0507C102.475 36.0264 102.452 35.9953 102.438 35.9601Z" fill="#263238"/>
<path d="M103.911 90.7636L134.431 90.854C134.963 90.8453 135.474 90.6426 135.867 90.284C136.26 89.9254 136.509 89.4355 136.567 88.9065L137.958 73.4515C137.984 73.2021 137.958 72.95 137.88 72.7116C137.802 72.4733 137.674 72.2542 137.505 72.0689C137.336 71.8835 137.13 71.7361 136.9 71.6363C136.67 71.5365 136.421 71.4867 136.17 71.4901L105.65 71.3997C105.117 71.4101 104.606 71.6143 104.213 71.974C103.82 72.3338 103.572 72.8244 103.514 73.3541L102.123 88.8022C102.097 89.0515 102.123 89.3037 102.201 89.542C102.279 89.7804 102.407 89.9995 102.576 90.1848C102.745 90.3702 102.951 90.5176 103.181 90.6174C103.411 90.7171 103.66 90.767 103.911 90.7636Z" fill="#407BFF"/>
<path opacity="0.3" d="M103.911 90.7636L134.431 90.854C134.963 90.8453 135.474 90.6426 135.867 90.284C136.26 89.9254 136.509 89.4355 136.567 88.9065L137.958 73.4515C137.984 73.2021 137.958 72.95 137.88 72.7116C137.802 72.4733 137.674 72.2542 137.505 72.0689C137.336 71.8835 137.13 71.7361 136.9 71.6363C136.67 71.5365 136.421 71.4867 136.17 71.4901L105.65 71.3997C105.117 71.4101 104.606 71.6143 104.213 71.974C103.82 72.3338 103.572 72.8244 103.514 73.3541L102.123 88.8022C102.097 89.0515 102.123 89.3037 102.201 89.542C102.279 89.7804 102.407 89.9995 102.576 90.1848C102.745 90.3702 102.951 90.5176 103.181 90.6174C103.411 90.7171 103.66 90.767 103.911 90.7636Z" fill="black"/>
<path d="M104.809 90.6982L135.329 90.7886C135.863 90.7796 136.374 90.576 136.767 90.2159C137.161 89.8559 137.409 89.3644 137.465 88.8341L138.856 73.3861C138.883 73.1371 138.858 72.8851 138.781 72.6467C138.703 72.4084 138.576 72.1892 138.408 72.0037C138.24 71.8182 138.034 71.6706 137.804 71.5708C137.574 71.471 137.326 71.4212 137.075 71.4247L106.555 71.3342C106.023 71.3461 105.513 71.5508 105.12 71.9103C104.727 72.2698 104.478 72.7596 104.419 73.2887L103.028 88.7367C103.001 88.9857 103.026 89.2378 103.104 89.4761C103.181 89.7144 103.308 89.9336 103.476 90.1191C103.645 90.3046 103.85 90.4522 104.08 90.552C104.31 90.6518 104.558 90.7017 104.809 90.6982Z" fill="#407BFF"/>
<path opacity="0.2" d="M104.809 90.6982L135.329 90.7886C135.863 90.7796 136.374 90.576 136.767 90.2159C137.161 89.8559 137.409 89.3644 137.465 88.8341L138.856 73.3861C138.883 73.1371 138.858 72.8851 138.781 72.6467C138.703 72.4084 138.576 72.1892 138.408 72.0037C138.24 71.8182 138.034 71.6706 137.804 71.5708C137.574 71.471 137.326 71.4212 137.075 71.4247L106.555 71.3342C106.023 71.3461 105.513 71.5508 105.12 71.9103C104.727 72.2698 104.478 72.7596 104.419 73.2887L103.028 88.7367C103.001 88.9857 103.026 89.2378 103.104 89.4761C103.181 89.7144 103.308 89.9336 103.476 90.1191C103.645 90.3046 103.85 90.4522 104.08 90.552C104.31 90.6518 104.558 90.7017 104.809 90.6982Z" fill="white"/>
<path d="M123.086 81.2814C123.043 81.7056 122.875 82.1074 122.603 82.4359C122.331 82.7645 121.968 83.0051 121.559 83.1274C121.151 83.2496 120.715 83.248 120.308 83.1227C119.9 82.9975 119.539 82.7542 119.27 82.4236C119 82.093 118.835 81.69 118.795 81.2655C118.755 80.8411 118.841 80.4142 119.043 80.0388C119.246 79.6634 119.555 79.3565 119.931 79.1567C120.308 78.957 120.735 78.8734 121.16 78.9166C121.441 78.9453 121.715 79.0292 121.964 79.1636C122.214 79.298 122.434 79.4802 122.613 79.6998C122.792 79.9194 122.926 80.1722 123.007 80.4435C123.088 80.7149 123.115 80.9996 123.086 81.2814Z" fill="white"/>
<path d="M135.767 90.7694C135.767 91.6944 135.218 92.4456 134.55 92.4456L103.049 92.3204C102.708 92.3204 102.43 91.9448 102.43 91.4858C102.43 91.0267 102.708 90.6372 103.049 90.6372L135.767 90.7694Z" fill="#407BFF"/>
<path opacity="0.3" d="M135.767 90.7694C135.767 91.6944 135.218 92.4456 134.55 92.4456L103.049 92.3204C102.708 92.3204 102.43 91.9448 102.43 91.4858C102.43 91.0267 102.708 90.6372 103.049 90.6372L135.767 90.7694Z" fill="black"/>
<path d="M102.852 92.3271H87.6893C87.3019 92.3271 86.9304 92.1732 86.6564 91.8993C86.3825 91.6254 86.2286 91.2539 86.2286 90.8665C86.2277 90.8367 86.2328 90.807 86.2435 90.7792C86.2543 90.7514 86.2705 90.726 86.2913 90.7046C86.3121 90.6832 86.3369 90.6662 86.3644 90.6545C86.3919 90.6429 86.4214 90.6369 86.4512 90.637H102.852C102.963 90.637 103.073 90.659 103.176 90.7017C103.278 90.7444 103.371 90.807 103.45 90.8859C103.528 90.9648 103.59 91.0584 103.632 91.1613C103.674 91.2642 103.695 91.3744 103.694 91.4855C103.694 91.7087 103.605 91.9228 103.447 92.0806C103.289 92.2385 103.075 92.3271 102.852 92.3271Z" fill="#407BFF"/>
<path d="M94.6601 80.6203L97.1779 79.8831L96.9484 86.0803C96.9484 86.0803 91.4814 87.3671 91.1406 84.8492L91.8362 83.4929C92.4413 82.3244 93.2759 80.9611 94.6601 80.6203Z" fill="#FF8B7B"/>
<path d="M100.949 81.6011L100.204 85.0788L96.9492 86.0734L97.1787 79.8831L100.949 81.6011Z" fill="#FF8B7B"/>
<path d="M104.251 34.6035C105.684 34.5201 106.268 32.8299 106.094 32.1065C105.882 31.1522 105.302 30.32 104.481 29.7904C104.94 28.3993 104.321 26.7021 102.596 25.5267C101.968 25.1639 101.267 24.9479 100.544 24.8949C99.8214 24.8419 99.096 24.9533 98.4224 25.2206C98.4224 23.9617 96.1063 23.134 94.6178 24.7059C94.0043 24.3266 93.2845 24.1562 92.566 24.2201C91.8476 24.2841 91.1692 24.579 90.6323 25.0607C90.4449 25.2242 90.3047 25.435 90.2264 25.6711C90.1481 25.9072 90.1346 26.1599 90.1872 26.4031C89.5954 26.4103 89.0166 26.577 88.5116 26.8857C88.0066 27.1944 87.5943 27.6335 87.318 28.1569C87.0417 28.6803 86.9117 29.2685 86.9417 29.8595C86.9717 30.4506 87.1606 31.0226 87.4885 31.5153C87.9545 32.2109 89.0604 32.2109 89.8951 32.03C90.1259 32.4265 90.4358 32.7712 90.8056 33.0429C91.1753 33.3145 91.5969 33.5072 92.0443 33.6089C94.7917 34.5201 98.5685 33.6645 99.2362 33.6089C99.9036 33.4979 100.589 33.6339 101.163 33.9914C101.037 34.1667 100.874 34.3119 100.685 34.4166C100.496 34.5212 100.286 34.5827 100.071 34.5966C99.6574 34.6383 99.24 34.6172 98.8328 34.534C99.763 35.1476 100.894 35.3793 101.991 35.1808C102.461 34.9441 102.944 34.7328 103.437 34.5479C103.771 34.4992 104.286 34.6522 104.251 34.6035Z" fill="#263238"/>
<path d="M136.713 43.1832C136.658 44.6647 131.879 45.6942 126.044 45.4855C120.208 45.2768 115.513 43.9066 115.569 42.4251C115.624 40.9436 120.396 39.9211 126.238 40.1298C132.081 40.3385 136.762 41.7087 136.713 43.1832Z" fill="#407BFF"/>
<path d="M115.649 39.7343L115.553 42.4104L136.698 43.1673L136.793 40.4911C136.071 37.0763 116.944 36.033 115.649 39.7343Z" fill="#407BFF"/>
<path opacity="0.4" d="M136.804 40.5045C136.755 41.986 131.977 43.0154 126.141 42.8068C120.306 42.5981 115.611 41.2279 115.667 39.7464C115.722 38.2649 120.494 37.2424 126.329 37.4511C132.165 37.6597 136.86 39.03 136.804 40.5045Z" fill="white"/>
<path opacity="0.4" d="M135.472 40.3577C135.463 40.4511 135.424 40.539 135.361 40.6081C134.721 39.69 130.909 38.8762 126.319 38.7093C121.728 38.5424 117.826 39.0779 117.137 39.9543C117.077 39.8798 117.045 39.7861 117.047 39.69C117.082 38.6884 121.22 38.0138 126.339 38.1946C131.459 38.3755 135.541 39.3562 135.472 40.3577Z" fill="#407BFF"/>
<path opacity="0.4" d="M135.356 40.6083C134.66 41.4847 130.793 41.9994 126.175 41.8533C121.556 41.7073 117.731 40.8796 117.133 39.9545C117.828 39.0781 121.682 38.5634 126.314 38.7094C130.946 38.8555 134.716 39.6902 135.356 40.6083Z" fill="#407BFF"/>
<path d="M136.713 39.7067C136.658 41.1882 131.879 42.2176 126.044 42.0089C120.208 41.8003 115.513 40.43 115.569 38.9485C115.624 37.467 120.396 36.4446 126.238 36.6532C132.081 36.8619 136.762 38.2321 136.713 39.7067Z" fill="#407BFF"/>
<path d="M115.649 36.2577L115.553 38.9338L136.698 39.6907L136.793 37.0146C136.071 33.5998 116.944 32.5564 115.649 36.2577Z" fill="#407BFF"/>
<path opacity="0.4" d="M136.804 37.028C136.755 38.5095 131.977 39.5389 126.141 39.3302C120.306 39.1216 115.611 37.7513 115.667 36.2698C115.722 34.7883 120.494 33.7659 126.329 33.9745C132.165 34.1832 136.86 35.5534 136.804 37.028Z" fill="white"/>
<path opacity="0.4" d="M135.468 36.8812C135.459 36.9745 135.42 37.0624 135.357 37.1316C134.717 36.2135 130.905 35.3997 126.315 35.2327C121.724 35.0658 117.822 35.6014 117.134 36.4778C117.073 36.4033 117.041 36.3095 117.043 36.2135C117.078 35.2119 121.216 34.5372 126.336 34.718C131.455 34.8989 135.538 35.8796 135.468 36.8812Z" fill="#407BFF"/>
<path opacity="0.4" d="M135.356 37.1317C134.66 38.0081 130.793 38.5228 126.175 38.3768C121.556 38.2307 117.731 37.403 117.133 36.4779C117.828 35.6015 121.682 35.0868 126.314 35.2329C130.946 35.379 134.716 36.2136 135.356 37.1317Z" fill="#407BFF"/>
<path opacity="0.5" d="M75.01 39.0898C82.2505 31.8493 82.2505 20.1101 75.01 12.8696C67.7695 5.62911 56.0303 5.62912 48.7898 12.8696C41.5493 20.1101 41.5493 31.8493 48.7898 39.0898C56.0303 46.3304 67.7695 46.3304 75.01 39.0898Z" fill="#A0BDFF"/>
<path d="M68.9035 33.8537C71.5535 31.037 70.9702 27.3703 69.9146 22.8037C69.359 20.4481 72.3924 18.7537 70.2757 15.2926C68.2979 11.9592 56.6702 8.74256 56.3868 14.737C52.2979 15.9148 52.1924 19.587 52.5924 25.4426C52.7424 27.6648 52.1035 28.7759 51.2646 29.5537C50.7683 30.0046 50.4069 30.5844 50.2206 31.2286C50.0344 31.8728 50.0306 32.556 50.2097 33.2022C50.3889 33.8484 50.7438 34.4322 51.2351 34.8885C51.7264 35.3449 52.3348 35.6559 52.9924 35.787C58.0535 36.737 65.5813 37.3926 68.9035 33.8537Z" fill="#263238"/>
<path d="M64.7306 35.4257L57.0028 34.2868C52.4639 33.809 49.7806 35.7368 48.1973 38.5813C51.0683 41.7354 54.9389 43.8034 59.1567 44.4369C63.3746 45.0704 67.6819 44.2306 71.3528 42.059C70.4473 35.3201 64.7306 35.4257 64.7306 35.4257Z" fill="#407BFF"/>
<path d="M59.0595 25.6985C59.1761 28.254 58.9928 32.8818 57.0039 34.2874C57.0039 34.2874 59.5095 39.254 63.2039 40.9096C65.4761 39.3707 64.7317 35.4263 64.7317 35.4263C62.0595 34.3596 62.4372 32.3096 63.2039 30.4263L59.0595 25.6985Z" fill="#FFB573"/>
<path opacity="0.2" d="M60.77 27.637L63.2256 30.4425C63.0358 30.875 62.8834 31.3229 62.77 31.7814C61.7367 31.4758 60.4534 30.1147 60.5034 28.9703C60.5076 28.513 60.598 28.0607 60.77 27.637Z" fill="black"/>
<path d="M57.1699 21.0089C57.5033 25.2034 57.5533 26.9867 59.7088 29.0978C62.9533 32.2756 68.0421 30.9589 68.9588 26.7534C69.7921 22.97 69.1144 16.7534 64.9755 15.1478C64.0662 14.7979 63.0828 14.6852 62.118 14.8204C61.1531 14.9556 60.2386 15.3342 59.4605 15.9205C58.6824 16.5069 58.0664 17.2817 57.6706 18.1719C57.2747 19.0621 57.1119 20.0384 57.1977 21.0089H57.1699Z" fill="#FFB573"/>
<path d="M60.0644 14.7424C65.5089 16.5313 55.3589 24.4091 55.4756 29.0202C53.2867 23.6091 54.1033 12.7868 60.0644 14.7424Z" fill="#263238"/>
<path d="M66.1992 21.9983C66.5135 22.7727 66.9363 23.4984 67.4548 24.1538C67.2824 24.2816 67.0844 24.3706 66.8744 24.4147C66.6644 24.4588 66.4473 24.457 66.2381 24.4094L66.1992 21.9983Z" fill="#ED893E"/>
<path d="M64.743 25.7151C64.9293 25.7143 65.1151 25.6975 65.2985 25.6651C65.3246 25.6597 65.3476 25.6447 65.3631 25.6231C65.3785 25.6014 65.3852 25.5748 65.3819 25.5484C65.3765 25.5224 65.3615 25.4994 65.3399 25.4839C65.3182 25.4685 65.2916 25.4617 65.2652 25.4651C64.8486 25.5466 64.4188 25.5298 64.0099 25.416C63.6009 25.3022 63.2242 25.0945 62.9097 24.8095C62.891 24.7915 62.8661 24.7815 62.8402 24.7815C62.8143 24.7815 62.7894 24.7915 62.7708 24.8095C62.7524 24.8291 62.7422 24.8549 62.7422 24.8818C62.7422 24.9086 62.7524 24.9344 62.7708 24.954C63.3063 25.4511 64.0123 25.7236 64.743 25.7151Z" fill="#263238"/>
<path d="M57.8415 14.7364C56.1748 17.8197 61.0193 16.0697 64.9304 17.3419C68.5637 18.5197 70.4026 20.8753 70.0026 17.4586C69.5137 13.2419 60.4859 9.8808 57.8415 14.7364Z" fill="#263238"/>
<path d="M62.3801 20.298C62.4077 20.2943 62.4343 20.2849 62.4581 20.2706C62.482 20.2563 62.5027 20.2373 62.519 20.2147C62.6528 20.0011 62.8354 19.8222 63.0517 19.6928C63.2681 19.5634 63.512 19.4871 63.7635 19.4703C63.8115 19.4623 63.8551 19.4375 63.8866 19.4004C63.9181 19.3632 63.9354 19.3161 63.9354 19.2675C63.9354 19.2188 63.9181 19.1717 63.8866 19.1346C63.8551 19.0974 63.8115 19.0727 63.7635 19.0647C63.4468 19.0797 63.1381 19.1696 62.8629 19.3271C62.5877 19.4845 62.3537 19.7049 62.1801 19.9702C62.152 20.0148 62.1421 20.0685 62.1524 20.1202C62.1628 20.1719 62.1926 20.2177 62.2357 20.248C62.2545 20.2666 62.2773 20.2807 62.3023 20.2893C62.3273 20.298 62.3539 20.301 62.3801 20.298Z" fill="#263238"/>
<path d="M64.1017 21.3872C64.0866 21.3848 64.0711 21.386 64.0566 21.3908C64.0421 21.3957 64.029 21.404 64.0184 21.415C63.9078 21.5189 63.7739 21.5949 63.628 21.6364C63.482 21.678 63.3282 21.684 63.1795 21.6539C63.1493 21.6469 63.1177 21.6516 63.0908 21.6671C63.064 21.6826 63.0441 21.7076 63.035 21.7372C63.0275 21.7674 63.0313 21.7993 63.0456 21.8269C63.0599 21.8545 63.0838 21.876 63.1128 21.8872C63.299 21.9276 63.4922 21.9224 63.676 21.8721C63.8598 21.8218 64.0287 21.7279 64.1684 21.5983C64.1795 21.5875 64.1883 21.5745 64.1943 21.5602C64.2003 21.5459 64.2034 21.5305 64.2034 21.515C64.2034 21.4995 64.2003 21.4841 64.1943 21.4698C64.1883 21.4555 64.1795 21.4425 64.1684 21.4317C64.1609 21.4201 64.1512 21.4101 64.1397 21.4025C64.1282 21.3948 64.1153 21.3896 64.1017 21.3872Z" fill="#263238"/>
<path d="M67.9209 21.2143C67.8889 21.2126 67.8573 21.2224 67.832 21.2421C67.725 21.3484 67.5937 21.4272 67.4496 21.4717C67.3054 21.5162 67.1526 21.5251 67.0042 21.4976C66.9733 21.4909 66.941 21.4964 66.9141 21.513C66.8871 21.5295 66.8677 21.5559 66.8598 21.5865C66.8556 21.6015 66.8544 21.6171 66.8564 21.6325C66.8583 21.648 66.8633 21.6628 66.8711 21.6763C66.8788 21.6897 66.8892 21.7015 66.9016 21.7109C66.914 21.7203 66.9281 21.7271 66.9431 21.731C67.1302 21.768 67.3236 21.7591 67.5065 21.7049C67.6894 21.6507 67.8564 21.5529 67.9931 21.4199C68.0042 21.409 68.013 21.396 68.019 21.3817C68.025 21.3674 68.0281 21.352 68.0281 21.3365C68.0281 21.321 68.025 21.3056 68.019 21.2913C68.013 21.277 68.0042 21.2641 67.9931 21.2532C67.9745 21.2319 67.9489 21.2181 67.9209 21.2143Z" fill="#263238"/>
<path d="M68.2582 19.6484C68.2847 19.6482 68.3107 19.6415 68.3339 19.6289C68.3572 19.6163 68.377 19.5982 68.3916 19.5762C68.4091 19.5566 68.4224 19.5336 68.4306 19.5086C68.4388 19.4837 68.4416 19.4573 68.439 19.4311C68.4364 19.405 68.4284 19.3797 68.4154 19.3568C68.4025 19.334 68.3849 19.3141 68.3638 19.2984C68.1219 19.0906 67.8338 18.9438 67.5235 18.8703C67.2132 18.7968 66.8898 18.7988 66.5805 18.8761C66.53 18.8939 66.4881 18.9302 66.4634 18.9776C66.4386 19.0251 66.4328 19.0801 66.4471 19.1317C66.4637 19.1816 66.4992 19.2229 66.5459 19.2468C66.5927 19.2707 66.647 19.2753 66.6971 19.2595C66.944 19.1999 67.2016 19.2006 67.4482 19.2616C67.6948 19.3225 67.923 19.4418 68.1138 19.6095C68.1334 19.6264 68.1566 19.6387 68.1816 19.6454C68.2066 19.6522 68.2328 19.6532 68.2582 19.6484Z" fill="#263238"/>
<path d="M61.9131 47.1591C57.7428 47.1602 53.6657 45.9245 50.1978 43.6082C46.7298 41.292 44.0266 37.9993 42.4302 34.1466C40.8337 30.2939 40.4157 26.0543 41.2291 21.964C42.0424 17.8737 44.0505 14.1165 46.9994 11.1676C49.9483 8.21871 53.7055 6.21061 57.7958 5.39728C61.8861 4.58395 66.1257 5.00194 69.9784 6.59838C73.8311 8.19481 77.1238 10.898 79.44 14.366C81.7563 17.834 82.992 21.911 82.9909 26.0813C82.9821 31.6688 80.7586 37.0249 76.8076 40.9758C72.8567 44.9268 67.5006 47.1503 61.9131 47.1591ZM61.9131 5.67577C57.877 5.67467 53.9313 6.8705 50.5749 9.11202C47.2185 11.3535 44.6022 14.5401 43.0569 18.2686C41.5116 21.9971 41.1067 26.1002 41.8934 30.0588C42.6801 34.0175 44.6231 37.6539 47.4767 40.5083C50.3302 43.3626 53.9662 45.3066 57.9246 46.0944C61.883 46.8822 65.9862 46.4784 69.7151 44.9341C73.4441 43.3898 76.6313 40.7744 78.8738 37.4186C81.1162 34.0628 82.3131 30.1174 82.3131 26.0813C82.3116 20.6693 80.1626 15.4791 76.3378 11.6501C72.513 7.82116 67.3251 5.66646 61.9131 5.6591V5.67577Z" fill="#407BFF"/>
<g opacity="0.5">
<path d="M61.9151 47.1601C57.7447 47.1612 53.6677 45.9255 50.1997 43.6092C46.7317 41.293 44.0286 38.0003 42.4321 34.1476C40.8357 30.2949 40.4177 26.0552 41.231 21.965C42.0443 17.8747 44.0525 14.1175 47.0013 11.1686C49.9502 8.21969 53.7074 6.21159 57.7977 5.39826C61.888 4.58493 66.1276 5.00292 69.9803 6.59935C73.833 8.19579 77.1257 10.899 79.442 14.3669C81.7582 17.8349 82.9939 21.9119 82.9928 26.0823C82.984 31.6698 80.7605 37.0259 76.8096 40.9768C72.8586 44.9277 67.5025 47.1513 61.9151 47.1601ZM61.9151 5.67675C57.879 5.67565 53.9332 6.87148 50.5768 9.113C47.2204 11.3545 44.6041 14.5411 43.0588 18.2696C41.5135 21.9981 41.1086 26.1012 41.8954 30.0598C42.6821 34.0185 44.6251 37.6549 47.4786 40.5092C50.3322 43.3636 53.9681 45.3076 57.9265 46.0954C61.885 46.8832 65.9881 46.4794 69.7171 44.9351C73.446 43.3908 76.6333 40.7754 78.8757 37.4196C81.1182 34.0638 82.3151 30.1184 82.3151 26.0823C82.3136 20.6703 80.1646 15.48 76.3398 11.6511C72.515 7.82214 67.3271 5.66744 61.9151 5.66008V5.67675Z" fill="white"/>
</g>
<path d="M80.7584 4.71997L82.5105 6.41802L84.9257 6.073L85.3519 8.48139L87.51 9.62469L86.4343 11.8166L87.51 14.0153L85.3519 15.1586L84.9257 17.5602L82.5105 17.222L80.7584 18.92L78.9994 17.222L76.5843 17.5602L76.1581 15.1586L74 14.0153L75.0757 11.8166L74 9.62469L76.1581 8.48139L76.5843 6.073L78.9994 6.41802L80.7584 4.71997Z" fill="#407BFF"/>
<g opacity="0.9">
<path d="M79.4447 14.5977L76.928 11.8375C76.8403 11.7304 76.7981 11.593 76.8108 11.455C76.8235 11.317 76.8899 11.1896 76.9957 11.1001C77.0435 11.0519 77.1004 11.0136 77.1631 10.9874C77.2258 10.9613 77.2931 10.9478 77.361 10.9478C77.4289 10.9478 77.4962 10.9613 77.5589 10.9874C77.6216 11.0136 77.6785 11.0519 77.7263 11.1001L79.5732 13.1297L83.842 9.20591C83.8904 9.15743 83.9479 9.11897 84.0111 9.09273C84.0744 9.06648 84.1422 9.05298 84.2107 9.05298C84.2792 9.05298 84.347 9.06648 84.4103 9.09273C84.4736 9.11897 84.531 9.15743 84.5794 9.20591C84.6668 9.31199 84.7087 9.4483 84.6961 9.58516C84.6834 9.72201 84.6171 9.84832 84.5118 9.93655L79.4447 14.5977Z" fill="white"/>
</g>
<path d="M134.3 32.6424C137.258 28.1359 135.88 22.0045 131.223 18.9475C126.565 15.8905 120.392 17.0655 117.434 21.572C114.476 26.0785 115.854 32.2099 120.511 35.2669C125.168 38.3239 131.342 37.1489 134.3 32.6424Z" fill="#407BFF"/>
<path opacity="0.4" d="M133.506 33.744C132.252 35.1511 130.609 36.1547 128.785 36.6279C126.96 37.1011 125.037 37.0227 123.257 36.4025C121.477 35.7824 119.921 34.6483 118.786 33.1438C117.651 31.6393 116.987 29.8319 116.879 27.9502C116.771 26.0685 117.223 24.1971 118.179 22.5726C119.135 20.9481 120.551 19.6434 122.248 18.8237C123.945 18.004 125.847 17.7059 127.714 17.9673C129.58 18.2287 131.327 19.0378 132.734 20.2922C134.62 21.9738 135.761 24.3356 135.906 26.8582C136.05 29.3808 135.187 31.8576 133.506 33.744Z" fill="white"/>
<path d="M131.684 32.15C130.745 33.2041 129.514 33.956 128.148 34.3106C126.781 34.6652 125.34 34.6066 124.007 34.1421C122.674 33.6777 121.509 32.8283 120.658 31.7015C119.808 30.5746 119.311 29.2209 119.23 27.8115C119.15 26.4021 119.489 25.0005 120.205 23.7838C120.921 22.5672 121.981 21.5902 123.253 20.9765C124.524 20.3628 125.949 20.1399 127.347 20.3361C128.745 20.5322 130.053 21.1386 131.106 22.0785C131.806 22.7016 132.376 23.4565 132.784 24.3C133.191 25.1436 133.429 26.0592 133.482 26.9946C133.536 27.9299 133.405 28.8667 133.096 29.7513C132.788 30.6359 132.308 31.451 131.684 32.15Z" fill="#407BFF"/>
<g opacity="0.3">
<path d="M127.721 30.629C126.872 32.0201 125.363 32.0548 123.798 30.8794L122.907 31.8323L122.017 31.0463L122.914 30.0934C122.201 29.3597 121.67 28.4686 121.363 27.4921L122.754 26.7479C122.982 27.5735 123.401 28.3337 123.979 28.9666L125.37 27.506C124.723 26.4905 124.055 25.3011 124.82 24.0631C125.662 22.7067 127.199 22.672 128.778 23.8613L129.675 22.9084L130.558 23.7014L129.661 24.6612C130.217 25.2477 130.648 25.9411 130.927 26.6992L129.599 27.4782C129.396 26.8435 129.059 26.26 128.611 25.7671L127.185 27.2973C127.797 28.2989 128.444 29.4466 127.721 30.629ZM126.496 26.2679L127.665 25.0229C127.088 24.6821 126.608 24.7447 126.357 25.1272C126.279 25.3119 126.251 25.5137 126.276 25.7126C126.3 25.9115 126.376 26.1006 126.496 26.261V26.2679ZM126.121 29.6204C126.196 29.4463 126.224 29.2552 126.201 29.0669C126.177 28.8785 126.104 28.6999 125.989 28.5493L124.876 29.7317C125.425 30.0378 125.877 29.996 126.121 29.6135V29.6204Z" fill="white"/>
</g>
</g>
<defs>
<clipPath id="clip0_253_1097">
<rect width="192" height="117" fill="white" transform="translate(0 -5.28003)"/>
</clipPath>
</defs>
</svg>
