<svg width="127" height="93" viewBox="0 0 127 93" fill="none" xmlns="http://www.w3.org/2000/svg">
<path d="M113.855 36.5414L114.676 36.5852C115.014 36.5924 115.352 36.6301 115.683 36.6979C116.15 36.7586 116.61 36.857 117.061 36.9921C118.343 37.3338 119.558 37.8905 120.654 38.6386C123.331 40.4198 125.225 43.1576 125.947 46.2905C126.67 49.4234 126.167 52.7141 124.54 55.4877C122.914 58.2613 120.288 60.3076 117.202 61.207C114.115 62.1064 110.801 61.7908 107.939 60.3248C107.11 59.9314 106.203 59.7302 105.285 59.7363L105.391 59.6299C105.423 60.1683 105.479 60.7192 105.485 61.2764V62.9479C105.485 64.0685 105.485 65.2079 105.485 66.3661C105.485 68.6783 105.485 71.0552 105.485 73.4968C105.485 78.3841 105.485 83.5156 105.485 88.8912C105.487 89.5984 105.286 90.2913 104.907 90.8881C104.527 91.4849 103.985 91.9607 103.344 92.2593C102.693 92.545 101.981 92.6654 101.272 92.6099H72.6054H33.271C29.8278 92.6099 26.3845 92.6099 22.8411 92.6099C21.9167 92.517 21.0596 92.0848 20.4352 91.3969C19.8108 90.7089 19.4636 89.814 19.4605 88.8849V61.7772L19.617 61.94C19.0624 61.9096 18.5062 61.939 17.958 62.0276C17.3966 62.1444 16.8505 62.325 16.3303 62.566C15.2032 63.0107 14.0144 63.2789 12.8056 63.3611C10.7961 63.5019 8.78372 63.1299 6.95724 62.2802C5.13076 61.4304 3.55 60.1308 2.3632 58.503C1.20211 56.9302 0.439766 55.0994 0.141518 53.1673C-0.156731 51.2353 0.0180207 49.2597 0.65079 47.4101C1.28356 45.5604 2.35546 43.8918 3.77461 42.5472C5.19376 41.2027 6.9178 40.2224 8.79894 39.6904C11.5516 38.9241 14.4883 39.1775 17.069 40.4041C17.8579 40.8353 18.7321 41.0876 19.6295 41.1428L19.4605 41.2993C19.4605 32.6224 19.4605 24.1812 19.4605 15.9758V12.9145C19.4605 12.4011 19.4605 11.9065 19.4605 11.3807C19.5166 10.8594 19.6605 10.3514 19.8862 9.87816C20.3343 8.93285 21.0981 8.17344 22.046 7.73081C22.5144 7.51083 23.0156 7.36915 23.5298 7.31137C24.0494 7.27381 24.5314 7.31137 25.0323 7.31137H36.7393H78.5653H96.1571C97.5219 7.31137 98.8492 7.31137 100.17 7.31137C100.829 7.36337 101.464 7.57823 102.019 7.93665C102.575 8.29508 103.032 8.78584 103.35 9.3648C103.655 9.92516 103.825 10.5491 103.845 11.1866C103.845 11.8126 103.845 12.4074 103.845 13.0021C103.845 14.2041 103.845 15.3748 103.845 16.5142C103.901 25.6419 103.951 32.9103 103.983 38.0001L103.933 37.95L106.343 37.9813C107.03 37.9809 107.712 37.8623 108.359 37.6307C109.32 37.2053 110.326 36.8882 111.358 36.6854C111.978 36.5717 112.605 36.5068 113.236 36.4913C113.643 36.4913 113.862 36.4913 113.862 36.4913H113.705H113.248C112.63 36.5189 112.015 36.5921 111.408 36.7104C110.379 36.9192 109.378 37.2426 108.421 37.6745C107.767 37.9132 107.077 38.0381 106.38 38.0439H103.97H103.92V38.0001C103.87 32.9103 103.801 25.6419 103.707 16.5142C103.707 15.3748 103.707 14.2041 103.676 13.0084C103.645 11.8126 103.826 10.5355 103.181 9.45243C102.876 8.90498 102.44 8.44139 101.913 8.10283C101.385 7.76427 100.782 7.56122 100.158 7.51171C98.8617 7.48041 97.5157 7.51171 96.1571 7.51171H78.5653L36.7393 7.56179H25.0636C24.569 7.56179 24.0619 7.56179 23.5924 7.56179C22.6196 7.6615 21.7108 8.09309 21.0187 8.78399C20.3267 9.4749 19.8936 10.383 19.7923 11.3556C19.7547 11.8377 19.7923 12.3573 19.7923 12.8644V15.9257C19.7923 24.1227 19.7923 32.5639 19.7923 41.2492V41.412H19.6233C18.6851 41.3557 17.7706 41.0951 16.9438 40.6482C16.1219 40.256 15.256 39.9639 14.3645 39.778C12.5545 39.3997 10.68 39.462 8.89911 39.9596C7.06888 40.4776 5.39155 41.4316 4.01091 42.74C2.63026 44.0484 1.58749 45.6721 0.97197 47.4718C0.356454 49.2716 0.186554 51.1938 0.476836 53.0736C0.767117 54.9534 1.50893 56.7348 2.63866 58.2651C3.79792 59.8316 5.32431 61.0892 7.08358 61.9275C8.87276 62.7385 10.8319 63.1037 12.7931 62.9918C13.9693 62.9119 15.1263 62.6522 16.2238 62.2217C16.7644 61.9727 17.3314 61.7858 17.9141 61.6645C18.483 61.5718 19.0602 61.5403 19.6358 61.5706H19.7985V61.7271C19.7985 69.0936 19.7985 76.3515 19.7985 83.501V88.8349C19.7979 89.6878 20.1174 90.51 20.6938 91.1387C21.2651 91.7657 22.0474 92.1602 22.8912 92.2468C26.3657 92.2781 29.8591 92.2468 33.2898 92.2468H72.6242H101.31C101.979 92.2992 102.652 92.1875 103.269 91.9213C103.865 91.6436 104.37 91.2016 104.724 90.6471C105.077 90.0927 105.266 89.4488 105.266 88.791C105.266 83.4258 105.266 78.286 105.266 73.4029C105.266 70.9613 105.266 68.5823 105.266 66.2722C105.266 65.114 105.266 63.9746 105.266 62.854V61.1825C105.266 60.6253 105.203 60.0806 105.172 59.5422V59.5235H105.285C106.234 59.5226 107.172 59.7366 108.027 60.1495C110.437 61.3736 113.18 61.7795 115.841 61.3056C118.502 60.8318 120.937 59.504 122.776 57.5232C124.615 55.5425 125.759 53.0165 126.035 50.3276C126.311 47.6386 125.703 44.9331 124.304 42.6203C123.365 41.0719 122.105 39.7421 120.61 38.72C119.523 37.9733 118.319 37.4127 117.048 37.061C116.602 36.9225 116.146 36.82 115.683 36.7542C115.351 36.684 115.014 36.6401 114.676 36.6228C114.131 36.5727 113.855 36.5414 113.855 36.5414Z" fill="#E0E0E0"/>
<path d="M41.3594 93.4428H81.7643C81.4575 89.217 81.1382 84.3026 81.1382 84.1836C81.1382 83.9394 84.8945 57.7583 84.8945 57.7583L87.5239 47.0654L77.8202 42.1572L73.9888 38.1255L73.1624 37.1113H58.0622L57.599 38.4698L52.96 43.04L43.6507 46.1702C43.6507 46.1702 41.9541 51.5667 42.0668 56.3184C42.1482 59.987 41.3594 86.7191 41.3594 86.7191V93.4428Z" fill="#1F2024"/>
<path d="M33.9474 55.1789C32.2007 59.1793 30.5041 70.5608 27.9123 81.6355C27.0255 85.5057 26.6425 89.4743 26.7729 93.4427H38.2671L39.0935 88.0462L41.7479 75.976L43.626 46.1638C41.4611 46.8854 39.4765 48.0637 37.8066 49.6191C36.1367 51.1745 34.8206 53.0705 33.9474 55.1789Z" fill="#1F2024"/>
<path d="M72.8807 20.0827C72.9871 20.0326 77.2066 18.7242 77.144 23.0501C77.0814 27.3761 72.7617 26.4183 72.7617 26.2993C72.7617 26.1804 72.8807 20.0827 72.8807 20.0827Z" fill="#F8AD91"/>
<path d="M74.0895 24.678C74.0895 24.678 74.1646 24.7281 74.2899 24.7907C74.4708 24.8625 74.6724 24.8625 74.8533 24.7907C75.1343 24.6169 75.3645 24.3719 75.5206 24.0806C75.6767 23.7893 75.7532 23.462 75.7423 23.1317C75.7567 22.7603 75.6883 22.3903 75.5419 22.0487C75.5043 21.9125 75.4338 21.7876 75.3366 21.685C75.2395 21.5824 75.1187 21.5052 74.9848 21.4602C74.899 21.4365 74.8076 21.4436 74.7264 21.4802C74.6452 21.5168 74.5794 21.5805 74.5403 21.6605C74.4777 21.7795 74.5027 21.8671 74.4839 21.8734C74.4651 21.8796 74.39 21.8045 74.4276 21.6229C74.4515 21.515 74.5138 21.4193 74.6029 21.3537C74.6625 21.3097 74.7303 21.2781 74.8024 21.2609C74.8745 21.2437 74.9493 21.2412 75.0224 21.2536C75.1993 21.2914 75.3636 21.3741 75.4995 21.4935C75.6354 21.613 75.7384 21.7653 75.7986 21.936C75.9794 22.3121 76.0634 22.7274 76.0428 23.1442C76.0616 23.5336 75.9646 23.9199 75.7641 24.2541C75.5635 24.5884 75.2683 24.8558 74.9159 25.0224C74.799 25.0536 74.6766 25.0586 74.5576 25.0369C74.4385 25.0153 74.3257 24.9675 74.2273 24.8972C74.0958 24.7782 74.0707 24.6843 74.0895 24.678Z" fill="#CE8679"/>
<path d="M50.9695 28.9163C50.8756 25.8612 51.2011 19.557 51.558 13.8537C51.7448 10.8967 53.0383 8.11839 55.181 6.07197C57.3237 4.02554 60.1585 2.86105 63.121 2.8103H63.7471C70.3331 3.0795 73.7638 8.82659 73.3318 15.4063L72.7621 37.1238L61.4933 44.1167L57.5242 40.9865V36.1096C57.5242 36.1096 51.1385 35.2394 50.9695 28.9163Z" fill="#F8AD91"/>
<path d="M57.4922 36.1096C60.4138 36.1067 63.2684 35.235 65.6934 33.6055C65.6934 33.6055 63.8716 38.2632 57.5548 37.8062L57.4922 36.1096Z" fill="#CE8679"/>
<path d="M54.1055 18.5053C54.107 18.7401 54.2002 18.965 54.365 19.1322C54.5299 19.2994 54.7535 19.3956 54.9882 19.4005C55.1037 19.4081 55.2196 19.3925 55.3289 19.3544C55.4382 19.3164 55.5388 19.2568 55.6247 19.1791C55.7105 19.1014 55.7799 19.0073 55.8286 18.9023C55.8774 18.7973 55.9045 18.6836 55.9085 18.5679C55.9053 18.3325 55.8108 18.1076 55.6449 17.9406C55.4791 17.7736 55.2548 17.6775 55.0195 17.6726C54.9045 17.6659 54.7893 17.6822 54.6807 17.7206C54.5721 17.7591 54.4722 17.8188 54.3871 17.8964C54.3019 17.974 54.2332 18.0678 54.1848 18.1724C54.1364 18.2769 54.1094 18.3901 54.1055 18.5053Z" fill="#1F2024"/>
<path d="M63.7412 18.4237C63.7412 18.659 63.8338 18.8848 63.999 19.0524C64.1642 19.2199 64.3887 19.3157 64.6239 19.319C64.7389 19.3266 64.8543 19.3111 64.9632 19.2735C65.0722 19.2358 65.1725 19.1767 65.2582 19.0997C65.344 19.0227 65.4135 18.9293 65.4626 18.8251C65.5117 18.7208 65.5395 18.6077 65.5442 18.4926C65.5426 18.2567 65.4486 18.0309 65.2824 17.8635C65.1162 17.6962 64.8911 17.6006 64.6552 17.5973C64.5406 17.5897 64.4255 17.6052 64.3169 17.643C64.2083 17.6807 64.1084 17.7399 64.0232 17.8169C63.9379 17.894 63.869 17.9875 63.8206 18.0917C63.7721 18.1959 63.7452 18.3089 63.7412 18.4237Z" fill="#1F2024"/>
<path d="M52.9164 17.2029C53.0291 17.3156 53.7052 16.796 54.6818 16.7835C55.6584 16.771 56.3721 17.2405 56.4786 17.1215C56.585 17.0026 56.4097 16.8586 56.0966 16.6395C55.6708 16.3558 55.1683 16.2094 54.6568 16.22C54.1494 16.2245 53.6573 16.3937 53.2544 16.7021C52.9602 16.9525 52.86 17.1466 52.9164 17.2029Z" fill="#1F2024"/>
<path d="M62.6887 16.8087C62.8076 16.9151 63.4524 16.3517 64.4228 16.2766C65.3931 16.2014 66.1381 16.6271 66.2321 16.5019C66.326 16.3767 66.1507 16.2453 65.8252 16.0449C65.3816 15.7892 64.8703 15.6756 64.3602 15.7194C63.8567 15.7564 63.3784 15.9539 62.9954 16.2828C62.7137 16.5395 62.6323 16.7586 62.6887 16.8087Z" fill="#1F2024"/>
<path d="M59.1267 24.2083C58.6119 24.0552 58.0795 23.9689 57.5428 23.9517C57.2986 23.9517 57.0607 23.8828 57.0169 23.7138C56.9899 23.4579 57.0424 23.2 57.1671 22.975C57.3925 22.349 57.6242 21.723 57.8683 21.0969C58.8449 18.3861 59.5399 16.1574 59.4334 16.1199C59.327 16.0823 58.4443 18.2484 57.4739 20.9592L56.804 22.8686C56.6546 23.1713 56.6148 23.5165 56.6913 23.8453C56.7288 23.9321 56.7854 24.0093 56.857 24.0711C56.9286 24.1329 57.0132 24.1777 57.1046 24.2021C57.2441 24.235 57.3869 24.2518 57.5303 24.2522C58.062 24.307 58.5987 24.2922 59.1267 24.2083Z" fill="#1F2024"/>
<path d="M62 24.8344C61.8435 24.8344 61.8623 25.8799 60.9671 26.6437C60.0718 27.4075 58.9512 27.3135 58.9512 27.4575C58.9512 27.6015 59.2016 27.6641 59.6774 27.6641C60.2975 27.6638 60.8971 27.4418 61.3677 27.0381C61.8183 26.6519 62.103 26.1072 62.1628 25.5168C62.1941 25.0911 62.0751 24.8219 62 24.8344Z" fill="#1F2024"/>
<path d="M62.2316 12.927C62.3568 13.1775 63.3084 12.9583 64.4541 12.9771C65.5997 12.9959 66.5576 13.215 66.6828 12.9771C66.7391 12.8582 66.5513 12.6265 66.1569 12.4137C65.6318 12.1515 65.0539 12.0124 64.467 12.007C63.8802 12.0016 63.2998 12.13 62.77 12.3824C62.3693 12.5702 62.1815 12.8081 62.2316 12.927Z" fill="#E0E0E0"/>
<path d="M53.0549 14.5924C53.2302 14.8052 53.8938 14.5924 54.7014 14.5423C55.509 14.4922 56.1914 14.6675 56.3417 14.4296C56.4105 14.3169 56.2978 14.0978 55.9973 13.8975C55.5966 13.6432 55.1247 13.5246 54.6513 13.5594C54.1794 13.5732 53.7238 13.7353 53.3492 14.0227C53.0675 14.2543 52.9798 14.486 53.0549 14.5924Z" fill="#E0E0E0"/>
<path d="M68.5298 17.0027C68.5298 17.0402 68.2669 17.2656 67.8474 17.4284C67.6052 17.5554 67.3301 17.6056 67.0586 17.5724C67.2879 17.4423 67.5317 17.3393 67.7848 17.2656C68.0206 17.1459 68.2711 17.0575 68.5298 17.0027Z" fill="#CE8679"/>
<path d="M69.2121 17.9543C68.8999 18.0143 68.579 18.0143 68.2668 17.9543C67.9497 17.9636 67.6335 17.9148 67.334 17.8103C67.6469 17.7573 67.9664 17.7573 68.2793 17.8103C68.5963 17.8028 68.9121 17.8516 69.2121 17.9543Z" fill="#CE8679"/>
<path d="M52.7537 18.6178C52.7537 18.6678 52.5221 18.7054 52.2403 18.7117C51.9586 18.7179 51.7207 18.6741 51.7207 18.6303C51.7207 18.5865 51.9523 18.5364 52.2341 18.5364C52.5158 18.5364 52.7537 18.5677 52.7537 18.6178Z" fill="#CE8679"/>
<path d="M52.5158 18.1296C52.5158 18.1671 52.2904 18.092 52.0713 17.9605C51.8522 17.829 51.6894 17.6913 51.7145 17.6475C51.7395 17.6037 51.9398 17.6788 52.159 17.8165C52.3781 17.9543 52.5409 18.0857 52.5158 18.1296Z" fill="#CE8679"/>
<path d="M62.5014 9.51514C62.5014 9.51514 62.2008 9.60905 61.725 9.79686C61.2492 9.98468 60.6232 10.304 59.9033 10.617C59.2863 10.9033 58.6174 11.0609 57.9375 11.0802C57.7266 11.0793 57.5165 11.054 57.3114 11.0051C57.1737 10.9613 57.0986 10.93 57.1049 10.9175C57.3774 10.9444 57.6511 10.957 57.925 10.9551C58.5751 10.8968 59.2103 10.7274 59.8031 10.4542C60.5168 10.1474 61.1554 9.82817 61.6812 9.68418C61.9424 9.57953 62.2201 9.52228 62.5014 9.51514Z" fill="#CE8679"/>
<path d="M61.2242 9.37138C60.6329 9.71386 59.9757 9.92723 59.296 9.99743C58.6229 10.1228 57.9306 10.0993 57.2676 9.92855C57.2676 9.87221 58.1754 9.99116 59.2709 9.82838C60.3665 9.66561 61.1991 9.3213 61.2242 9.37138Z" fill="#CE8679"/>
<path d="M63.2215 25.0913C63.1777 25.0913 63.0274 24.7407 62.5955 24.5779C62.3385 24.5075 62.0691 24.4947 61.8066 24.5404C61.8066 24.5404 61.8693 24.4465 62.0258 24.3964C62.2289 24.3282 62.4487 24.3282 62.6518 24.3964C62.8543 24.4768 63.0225 24.6251 63.1276 24.8158C63.2341 24.9661 63.2403 25.0913 63.2215 25.0913Z" fill="#CE8679"/>
<path d="M64.0417 24.8783C63.9064 24.621 63.7162 24.3966 63.4845 24.2209C63.2285 24.0854 62.9471 24.0044 62.6582 23.983C62.6582 23.983 62.7521 23.9079 62.9274 23.8954C63.1498 23.8897 63.3685 23.9532 63.5534 24.0769C63.7507 24.1979 63.9025 24.3805 63.9854 24.5965C64.0731 24.7656 64.0605 24.8783 64.0417 24.8783Z" fill="#CE8679"/>
<path d="M74.464 11.2681C74.2261 8.2881 72.9365 5.50844 70.4699 3.81812C68.8985 2.74133 67.3396 2.51595 65.4615 2.30936C63.7438 2.06985 62.0039 2.03414 60.2778 2.20294C59.7168 2.21482 59.1562 2.16443 58.6063 2.05269C57.6172 1.8461 56.7282 1.25761 55.7641 1.00719C54.8 0.756773 53.5291 1.00719 53.1472 1.92748C53.0101 2.41198 52.9823 2.92091 53.0658 3.41747C53.076 3.49813 53.0583 3.57985 53.0157 3.6491C52.9406 3.73048 52.8091 3.71171 52.7027 3.69293C51.6572 3.54268 50.7244 4.62574 50.7807 5.67123C50.8508 6.19706 51.0626 6.69394 51.3935 7.1086C51.7243 7.52327 52.1617 7.84009 52.6589 8.02514L52.8029 8.07524C52.5195 8.88452 52.3366 9.72554 52.2582 10.5794C52.5492 9.76471 52.9314 8.98553 53.3976 8.25678C54.1701 8.42579 54.9629 8.48273 55.7515 8.42582C56.7532 8.44374 57.7466 8.2429 58.6627 7.83734C59.2203 7.51847 59.7465 7.14745 60.234 6.72925C60.7654 6.31662 61.3238 5.94014 61.9056 5.60235C62.8395 5.26765 63.8356 5.14238 64.8234 5.23542C65.8111 5.32846 66.7663 5.63754 67.6214 6.14076C69.3618 7.11739 70.7078 9.74051 70.9081 11.9254C71.2081 14.8367 71.3022 17.7655 71.1898 20.69C71.146 21.5602 71.1898 22.6558 72.0224 22.9751C72.1768 23.0409 72.3446 23.0693 72.512 23.058C72.6794 23.0466 72.8418 22.9959 72.9858 22.9098C73.1299 22.8237 73.2516 22.7048 73.3409 22.5627C73.4303 22.4207 73.4847 22.2595 73.4999 22.0924C73.5917 21.3654 73.6419 20.6339 73.6502 19.9012L74.3075 19.8449C74.9273 16.9525 74.7019 14.248 74.464 11.2681Z" fill="#E0E0E0"/>
<path d="M98.7175 86.9756C98.2292 84.628 96.4262 80.9719 96.4262 80.9719C96.4262 80.9719 95.0051 70.0036 94.2977 69.4025L93.5902 68.7765C93.5902 68.7765 94.7922 64.4693 94.6796 63.1421C94.5669 61.8149 93.1019 50.471 90.7292 48.7431C89.6115 47.9388 88.3874 47.2941 87.0919 46.8274L84.5877 57.2197L81.7267 72.996C81.7267 72.996 81.1445 79.7072 81.3573 81.5102C81.5702 83.3133 83.8615 92.2031 84.7067 93.3675H97.5218C97.9538 92.0779 99.2059 89.317 98.7175 86.9756Z" fill="#1F2024"/>
<path d="M96.1195 83.4573C96.0048 83.3382 95.9021 83.2082 95.8127 83.0691C95.5548 82.7022 95.3166 82.3219 95.099 81.9297C94.7765 81.3444 94.4942 80.7378 94.2539 80.1142C93.9998 79.346 93.6684 78.6055 93.2647 77.9043C92.8051 77.2426 92.2355 76.6645 91.5807 76.1952L89.9905 75.0057L88.92 74.1918C88.7862 74.0934 88.6587 73.9868 88.5381 73.8726C88.6872 73.9444 88.8279 74.0325 88.9575 74.1355L90.0594 74.9055C90.5226 75.2373 91.0736 75.6192 91.6808 76.07C92.3564 76.544 92.9434 77.1331 93.415 77.8104C93.8201 78.524 94.1515 79.2771 94.4041 80.0579C94.631 80.678 94.8988 81.2824 95.2055 81.8671C95.4684 82.3742 95.7063 82.7624 95.8691 83.0316C95.9654 83.1655 96.0492 83.308 96.1195 83.4573Z" fill="#1F2024"/>
<path d="M91.9813 82.4244C91.9322 82.5447 91.8646 82.6566 91.781 82.7562C91.5826 83.0473 91.3607 83.3216 91.1174 83.5763C90.3301 84.4535 89.3027 85.0804 88.1625 85.3793C87.5871 85.5114 86.9908 85.524 86.4103 85.4163C85.8299 85.3087 85.2778 85.083 84.7881 84.7533C84.4972 84.5494 84.2432 84.2974 84.0368 84.0083C83.9554 83.9061 83.89 83.7921 83.8428 83.6702C84.1262 84.0499 84.4686 84.3817 84.857 84.6531C85.8302 85.2626 87.0057 85.4608 88.1249 85.204C89.2319 84.9088 90.2367 84.3155 91.0298 83.4887C91.6495 82.8689 91.9563 82.4056 91.9813 82.4244Z" fill="#1F2024"/>
<path d="M92.3132 68.595C91.9449 68.5549 91.5791 68.4943 91.2176 68.4135C90.3377 68.2663 89.4487 68.1805 88.5569 68.1568C87.6659 68.1381 86.7747 68.182 85.8899 68.2882C85.2138 68.3696 84.7943 68.4448 84.7881 68.4197C84.8791 68.3748 84.9761 68.3432 85.0761 68.3258C85.2639 68.2757 85.5331 68.2194 85.8774 68.163C87.6566 67.8767 89.4733 67.9213 91.2363 68.2945C91.5744 68.3696 91.8624 68.4385 92.0314 68.4948C92.1281 68.5199 92.2224 68.5534 92.3132 68.595Z" fill="#1F2024"/>
<path d="M90.9044 65.2583C90.9044 65.2583 90.5037 65.371 89.8526 65.5526C88.1682 66.0101 86.5469 66.6746 85.0258 67.5309C84.7194 67.725 84.4016 67.9006 84.0742 68.0568C84.0742 68.0568 84.1493 67.9816 84.3059 67.8689C84.4624 67.7563 84.6815 67.606 84.9695 67.4245C86.4685 66.4986 88.1099 65.826 89.8276 65.4336C90.1531 65.3585 90.4536 65.3084 90.6101 65.2834C90.7058 65.257 90.8056 65.2485 90.9044 65.2583Z" fill="#1F2024"/>
<path d="M88.4753 50.396C88.4602 50.4563 88.4392 50.5151 88.4126 50.5713L88.1935 51.0533C88.0057 51.4728 87.7365 52.0863 87.4235 52.8438C87.1105 53.6013 86.7662 54.5279 86.4218 55.5546C86.0775 56.5813 85.7457 57.7332 85.4452 58.954C85.1447 60.1748 84.9256 61.3518 84.7503 62.4223C84.575 63.4928 84.4686 64.4695 84.3997 65.2896C84.3309 66.1097 84.287 66.7733 84.262 67.2366V67.7625C84.2701 67.8248 84.2701 67.8879 84.262 67.9503C84.2525 67.888 84.2525 67.8247 84.262 67.7625V67.2303C84.262 66.7733 84.262 66.1034 84.3434 65.2833C84.4247 64.4632 84.4999 63.4803 84.6564 62.3973C84.8129 61.3142 85.0445 60.1372 85.3388 58.9102C85.633 57.6831 85.9648 56.5375 86.3342 55.5045C86.7035 54.4715 87.0479 53.5575 87.3734 52.8C87.699 52.0425 87.9995 51.4352 88.1998 51.0283L88.444 50.5525C88.4486 50.4993 88.4591 50.4469 88.4753 50.396Z" fill="#1F2024"/>
<path d="M90.7738 78.7558C90.7738 78.6243 90.1478 75.7759 88.2696 74.0292C86.3915 72.2825 83.8372 67.6185 83.8372 67.6185C83.1707 66.4036 82.8037 65.0471 82.7667 63.6619C82.8606 61.7837 84.4633 59.2107 83.4992 58.7975C82.5351 58.3843 80.3689 58.8476 79.649 62.9294C78.929 67.0112 79.1419 68.7141 79.1419 68.7141C79.1419 68.7141 74.4591 68.9833 74.5092 70.7738C74.4769 71.2345 74.5699 71.6953 74.7782 72.1075C74.9865 72.5197 75.3023 72.8679 75.6924 73.1151C75.6924 73.1151 74.5092 74.4424 75.1039 75.1811C75.5678 75.6445 76.1949 75.9075 76.8506 75.9136C76.8506 75.9136 76.1119 76.1389 76.8944 77.3785C77.1069 77.7346 77.3926 78.0414 77.7326 78.2789C78.0725 78.5163 78.459 78.6789 78.8664 78.7558C78.7915 79.0422 78.7773 79.3411 78.8247 79.6332C78.8722 79.9254 78.9802 80.2044 79.1419 80.4524C79.6928 81.3727 80.0622 81.4165 80.4754 81.3727C80.8886 81.3289 83.1361 80.9157 83.1361 80.9157C83.2824 81.2877 83.511 81.6217 83.8049 81.8928C84.0987 82.1639 84.4501 82.3649 84.8327 82.4808L84.7387 83.3885C84.7387 83.3885 84.6448 86.1431 87.9503 85.2667C91.2559 84.3902 91.4186 81.6043 90.7738 78.7558Z" fill="#F8AD91"/>
<path d="M83.2291 67.1612C83.2291 67.1612 83.0788 67.1236 82.8159 67.0923C82.435 67.0657 82.0528 67.1213 81.6953 67.2551C81.1707 67.4677 80.6728 67.7409 80.2115 68.069C79.9268 68.2598 79.6322 68.4353 79.3288 68.5948C78.9971 68.7558 78.6485 68.8797 78.2896 68.9642C77.5571 69.127 76.8559 69.2459 76.2236 69.3774C75.9299 69.4305 75.6453 69.5254 75.3785 69.6591C75.1498 69.776 74.9539 69.9481 74.8088 70.1599C74.6092 70.4794 74.5191 70.8552 74.5521 71.2305C74.5521 71.4997 74.6272 71.6437 74.6147 71.6499C74.6022 71.6562 74.6147 71.6186 74.5646 71.5498C74.5289 71.45 74.5016 71.3474 74.4832 71.243C74.4215 70.8465 74.5013 70.4409 74.7086 70.0974C74.8629 69.8567 75.0791 69.662 75.3347 69.5339C75.6136 69.3905 75.9105 69.2853 76.2174 69.2209C76.8434 69.0831 77.5508 68.9579 78.277 68.7952C78.9506 68.6274 79.5873 68.3366 80.1552 67.9375C80.6306 67.6084 81.146 67.3412 81.689 67.1424C82.0625 67.0125 82.4613 66.9718 82.8534 67.0235C82.9588 67.0403 83.0618 67.0697 83.1602 67.1111C83.1978 67.1362 83.2291 67.1549 83.2291 67.1612Z" fill="#CE8679"/>
<path d="M83.0977 69.9976C82.7527 70.1895 82.3926 70.3528 82.021 70.4859L79.3853 71.5564C78.3523 71.9696 77.4195 72.3515 76.7496 72.6395C76.4178 72.7835 76.1236 72.9024 75.9671 72.99C75.8747 73.0442 75.7759 73.0863 75.6729 73.1152C75.9892 72.877 76.3341 72.6793 76.6996 72.5268C77.3632 72.2075 78.2897 71.8131 79.3227 71.3936C80.3557 70.9742 81.2947 70.6236 81.9771 70.3732C82.3425 70.2249 82.7168 70.0994 83.0977 69.9976Z" fill="#CE8679"/>
<path d="M87.3801 76.4707C87.3387 76.585 87.2772 76.691 87.1985 76.7837C86.9889 77.0395 86.7317 77.2521 86.441 77.4098C86.0046 77.6446 85.5297 77.7994 85.0387 77.8668C84.4486 77.9355 83.8546 77.9648 83.2607 77.9544C82.1889 77.9562 81.1226 78.1079 80.0929 78.4052C79.3041 78.6306 78.8408 78.8371 78.8408 78.8121C78.9372 78.7386 79.0451 78.6815 79.1601 78.6431C79.4561 78.5029 79.7615 78.3837 80.0741 78.2862C81.1078 77.9535 82.1873 77.7845 83.2732 77.7854C83.8628 77.7919 84.4522 77.7647 85.0387 77.704C85.5119 77.6533 85.9721 77.5175 86.3972 77.3033C86.7802 77.0986 87.1152 76.8148 87.3801 76.4707Z" fill="#CE8679"/>
<path d="M88.2254 79.0061C88.248 79.0838 88.248 79.1663 88.2254 79.244C88.1988 79.4628 88.1097 79.6693 87.9687 79.8388C87.7594 80.092 87.481 80.2791 87.1674 80.3771C86.7945 80.4882 86.4135 80.5698 86.0279 80.6213C85.2266 80.7465 84.4941 80.8467 83.9557 80.903C83.6694 80.9461 83.3782 80.9461 83.0918 80.903C83.0918 80.903 83.4174 80.8529 83.9432 80.7653L86.0029 80.4335C86.3795 80.3894 86.752 80.3162 87.1173 80.2144C87.4063 80.1297 87.6677 79.9698 87.8748 79.7511C88.068 79.5465 88.1909 79.2854 88.2254 79.0061Z" fill="#CE8679"/>
<path d="M88.9767 80.2707C88.8744 80.487 88.7246 80.6774 88.5385 80.8278C88.1123 81.2265 87.5791 81.4921 87.0042 81.5922C86.4292 81.6923 85.8376 81.6225 85.3018 81.3913C85.0678 81.3143 84.8539 81.1859 84.6758 81.0156C84.6758 81.0156 84.9199 81.1408 85.3018 81.2786C85.8239 81.4615 86.3834 81.511 86.9295 81.4226C87.4743 81.3198 87.9858 81.0855 88.4195 80.7402C88.7951 80.471 88.9517 80.2519 88.9767 80.2707Z" fill="#CE8679"/>
<path d="M88.9073 77.679C88.6678 76.8853 88.3358 76.1226 87.9181 75.4065C87.4485 74.7189 86.9001 74.0886 86.2842 73.5283C86.5158 73.6305 86.7277 73.7725 86.9102 73.9478C87.8142 74.7412 88.4669 75.7812 88.7884 76.9403C88.8691 77.1781 88.9093 77.4278 88.9073 77.679Z" fill="#CE8679"/>
<path d="M89.8215 77.1091C89.5785 76.8591 89.3682 76.5793 89.1955 76.2765C88.9782 76.0091 88.7933 75.717 88.6445 75.4062C88.9269 75.6147 89.1635 75.8789 89.3395 76.1825C89.5656 76.4527 89.7301 76.7689 89.8215 77.1091Z" fill="#CE8679"/>
<path d="M84.2681 73.8725C84.2681 73.9038 83.8361 73.9037 83.1475 74.0164C82.2518 74.1658 81.3701 74.3899 80.5118 74.6863L77.9262 75.569C77.5704 75.7006 77.2066 75.8093 76.8369 75.8946C77.1721 75.7187 77.5219 75.572 77.8824 75.4563C78.5084 75.2059 79.4413 74.8616 80.4617 74.5235C81.3292 74.2244 82.2249 74.0146 83.1349 73.8975C83.4115 73.8677 83.6894 73.8531 83.9676 73.8537C84.068 73.8415 84.1699 73.8478 84.2681 73.8725Z" fill="#CE8679"/>
<path d="M82.9281 72.489C82.774 72.6504 82.5627 72.7448 82.3396 72.752C81.939 72.8271 81.3818 72.6956 80.8246 72.8208C80.5491 72.8834 80.3112 73.0525 80.0483 73.1338C79.814 73.1927 79.5688 73.1927 79.3346 73.1338C79.1879 73.1038 79.0368 73.1038 78.8901 73.1338C78.79 73.1338 78.7399 73.1965 78.7273 73.1839C78.7148 73.1714 78.7273 73.1213 78.8713 73.0712C79.024 73.018 79.1873 73.0029 79.3471 73.0274C79.5563 73.0641 79.7712 73.049 79.9732 72.9836C80.2276 72.8584 80.4888 72.7476 80.7557 72.6518C81.0421 72.5947 81.3353 72.5799 81.6259 72.608C81.8509 72.6259 82.077 72.6259 82.3021 72.608C82.5145 72.5918 82.7245 72.5519 82.9281 72.489Z" fill="#CE8679"/>
<path d="M87.5672 74.0541C87.5234 74.0854 87.0914 73.5095 86.3903 72.9773C86.2036 72.8553 86.0541 72.6842 85.9583 72.4828C85.8832 72.2949 85.8456 72.1259 85.7955 71.9944C85.7447 71.8515 85.6635 71.7212 85.5576 71.6125C85.5576 71.6125 85.614 71.6126 85.6891 71.6626C85.7861 71.7352 85.8617 71.8325 85.9082 71.9444C85.9771 72.0821 86.0271 72.2511 86.1023 72.4139C86.1933 72.5885 86.3295 72.7355 86.4967 72.8396C86.9463 73.1521 87.3136 73.5688 87.5672 74.0541Z" fill="#CE8679"/>
<path d="M41.4662 93.33C41.4553 93.2239 41.4553 93.1169 41.4662 93.0107C41.4662 92.7666 41.4662 92.4598 41.4662 92.0967V88.6973C41.4662 85.855 41.5226 81.9297 41.5852 77.5912C41.6478 73.2528 41.7292 69.3212 41.7981 66.479C41.8419 65.0954 41.8794 63.9748 41.9045 63.1171C41.9045 62.7477 41.9358 62.4472 41.9483 62.2031C41.9445 62.0954 41.9572 61.9877 41.9859 61.8838C42.0004 61.9897 42.0004 62.0971 41.9859 62.2031C41.9859 62.4472 41.9859 62.754 41.9859 63.1171V66.4852C41.9859 69.3275 41.9358 73.259 41.8669 77.5975C41.798 81.936 41.7229 85.855 41.654 88.6973C41.6102 90.0808 41.5789 91.2015 41.5476 92.0654C41.5476 92.4348 41.5476 92.7353 41.5038 92.9794C41.511 93.0976 41.4983 93.2161 41.4662 93.33Z" fill="#1F2024"/>
<path d="M61.4871 44.5863C60.9821 44.7164 60.5389 45.02 60.2351 45.444C59.4846 46.4996 59.1058 47.7746 59.1582 49.0688V49.5133L58.864 49.1815L58.0314 48.2424C56.7793 46.8338 55.6837 45.5504 54.9011 44.6113C54.479 44.1069 54.0163 43.6379 53.5176 43.209C54.1309 43.494 54.6659 43.9236 55.0764 44.4611C55.9091 45.3626 57.0485 46.6272 58.288 48.0295L59.1144 48.9748L58.8327 49.0813C58.793 47.7206 59.2366 46.3898 60.0848 45.325C60.3359 45.0076 60.6727 44.7687 61.0552 44.6364C61.1903 44.5747 61.3415 44.5572 61.4871 44.5863Z" fill="#1F2024"/>
<path d="M60.3794 93.0232C60.3456 92.8627 60.3288 92.699 60.3293 92.5349C60.3293 92.2156 60.2855 91.7398 60.273 91.1326C60.2417 89.8805 60.273 88.1401 60.3356 85.9615C60.4358 81.5792 60.7238 75.5754 61.0869 68.9268C61.45 62.2782 61.7442 56.2619 61.8632 51.9046C61.9195 49.751 61.9571 47.9919 61.9884 46.7398C61.9884 46.1575 61.9884 45.688 61.9884 45.3374C61.9746 45.175 61.9746 45.0116 61.9884 44.8491C62.0167 45.0103 62.0272 45.174 62.0197 45.3374C62.0197 45.688 62.0197 46.1575 62.0197 46.7398C62.0197 47.9606 62.0197 49.726 62.0197 51.9109C61.9571 56.2932 61.7004 62.297 61.3373 68.9456C60.9742 75.5942 60.6549 81.6104 60.4921 85.9677C60.3982 88.1463 60.3293 89.9118 60.3231 91.1263C60.3231 91.7148 60.3231 92.1781 60.3231 92.5349C60.3555 92.6958 60.3744 92.8592 60.3794 93.0232Z" fill="#1F2024"/>
<path d="M73.0501 79.1313C72.7745 79.3542 72.4791 79.5512 72.1674 79.7198C71.5852 80.0829 70.74 80.5838 69.6632 81.1973C67.5535 82.4494 64.611 84.0583 61.2993 85.7674C57.9875 87.4765 54.9512 88.8976 52.7287 89.9306C51.6206 90.4314 50.7191 90.8259 50.0868 91.0888C49.7673 91.2411 49.4366 91.3688 49.0977 91.4707C49.3983 91.2833 49.7121 91.118 50.0367 90.9761L52.6348 89.724C54.826 88.666 57.8498 87.1823 61.149 85.4857C64.4483 83.7891 67.4094 82.1802 69.5505 81.0032L72.0547 79.6197C72.3728 79.4304 72.7057 79.2671 73.0501 79.1313Z" fill="#1F2024"/>
<path d="M77.3883 41.2368C77.1953 41.3987 76.9854 41.5393 76.7622 41.6563L75.0469 42.708C73.6007 43.6033 71.6161 44.8616 69.4751 46.3328C68.1416 47.2468 66.9083 48.1358 65.8565 48.9121L65.6687 49.0498L65.6312 48.8245C65.4122 47.6653 64.8894 46.5851 64.1161 45.6942C63.5527 45.0682 63.1332 44.7614 63.1583 44.7301C63.2719 44.7731 63.3776 44.8344 63.4713 44.9117C63.7486 45.1102 64.0064 45.3345 64.2413 45.5816C65.0914 46.4673 65.6713 47.577 65.9129 48.7806L65.6812 48.693C66.7205 47.8979 67.9538 46.9964 69.2935 46.0761C71.4346 44.5987 73.4505 43.3716 74.9279 42.5265C75.6729 42.1008 76.2802 41.7752 76.6996 41.5561C76.9159 41.4232 77.1471 41.316 77.3883 41.2368Z" fill="#1F2024"/>
</svg>
