<svg width="180" height="181" viewBox="0 0 180 181" fill="none" xmlns="http://www.w3.org/2000/svg">
<g filter="url(#filter0_d_4809_18176)">
<circle cx="90.3333" cy="86.4337" r="58.6446" fill="#7863FD"/>
</g>
<path d="M82.5539 77.2751C82.5539 75.119 83.4104 73.0512 84.935 71.5266C86.4596 70.002 88.5274 69.1455 90.6835 69.1455C92.8396 69.1455 94.9074 70.002 96.432 71.5266C97.9566 73.0512 98.8131 75.119 98.8131 77.2751C98.8131 79.4312 97.9566 81.499 96.432 83.0236C94.9074 84.5482 92.8396 85.4047 90.6835 85.4047C88.5274 85.4047 86.4596 84.5482 84.935 83.0236C83.4104 81.499 82.5539 79.4312 82.5539 77.2751Z" fill="white"/>
<path fill-rule="evenodd" clip-rule="evenodd" d="M90.0977 53.7891C84.5174 53.7893 79.1414 55.888 75.0369 59.6685C70.9325 63.449 68.3998 68.6347 67.9418 74.1961C67.4307 80.395 69.3452 86.5504 73.2821 91.3658L86.2713 107.249C86.8061 107.902 87.4793 108.429 88.2422 108.79C89.0051 109.152 89.8388 109.339 90.683 109.339C91.5272 109.339 92.3608 109.152 93.1238 108.79C93.8867 108.429 94.5599 107.902 95.0946 107.249L108.084 91.3658C112.021 86.5505 113.936 80.3951 113.424 74.1961C112.966 68.6347 110.433 63.449 106.329 59.6685C102.225 55.888 96.8485 53.7893 91.2683 53.7891H90.0977ZM90.683 63.7252C87.0895 63.7252 83.6432 65.1527 81.1022 67.6937C78.5612 70.2347 77.1337 73.681 77.1337 77.2745C77.1337 80.868 78.5612 84.3143 81.1022 86.8553C83.6432 89.3963 87.0895 90.8238 90.683 90.8238C94.2765 90.8238 97.7228 89.3963 100.264 86.8553C102.805 84.3143 104.232 80.868 104.232 77.2745C104.232 73.681 102.805 70.2347 100.264 67.6937C97.7228 65.1527 94.2765 63.7252 90.683 63.7252Z" fill="white"/>
<path d="M73.8315 100.148C74.4736 100.469 74.962 101.031 75.1896 101.712C75.4172 102.393 75.3654 103.136 75.0456 103.779L69.7812 114.311H111.596L106.328 103.779C106.166 103.46 106.068 103.113 106.041 102.756C106.014 102.399 106.058 102.041 106.17 101.701C106.282 101.362 106.46 101.047 106.694 100.777C106.928 100.506 107.213 100.285 107.533 100.125C107.853 99.9655 108.201 99.8706 108.558 99.8462C108.915 99.8217 109.273 99.8682 109.612 99.9828C109.95 100.097 110.263 100.278 110.532 100.514C110.801 100.75 111.02 101.037 111.177 101.358L118.403 115.811C118.61 116.224 118.707 116.683 118.686 117.144C118.665 117.605 118.526 118.054 118.284 118.446C118.041 118.839 117.701 119.163 117.298 119.388C116.895 119.613 116.441 119.731 115.979 119.731H65.3948C64.9334 119.73 64.4797 119.612 64.0769 119.387C63.674 119.162 63.3353 118.838 63.0929 118.445C62.8504 118.052 62.7122 117.604 62.6914 117.143C62.6706 116.682 62.7679 116.224 62.974 115.811L70.2003 101.358C70.5214 100.716 71.084 100.228 71.7648 100C72.4456 99.7725 73.1889 99.8279 73.8315 100.148Z" fill="white"/>
<defs>
<filter id="filter0_d_4809_18176" x="0.68869" y="0.789062" width="179.289" height="179.289" filterUnits="userSpaceOnUse" color-interpolation-filters="sRGB">
<feFlood flood-opacity="0" result="BackgroundImageFix"/>
<feColorMatrix in="SourceAlpha" type="matrix" values="0 0 0 0 0 0 0 0 0 0 0 0 0 0 0 0 0 0 127 0" result="hardAlpha"/>
<feMorphology radius="2" operator="dilate" in="SourceAlpha" result="effect1_dropShadow_4809_18176"/>
<feOffset dy="4"/>
<feGaussianBlur stdDeviation="14.5"/>
<feComposite in2="hardAlpha" operator="out"/>
<feColorMatrix type="matrix" values="0 0 0 0 0 0 0 0 0 0 0 0 0 0 0 0 0 0 0.11 0"/>
<feBlend mode="normal" in2="BackgroundImageFix" result="effect1_dropShadow_4809_18176"/>
<feBlend mode="normal" in="SourceGraphic" in2="effect1_dropShadow_4809_18176" result="shape"/>
</filter>
</defs>
</svg>
