<svg width="180" height="181" viewBox="0 0 180 181" fill="none" xmlns="http://www.w3.org/2000/svg">
<g filter="url(#filter0_d_4809_18192)">
<circle cx="89.6667" cy="86.4337" r="58.6446" fill="#7863FD"/>
</g>
<path d="M105.624 53.7891H74.4203C72.351 53.9134 70.4142 54.8492 69.0308 56.3932C67.6473 57.9372 66.929 59.9647 67.0318 62.0352V111.083C66.929 113.154 67.6473 115.181 69.0308 116.725C70.4142 118.27 72.351 119.205 74.4203 119.33H105.624C107.693 119.205 109.63 118.27 111.013 116.725C112.397 115.181 113.115 113.154 113.012 111.083V62.0352C113.115 59.9647 112.397 57.9372 111.013 56.3932C109.63 54.8492 107.693 53.9134 105.624 53.7891ZM109.714 111.083C109.815 112.279 109.443 113.467 108.678 114.392C107.914 115.317 106.817 115.905 105.624 116.031H74.4203C73.227 115.905 72.1305 115.317 71.3659 114.392C70.6014 113.467 70.2296 112.279 70.3302 111.083V62.0352C70.2296 60.8395 70.6014 59.6519 71.3659 58.727C72.1305 57.8021 73.227 57.2136 74.4203 57.0875H79.467V58.7697C79.467 59.6446 79.8145 60.4835 80.4331 61.1021C81.0517 61.7207 81.8907 62.0682 82.7655 62.0682H97.2787C98.1535 62.0682 98.9925 61.7207 99.6111 61.1021C100.23 60.4835 100.577 59.6446 100.577 58.7697V57.0875H105.624C106.817 57.2136 107.914 57.8021 108.678 58.727C109.443 59.6519 109.815 60.8395 109.714 62.0352V111.083Z" fill="white"/>
<path d="M83.6713 109.429H96.8652C97.3026 109.429 97.7221 109.256 98.0314 108.946C98.3407 108.637 98.5144 108.217 98.5144 107.78C98.5144 107.343 98.3407 106.923 98.0314 106.614C97.7221 106.305 97.3026 106.131 96.8652 106.131H83.6713C83.2339 106.131 82.8144 106.305 82.5051 106.614C82.1959 106.923 82.0221 107.343 82.0221 107.78C82.0221 108.217 82.1959 108.637 82.5051 108.946C82.8144 109.256 83.2339 109.429 83.6713 109.429Z" fill="white"/>
<defs>
<filter id="filter0_d_4809_18192" x="0.0220947" y="0.789062" width="179.289" height="179.289" filterUnits="userSpaceOnUse" color-interpolation-filters="sRGB">
<feFlood flood-opacity="0" result="BackgroundImageFix"/>
<feColorMatrix in="SourceAlpha" type="matrix" values="0 0 0 0 0 0 0 0 0 0 0 0 0 0 0 0 0 0 127 0" result="hardAlpha"/>
<feMorphology radius="2" operator="dilate" in="SourceAlpha" result="effect1_dropShadow_4809_18192"/>
<feOffset dy="4"/>
<feGaussianBlur stdDeviation="14.5"/>
<feComposite in2="hardAlpha" operator="out"/>
<feColorMatrix type="matrix" values="0 0 0 0 0 0 0 0 0 0 0 0 0 0 0 0 0 0 0.11 0"/>
<feBlend mode="normal" in2="BackgroundImageFix" result="effect1_dropShadow_4809_18192"/>
<feBlend mode="normal" in="SourceGraphic" in2="effect1_dropShadow_4809_18192" result="shape"/>
</filter>
</defs>
</svg>
