<svg width="180" height="180" viewBox="0 0 180 180" fill="none" xmlns="http://www.w3.org/2000/svg">
<g filter="url(#filter0_d_4809_18124)">
<circle cx="89.6667" cy="85.6446" r="58.6446" fill="#7863FD"/>
</g>
<g clip-path="url(#clip0_4809_18124)">
<path d="M80.6187 67.7745C80.1648 67.9709 79.7155 68.1532 79.2706 68.3174L79.2497 68.3198C78.1886 68.4526 76.6883 68.8067 75.6014 69.0501C74.1441 69.3747 72.8239 70.0825 71.7398 70.3371C70.9353 70.4957 70.1177 70.5781 69.2978 70.5832C67.9754 70.5805 64.8476 70.0766 63.3247 69.7961L63.0851 69.752C62.4603 74.2193 59.6362 87.6272 58.1104 92.4726C58.6813 92.5175 59.538 92.5927 60.7251 92.728C61.4655 92.828 62.1941 93.002 62.8998 93.2473C62.9858 93.276 63.0708 93.3068 63.1546 93.3398C63.1546 93.3398 70.8052 96.8804 73.2096 98.5199C75.8544 100.323 87.3348 107.355 87.3348 107.355C88.7569 108.121 90.2291 108.79 91.7412 109.357C92.9395 109.761 94.2289 109.81 95.4544 109.499C96.5837 109.154 97.1395 108.325 97.1925 107.476L97.1655 107.04C98.1982 107.477 100.532 107.884 102.142 106.534C102.873 105.922 103.305 104.531 102.984 103.649L102.916 103.366C104.402 104.192 107.045 104.231 108.594 102.367C109.467 101.316 109.241 99.2607 107.92 98.0554L108.073 98.159C110.305 98.885 112.361 97.8585 113.042 96.7165C113.691 95.6292 113.974 93.8307 112.642 92.4134C113.904 91.5955 115.478 90.7886 116.803 89.9728C117.864 89.3012 118.965 88.6947 120.1 88.1568C118.536 82.6525 116.094 71.1296 115.463 66.8362C114.515 67.0602 113.452 67.2738 112.224 67.4686C110.569 67.7688 95.9705 64.7746 91.7645 64.3229C87.74 64.0681 84.0511 66.2895 80.6187 67.7745Z" fill="white"/>
<path d="M68.3585 98.3514C68.9351 97.0176 69.7271 95.7877 70.7028 94.7109C71.2059 94.0863 71.8194 93.5594 72.5129 93.1565C73.1171 92.8581 73.7928 92.7347 74.4635 92.8004C75.1342 92.866 75.7731 93.118 76.308 93.5278C77.3629 94.3601 77.7732 95.9368 77.4514 97.2335C77.1295 98.5302 74.6692 102.212 73.1802 103.135C72.7509 103.381 72.2726 103.53 71.7795 103.569C71.2863 103.609 70.7905 103.539 70.3274 103.365C69.2803 102.926 68.748 102.337 68.2763 101.304C67.9144 100.511 67.9666 99.267 68.3585 98.3514Z" fill="white"/>
<path d="M75.3004 101.974C75.7507 100.64 76.4171 99.3899 77.273 98.2726C77.7088 97.6296 78.2589 97.072 78.8959 96.6275C79.4555 96.2913 80.0979 96.1184 80.7506 96.1283C81.4033 96.1382 82.0402 96.3305 82.5894 96.6835C83.6732 97.4027 84.196 98.892 83.9886 100.169C83.7811 101.445 81.7 105.197 80.3371 106.207C79.9423 106.479 79.4924 106.66 79.0195 106.738C78.5466 106.815 78.0623 106.788 77.6014 106.656C76.5554 106.316 75.9947 105.789 75.4567 104.83C75.0437 104.094 74.9955 102.889 75.3004 101.974Z" fill="white"/>
<path d="M81.2846 106.734C81.494 105.573 82.356 103.552 83.284 102.733C83.7012 102.386 84.2085 102.164 84.7468 102.095C85.2851 102.025 85.8321 102.11 86.3237 102.34C87.2991 102.803 87.7844 104.168 87.7662 105.241C87.7481 106.314 86.9229 108.621 85.9229 109.612C85.631 109.882 85.2831 110.084 84.904 110.204C84.5248 110.324 84.1239 110.359 83.7298 110.306C83.3311 110.249 82.9489 110.109 82.6081 109.894C82.2673 109.679 81.9755 109.395 81.7518 109.06C81.3055 108.373 81.1385 107.541 81.2846 106.734Z" fill="white"/>
<path d="M61.724 97.0173C61.3908 96.1539 61.6653 94.6457 62.2155 93.9657C63.1029 92.8681 65.0623 93.1339 66.1196 93.798C66.8989 94.2873 67.9319 95.3852 68.1626 95.9234C68.8615 97.3868 68.1696 98.6705 67.6522 99.0711C67.045 99.5414 65.5573 99.6964 64.7989 99.5761C64.1126 99.4422 63.4712 99.1377 62.9338 98.6904C62.3963 98.2432 61.9803 97.6678 61.724 97.0173Z" fill="white"/>
<path d="M40.0515 60.9658C46.2764 62.6634 56.6343 65.3682 59.2829 66.1729C56.729 76.111 54.7012 90.0969 52.5422 95.7473C50.364 95.244 43.7085 93.5345 39.787 92.5556" fill="white"/>
<path d="M138.525 57.8848C132.301 59.5826 121.942 62.2872 119.294 63.0918C121.848 73.03 123.876 87.0164 126.036 92.6671C128.214 92.1637 134.87 90.4545 138.791 89.4754" fill="white"/>
<path d="M117.075 65.0087C117.912 64.7431 118.858 64.4599 119.501 64.2746L119.585 64.25C121.646 72.635 123.372 83.4211 125.12 89.7888C125.043 89.811 125.002 89.8232 125.002 89.8232C123.91 90.1531 122.223 90.4069 120.958 90.7396C119.542 87.6628 115.532 68.8071 115.319 65.6308C115.892 65.3905 116.478 65.1828 117.075 65.0087Z" fill="white"/>
<path d="M53.514 92.6581C55.2451 86.2679 56.9524 75.6322 58.9894 67.3408C59.0435 67.3508 59.0757 67.3552 59.0757 67.3552C60.3497 67.7219 62.7372 68.4796 63.2006 68.7325C62.9874 71.9088 59.0351 90.7431 57.6186 93.8201C56.3533 93.4874 54.6663 93.2337 53.5743 92.9037L53.4567 92.8688C53.476 92.7992 53.4951 92.729 53.514 92.6581Z" fill="white"/>
<path d="M90.0967 75.3641C89.0565 75.155 87.8915 75.3912 86.8693 75.5883C86.2387 75.7077 85.616 75.8655 85.0046 76.0609C84.4141 76.2524 83.6792 76.4666 83.224 76.9086C82.9829 77.1785 82.7884 77.4868 82.6487 77.8207C82.4753 78.1612 82.3055 78.5031 82.1348 78.8447C81.8283 79.4579 81.52 80.0711 81.1794 80.6661C80.5417 81.8436 79.6756 82.882 78.6317 83.7207C78.1625 84.1156 77.5871 84.3631 76.9777 84.4321C76.4112 84.5398 75.8266 84.5021 75.2786 84.3225C74.7376 84.0999 74.1655 83.5936 74.093 82.9799C74.0792 82.6139 74.0938 82.2473 74.1366 81.8836C74.1546 81.4396 74.1691 80.9955 74.1801 80.5512C74.2145 79.1533 74.2126 77.7533 74.3246 76.3587C74.3837 75.6237 74.4755 74.8934 74.5999 74.1678C74.7325 73.3926 74.8626 72.5654 75.2291 71.8605C75.9053 70.5606 77.2888 69.6574 78.6504 69.2144C80.045 68.7346 81.409 68.1702 82.7347 67.5241C85.4855 66.2412 88.3748 64.8488 91.4865 64.9586C91.6883 64.9656 91.8863 64.9857 92.0864 65.0092C92.1596 65.0182 92.2327 65.0272 92.3058 65.0362L92.4205 65.0511C92.4697 65.0576 92.4516 65.0552 92.3664 65.0435L92.4629 65.0568C92.8387 65.1089 93.214 65.164 93.5887 65.2221C94.5354 65.3681 95.4777 65.5266 96.4204 65.6881C98.6337 66.0668 100.844 66.4652 103.056 66.8512C105.082 67.2052 107.11 67.5607 109.146 67.8498C109.859 67.9512 110.574 68.051 111.292 68.1084C111.961 68.1421 112.632 68.0868 113.287 67.9439C114.075 67.8045 114.858 67.6443 115.637 67.4633C116.45 67.2739 116.106 66.0221 115.292 66.2112C114.472 66.4016 113.647 66.5692 112.818 66.7138C112.585 66.7546 112.35 66.7903 112.117 66.8312C111.876 66.8731 112.246 66.8379 112.121 66.8312C112.04 66.8268 111.953 66.8396 111.87 66.839C111.289 66.8227 110.71 66.7712 110.136 66.6848L109.875 66.651C109.701 66.628 109.968 66.6637 109.858 66.6486L109.719 66.6297C109.495 66.5985 109.271 66.5663 109.047 66.5331C108.584 66.4646 108.121 66.3932 107.659 66.3189C106.578 66.146 105.5 65.9626 104.422 65.7763C100.319 65.0673 96.2216 64.2118 92.0875 63.7095C89.0581 63.3417 86.0506 64.5772 83.3571 65.8093C81.976 66.4409 80.6149 67.1279 79.1916 67.658C78.4654 67.8909 77.7526 68.164 77.0567 68.476C76.3466 68.8336 75.6973 69.3007 75.1325 69.8603C74.5261 70.4549 74.0635 71.1801 73.7801 71.9806C73.527 72.7816 73.3501 73.6048 73.2518 74.4391C73.0478 75.9016 72.9365 77.3756 72.9186 78.8523C72.9034 79.5864 72.8929 80.3205 72.8707 81.0543C72.8574 81.4988 72.8393 81.9429 72.8166 82.3867C72.7345 82.9903 72.8482 83.6043 73.141 84.1385C73.4337 84.6727 73.8901 85.0989 74.443 85.3544C75.0777 85.6744 75.787 85.817 76.496 85.7672C77.2129 85.7635 77.9212 85.6105 78.5758 85.3179C79.2299 84.9541 79.8243 84.4921 80.3382 83.9479C81.3011 82.9492 82.1034 81.8071 82.7163 80.5625C83.0623 79.9042 83.3866 79.2345 83.7231 78.571C83.8507 78.3192 83.963 77.9545 84.1999 77.789C84.4321 77.6455 84.6819 77.5328 84.9432 77.4539C86.1245 77.0239 87.3564 76.7485 88.6083 76.6343C88.8495 76.6121 89.0922 76.5959 89.3345 76.5948C89.4284 76.5948 89.5225 76.5948 89.6164 76.6013C89.665 76.6043 89.7135 76.6086 89.7619 76.6135C89.5782 76.5951 89.7118 76.6078 89.7532 76.6162C89.9191 76.6576 90.0945 76.6336 90.2431 76.5492C90.3918 76.4648 90.5023 76.3265 90.5517 76.1629C90.5958 75.9969 90.573 75.8202 90.4882 75.6709C90.4035 75.5215 90.2635 75.4114 90.0984 75.3641H90.0967Z" fill="#7863FD"/>
<path d="M89.7507 76.6156C89.8075 76.6365 89.9833 76.7222 89.7659 76.6175C89.8173 76.6424 89.8708 76.6641 89.9225 76.6884C90.051 76.7493 90.1767 76.8158 90.3012 76.8848C90.6022 77.0522 90.8943 77.2364 91.1832 77.4228C92.0831 78.0067 92.957 78.631 93.834 79.2501C96.7822 81.3353 99.7562 83.3886 102.689 85.4959C104.337 86.6804 105.967 87.8893 107.579 89.1225C108.378 89.7356 109.169 90.3584 109.954 90.9908C110.351 91.3105 110.746 91.6327 111.139 91.9575C111.552 92.2672 111.937 92.6118 112.291 92.9875C112.68 93.4742 112.904 94.0716 112.931 94.6937C112.958 95.3159 112.788 95.9307 112.444 96.4497C112.073 96.9479 111.557 97.319 110.966 97.5119C110.593 97.6464 110.202 97.7256 109.805 97.7472C109.318 97.7977 108.826 97.7372 108.365 97.57C108.107 97.422 107.861 97.2555 107.628 97.0718C107.301 96.8478 106.974 96.6234 106.648 96.3985C105.91 95.8899 105.173 95.3794 104.437 94.8671C103.131 93.9582 101.827 93.0454 100.527 92.1284C100.378 92.043 100.201 92.0195 100.035 92.0631C99.8687 92.1067 99.7264 92.2138 99.6385 92.3613C99.5552 92.5108 99.5329 92.6867 99.5763 92.8523C99.6197 93.0179 99.7254 93.1602 99.8714 93.2496C102.35 95.0023 104.842 96.7356 107.348 98.4494C107.69 98.6935 108.081 98.8604 108.493 98.9384C108.996 99.0414 109.512 99.0723 110.023 99.0304C110.93 98.9619 111.801 98.6539 112.549 98.1378C113.153 97.6907 113.625 97.0885 113.914 96.3951C114.203 95.7016 114.299 94.9428 114.192 94.1992C114.067 93.318 113.659 92.5013 113.029 91.8731C112.25 91.1466 111.431 90.4653 110.574 89.8326C108.869 88.4675 107.134 87.1391 105.37 85.8472C102.146 83.4729 98.8417 81.2114 95.5751 78.8958C94.5253 78.1517 93.4793 77.4009 92.4131 76.6803C91.8237 76.2563 91.2019 75.8794 90.5533 75.5532C90.4042 75.4837 90.2525 75.4179 90.098 75.3619C89.9321 75.3177 89.7554 75.3404 89.606 75.4252C89.4567 75.51 89.3466 75.6501 89.2996 75.8153C89.2575 75.9812 89.2811 76.1569 89.3656 76.3058C89.4501 76.4547 89.5889 76.5651 89.7529 76.614L89.7507 76.6156Z" fill="#7863FD"/>
<path d="M87.0072 107.915C88.3205 108.64 89.683 109.272 91.0848 109.806C92.6939 110.428 94.8391 110.699 96.3995 109.792C96.8117 109.554 97.1588 109.218 97.4104 108.814C97.6619 108.41 97.8101 107.95 97.8417 107.475C97.8404 107.303 97.7716 107.139 97.6501 107.017C97.5287 106.896 97.3643 106.827 97.1926 106.826C97.0214 106.829 96.8582 106.898 96.7372 107.019C96.6162 107.14 96.5467 107.304 96.5434 107.475C96.4823 108.228 95.8272 108.74 95.0793 108.928C94.0611 109.149 93.002 109.092 92.0136 108.762C91.262 108.508 90.5272 108.207 89.8138 107.861C89.087 107.527 88.361 107.185 87.6626 106.794C86.9323 106.386 86.2769 107.507 87.0072 107.915Z" fill="#7863FD"/>
<path d="M63.1522 70.422C65.0574 70.8133 66.9861 71.0802 68.9259 71.221C69.9285 71.2722 70.9334 71.1853 71.9124 70.963C73.1138 70.6822 74.2199 70.0828 75.4127 69.7644C76.6731 69.4162 77.9548 69.1505 79.2498 68.9692C79.4203 68.9639 79.5823 68.8938 79.7029 68.7732C79.8235 68.6526 79.8936 68.4906 79.8989 68.3201C79.8979 68.1482 79.8292 67.9837 79.7077 67.8621C79.5862 67.7406 79.4216 67.6719 79.2498 67.6709C78.0753 67.8229 76.9212 68.088 75.7667 68.3471C74.5396 68.6235 73.4116 69.1142 72.2256 69.5164C70.4404 70.122 68.5335 69.9424 66.7031 69.6871C65.6309 69.5374 64.5623 69.3648 63.4973 69.1691C63.3315 69.128 63.1563 69.1521 63.0078 69.2364C62.8592 69.3207 62.7486 69.4588 62.6989 69.6222C62.6546 69.7882 62.6773 69.9649 62.7621 70.1143C62.8469 70.2637 62.987 70.3738 63.1522 70.4209V70.422Z" fill="#7863FD"/>
<path d="M113.389 92.7079C114.533 92.0047 115.723 91.3801 116.873 90.6879C118.022 89.9665 119.208 89.3073 120.427 88.7134C120.575 88.6255 120.682 88.4831 120.725 88.317C120.769 88.1508 120.745 87.9741 120.66 87.8251C120.57 87.6794 120.428 87.5739 120.262 87.5305C120.097 87.4871 119.921 87.5092 119.772 87.5923C118.553 88.1862 117.366 88.8454 116.218 89.5668C115.068 90.259 113.878 90.884 112.733 91.5868C112.022 92.023 112.674 93.1466 113.389 92.7079Z" fill="#7863FD"/>
<path d="M95.1217 99.1585C97.373 100.664 99.6659 102.11 101.965 103.543C102.497 103.904 103.081 104.182 103.696 104.367C104.37 104.546 105.072 104.597 105.764 104.518C107.269 104.343 108.919 103.513 109.521 102.042C110.174 100.446 109.477 98.4658 108.17 97.4166C108.046 97.2996 107.882 97.2344 107.711 97.2344C107.541 97.2344 107.377 97.2996 107.252 97.4166C107.132 97.5389 107.064 97.7038 107.064 97.8756C107.064 98.0474 107.132 98.2123 107.252 98.3346C108.188 99.0855 108.717 100.367 108.349 101.486C108.187 101.974 107.705 102.417 107.188 102.723C106.676 103.024 106.1 103.202 105.507 103.244C104.911 103.292 104.311 103.218 103.744 103.025C103.278 102.831 102.835 102.587 102.422 102.297C101.258 101.569 100.099 100.834 98.9445 100.092C97.8847 99.4131 96.8234 98.736 95.7771 98.0363C95.0806 97.5705 94.4298 98.6947 95.1217 99.1572V99.1585Z" fill="#7863FD"/>
<path d="M90.9144 103.848C92.7718 105.073 94.6201 106.345 96.547 107.458C97.3357 107.868 98.2091 108.087 99.0977 108.1C100.272 108.179 101.436 107.846 102.391 107.157C103.439 106.358 104.036 104.754 103.608 103.475C103.345 102.687 102.09 103.025 102.356 103.82C102.467 104.235 102.456 104.674 102.325 105.082C102.193 105.491 101.947 105.854 101.615 106.126C100.829 106.668 99.8733 106.904 98.9259 106.791C98.5359 106.76 98.1505 106.686 97.7766 106.571C97.7049 106.549 97.6335 106.526 97.5629 106.501C97.5305 106.49 97.3195 106.405 97.452 106.462C97.3379 106.412 97.2274 106.353 97.1212 106.287C96.2438 105.752 95.3735 105.205 94.5102 104.647C93.5257 104.013 92.5451 103.372 91.5685 102.726C90.869 102.265 90.2179 103.389 90.9134 103.847L90.9144 103.848Z" fill="#7863FD"/>
<path d="M58.1103 93.1196C59.7603 93.2505 61.4211 93.3666 62.982 93.9638C63.1481 94.0082 63.3249 93.9855 63.4743 93.9006C63.6238 93.8157 63.7338 93.6755 63.7808 93.5102C63.8226 93.3443 63.7988 93.1686 63.7143 93.0199C63.6298 92.8711 63.4911 92.7607 63.3272 92.7117C61.6642 92.0755 59.8693 91.9606 58.1103 91.8213C57.9386 91.8227 57.7743 91.8915 57.6529 92.013C57.5314 92.1344 57.4626 92.2987 57.4612 92.4705C57.4645 92.6416 57.534 92.8048 57.655 92.9258C57.776 93.0468 57.9392 93.1163 58.1103 93.1196Z" fill="#7863FD"/>
<path d="M50.0497 62.9814C46.8366 62.1213 43.6222 61.266 40.4126 60.3923C40.3163 60.3672 40.2156 60.3643 40.118 60.3839C40.0204 60.4035 39.9286 60.445 39.8494 60.5053C39.7702 60.5656 39.7058 60.6431 39.661 60.732C39.6162 60.8208 39.5923 60.9187 39.5909 61.0182C39.5947 69.192 39.4895 77.3657 39.4094 85.5392C39.3867 87.8637 39.3655 90.1884 39.3458 92.5131C39.3474 92.6548 39.3947 92.7922 39.4805 92.9049C39.5664 93.0177 39.6863 93.0998 39.8224 93.139C43.3552 94.0213 46.868 94.9804 50.3951 95.8844C51.0518 96.0529 51.7091 96.2212 52.3696 96.3743C52.5354 96.4148 52.7105 96.3905 52.8589 96.3062C53.0074 96.2219 53.118 96.0841 53.1681 95.9209C54.3525 92.8063 54.996 89.4669 55.6787 86.216C56.577 81.9358 57.3871 77.6378 58.2932 73.3593C58.7901 71.0126 59.3127 68.6705 59.9088 66.3465C59.9512 66.1805 59.9276 66.0046 59.843 65.8557C59.7585 65.7067 59.6194 65.5964 59.4552 65.5478C56.3468 64.6062 53.1868 63.821 50.0497 62.9814C49.2417 62.765 48.8971 64.0171 49.7045 64.2335C52.8422 65.072 56.0017 65.8583 59.1101 66.7998L58.6567 66.0014C57.5748 70.2209 56.719 74.4981 55.8643 78.7682C55.0626 82.777 54.3003 86.798 53.3298 90.7698C52.9581 92.3993 52.4864 94.0043 51.9174 95.5758L52.7158 95.1222C49.4752 94.3708 46.2689 93.459 43.0493 92.6232C42.0902 92.3743 41.1299 92.1289 40.1686 91.8869L40.6441 92.5131C40.7123 84.1408 40.821 75.7701 40.8697 67.3968C40.8822 65.2708 40.8887 63.1446 40.8892 61.0182L40.0675 61.6431C43.277 62.5181 46.4915 63.3741 49.7054 64.2335C50.5127 64.4496 50.8573 63.1975 50.0497 62.9814Z" fill="#7863FD"/>
<path d="M58.9031 67.9809C59.6816 68.206 60.4558 68.445 61.2258 68.698C61.5853 68.8156 61.9442 68.9355 62.2999 69.0637C62.4411 69.1145 62.5809 69.1675 62.7205 69.2216C62.886 69.2857 62.6074 69.1675 62.7454 69.2311C62.7884 69.2514 62.8311 69.2706 62.873 69.2928L62.5514 68.7323C62.5382 68.9257 62.5171 69.1183 62.4938 69.3109C62.4868 69.3672 62.4795 69.4234 62.4724 69.4797C62.45 69.6601 62.493 69.3371 62.4665 69.5243C62.4457 69.6709 62.4248 69.8172 62.4029 69.9636C62.3002 70.6484 62.1836 71.3311 62.0627 72.013C61.7316 73.8794 61.3645 75.7368 60.984 77.5923C60.1552 81.6325 59.277 85.6698 58.2296 89.6597C58.0192 90.4622 57.8007 91.2634 57.5575 92.057C57.4655 92.3567 57.3703 92.6555 57.2662 92.9512C57.2224 93.0759 57.1772 93.2003 57.129 93.3234C57.1079 93.3775 57.085 93.4299 57.0644 93.4835C57.1185 93.3407 57.1023 93.3959 57.0582 93.4924L57.7912 93.1949C56.4531 92.8481 55.0731 92.6712 53.7469 92.2785C52.9441 92.0407 52.6011 93.2933 53.4018 93.5306C54.7271 93.9233 56.1066 94.0986 57.4461 94.4467C57.584 94.4834 57.7301 94.4742 57.8623 94.4205C57.9946 94.3669 58.1057 94.2716 58.1791 94.1492C58.6517 93.0138 59.0306 91.8417 59.3118 90.6445C59.8144 88.7847 60.2623 86.9099 60.6948 85.0325C61.6226 81.0023 62.4814 76.954 63.2201 72.8856C63.506 71.5143 63.7162 70.1283 63.8498 68.734C63.8512 68.6203 63.8221 68.5084 63.7656 68.4097C63.7091 68.3111 63.6272 68.2295 63.5284 68.1732C62.9252 67.8901 62.2997 67.6571 61.6583 67.4765C60.8593 67.2138 60.0559 66.9652 59.2483 66.7308C58.4441 66.4984 58.1006 67.7508 58.9031 67.9826V67.9809Z" fill="#7863FD"/>
<path d="M128.872 61.1515C132.085 60.2914 135.3 59.4361 138.509 58.5622L137.688 57.9371C137.684 66.096 137.789 74.2548 137.869 82.4132C137.891 84.7529 137.913 87.0924 137.933 89.4319L138.409 88.8061C134.876 89.6884 131.364 90.6475 127.836 91.5515C127.18 91.7197 126.522 91.8879 125.862 92.0413L126.661 92.4946C125.476 89.3803 124.833 86.0406 124.15 82.7897C123.252 78.5095 122.441 74.2116 121.536 69.9333C121.039 67.5863 120.516 65.2442 119.92 62.9202L119.467 63.7187C122.575 62.7771 125.735 61.9911 128.872 61.1515C129.678 60.9351 129.336 59.6836 128.527 59.9003C125.389 60.7401 122.23 61.5251 119.122 62.4669C118.957 62.5154 118.818 62.6257 118.734 62.7746C118.649 62.9235 118.626 63.0995 118.668 63.2654C119.75 67.4849 120.606 71.7621 121.46 76.0322C122.262 80.0399 123.024 84.0618 123.996 88.0327C124.368 89.6622 124.839 91.2673 125.409 92.8387C125.458 93.0021 125.569 93.1401 125.718 93.2244C125.866 93.3088 126.041 93.333 126.207 93.292C129.448 92.5406 132.654 91.6288 135.874 90.793C136.833 90.5438 137.793 90.2984 138.754 90.0568C138.891 90.0176 139.01 89.9356 139.096 89.8228C139.182 89.71 139.229 89.5726 139.231 89.4309C139.163 81.0397 139.053 72.6484 139.005 64.2569C138.993 62.1502 138.986 60.0433 138.986 57.936C138.984 57.8365 138.96 57.7386 138.916 57.6498C138.871 57.5609 138.806 57.4834 138.727 57.4231C138.648 57.3628 138.556 57.3213 138.459 57.3018C138.361 57.2823 138.26 57.2852 138.164 57.3104C134.955 58.1843 131.74 59.0401 128.527 59.9003C127.721 60.1161 128.063 61.3682 128.872 61.1515Z" fill="#7863FD"/>
<path d="M119.328 63.6483C118.509 63.8845 117.694 64.1313 116.882 64.3886C116.234 64.5631 115.601 64.791 114.991 65.07C114.892 65.126 114.81 65.2076 114.753 65.3062C114.697 65.4048 114.667 65.5168 114.669 65.6304C114.782 66.8254 114.958 68.0135 115.199 69.1895C115.535 71.0693 115.909 72.9427 116.297 74.8125C117.143 78.8909 118.039 82.9663 119.107 86.9927C119.469 88.3578 119.808 89.776 120.398 91.0656C120.47 91.1885 120.582 91.2841 120.714 91.3379C120.846 91.3916 120.993 91.4005 121.131 91.3632C122.469 91.0164 123.849 90.8398 125.175 90.447C125.974 90.2101 125.635 88.9567 124.83 89.195C123.504 89.588 122.125 89.7646 120.785 90.1114L121.518 90.4089C121.506 90.3691 121.489 90.3307 121.468 90.2945C121.584 90.4419 121.502 90.3802 121.47 90.2945C121.427 90.1863 121.386 90.0781 121.346 89.9672C121.253 89.71 121.168 89.45 121.085 89.1893C120.873 88.5196 120.683 87.8431 120.499 87.1655C120 85.3281 119.552 83.4769 119.121 81.623C118.186 77.6058 117.32 73.5689 116.572 69.5124C116.423 68.701 116.278 67.886 116.151 67.0697C116.125 66.9031 116.1 66.7363 116.075 66.5693C116.065 66.4998 116.056 66.43 116.046 66.3605C116.028 66.2355 116.063 66.5019 116.038 66.3031C116.011 66.0778 115.984 65.8528 115.968 65.6269L115.646 66.1874C115.684 66.164 115.724 66.1452 115.766 66.1314C115.598 66.1671 115.735 66.1449 115.781 66.1278C115.917 66.0789 116.05 66.0283 116.185 65.9812C116.559 65.8509 116.936 65.7294 117.314 65.6099C118.097 65.3617 118.884 65.1241 119.673 64.8969C120.475 64.6656 120.133 63.4125 119.328 63.6448L119.328 63.6483Z" fill="#7863FD"/>
<path d="M68.9191 98.679C69.3756 97.6132 69.9751 96.6145 70.7011 95.7104C71.3559 94.9033 72.1368 93.9212 73.1606 93.5844C73.6186 93.4314 74.107 93.3916 74.5838 93.4685C75.0606 93.5454 75.5116 93.7366 75.8984 94.0259C76.2226 94.3074 76.4811 94.6565 76.6557 95.0488C76.8303 95.441 76.9167 95.8668 76.9089 96.296C76.9162 96.6448 76.8603 96.992 76.7439 97.3209C76.7345 97.348 76.6725 97.5046 76.6977 97.4437C76.7182 97.3934 76.6514 97.5473 76.6347 97.5835C76.5592 97.7458 76.4778 97.9081 76.3934 98.0661C76.005 98.7855 75.5697 99.4785 75.0902 100.141C74.6254 100.806 74.1042 101.431 73.5322 102.007C73.4083 102.129 73.2801 102.245 73.1489 102.359C73.1249 102.38 73.0997 102.4 73.0748 102.42C72.9918 102.487 73.1435 102.37 73.0613 102.431C73.0007 102.476 72.939 102.519 72.8752 102.559C72.4811 102.798 72.0297 102.926 71.5688 102.93C71.0973 102.937 70.6318 102.823 70.2166 102.599C69.8015 102.376 69.4504 102.049 69.1969 101.652C68.9046 101.189 68.7322 100.661 68.6951 100.115C68.6581 99.5684 68.7575 99.0216 68.9846 98.5235C69.0292 98.3575 69.0066 98.1807 68.9216 98.0313C68.8367 97.8818 68.6964 97.7719 68.531 97.7253C68.3651 97.6837 68.1896 97.7076 68.041 97.7921C67.8923 97.8765 67.7818 98.0149 67.7325 98.1786C67.4871 98.7635 67.3684 99.3937 67.3842 100.028C67.4 100.662 67.55 101.285 67.8242 101.857C68.318 102.868 69.1864 103.646 70.2448 104.026C70.8108 104.222 71.4145 104.284 72.0085 104.208C72.6026 104.131 73.171 103.919 73.6694 103.587C74.385 103.04 75.0193 102.395 75.5533 101.671C76.1787 100.883 76.7481 100.052 77.2573 99.184C77.7009 98.5054 78.0076 97.7468 78.1605 96.9506C78.245 96.3628 78.2115 95.7641 78.0618 95.1894C77.9121 94.6148 77.6493 94.0757 77.2887 93.6039C76.8954 93.1303 76.3998 92.7519 75.8392 92.4973C75.2786 92.2428 74.6676 92.1186 74.0521 92.1341C72.4933 92.1555 71.3226 93.0554 70.3194 94.1665C69.2751 95.3065 68.4235 96.609 67.798 98.0228C67.7166 98.1727 67.6953 98.348 67.7386 98.513C67.7818 98.6781 67.8864 98.8204 68.0308 98.9111C68.1797 98.9969 68.3563 99.0206 68.5226 98.9772C68.6888 98.9338 68.8313 98.8266 68.9191 98.679Z" fill="#7863FD"/>
<path d="M75.9266 102.146C76.288 101.092 76.7908 100.093 77.4213 99.1743C77.9787 98.355 78.6485 97.3853 79.5957 96.9901C80.0015 96.8035 80.4476 96.7217 80.8932 96.7523C81.3387 96.7828 81.7695 96.9247 82.146 97.165C82.5226 97.4052 82.8328 97.7361 83.0482 98.1273C83.2637 98.5185 83.3775 98.9576 83.3792 99.4042C83.4009 99.7187 83.3678 100.035 83.2813 100.338C83.2009 100.602 83.1044 100.861 82.9924 101.113C82.6602 101.854 82.2799 102.573 81.854 103.265C81.465 103.932 81.0158 104.562 80.5121 105.147C80.4147 105.255 80.3144 105.362 80.2092 105.463C80.1578 105.513 80.105 105.56 80.0517 105.607C80.0247 105.633 79.9936 105.657 79.9638 105.681C80.0428 105.618 79.976 105.673 79.9327 105.7C79.3724 106.07 78.6914 106.211 78.0301 106.095C77.3689 105.978 76.7776 105.612 76.378 105.072C76.0678 104.659 75.8643 104.176 75.7855 103.666C75.7068 103.155 75.7552 102.633 75.9266 102.146C76.1795 101.348 74.9258 101.006 74.6745 101.801C74.4803 102.38 74.4087 102.993 74.4643 103.6C74.5199 104.208 74.7013 104.798 74.9972 105.332C75.54 106.28 76.4266 106.983 77.4735 107.296C78.0473 107.455 78.6503 107.478 79.2345 107.363C79.8187 107.248 80.368 106.998 80.8386 106.633C81.4889 106.063 82.0494 105.398 82.5012 104.661C83.0337 103.872 83.5084 103.045 83.9215 102.187C84.3124 101.473 84.5674 100.693 84.6735 99.8859C84.714 99.3079 84.6388 98.7277 84.4523 98.1792C84.2659 97.6306 83.9719 97.1248 83.5875 96.6912C83.1654 96.251 82.647 95.9147 82.0731 95.7086C81.4991 95.5025 80.8852 95.4323 80.2795 95.5035C79.563 95.5721 78.8779 95.8313 78.2955 96.2541C77.7169 96.714 77.2063 97.2535 76.7789 97.8565C75.8676 99.0482 75.1565 100.38 74.6737 101.801C74.4057 102.593 75.6593 102.935 75.9266 102.146Z" fill="#7863FD"/>
<path d="M81.9106 106.906C82.0362 106.272 82.2382 105.655 82.5121 105.069C82.7653 104.455 83.1155 103.885 83.5494 103.382C84.3879 102.492 86.0287 102.45 86.687 103.564C87.3454 104.679 87.1228 105.8 86.7206 106.927C86.3148 108.061 85.6789 109.497 84.3338 109.674C83.9997 109.708 83.6623 109.663 83.3489 109.543C83.0354 109.422 82.7546 109.23 82.5292 108.981C82.2729 108.706 82.0836 108.376 81.976 108.016C81.8685 107.656 81.8456 107.277 81.9092 106.906C81.9497 106.741 81.9254 106.566 81.8411 106.417C81.7568 106.269 81.619 106.158 81.4559 106.108C81.2899 106.063 81.113 106.086 80.9636 106.171C80.8141 106.256 80.7041 106.396 80.6571 106.561C80.5046 107.506 80.6085 108.593 81.1897 109.388C81.6913 110.126 82.4436 110.656 83.3068 110.881C83.7856 110.997 84.2841 111.006 84.7667 110.907C85.2493 110.808 85.7041 110.604 86.0985 110.308C86.7303 109.768 87.2248 109.086 87.5412 108.317C88.2361 106.836 88.7359 105.155 88.1144 103.56C87.9733 103.137 87.744 102.748 87.4415 102.42C87.1391 102.091 86.7705 101.831 86.36 101.656C85.9106 101.486 85.4315 101.409 84.9516 101.43C84.4716 101.451 84.0008 101.568 83.5675 101.775C82.6855 102.188 82.0986 103.042 81.6544 103.877C81.1903 104.717 80.8541 105.622 80.6571 106.561C80.616 106.727 80.6402 106.903 80.7246 107.051C80.809 107.2 80.9472 107.31 81.1107 107.36C81.2769 107.404 81.4539 107.382 81.6036 107.297C81.7532 107.212 81.8635 107.072 81.9106 106.906Z" fill="#7863FD"/>
<path d="M62.3499 96.8464C62.1812 96.295 62.1855 95.7051 62.3621 95.1562C62.5071 94.6341 62.7037 94.2463 63.1817 94.0299C64.0572 93.6336 65.2952 93.9601 66.0664 94.5498C66.9814 95.2492 68.0095 96.2857 67.7796 97.5467C67.7348 97.7991 67.6431 98.0409 67.5091 98.2594C67.4214 98.419 67.29 98.5503 67.1305 98.6381C66.6305 98.8588 66.0892 98.9705 65.5427 98.9659C64.9124 99.0038 64.2865 98.838 63.7575 98.4931C63.1288 98.1043 62.6371 97.5289 62.351 96.8472C62.3009 96.6841 62.1903 96.5462 62.0419 96.4619C61.8934 96.3775 61.7184 96.3531 61.5525 96.3936C61.3872 96.4404 61.2469 96.5505 61.162 96.7C61.0772 96.8495 61.0546 97.0264 61.0992 97.1924C61.7535 98.8242 63.2417 100.112 65.0337 100.254C65.8095 100.318 66.59 100.218 67.3247 99.9608C67.67 99.8385 67.9847 99.6428 68.2471 99.3871C68.5095 99.1314 68.7133 98.8219 68.8445 98.4799C69.0261 98.0285 69.1115 97.5443 69.0953 97.058C69.0791 96.5718 68.9616 96.0943 68.7504 95.656C68.3995 94.9906 67.9182 94.4026 67.3352 93.9271C66.1911 92.8993 64.5909 92.265 63.0483 92.7053C62.6222 92.8296 62.233 93.056 61.9143 93.3649C61.5956 93.6738 61.3571 94.0558 61.2196 94.4778C60.8735 95.343 60.8311 96.3 61.0992 97.1924C61.1488 97.3559 61.2593 97.4942 61.4079 97.5786C61.5565 97.6629 61.7319 97.687 61.8977 97.6457C62.0628 97.5984 62.2028 97.4882 62.2874 97.3386C62.372 97.1891 62.3945 97.0123 62.3499 96.8464Z" fill="#7863FD"/>
<path d="M100.525 92.128L100.506 92.1131L100.637 92.2145C100.485 92.0947 100.349 91.9563 100.231 91.8026L100.333 91.934C100.124 91.6553 99.951 91.3511 99.8189 91.0287L99.8844 91.1837C99.8226 91.0363 99.7685 90.8858 99.7221 90.7328C99.6746 90.5709 99.5685 90.4326 99.4245 90.3447C99.3131 90.2795 99.1847 90.249 99.0558 90.2572C98.9269 90.2653 98.8034 90.3117 98.701 90.3904C98.5987 90.4692 98.5221 90.5766 98.4812 90.6991C98.4402 90.8216 98.4367 90.9535 98.4711 91.078C98.5802 91.4368 98.7258 91.7836 98.9055 92.1128C99.0268 92.3303 99.1663 92.537 99.3226 92.7309C99.4819 92.927 99.6665 93.1013 99.8714 93.2491C99.9462 93.2927 100.029 93.3209 100.115 93.3321C100.201 93.3433 100.288 93.3372 100.372 93.3143C100.454 93.2917 100.531 93.253 100.598 93.2007C100.665 93.1483 100.721 93.0831 100.764 93.009C100.806 92.9348 100.833 92.8531 100.843 92.7685C100.854 92.6839 100.848 92.598 100.825 92.5158L100.759 92.3609C100.703 92.2645 100.623 92.1843 100.526 92.128H100.525Z" fill="#7863FD"/>
</g>
<defs>
<filter id="filter0_d_4809_18124" x="0.0220947" y="0" width="179.289" height="179.289" filterUnits="userSpaceOnUse" color-interpolation-filters="sRGB">
<feFlood flood-opacity="0" result="BackgroundImageFix"/>
<feColorMatrix in="SourceAlpha" type="matrix" values="0 0 0 0 0 0 0 0 0 0 0 0 0 0 0 0 0 0 127 0" result="hardAlpha"/>
<feMorphology radius="2" operator="dilate" in="SourceAlpha" result="effect1_dropShadow_4809_18124"/>
<feOffset dy="4"/>
<feGaussianBlur stdDeviation="14.5"/>
<feComposite in2="hardAlpha" operator="out"/>
<feColorMatrix type="matrix" values="0 0 0 0 0 0 0 0 0 0 0 0 0 0 0 0 0 0 0.11 0"/>
<feBlend mode="normal" in2="BackgroundImageFix" result="effect1_dropShadow_4809_18124"/>
<feBlend mode="normal" in="SourceGraphic" in2="effect1_dropShadow_4809_18124" result="shape"/>
</filter>
<clipPath id="clip0_4809_18124">
<rect width="99.8851" height="56.7529" fill="white" transform="translate(39.3458 57.2686)"/>
</clipPath>
</defs>
</svg>
