<svg width="180" height="180" viewBox="0 0 180 180" fill="none" xmlns="http://www.w3.org/2000/svg">
<g filter="url(#filter0_d_4809_18107)">
<circle cx="90.3333" cy="85.6446" r="58.6446" fill="#7863FD"/>
</g>
<path d="M89.3462 85.1655C93.4436 85.1655 97.3733 83.5378 100.271 80.6405C103.168 77.7431 104.796 73.8135 104.796 69.7161C104.796 65.6186 103.168 61.689 100.271 58.7916C97.3733 55.8943 93.4436 54.2666 89.3462 54.2666C85.2487 54.2666 81.3191 55.8943 78.4218 58.7916C75.5244 61.689 73.8967 65.6186 73.8967 69.7161C73.8967 73.8135 75.5244 77.7431 78.4218 80.6405C81.3191 83.5378 85.2487 85.1655 89.3462 85.1655ZM118.723 119.927C116.727 113.705 112.806 108.277 107.526 104.426C102.247 100.576 95.8808 98.501 89.3462 98.501C82.8115 98.501 76.4456 100.576 71.166 104.426C65.8863 108.277 61.9656 113.705 59.969 119.927H118.723Z" fill="white" stroke="white" stroke-width="1.51341" stroke-linecap="round" stroke-linejoin="round"/>
<circle cx="115.017" cy="110.085" r="11.2252" fill="white" stroke="#7863FD" stroke-width="1.58208"/>
<path d="M120.181 106.036L113.655 113.155L110.689 109.919" stroke="#7863FD" stroke-width="1.81609" stroke-linecap="round" stroke-linejoin="round"/>
<defs>
<filter id="filter0_d_4809_18107" x="0.68869" y="0" width="179.289" height="179.289" filterUnits="userSpaceOnUse" color-interpolation-filters="sRGB">
<feFlood flood-opacity="0" result="BackgroundImageFix"/>
<feColorMatrix in="SourceAlpha" type="matrix" values="0 0 0 0 0 0 0 0 0 0 0 0 0 0 0 0 0 0 127 0" result="hardAlpha"/>
<feMorphology radius="2" operator="dilate" in="SourceAlpha" result="effect1_dropShadow_4809_18107"/>
<feOffset dy="4"/>
<feGaussianBlur stdDeviation="14.5"/>
<feComposite in2="hardAlpha" operator="out"/>
<feColorMatrix type="matrix" values="0 0 0 0 0 0 0 0 0 0 0 0 0 0 0 0 0 0 0.11 0"/>
<feBlend mode="normal" in2="BackgroundImageFix" result="effect1_dropShadow_4809_18107"/>
<feBlend mode="normal" in="SourceGraphic" in2="effect1_dropShadow_4809_18107" result="shape"/>
</filter>
</defs>
</svg>
